<?xml version="1.0" encoding="utf-8"?>
<!-- Generator: Adobe Illustrator 16.0.4, SVG Export Plug-In . SVG Version: 6.00 Build 0)  -->
<!DOCTYPE svg PUBLIC "-//W3C//DTD SVG 1.1//EN" "http://www.w3.org/Graphics/SVG/1.1/DTD/svg11.dtd">
<svg version="1.1" id="Calque_1" xmlns="http://www.w3.org/2000/svg" xmlns:xlink="http://www.w3.org/1999/xlink" x="0px" y="0px"
	 width="317.48px" height="425.2px" viewBox="0 0 317.48 425.2" enable-background="new 0 0 317.48 425.2" xml:space="preserve">
<g>
	<g>
		<path fill="#3C4047" d="M50.58,353.331l-2.725,8.959h-5.953l10.129-31.611h7.359l10.273,31.611h-6.189l-2.861-8.959H50.58z
			 M59.627,348.972l-2.484-7.785c-0.609-1.924-1.125-4.078-1.596-5.908h-0.094c-0.469,1.83-0.936,4.031-1.5,5.908l-2.438,7.785
			H59.627z"/>
		<path fill="#3C4047" d="M101.457,349.394c-0.188-4.078-0.422-8.957-0.373-13.27h-0.141c-1.033,3.844-2.348,8.109-3.752,12.096
			l-4.645,13.693h-4.408l-4.221-13.506c-1.217-4.033-2.342-8.348-3.186-12.283h-0.098c-0.139,4.125-0.328,9.141-0.561,13.459
			l-0.707,12.707h-5.389l2.109-31.611h7.6l4.123,12.711c1.127,3.703,2.111,7.459,2.91,10.975h0.139
			c0.844-3.424,1.924-7.316,3.145-11.018l4.355-12.668h7.508l1.828,31.611h-5.629L101.457,349.394z"/>
		<path fill="#3C4047" d="M114.26,331.104c2.113-0.375,4.971-0.656,8.816-0.656c4.223,0,7.268,0.891,9.287,2.58
			c1.877,1.549,3.094,4.031,3.094,6.984c0,3.002-0.934,5.441-2.67,7.129c-2.348,2.301-5.91,3.426-9.992,3.426
			c-1.078,0-2.014-0.049-2.812-0.238v11.961h-5.723V331.104z M119.982,345.78c0.746,0.236,1.643,0.281,2.812,0.281
			c4.316,0,6.941-2.152,6.941-5.812c0-3.471-2.438-5.348-6.426-5.348c-1.594,0-2.719,0.141-3.328,0.281V345.78z"/>
		<path fill="#3C4047" d="M154.119,362.804c-8.955,0-14.582-6.846-14.582-16.084c0-9.66,6.143-16.553,15.055-16.553
			c9.189,0,14.631,6.986,14.631,15.99c0,10.598-6.428,16.646-15.053,16.646H154.119z M154.402,358.161
			c5.584,0,8.725-5.158,8.725-11.771c0-5.953-2.955-11.582-8.725-11.582c-5.766,0-8.77,5.486-8.77,11.771
			c0,6.283,3.191,11.582,8.723,11.582H154.402z"/>
		<path fill="#3C4047" d="M180.615,330.679v18.434c0,6.188,2.582,9.049,6.475,9.049c4.17,0,6.656-2.861,6.656-9.049v-18.434h5.771
			v18.059c0,9.756-5.018,14.066-12.615,14.066c-7.316,0-12.051-4.078-12.051-14.021v-18.104H180.615z"/>
		<path fill="#3C4047" d="M206.83,330.679h5.77v26.779h12.992v4.832H206.83V330.679z"/>
		<path fill="#3C4047" d="M248.338,348.267h-11.914v9.285h13.318v4.738h-19.086v-31.611h18.381v4.738h-12.613v8.16h11.914V348.267z"
			/>
		<path fill="#3C4047" d="M255.418,356.003c1.826,1.084,4.686,2.018,7.645,2.018c3.654,0,5.721-1.736,5.721-4.312
			c0-2.395-1.594-3.801-5.582-5.252c-5.252-1.83-8.58-4.645-8.58-9.146c0-5.205,4.312-9.1,11.205-9.1
			c3.422,0,5.91,0.752,7.549,1.551l-1.357,4.689c-1.172-0.609-3.373-1.504-6.332-1.504c-3.66,0-5.203,1.924-5.203,3.801
			c0,2.439,1.824,3.566,6.047,5.162c5.488,2.107,8.115,4.873,8.115,9.377c0,5.111-3.848,9.473-11.959,9.473
			c-3.379,0-6.846-0.939-8.582-1.971L255.418,356.003z"/>
	</g>
	<g>
		<path fill="#3C4047" d="M88.141,413.128v-31.611h6.611l8.158,13.555c2.064,3.518,3.939,7.176,5.396,10.598l0.092-0.047
			c-0.424-4.174-0.516-8.254-0.516-13.084v-11.021h5.346v31.611h-6l-8.254-13.93c-2.021-3.467-4.082-7.314-5.629-10.879
			l-0.186,0.047c0.232,4.078,0.326,8.252,0.326,13.459v11.303H88.141z"/>
		<path fill="#3C4047" d="M138.27,399.104h-11.908v9.285h13.316v4.738h-19.086v-31.611h18.383v4.738h-12.613v8.158h11.908V399.104z
			 M137.473,374.204l-5.859,5.625h-4.646l4.131-5.625H137.473z"/>
		<path fill="#3C4047" d="M158.387,413.642c-8.953,0-14.582-6.846-14.582-16.084c0-9.662,6.146-16.555,15.057-16.555
			c9.188,0,14.629,6.988,14.629,15.992c0,10.596-6.424,16.646-15.053,16.646H158.387z M158.668,408.999
			c5.584,0,8.727-5.158,8.727-11.771c0-5.955-2.955-11.582-8.727-11.582c-5.764,0-8.768,5.484-8.768,11.771
			c0,6.283,3.191,11.582,8.727,11.582H158.668z"/>
		<path fill="#3C4047" d="M179.117,413.128v-31.611h6.611l8.16,13.555c2.066,3.518,3.941,7.176,5.393,10.598l0.1-0.047
			c-0.426-4.174-0.521-8.254-0.521-13.084v-11.021h5.35v31.611h-6.004l-8.254-13.93c-2.018-3.467-4.08-7.314-5.627-10.879
			l-0.189,0.047c0.236,4.078,0.33,8.252,0.33,13.459v11.303H179.117z"/>
		<path fill="#3C4047" d="M211.477,406.841c1.826,1.082,4.688,2.018,7.643,2.018c3.658,0,5.723-1.736,5.723-4.314
			c0-2.391-1.594-3.799-5.584-5.252c-5.25-1.828-8.578-4.643-8.578-9.146c0-5.205,4.311-9.096,11.211-9.096
			c3.42,0,5.906,0.75,7.545,1.549l-1.359,4.688c-1.172-0.607-3.373-1.5-6.326-1.5c-3.66,0-5.207,1.922-5.207,3.799
			c0,2.439,1.828,3.564,6.049,5.16c5.484,2.111,8.111,4.873,8.111,9.377c0,5.111-3.842,9.475-11.959,9.475
			c-3.375,0-6.848-0.941-8.58-1.973L211.477,406.841z"/>
	</g>
	<g>
		<g>
			<path fill="#FFFFFF" d="M309.045,304.298c0,2.668-2.168,4.834-4.861,4.834H13.33c-2.723,0-4.879-2.166-4.879-4.834V13.373
				c0-2.651,2.156-4.835,4.879-4.835h290.854c2.693,0,4.861,2.184,4.861,4.835V304.298z"/>
			<path fill="#3C4047" d="M304.184,310.581H13.33c-3.492,0-6.33-2.818-6.33-6.283V13.373c0-3.467,2.838-6.285,6.33-6.285h290.854
				c3.479,0,6.311,2.818,6.311,6.285v290.925C310.494,307.763,307.662,310.581,304.184,310.581z M13.33,9.985
				c-1.893,0-3.43,1.52-3.43,3.388v290.925c0,1.865,1.537,3.387,3.43,3.387h290.854c1.879,0,3.41-1.521,3.41-3.387V13.373
				c0-1.868-1.531-3.388-3.41-3.388H13.33z"/>
		</g>
		<g id="xIIDXN_2_">
			<g>
				<path fill-rule="evenodd" clip-rule="evenodd" fill="#3C4047" d="M34.967,248.048c82.893,0,165.322,0,248.086,0
					c0,2.635,0,5.139,0,7.965c1.469,0.119,2.604,0.158,3.727,0.305c3.25,0.408,5.377,2.594,5.271,5.373
					c-0.113,2.812-2.387,4.865-5.602,5.041c-0.426,0.041-0.951-0.131-1.268,0.057c-0.688,0.395-1.312,0.975-1.967,1.471
					c0.607,0.611,1.074,1.527,1.818,1.732c1.178,0.379,2.959-0.145,3.67,0.57c1.43,1.354,2.939,3.215,3.174,5.035
					c0.32,2.359-1.559,4.049-4.018,4.645c-1.49,0.367-3.596,0.131-4.328,1.051c-0.785,1.035-0.316,3.041-0.391,4.658
					c-0.045,0.525-0.117,1.02-0.201,2.012c-1.195,0-2.318,0-3.438,0c-80.436,0-160.84-0.016-241.258,0.057
					c-2.971,0-4.137-0.83-3.73-3.742c0.424-2.939,0.016-4.836-3.844-4.541c-3.129,0.201-5.182-2.098-5.242-4.896
					c-0.057-2.822,2.182-4.992,5.373-5.197c1.062-0.043,2.111,0,3.523,0c0.076-1.15,0.102-2.125,0.189-3.293
					c-1.807-0.1-3.32,0-4.732-0.289c-2.59-0.523-4.264-2.154-4.293-4.848c-0.029-2.664,1.396-4.428,4.062-5.041
					c1.57-0.363,3.9-0.086,4.645-1.029c0.855-1.094,0.275-3.264,0.395-4.949C34.6,249.446,34.82,248.763,34.967,248.048z
					 M63.68,281.206c1.484,0,2.723,0,3.975,0c30.17,0,60.326,0,90.469,0c30.895,0,61.768-0.045,92.707,0.07
					c2.984,0,3.844-0.875,3.727-3.799c-0.213-6.438-0.191-12.857,0-19.252c0.117-2.752-0.637-3.684-3.504-3.684
					c-61.395,0.1-122.779,0.086-184.152,0.1c-1.006,0-2.055,0.104-3.221,0.178C63.68,263.655,63.68,272.249,63.68,281.206z
					 M276.441,254.628c-3.232,0-5.98,0.117-8.75-0.014c-2.195-0.131-3.012,0.686-2.955,2.914c0.131,4.992-0.057,10.018,0.072,15.014
					c0.236,10.629-2.172,8.385,9.291,8.633c0.205,0,0.506,0.072,0.641-0.029c0.576-0.566,1.629-1.164,1.658-1.764
					C276.5,271.29,276.441,263.222,276.441,254.628z M53.035,268.04L53.035,268.04c0-1.602,0-3.189,0-4.807
					c0-8.936,0.031-8.896-8.998-8.635c-2.039,0.061-2.855,0.674-2.822,2.77c0.113,5.021-0.076,10.031,0.07,15.043
					c0.232,10.6-2.201,8.543,9.191,8.795c0.113,0,0.26,0.025,0.316-0.031c0.744-0.742,2.082-1.473,2.127-2.256
					C53.152,275.276,53.035,271.667,53.035,268.04z"/>
				<path fill-rule="evenodd" clip-rule="evenodd" fill="#3C4047" d="M181.271,202.136c0.16,0.886,0.379,1.6,0.48,2.328
					c0.525,3.859-1.865,6.553-5.721,6.235c-11.502-0.994-23.008-1.925-34.465-3.208c-1.805-0.172-4.123-1.598-4.996-3.142
					c-1.049-1.806-2.078-3.178-3.754-4.37c-3.393-2.416-5.227-5.853-5.346-10.09c-0.055-2.055-0.016-4.064-0.016-6.088
					c0.016-3.348,0.422-6.35-3.436-8.738c-2.08-1.293-3.336-5.258-3.537-8.124c-0.484-7.237-0.393-14.548-0.074-21.799
					c0.189-4.673,2.139-8.648,7.092-10.44c0.801-0.277,1.619-1.441,1.822-2.315c0.447-1.732,0.609-3.583,0.623-5.375
					c0.031-16.366,0.031-32.734,0.031-49.087c0-7.629,5.355-13.146,12.725-13.121c7.324,0,12.627,5.461,12.652,13.164
					c0.016,13.605-0.025,27.174,0.076,40.744c0.014,1.867,0.463,3.859,1.236,5.508c1.092,2.256,3.35,2.299,4.441,0.1
					c0.916-1.833,1.352-4.049,1.383-6.131c0.115-13.367,0-26.734,0.088-40.117c0.027-7.267,4.516-12.51,10.904-13.164
					c8.332-0.83,14.518,4.732,14.545,13.223c0.074,16.369,0.035,32.705,0.049,49.072c0,1.383,0,2.797,0.154,4.15
					c0.236,1.76,0.92,2.941,2.9,3.728c4.793,1.907,6.33,6.234,6.496,10.893c0.275,6.728,0.275,13.47,0,20.198
					c-0.135,4.423-1.676,8.33-5.832,10.787c-0.695,0.41-1.217,1.631-1.277,2.521c-0.188,2.021-0.086,4.061,0.029,6.104
					C190.971,193.048,188.904,199.136,181.271,202.136z M159.064,170.856c8.9,0,17.754,0,26.646,0c3.947,0,5.158-1.02,5.26-5.025
					c0.102-6.521,0.102-13.061-0.045-19.584c-0.057-2.49-0.715-4.732-3.889-5.432c-1.248-0.291-2.793-1.631-3.258-2.824
					c-1.08-3.059-2.305-6.277-2.348-9.451c-0.219-16.25-0.104-32.517-0.104-48.768c0-1.148,0.018-2.375-0.203-3.522
					c-0.67-2.985-2.979-4.821-5.98-4.821c-2.887-0.029-5.158,1.894-5.754,5.009c-0.264,1.341-0.307,2.754-0.316,4.137
					c0,12.741,0,25.454,0,38.166c0,1.501-0.076,3.03-0.309,4.485c-0.801,5.111-5.025,9.232-9.525,9.435
					c-4.482,0.19-8.793-3.538-9.986-8.806c-0.422-1.939-0.566-4.008-0.566-6.014c-0.062-13.051-0.062-26.082-0.031-39.158
					c0.031-3.133-0.785-5.769-4.033-6.889c-4.281-1.456-7.924,1.441-7.924,6.392c-0.041,16.252,0,32.487-0.041,48.739
					c-0.012,2.344-0.219,4.732-0.711,7.003c-0.674,3.101-1.98,6.117-5.377,6.976c-2.342,0.611-3.361,2.096-3.408,4.035
					c-0.143,7.367-0.143,14.748-0.025,22.104c0.057,2.823,1.672,3.945,4.672,3.87C140.883,170.739,149.969,170.856,159.064,170.856z
					 M158.934,177.585c-7.264,0-14.514,0.057-21.748-0.031c-1.854-0.029-2.844,0.454-2.783,2.475
					c0.09,3.191-0.074,6.421,0.117,9.613c0.215,3.64,2.371,5.662,5.982,5.68c12.277,0.027,24.549,0.027,36.811,0
					c3.84-0.018,5.883-2.127,5.998-5.984c0.074-2.988-0.145-5.986,0.031-8.957c0.176-2.402-0.844-2.855-2.953-2.826
					C173.234,177.655,166.088,177.597,158.934,177.585z"/>
				<path fill-rule="evenodd" clip-rule="evenodd" fill="#3C4047" d="M143.578,222.698c11.355,1.061,22.291,2.109,33.268,3.113
					c2.342,0.203,4.08,1.283,4.793,3.582c1.061,3.381-1.25,6.713-4.867,6.582c-2.389-0.1-3.855,0.713-5.502,2.305
					c-5.869,5.648-19.031,5.488-24.9-0.107c-0.549-0.521-1.191-1.061-1.412-1.729c-0.783-2.492-2.17-3.643-5.01-3.814
					c-2.547-0.178-3.988-2.363-4.076-4.998c-0.1-2.432,2.066-4.658,4.604-4.908C141.639,222.636,142.803,222.698,143.578,222.698z"
					/>
				<path fill-rule="evenodd" clip-rule="evenodd" fill="#3C4047" d="M174.588,223.28c-11.387-1.049-22.408-2.055-33.443-3.176
					c-3.426-0.338-5.637-2.871-5.287-5.594c0.352-2.867,2.822-4.775,6.291-4.484c11.676,0.964,23.324,2.041,35.018,3.176
					c3.057,0.304,4.834,2.475,4.648,5.402c-0.164,2.957-2.086,4.631-5.32,4.676C175.738,223.292,175,223.28,174.588,223.28z"/>
				<path fill-rule="evenodd" clip-rule="evenodd" fill="#3C4047" d="M227.617,113.222c7.955,0,15.408,0,23.33,0
					c0,3.059,0.105,6.028-0.117,8.928c0,0.523-1.27,1.367-1.951,1.396c-6.424,0.102-12.812,0.102-19.217-0.029
					c-0.699-0.016-1.898-1.078-1.938-1.732C227.471,119.046,227.617,116.28,227.617,113.222z"/>
				<path fill-rule="evenodd" clip-rule="evenodd" fill="#3C4047" d="M67.201,123.576c0-3.583,0-6.743,0-10.442
					c1.514,0,2.957,0,4.383,0c5.037,0,10.035,0,15.074,0c0.738,0,1.703-0.307,2.213,0.074c2.766,2.036,0.889,5.053,1.234,7.6
					c0.104,0.831-1.031,2.621-1.658,2.637C81.428,123.647,74.426,123.576,67.201,123.576z"/>
				<path fill-rule="evenodd" clip-rule="evenodd" fill="#3C4047" d="M223.033,65.519c1.85,1.92,4.162,4.221,6.338,6.406
					c-5.406,5.344-10.793,10.66-16.357,16.149c-1.705-2.111-3.785-4.646-5.854-7.151C212.012,76.222,217.473,70.904,223.033,65.519z
					"/>
				<path fill-rule="evenodd" clip-rule="evenodd" fill="#3C4047" d="M229.645,164.783c-2.316,2.214-4.572,4.414-6.67,6.437
					c-5.328-5.342-10.713-10.674-16.264-16.178c2.125-1.964,4.512-4.162,6.857-6.32
					C218.725,153.876,224.037,159.206,229.645,164.783z"/>
				<path fill-rule="evenodd" clip-rule="evenodd" fill="#3C4047" d="M153.928,53.082c0-7.951,0-15.479,0-23.386
					c2.865,0,5.637-0.131,8.332,0.086c0.633,0.06,1.641,1.295,1.654,2.025c0.162,6.404,0.162,12.799,0,19.191
					c-0.014,0.728-1.219,1.908-1.994,1.994C159.418,53.256,156.871,53.082,153.928,53.082z"/>
				<path fill-rule="evenodd" clip-rule="evenodd" fill="#3C4047" d="M95.801,65.344c4.721,4.774,9.463,9.565,14.27,14.254
					c1.268,1.253,1.414,2.111,0.074,3.407c-1.848,1.764-3.48,3.715-5.242,5.549c-5.633-5.722-10.936-11.08-16.133-16.381
					C90.881,70.091,93.268,67.776,95.801,65.344z"/>
				<path fill-rule="evenodd" clip-rule="evenodd" fill="#3C4047" d="M88.537,164.333c5.152-5.07,10.51-10.34,16.133-15.83
					c2.035,2.201,4.25,4.545,6.494,6.932c-5.289,5.197-10.643,10.486-16.225,15.977C92.934,169.181,90.764,166.793,88.537,164.333z"
					/>
				<path fill-rule="evenodd" clip-rule="evenodd" fill="#3C4047" d="M143.646,147.98c0-2.259,0-4.224,0-6.626
					c4.777,0,9.422,0,14.084,0c4.48,0,8.98,0.16,13.436-0.042c2.695-0.131,3.746,0.713,3.279,3.406c-0.133,1.003,0,2.081,0,3.262
					C164.076,147.98,154.088,147.98,143.646,147.98z"/>
			</g>
		</g>
	</g>
</g>
</svg>
