<?xml version="1.0" encoding="utf-8"?>
<!-- Generator: Adobe Illustrator 16.0.4, SVG Export Plug-In . SVG Version: 6.00 Build 0)  -->
<!DOCTYPE svg PUBLIC "-//W3C//DTD SVG 1.1//EN" "http://www.w3.org/Graphics/SVG/1.1/DTD/svg11.dtd">
<svg version="1.1" id="Calque_1" xmlns="http://www.w3.org/2000/svg" xmlns:xlink="http://www.w3.org/1999/xlink" x="0px" y="0px" viewBox="0 0 317 317">
<g>
	<g>
		<g>
			<rect x="48.188" y="79.983" fill="#000" width="24.941" height="31.496"/>
			<rect x="92.296" y="92.433" fill="#000" width="30.391" height="8.111"/>
			<rect x="30.874" y="103.688" fill="#000" width="255.721" height="10.529"/>
			<rect x="35.415" y="112.223" fill="#000" width="10.035" height="125.468"/>
			<rect x="35.415" y="227.175" fill="#000" width="245.705" height="10.516"/>
			<rect x="272.603" y="112.223" fill="#000" width="10.045" height="125.468"/>
			<rect x="144.282" y="92.433" fill="#000" width="30.424" height="8.111"/>
			<rect x="195.991" y="92.433" fill="#000" width="30.404" height="8.111"/>
			<rect x="244.339" y="79.983" fill="#000" width="24.943" height="31.496"/>
			<path fill="#000" d="M162.472,146.154l-54.422,26.835l54.422,27.596l47.859-27.596L162.472,146.154z M162.077,192.212
				l-37.73-19.105l37.744-18.61l33.156,18.583L162.077,192.212z"/>
			<g>
				<path fill="#000" d="M88.698,177.753H77.456v11.229h-8.592v-11.229H57.565v-8.577h11.299v-11.243h8.592v11.243h11.242
					V177.753z"/>
			</g>
			<g>
				<path fill="#000" d="M253.964,177.126h-21.67v-8.505h21.67V177.126z"/>
			</g>
		</g>
	</g>
</g>
</svg>
