<?xml version="1.0" encoding="utf-8"?>
<!-- Generator: Adobe Illustrator 16.0.4, SVG Export Plug-In . SVG Version: 6.00 Build 0)  -->
<!DOCTYPE svg PUBLIC "-//W3C//DTD SVG 1.1//EN" "http://www.w3.org/Graphics/SVG/1.1/DTD/svg11.dtd">
<svg version="1.1" id="Calque_1" xmlns="http://www.w3.org/2000/svg" xmlns:xlink="http://www.w3.org/1999/xlink" x="0px" y="0px"
	 width="317.48px" height="425.2px" viewBox="0 0 317.48 425.2" enable-background="new 0 0 317.48 425.2" xml:space="preserve">
<g>
	<g>
		<path fill="#3C4047" d="M51.894,331.302c1.824-0.375,5.145-0.699,8.414-0.699c4.209,0,6.873,0.559,8.975,2.006
			c1.961,1.168,3.271,3.225,3.271,5.938c0,2.898-1.822,5.518-5.234,6.777v0.143c3.32,0.84,6.357,3.457,6.357,7.758
			c0,2.803-1.215,5-2.994,6.498c-2.242,1.961-5.934,2.943-11.729,2.943c-3.18,0-5.562-0.232-7.061-0.42V331.302z M57.599,343.733
			h2.943c4.021,0,6.217-1.871,6.217-4.533c0-2.994-2.242-4.346-5.887-4.346c-1.686,0-2.666,0.092-3.273,0.23V343.733z
			 M57.599,358.177c0.75,0.143,1.727,0.143,3.037,0.143c3.693,0,7.014-1.357,7.014-5.285c0-3.643-3.229-5.139-7.201-5.139h-2.85
			V358.177z"/>
		<path fill="#3C4047" d="M85.831,353.411l-2.711,8.928h-5.936l10.096-31.506h7.336l10.236,31.506h-6.166l-2.854-8.928H85.831z
			 M94.853,349.062l-2.48-7.76c-0.605-1.914-1.121-4.064-1.588-5.885H90.69c-0.467,1.82-0.93,4.014-1.494,5.885l-2.43,7.76H94.853z"
			/>
		<path fill="#3C4047" d="M112.194,335.646h-8.975v-4.812h23.793v4.812h-9.07v26.693h-5.748V335.646z"/>
		<path fill="#3C4047" d="M138.792,335.646h-8.977v-4.812h23.793v4.812h-9.066v26.693h-5.75V335.646z"/>
		<path fill="#3C4047" d="M175.626,348.36h-11.875v9.256h13.277v4.723h-19.025v-31.506h18.322v4.723h-12.574v8.131h11.875V348.36z"
			/>
		<path fill="#3C4047" d="M182.778,331.302c2.193-0.418,5.373-0.699,8.691-0.699c4.537,0,7.574,0.744,9.725,2.52
			c1.729,1.451,2.707,3.648,2.707,6.357c0,4.068-2.756,6.826-5.744,7.855v0.139c2.289,0.842,3.645,3.039,4.393,6.076
			c1.029,3.928,1.871,7.574,2.479,8.789h-5.893c-0.467-0.938-1.26-3.508-2.1-7.434c-0.938-4.113-2.387-5.422-5.656-5.514h-2.902
			v12.947h-5.699V331.302z M188.478,345.185h3.414c3.881,0,6.266-2.061,6.266-5.191c0-3.41-2.385-5.047-6.125-5.047
			c-1.826,0-2.992,0.139-3.555,0.281V345.185z"/>
		<path fill="#3C4047" d="M215.825,330.833v31.506h-5.748v-31.506H215.825z"/>
		<path fill="#3C4047" d="M240.737,348.36h-11.873v9.256h13.275v4.723h-19.023v-31.506h18.322v4.723h-12.574v8.131h11.873V348.36z"
			/>
		<path fill="#3C4047" d="M247.796,356.075c1.826,1.072,4.676,2.01,7.621,2.01c3.645,0,5.701-1.729,5.701-4.301
			c0-2.383-1.588-3.785-5.562-5.234c-5.232-1.824-8.553-4.627-8.553-9.119c0-5.188,4.301-9.066,11.17-9.066
			c3.416,0,5.891,0.748,7.523,1.543l-1.352,4.676c-1.172-0.605-3.367-1.498-6.312-1.498c-3.646,0-5.186,1.918-5.186,3.785
			c0,2.432,1.82,3.555,6.027,5.145c5.471,2.104,8.088,4.863,8.088,9.35c0,5.094-3.834,9.439-11.922,9.439
			c-3.361,0-6.82-0.932-8.549-1.961L247.796,356.075z"/>
	</g>
	<g>
		<g>
			<path fill="#FFFFFF" d="M309.05,304.28c0,2.682-2.17,4.863-4.834,4.863H13.271c-2.68,0-4.838-2.182-4.838-4.863V13.362
				c0-2.68,2.158-4.836,4.838-4.836h290.945c2.664,0,4.834,2.156,4.834,4.836V304.28z"/>
			<path fill="#3C4047" d="M304.216,310.583H13.271c-3.463,0-6.277-2.83-6.277-6.303V13.362c0-3.461,2.814-6.274,6.277-6.274
				h290.945c3.459,0,6.271,2.813,6.271,6.274V304.28C310.487,307.753,307.675,310.583,304.216,310.583z M13.271,9.966
				c-1.877,0-3.398,1.522-3.398,3.396V304.28c0,1.887,1.521,3.424,3.398,3.424h290.945c1.873,0,3.393-1.537,3.393-3.424V13.362
				c0-1.874-1.52-3.396-3.393-3.396H13.271z"/>
		</g>
		<g>
			<rect x="48.188" y="79.983" fill="#3C4047" width="24.941" height="31.496"/>
			<rect x="92.296" y="92.433" fill="#3C4047" width="30.391" height="8.111"/>
			<rect x="30.874" y="103.688" fill="#3C4047" width="255.721" height="10.529"/>
			<rect x="35.415" y="112.223" fill="#3C4047" width="10.035" height="125.468"/>
			<rect x="35.415" y="227.175" fill="#3C4047" width="245.705" height="10.516"/>
			<rect x="272.603" y="112.223" fill="#3C4047" width="10.045" height="125.468"/>
			<rect x="144.282" y="92.433" fill="#3C4047" width="30.424" height="8.111"/>
			<rect x="195.991" y="92.433" fill="#3C4047" width="30.404" height="8.111"/>
			<rect x="244.339" y="79.983" fill="#3C4047" width="24.943" height="31.496"/>
			<path fill="#3C4047" d="M162.472,146.154l-54.422,26.835l54.422,27.596l47.859-27.596L162.472,146.154z M162.077,192.212
				l-37.73-19.105l37.744-18.61l33.156,18.583L162.077,192.212z"/>
			<g>
				<path fill="#3C4047" d="M88.698,177.753H77.456v11.229h-8.592v-11.229H57.565v-8.577h11.299v-11.243h8.592v11.243h11.242
					V177.753z"/>
			</g>
			<g>
				<path fill="#3C4047" d="M253.964,177.126h-21.67v-8.505h21.67V177.126z"/>
			</g>
		</g>
	</g>
</g>
</svg>
