<?xml version="1.0" encoding="utf-8"?>
<!-- Generator: Adobe Illustrator 16.0.4, SVG Export Plug-In . SVG Version: 6.00 Build 0)  -->
<!DOCTYPE svg PUBLIC "-//W3C//DTD SVG 1.1//EN" "http://www.w3.org/Graphics/SVG/1.1/DTD/svg11.dtd">
<svg version="1.1" id="Calque_1" xmlns="http://www.w3.org/2000/svg" xmlns:xlink="http://www.w3.org/1999/xlink" x="0px" y="0px"
	 width="317.48px" height="425.2px" viewBox="0 0 317.48 425.2" enable-background="new 0 0 317.48 425.2" xml:space="preserve">
<g>
	<g>
		<path fill="#3C4047" d="M77.119,331.493c1.812-0.367,5.105-0.695,8.352-0.695c4.176,0,6.82,0.557,8.904,1.994
			c1.951,1.162,3.248,3.203,3.248,5.895c0,2.873-1.809,5.473-5.195,6.723v0.141c3.293,0.832,6.309,3.434,6.309,7.705
			c0,2.777-1.207,4.961-2.967,6.443c-2.229,1.947-5.895,2.922-11.643,2.922c-3.156,0-5.521-0.232-7.008-0.418V331.493z
			 M82.779,343.833h2.922c3.99,0,6.168-1.857,6.168-4.5c0-2.969-2.223-4.312-5.842-4.312c-1.67,0-2.643,0.094-3.248,0.23V343.833z
			 M82.779,358.165c0.744,0.143,1.717,0.143,3.018,0.143c3.664,0,6.957-1.348,6.957-5.244c0-3.613-3.201-5.104-7.145-5.104h-2.83
			V358.165z"/>
		<path fill="#3C4047" d="M110.238,331.032v31.264h-5.705v-31.264H110.238z"/>
		<path fill="#3C4047" d="M117.477,331.493c2.553-0.416,5.707-0.695,9.092-0.695c5.844,0,9.834,1.209,12.711,3.619
			c3.061,2.459,4.918,6.217,4.918,11.504c0,5.613-1.906,9.744-4.871,12.434c-3.109,2.828-8.074,4.266-14.15,4.266
			c-3.293,0-5.797-0.186-7.699-0.418V331.493z M123.184,357.979c0.783,0.141,1.992,0.141,3.152,0.141
			c7.42,0.045,11.826-4.082,11.826-12.016c0.049-6.861-3.939-10.854-11.084-10.854c-1.811,0-3.061,0.143-3.895,0.326V357.979z"/>
		<path fill="#3C4047" d="M162.656,362.804c-8.859,0-14.428-6.771-14.428-15.908c0-9.557,6.08-16.375,14.895-16.375
			c9.09,0,14.471,6.912,14.471,15.818c0,10.482-6.355,16.465-14.891,16.465H162.656z M162.934,358.216
			c5.521,0,8.627-5.104,8.627-11.646c0-5.889-2.924-11.455-8.627-11.455c-5.701,0-8.676,5.426-8.676,11.643
			c0,6.219,3.156,11.459,8.631,11.459H162.934z"/>
		<path fill="#3C4047" d="M183.158,362.296v-31.264h6.539l8.07,13.404c2.043,3.479,3.9,7.098,5.334,10.482l0.096-0.047
			c-0.418-4.127-0.512-8.164-0.512-12.938v-10.902h5.287v31.264h-5.936l-8.162-13.777c-1.996-3.434-4.037-7.238-5.564-10.764
			l-0.188,0.049c0.234,4.033,0.322,8.162,0.322,13.312v11.18H183.158z"/>
		<path fill="#3C4047" d="M215.164,356.081c1.812,1.064,4.639,1.996,7.561,1.996c3.619,0,5.658-1.717,5.658-4.268
			c0-2.369-1.576-3.762-5.518-5.197c-5.195-1.812-8.49-4.594-8.49-9.047c0-5.148,4.271-9,11.084-9c3.393,0,5.846,0.746,7.469,1.533
			l-1.342,4.637c-1.16-0.6-3.34-1.484-6.264-1.484c-3.619,0-5.15,1.902-5.15,3.758c0,2.41,1.811,3.525,5.986,5.102
			c5.428,2.09,8.023,4.826,8.023,9.281c0,5.055-3.803,9.367-11.828,9.367c-3.342,0-6.773-0.928-8.49-1.949L215.164,356.081z"/>
	</g>
	<g>
		<path fill="#3C4047" d="M29.764,382.257c2.086-0.373,4.916-0.65,8.721-0.65c4.172,0,7.189,0.879,9.182,2.551
			c1.857,1.533,3.062,3.988,3.062,6.914c0,2.969-0.928,5.379-2.648,7.051c-2.316,2.273-5.84,3.383-9.875,3.383
			c-1.066,0-1.996-0.047-2.783-0.23v11.826h-5.658V382.257z M35.422,396.774c0.738,0.234,1.621,0.277,2.783,0.277
			c4.266,0,6.865-2.133,6.865-5.75c0-3.434-2.414-5.287-6.354-5.287c-1.578,0-2.691,0.137-3.295,0.277V396.774z"/>
		<path fill="#3C4047" d="M56.389,381.839h5.705v26.486h12.846v4.775H56.389V381.839z"/>
		<path fill="#3C4047" d="M86.398,404.243l-2.689,8.857h-5.893l10.02-31.262h7.285l10.156,31.262h-6.123l-2.828-8.857H86.398z
			 M95.35,399.929l-2.457-7.699c-0.602-1.902-1.115-4.035-1.576-5.844h-0.092c-0.467,1.809-0.932,3.988-1.484,5.844l-2.416,7.699
			H95.35z"/>
		<path fill="#3C4047" d="M110.238,406.886c1.811,1.068,4.641,1.998,7.564,1.998c3.615,0,5.658-1.721,5.658-4.27
			c0-2.363-1.578-3.76-5.52-5.195c-5.197-1.809-8.49-4.594-8.49-9.045c0-5.15,4.268-9,11.088-9c3.385,0,5.844,0.744,7.469,1.531
			l-1.35,4.639c-1.156-0.602-3.336-1.484-6.258-1.484c-3.619,0-5.148,1.902-5.148,3.758c0,2.412,1.807,3.525,5.982,5.102
			c5.424,2.09,8.025,4.824,8.025,9.277c0,5.055-3.803,9.373-11.83,9.373c-3.338,0-6.773-0.932-8.49-1.951L110.238,406.886z"/>
		<path fill="#3C4047" d="M141.09,386.616h-8.908v-4.777h23.611v4.777h-9.004v26.484h-5.699V386.616z"/>
		<path fill="#3C4047" d="M165.857,381.839v31.262h-5.705v-31.262H165.857z"/>
		<path fill="#3C4047" d="M199.395,418.112c-4.367-1.209-8.258-2.551-12.199-4.037c-0.65-0.277-1.348-0.418-2.041-0.463
			c-7.238-0.371-13.686-5.703-13.686-15.863c0-9.646,5.986-16.422,14.936-16.422c9.049,0,14.426,6.957,14.426,15.771
			c0,7.516-3.479,12.57-8.072,14.426v0.188c2.695,0.74,5.707,1.389,8.258,1.857L199.395,418.112z M186.172,409.022
			c5.475,0,8.631-5.104,8.631-11.646c0-5.936-2.924-11.455-8.584-11.455c-5.705,0-8.721,5.428-8.721,11.689
			c0,6.26,3.203,11.412,8.629,11.412H186.172z"/>
		<path fill="#3C4047" d="M212.104,381.839v18.229c0,6.125,2.549,8.955,6.4,8.955c4.129,0,6.586-2.83,6.586-8.955v-18.229h5.709
			v17.859c0,9.648-4.965,13.914-12.479,13.914c-7.24,0-11.922-4.035-11.922-13.869v-17.904H212.104z"/>
		<path fill="#3C4047" d="M255.518,399.233h-11.779v9.184h13.174v4.684h-18.877v-31.262h18.178v4.686h-12.475v8.07h11.779V399.233z"
			/>
		<path fill="#3C4047" d="M262.525,406.886c1.807,1.068,4.635,1.998,7.557,1.998c3.619,0,5.662-1.721,5.662-4.27
			c0-2.363-1.576-3.76-5.52-5.195c-5.195-1.809-8.49-4.594-8.49-9.045c0-5.15,4.268-9,11.086-9c3.385,0,5.848,0.744,7.469,1.531
			l-1.344,4.639c-1.16-0.602-3.34-1.484-6.262-1.484c-3.619,0-5.15,1.902-5.15,3.758c0,2.412,1.811,3.525,5.986,5.102
			c5.426,2.09,8.025,4.824,8.025,9.277c0,5.055-3.807,9.373-11.832,9.373c-3.338,0-6.771-0.932-8.486-1.951L262.525,406.886z"/>
	</g>
	<g>
		<g>
			<path fill="#FFFFFF" d="M309.043,304.284c0,2.666-2.152,4.848-4.832,4.848H13.287c-2.682,0-4.838-2.182-4.838-4.848V13.373
				c0-2.693,2.156-4.835,4.838-4.835h290.924c2.68,0,4.832,2.142,4.832,4.835V304.284z"/>
			<path fill="#3C4047" d="M304.211,310.581H13.287c-3.467,0-6.287-2.824-6.287-6.297V13.373c0-3.467,2.82-6.285,6.287-6.285
				h290.924c3.463,0,6.281,2.818,6.281,6.285v290.911C310.492,307.757,307.674,310.581,304.211,310.581z M13.287,9.987
				c-1.9,0-3.387,1.486-3.387,3.386v290.911c0,1.873,1.518,3.398,3.387,3.398h290.924c1.865,0,3.385-1.525,3.385-3.398V13.373
				c0-1.899-1.486-3.386-3.385-3.386H13.287z"/>
		</g>
		<g>
			<path fill="#3C4047" d="M186.393,130.327l3.67,7.789l31.613-3.888c0,0,3.904-1.384,4.803,3.888
				c0.906,5.271,1.387,10.09,1.387,10.09h7.992l-1.818-12.826c0,0,0.455-8.244-11.68-7.805
				C210.229,128.056,186.393,130.327,186.393,130.327z"/>
			<polygon fill="#3C4047" points="278.379,150.943 249.068,126.743 244.611,132.277 246.229,136.062 245.43,148.206 
				263.922,162.143 270.281,153.245 274.186,156.069 			"/>
			<path fill="#3C4047" d="M232.611,227.329c0,2.318-1.893,4.209-4.223,4.209h-22.189c-2.348,0-4.223-1.891-4.223-4.209v-20.473
				c0-2.33,1.875-4.221,4.223-4.221h22.189c2.33,0,4.223,1.891,4.223,4.221V227.329z"/>
			<path fill="#3C4047" d="M265.186,167.675c-5.957-5.271-18.098-12.844-18.098-12.844s-3.424-3.189-12.365-3.189
				c-8.939,0-34.814,0-34.814,0s-6.189,0.918-10.08-6.42c-3.887-7.324-6.332-16.482-13.73-16.482h-3.912c0,0-9.15-0.482-9.15,10.076
				c0,10.527,0,127.812,0,127.812s-0.697,12.146,13.062,12.146c13.73,0,85.447,0,85.447,0s10.297,0,10.297-12.594
				c0-12.611,0-86.129,0-86.129S271.154,172.931,265.186,167.675z M180.945,135.874c1.754,4.164,6.6,19.074,18.902,19.074
				c-8.734,0-12.902,0.715-16.555-6.742c-3.645-7.453-4.66-15.172-11.039-15.172C172.254,133.034,179.23,131.722,180.945,135.874z
				 M175.08,275.19c-8.957,0-9.189-7.438-9.189-7.438v-10.805c0,3.477,3.469,9.303,8.562,13.146
				c5.068,3.859,14.006,5.096,14.006,5.096S183.975,275.19,175.08,275.19z M256.447,252.651c0,0,2.449,1.748,1.238,3.959
				c-1.238,2.227-2.752,0.713-4.062,0c-1.309-0.713-25.859-19.582-25.859-19.582h-20.082c0,0-5.012,0.711-7.834-4.18
				c-3.363,4.076-18.682,23.457-18.682,23.457s-2.43,2.838-4.355,0.611c-1.936-2.225-0.508-3.537,0.51-4.773
				c1.004-1.227,19.57-25.061,19.57-25.061v-20.994c0,0,0.529-5.986,3.945-7.4c-3.027-2.053-22.602-17.355-22.602-17.355
				s-4.174-2.957-1.424-5.375c0,0,1.926-1.426,5.084,1.004c3.129,2.433,25.572,19.864,25.572,19.864h21.693
				c0,0,5.416,0.945,6.697,4.179c2.65-3.233,18.469-24.842,18.469-24.842s1.918-1.631,3.535,0c1.662,1.617,0.848,2.736,0,3.947
				c-0.801,1.223-20.184,26.485-20.184,26.485V227.2c0,0-1.119,5.91-4.367,7.701C236.369,237.435,256.447,252.651,256.447,252.651z
				 M268.111,238.235c0,0-1.293-52.434-4.031-59.231c-2.346-5.491-5.781-7.296-11.285-11.155c-5.49-3.871-11.053-7.834-14.287-8.926
				c-3.246-1.135-16.451-3.379-16.451-3.379s16.318-0.889,20.59,1.529c4.264,2.447,22.732,15.117,23.967,18.582
				c1.207,3.434,1.498,15.606,1.498,23.033C268.111,206.103,268.111,238.235,268.111,238.235z"/>
		</g>
		<g>
			<defs>
				<path id="SVGID_3_" d="M175.953,293.103c-10.529,0-16.891-4.41-20.371-8.08c-6.656-7.064-7.078-15.771-7.018-18.58V138.815
					c0-16.017,11.732-24.392,23.328-24.392h32.514c5.756,0,15.525,0,25.338,0.03V21.831H31.516V295.81h144.787L175.953,293.103z"/>
			</defs>
			<clipPath id="SVGID_2_">
				<use xlink:href="#SVGID_3_"  overflow="visible"/>
			</clipPath>
			<g clip-path="url(#SVGID_2_)">
				<path fill="#3C4047" d="M56.281,49.876v-10.34c0-3.812,3.092-6.916,6.922-6.916H174.48c3.803,0,6.904,3.104,6.904,6.916v10.34
					H56.281z"/>
				<path fill="#3C4047" d="M176.621,60.433v-5.082h-55.479h-3.35H62.297v5.082c0,0-17.689,18.289-17.689,57.939
					c0,4.877,0.947,9.448,6.871,9.448c5.939,0,66.314,0,66.314,0h3.35c0,0,60.355,0,66.301,0c5.924,0,6.873-4.571,6.873-9.448
					C194.316,78.722,176.621,60.433,176.621,60.433z M65.035,80.47c-7.922,14.852-5.691,41.048-5.691,41.048h-9.74
					c0-25.817,6.496-38.181,12.375-50.206C67.891,59.327,75.201,61.16,75.201,61.16C76.221,61.247,72.977,65.631,65.035,80.47z
					 M143.176,110.085c0,0,3.742-20.181-5.637-18.432c-9.359,1.746-9.887,4.25-18.07,4.137c-8.182,0-9.291-2.305-18.652-4.197
					c-9.348-1.877-5.883,18.363-5.883,18.363s-13.426-20.545,2.838-27.871c7.705-2.285,12.104,5.096,21.697,4.47
					c9.58,0.772,13.557-6.755,21.246-4.368C156.895,89.76,143.176,110.085,143.176,110.085z M187.443,120.702
					c-0.234-0.176-9.191,0-9.191,0s3.246-37.701-13.002-54.721c-27.463-2.797-43.102-3.989-43.102-3.989v-0.935h45.734
					C167.883,61.058,188.709,77.425,187.443,120.702z"/>
				<path fill="#3C4047" d="M121.143,132.509h-3.35H49.604v78.031h68.189h3.35h68.195v-78.031H121.143z M60.482,207.062h-5.799
					v-69.775h5.799V207.062z M185.479,207.062h-7.619v-65.846l-71.656-3.93h79.275V207.062z"/>
				<path fill="#3C4047" d="M188.533,216.233h-67.391h-3.35H50.432c0,0-5.824-0.201-5.824,15.857
					c0,16.061,9.451,56.904,33.623,56.904c24.203,0,41.238,0,41.238,0s17.008,0,41.207,0c24.201,0,33.641-40.844,33.641-56.904
					C194.316,216.032,188.533,216.233,188.533,216.233z M84.551,282.065c-33.229,3.682-37.801-45.418-36.891-54.559
					c0.924-9.148,11.293-6.701,11.293-6.701c1.219,10.268-7.879,0.875,1.529,33.229C69.854,286.39,89.135,278.729,84.551,282.065z
					 M154.811,280.563c-5.01-1.834-51.359-0.307-44.02-3.361c7.297-3.031,50.586,1.527,55.174-1.525
					c4.57-3.062,13.818-21.322,15.42-39.627c1.66-12.811-8.74-12.504-8.74-12.504l-61.854-3.047h74.688
					c0,0,11.326-2.838,1.992,32.121C178.152,287.556,159.848,282.384,154.811,280.563z"/>
				<g>
					<polygon fill="#FFFFFF" points="174.117,49.876 174.117,38.49 169.648,38.49 169.648,49.876 159.062,49.876 159.062,38.49 
						154.604,38.49 154.604,49.876 143.975,49.876 143.975,38.49 139.564,38.49 139.564,49.876 128.932,49.876 128.932,38.49 
						124.494,38.49 124.494,49.876 113.877,49.876 113.877,38.49 109.451,38.49 109.451,49.876 98.848,49.876 98.848,38.49 
						94.393,38.49 94.393,49.876 83.791,49.876 83.791,38.49 79.336,38.49 79.336,49.876 68.721,49.876 68.721,38.49 64.311,38.49 
						64.311,49.876 51.479,49.876 51.479,55.351 187.443,55.351 187.443,49.876 					"/>
					<path fill="#3C4047" d="M188.695,56.605H50.229v-7.981h12.828V37.237h6.916v11.387h8.109V37.237h6.959v11.387h8.1V37.237h6.959
						v11.387h8.098V37.237h6.932v11.387h8.113V37.237h6.941v11.387h8.127V37.237h6.918v11.387h8.125V37.237h6.959v11.387h8.082
						V37.237h6.977v11.387h13.324V56.605z M52.734,54.097h133.457v-2.969h-13.328V39.743h-1.965v11.385h-13.088V39.743h-1.955
						v11.385h-13.131V39.743h-1.906v11.385H127.68V39.743h-1.936v11.385h-13.119V39.743h-1.924v11.385H97.596V39.743h-1.953v11.385
						H82.541V39.743H80.59v11.385H67.469V39.743h-1.908v11.385H52.734V54.097z"/>
				</g>
			</g>
		</g>
	</g>
</g>
</svg>
