<?xml version="1.0" encoding="utf-8"?>
<!-- Generator: Adobe Illustrator 16.0.4, SVG Export Plug-In . SVG Version: 6.00 Build 0)  -->
<!DOCTYPE svg PUBLIC "-//W3C//DTD SVG 1.1//EN" "http://www.w3.org/Graphics/SVG/1.1/DTD/svg11.dtd">
<svg version="1.1" id="Calque_1" xmlns="http://www.w3.org/2000/svg" xmlns:xlink="http://www.w3.org/1999/xlink" x="0px" y="0px" viewBox="0 0 317 317">
<g>
	<g>
		<g>
			<path fill="#000" d="M186.393,130.327l3.67,7.789l31.613-3.888c0,0,3.904-1.384,4.803,3.888
				c0.906,5.271,1.387,10.09,1.387,10.09h7.992l-1.818-12.826c0,0,0.455-8.244-11.68-7.805
				C210.229,128.056,186.393,130.327,186.393,130.327z"/>
			<polygon fill="#000" points="278.379,150.943 249.068,126.743 244.611,132.277 246.229,136.062 245.43,148.206 
				263.922,162.143 270.281,153.245 274.186,156.069 			"/>
			<path fill="#000" d="M232.611,227.329c0,2.318-1.893,4.209-4.223,4.209h-22.189c-2.348,0-4.223-1.891-4.223-4.209v-20.473
				c0-2.33,1.875-4.221,4.223-4.221h22.189c2.33,0,4.223,1.891,4.223,4.221V227.329z"/>
			<path fill="#000" d="M265.186,167.675c-5.957-5.271-18.098-12.844-18.098-12.844s-3.424-3.189-12.365-3.189
				c-8.939,0-34.814,0-34.814,0s-6.189,0.918-10.08-6.42c-3.887-7.324-6.332-16.482-13.73-16.482h-3.912c0,0-9.15-0.482-9.15,10.076
				c0,10.527,0,127.812,0,127.812s-0.697,12.146,13.062,12.146c13.73,0,85.447,0,85.447,0s10.297,0,10.297-12.594
				c0-12.611,0-86.129,0-86.129S271.154,172.931,265.186,167.675z M180.945,135.874c1.754,4.164,6.6,19.074,18.902,19.074
				c-8.734,0-12.902,0.715-16.555-6.742c-3.645-7.453-4.66-15.172-11.039-15.172C172.254,133.034,179.23,131.722,180.945,135.874z
				 M175.08,275.19c-8.957,0-9.189-7.438-9.189-7.438v-10.805c0,3.477,3.469,9.303,8.562,13.146
				c5.068,3.859,14.006,5.096,14.006,5.096S183.975,275.19,175.08,275.19z M256.447,252.651c0,0,2.449,1.748,1.238,3.959
				c-1.238,2.227-2.752,0.713-4.062,0c-1.309-0.713-25.859-19.582-25.859-19.582h-20.082c0,0-5.012,0.711-7.834-4.18
				c-3.363,4.076-18.682,23.457-18.682,23.457s-2.43,2.838-4.355,0.611c-1.936-2.225-0.508-3.537,0.51-4.773
				c1.004-1.227,19.57-25.061,19.57-25.061v-20.994c0,0,0.529-5.986,3.945-7.4c-3.027-2.053-22.602-17.355-22.602-17.355
				s-4.174-2.957-1.424-5.375c0,0,1.926-1.426,5.084,1.004c3.129,2.433,25.572,19.864,25.572,19.864h21.693
				c0,0,5.416,0.945,6.697,4.179c2.65-3.233,18.469-24.842,18.469-24.842s1.918-1.631,3.535,0c1.662,1.617,0.848,2.736,0,3.947
				c-0.801,1.223-20.184,26.485-20.184,26.485V227.2c0,0-1.119,5.91-4.367,7.701C236.369,237.435,256.447,252.651,256.447,252.651z
				 M268.111,238.235c0,0-1.293-52.434-4.031-59.231c-2.346-5.491-5.781-7.296-11.285-11.155c-5.49-3.871-11.053-7.834-14.287-8.926
				c-3.246-1.135-16.451-3.379-16.451-3.379s16.318-0.889,20.59,1.529c4.264,2.447,22.732,15.117,23.967,18.582
				c1.207,3.434,1.498,15.606,1.498,23.033C268.111,206.103,268.111,238.235,268.111,238.235z"/>
		</g>
		<g>
			<defs>
				<path id="SVGID_3_" d="M175.953,293.103c-10.529,0-16.891-4.41-20.371-8.08c-6.656-7.064-7.078-15.771-7.018-18.58V138.815
					c0-16.017,11.732-24.392,23.328-24.392h32.514c5.756,0,15.525,0,25.338,0.03V21.831H31.516V295.81h144.787L175.953,293.103z"/>
			</defs>
			<clipPath id="SVGID_2_">
				<use xlink:href="#SVGID_3_"  overflow="visible"/>
			</clipPath>
			<g clip-path="url(#SVGID_2_)">
				<path fill="#000" d="M56.281,49.876v-10.34c0-3.812,3.092-6.916,6.922-6.916H174.48c3.803,0,6.904,3.104,6.904,6.916v10.34
					H56.281z"/>
				<path fill="#000" d="M176.621,60.433v-5.082h-55.479h-3.35H62.297v5.082c0,0-17.689,18.289-17.689,57.939
					c0,4.877,0.947,9.448,6.871,9.448c5.939,0,66.314,0,66.314,0h3.35c0,0,60.355,0,66.301,0c5.924,0,6.873-4.571,6.873-9.448
					C194.316,78.722,176.621,60.433,176.621,60.433z M65.035,80.47c-7.922,14.852-5.691,41.048-5.691,41.048h-9.74
					c0-25.817,6.496-38.181,12.375-50.206C67.891,59.327,75.201,61.16,75.201,61.16C76.221,61.247,72.977,65.631,65.035,80.47z
					 M143.176,110.085c0,0,3.742-20.181-5.637-18.432c-9.359,1.746-9.887,4.25-18.07,4.137c-8.182,0-9.291-2.305-18.652-4.197
					c-9.348-1.877-5.883,18.363-5.883,18.363s-13.426-20.545,2.838-27.871c7.705-2.285,12.104,5.096,21.697,4.47
					c9.58,0.772,13.557-6.755,21.246-4.368C156.895,89.76,143.176,110.085,143.176,110.085z M187.443,120.702
					c-0.234-0.176-9.191,0-9.191,0s3.246-37.701-13.002-54.721c-27.463-2.797-43.102-3.989-43.102-3.989v-0.935h45.734
					C167.883,61.058,188.709,77.425,187.443,120.702z"/>
				<path fill="#000" d="M121.143,132.509h-3.35H49.604v78.031h68.189h3.35h68.195v-78.031H121.143z M60.482,207.062h-5.799
					v-69.775h5.799V207.062z M185.479,207.062h-7.619v-65.846l-71.656-3.93h79.275V207.062z"/>
				<path fill="#000" d="M188.533,216.233h-67.391h-3.35H50.432c0,0-5.824-0.201-5.824,15.857
					c0,16.061,9.451,56.904,33.623,56.904c24.203,0,41.238,0,41.238,0s17.008,0,41.207,0c24.201,0,33.641-40.844,33.641-56.904
					C194.316,216.032,188.533,216.233,188.533,216.233z M84.551,282.065c-33.229,3.682-37.801-45.418-36.891-54.559
					c0.924-9.148,11.293-6.701,11.293-6.701c1.219,10.268-7.879,0.875,1.529,33.229C69.854,286.39,89.135,278.729,84.551,282.065z
					 M154.811,280.563c-5.01-1.834-51.359-0.307-44.02-3.361c7.297-3.031,50.586,1.527,55.174-1.525
					c4.57-3.062,13.818-21.322,15.42-39.627c1.66-12.811-8.74-12.504-8.74-12.504l-61.854-3.047h74.688
					c0,0,11.326-2.838,1.992,32.121C178.152,287.556,159.848,282.384,154.811,280.563z"/>
				<g>
					<polygon fill="#FFFFFF" points="174.117,49.876 174.117,38.49 169.648,38.49 169.648,49.876 159.062,49.876 159.062,38.49 
						154.604,38.49 154.604,49.876 143.975,49.876 143.975,38.49 139.564,38.49 139.564,49.876 128.932,49.876 128.932,38.49 
						124.494,38.49 124.494,49.876 113.877,49.876 113.877,38.49 109.451,38.49 109.451,49.876 98.848,49.876 98.848,38.49 
						94.393,38.49 94.393,49.876 83.791,49.876 83.791,38.49 79.336,38.49 79.336,49.876 68.721,49.876 68.721,38.49 64.311,38.49 
						64.311,49.876 51.479,49.876 51.479,55.351 187.443,55.351 187.443,49.876 					"/>
					<path fill="#000" d="M188.695,56.605H50.229v-7.981h12.828V37.237h6.916v11.387h8.109V37.237h6.959v11.387h8.1V37.237h6.959
						v11.387h8.098V37.237h6.932v11.387h8.113V37.237h6.941v11.387h8.127V37.237h6.918v11.387h8.125V37.237h6.959v11.387h8.082
						V37.237h6.977v11.387h13.324V56.605z M52.734,54.097h133.457v-2.969h-13.328V39.743h-1.965v11.385h-13.088V39.743h-1.955
						v11.385h-13.131V39.743h-1.906v11.385H127.68V39.743h-1.936v11.385h-13.119V39.743h-1.924v11.385H97.596V39.743h-1.953v11.385
						H82.541V39.743H80.59v11.385H67.469V39.743h-1.908v11.385H52.734V54.097z"/>
				</g>
			</g>
		</g>
	</g>
</g>
</svg>
