<?xml version="1.0" encoding="utf-8"?>
<!-- Generator: Adobe Illustrator 16.0.4, SVG Export Plug-In . SVG Version: 6.00 Build 0)  -->
<!DOCTYPE svg PUBLIC "-//W3C//DTD SVG 1.1//EN" "http://www.w3.org/Graphics/SVG/1.1/DTD/svg11.dtd">
<svg version="1.1" id="Calque_1" xmlns="http://www.w3.org/2000/svg" xmlns:xlink="http://www.w3.org/1999/xlink" x="0px" y="0px" viewBox="0 0 317 317">
<g>
	<g>
		<g>
			<defs>
				<path id="SVGID_5_" d="M309.001,304.274c0,2.676-2.18,4.846-4.852,4.846H13.261c-2.674,0-4.842-2.17-4.842-4.846V13.414
					c0-2.693,2.168-4.865,4.842-4.865h290.889c2.672,0,4.852,2.172,4.852,4.865V304.274z"/>
			</defs>
			<clipPath id="SVGID_2_">
				<use xlink:href="#SVGID_5_"  overflow="visible"/>
			</clipPath>
			<g clip-path="url(#SVGID_2_)">
				<g>
					<polygon fill="#000" points="263.827,157.097 263.827,189.883 278.294,195.313 278.294,161.305 					"/>
					<path fill="#000" d="M280.944,199.144l-19.768-7.427v-38.159l19.768,5.751V199.144z M266.476,188.048l9.166,3.436v-28.2
						l-9.166-2.665V188.048z"/>
				</g>
				<g>
					<polygon fill="#000" points="142.069,115.237 142.069,144.4 155.157,149.832 155.157,119.024 					"/>
					<path fill="#000" d="M157.808,153.79l-18.393-7.629v-34.445l18.393,5.314V153.79z M144.72,142.624l7.787,3.234v-24.838
						l-7.787-2.258V142.624z"/>
				</g>
				<g>
					<polygon fill="#000" points="57.384,85.028 57.384,112.765 69.13,117.177 69.13,88.464 					"/>
					<path fill="#000" d="M71.776,121.006l-17.043-6.407V81.491l17.043,4.979V121.006z M60.032,110.929l6.443,2.418v-22.9
						l-6.443-1.879V110.929z"/>
				</g>
				<g>
					<polyline fill="#000" points="279.208,197.626 354.442,106.736 354.442,80.794 278.294,161.305 57.384,85.028 
						57.384,79.716 278.294,150.181 278.294,161.305 					"/>
					<path fill="#000" d="M281.255,199.317l-4.088-3.381l74.625-90.162V87.446l-72.752,76.913L54.733,86.921v-10.83
						l226.211,72.153v6.392l76.146-80.511v33.56l-0.604,0.741L281.255,199.317z M67.757,85.802l207.885,71.772v-5.458L67.757,85.802
						z"/>
				</g>
				<g>
					<polygon fill="#000" points="293.101,145.579 292.708,135.839 278.294,150.181 278.294,161.305 					"/>
					<path fill="#000" d="M275.642,167.985v-18.912l19.467-19.362l0.684,16.872L275.642,167.985z M280.944,151.272v3.347
						l9.461-10.044l-0.102-2.605L280.944,151.272z"/>
				</g>
				<polygon fill="#000" points="293.437,134.82 84.175,72.45 57.026,81.827 55.296,76.816 84.06,66.89 84.876,67.121 
					294.95,129.739 				"/>
				<g>
					<polyline fill="#000" points="308.708,129.362 104.181,66.405 104.181,61.095 308.708,118.253 308.708,129.362 					"/>
					<path fill="#000" d="M311.358,132.942L101.532,68.36v-10.76l209.826,58.642V132.942z M111.663,65.927l194.395,59.838v-5.504
						L111.663,65.927z"/>
				</g>
				<g>
					<polygon fill="#000" points="323.501,113.653 323.501,102.849 308.708,118.253 308.708,129.362 					"/>
					<path fill="#000" d="M306.058,136.043v-18.866l20.096-20.924V114.7L306.058,136.043z M311.358,119.317v3.361l9.492-10.074
						v-3.176L311.358,119.317z"/>
				</g>
				<polygon fill="#000" points="323.954,102.937 131.001,53.771 103.737,62.897 102.046,57.875 130.796,48.253 131.556,48.442 
					325.265,97.798 				"/>
				<g>
					<polyline fill="#000" points="339.665,96.167 147.177,48.587 147.177,43.259 339.665,85.028 339.665,96.167 					"/>
					<path fill="#000" d="M342.313,99.545L144.526,50.654V39.968L342.313,82.89V99.545z M150.97,46.798l186.045,45.977v-5.605
						L150.97,46.798z"/>
				</g>
				<polygon fill="#000" points="355.067,69.77 174.069,35.921 146.858,45.079 145.171,40.057 173.688,30.463 174.368,30.593 
					356.042,64.559 				"/>
				<polygon fill="#000" points="71.776,120.86 69.228,116.214 100.972,98.772 103.519,103.417 				"/>
				<polygon fill="#000" points="157.849,153.732 155.04,149.232 188.333,128.474 191.144,132.972 				"/>
				<polygon fill="#000" points="138.53,55.169 136.55,50.247 146.292,46.316 148.271,51.236 				"/>
				
					<rect x="95.822" y="60.996" transform="matrix(0.3734 0.9277 -0.9277 0.3734 125.2164 -48.4498)" fill="#000" width="5.304" height="14.943"/>
			</g>
			<g clip-path="url(#SVGID_2_)">
				
					<rect x="-16.297" y="154.208" transform="matrix(0.9185 0.3953 -0.3953 0.9185 69.9492 -25.761)" fill="#000" width="227.564" height="5.295"/>
				<polygon fill="#000" points="124.056,292.524 120.909,288.257 197.757,231.694 197.757,209.784 123.198,264.03 
					120.081,259.749 203.062,199.376 203.062,234.372 				"/>
				<g>
					<polyline fill="#000" points="-20.278,195.256 121.638,261.89 121.638,288.649 -20.278,228.827 					"/>
					<polygon fill="#000" points="124.29,292.657 -21.306,231.272 -19.253,226.382 118.991,284.661 118.991,263.563 
						-21.409,197.656 -19.151,192.852 124.29,260.204 					"/>
				</g>
				<path fill="#000" d="M130.774,255.995c-18.564-16.016-16.988-18.562-15.951-20.25c1.711-2.799,5.688-1.197,7.832-0.309
					c14.643,6.088,21.146,8.414,21.205,8.43l-1.779,4.994c-0.256-0.084-6.006-2.141-19.174-7.574
					c2.916,3.092,7.293,7.209,11.336,10.689L130.774,255.995z"/>
				<path fill="#000" d="M90.448,202.999L90.448,202.999c-7.488,0-30.334-9.943-36.107-16.627
					c-0.924-1.074-3.756-4.352-2.307-7.51c1.471-3.219,5.898-3.219,7.35-3.219c2.152,0,4.088,0.318,4.088,0.318
					c10.605,2.155,17.062,7.15,28.449,18.262c1.156,1.133,3.865,3.781,2.773,6.461C94.267,201.747,93.183,202.999,90.448,202.999z
					 M57.116,181.175c0.182,0.351,0.539,0.918,1.246,1.732c4.023,4.66,20.857,12.438,29.074,14.357
					c-11.264-10.92-16.73-14.43-24.918-16.09l0,0C62.519,181.175,58.099,180.913,57.116,181.175z"/>
				<path fill="#000" d="M103.905,215.942L103.905,215.942c-17.152,0-55.207-16.191-59.865-27.529
					c-2.76-6.757-6.246-8.852-9.615-10.878c-3.045-1.819-6.191-3.71-8.039-8.399c-0.939-2.373-0.318-4.062,0.355-5.054
					c1.42-2.095,4.357-3.068,9.225-3.068c7.42,0,17.254,2.27,17.67,2.355c21.258,3.407,52.287,22.335,60.184,36.792
					c2.17,3.975,2.6,7.526,1.281,10.555C113.573,214.183,109.808,215.942,103.905,215.942z M35.966,166.312
					c-4.023,0-4.863,0.788-4.863,0.788c1.406,3.114,3.348,4.278,6.045,5.894c3.732,2.244,8.371,5.023,11.799,13.41
					c3.168,7.716,38.205,24.24,54.959,24.24l0,0c2.033,0,5.547-0.263,6.338-2.053c0.781-1.807-0.148-4.193-1.076-5.881
					c-7.146-13.088-36.75-30.954-56.557-34.127C52.331,168.524,42.774,166.312,35.966,166.312z"/>
				<path fill="#000" d="M120.866,224.46c-3.109,0-6.932-0.16-11.59-0.51c-38.127-2.883-63.803-15.594-88.643-43.895
					C0.505,157.081-0.702,150.442,0.993,146.7c0.707-1.542,2.416-3.391,6.559-3.391c2.322,0,5.279,0.552,9.035,1.673
					c5.869,1.778,10.404,3.246,14.203,4.483c9.443,3.072,14.184,4.602,23.777,5.65c13.367,1.47,51.086,18.127,59.965,32.451
					c5.236,8.475,8.518,13.293,15.297,21.184c3.465,4.031,6.736,7.85,5.064,11.455C133.511,223.222,129.444,224.46,120.866,224.46z
					 M7.552,148.608c-1.375,0-1.738,0.305-1.738,0.305c-0.193,0.379-1.398,4.571,18.812,27.647
					c23.818,27.138,48.465,39.339,85.041,42.103c4.504,0.338,8.193,0.498,11.199,0.498c7.863,0,9.162-1.137,9.277-1.266
					c-0.123-0.773-2.863-3.979-4.332-5.693c-6.967-8.111-10.498-13.295-15.785-21.854c-7.285-11.748-42.404-28.463-56.033-29.962
					c-10.137-1.107-15.361-2.796-24.842-5.882c-3.779-1.223-8.27-2.68-14.094-4.442C11.847,149.103,9.321,148.608,7.552,148.608z"/>
				<path fill="#000" d="M123.815,262.253c-2.977-0.916-6.02-4.76-9.996-10.102c-1.025-1.385-1.965-2.652-2.711-3.52
					c-0.943-1.098-1.752-2.381-2.596-3.719c-1.637-2.635-3.336-5.34-6.871-7.277c-5.723-3.146-8.186-6.234-7.316-9.143
					c1.146-3.844,7.031-3.943,12.688-3.537c15.551,1.148,47.229,9.824,48.572,10.205l-1.41,5.111
					c-0.32-0.092-32.521-8.924-47.557-10.035c-3.348-0.232-5.291-0.117-6.369,0.045c0.752,0.699,2.025,1.658,3.945,2.709
					c4.738,2.592,6.998,6.203,8.809,9.1c0.699,1.123,1.354,2.184,2.135,3.086c0.807,0.945,1.818,2.316,2.941,3.812
					c1.865,2.506,5.744,7.73,7.293,8.197L123.815,262.253z"/>
				<path fill="#000" d="M110.134,259.052c-0.189-0.262-19.492-26.643-43.219-36.119c-30.592-9.859-37.408-18.769-45.299-29.075
					c-1.275-1.659-2.582-3.378-4.045-5.141c-9.496-11.515-25.699-18.242-27.242-18.648l0.791-5.227
					c1.727,0.173,19.92,7.628,30.543,20.499c1.498,1.817,2.852,3.58,4.17,5.299c7.65,10.001,13.693,17.891,42.881,27.312
					c25.342,10.105,44.896,36.863,45.717,37.998L110.134,259.052z"/>
				<path fill="#000" d="M68.698,239.804c-0.211-0.203-21.557-20.557-60.709-36.994c-20.965-8.806-27.344-11.24-29.258-11.879
					l-0.205,0.393c-1.102-0.553-3.676-1.848-2.547-4.296c1.311-2.853,1.318-2.853,34.062,10.889
					c40.141,16.847,61.451,37.216,62.342,38.075L68.698,239.804z"/>
				<path fill="#000" d="M168.464,230.237c-7.135-0.77-28.16-19.07-42.57-34.997c-16.137-17.85-31.754-33.194-59.512-40.052
					c-29.695-7.381-41.387-26.599-41.867-27.414l4.559-2.709c0.109,0.176,11.16,18.172,38.582,24.984
					c29.217,7.221,45.441,23.119,62.164,41.635c16.617,18.361,35.242,32.848,39.213,33.285L168.464,230.237z"/>
				<path fill="#000" d="M169.831,226.7c-0.104-0.154-10.82-16.142-24.9-31.444c-14.023-15.229-36.729-30.909-36.957-31.069
					l3-4.369c0.953,0.656,23.428,16.176,37.857,31.842c14.363,15.621,25.303,31.926,25.414,32.1L169.831,226.7z"/>
				<path fill="#000" d="M178.003,219.071c-0.01-0.129-0.92-13.772-14.051-31.096l4.221-3.204
					c14.211,18.739,15.094,33.415,15.129,34.038L178.003,219.071z"/>
				<path fill="#000" d="M187.212,212.943c-2.105-8.617-5.52-16.901-7.303-17.731l2.125-4.848
					c5.186,2.27,8.947,15.665,10.33,21.328L187.212,212.943z"/>
			</g>
		</g>
	</g>
</g>
</svg>
