<?xml version="1.0" encoding="utf-8"?>
<!-- Generator: Adobe Illustrator 16.0.4, SVG Export Plug-In . SVG Version: 6.00 Build 0)  -->
<!DOCTYPE svg PUBLIC "-//W3C//DTD SVG 1.1//EN" "http://www.w3.org/Graphics/SVG/1.1/DTD/svg11.dtd">
<svg version="1.1" id="Calque_1" xmlns="http://www.w3.org/2000/svg" xmlns:xlink="http://www.w3.org/1999/xlink" x="0px" y="0px"
	 width="317.48px" height="425.2px" viewBox="0 0 317.48 425.2" enable-background="new 0 0 317.48 425.2" xml:space="preserve">
<g>
	<g>
		<g>
			<path fill="#FFFFFF" d="M309.068,304.286c0,2.666-2.176,4.834-4.832,4.834H13.348c-2.68,0-4.848-2.168-4.848-4.834V13.414
				c0-2.679,2.168-4.865,4.848-4.865h290.889c2.656,0,4.832,2.187,4.832,4.865V304.286z"/>
			<path fill="#A19468" d="M304.236,310.583H13.348c-3.479,0-6.311-2.824-6.311-6.297V13.414c0-3.489,2.832-6.326,6.311-6.326
				h290.889c3.473,0,6.297,2.837,6.297,6.326v290.872C310.533,307.759,307.709,310.583,304.236,310.583z M13.348,10.013
				c-1.865,0-3.387,1.523-3.387,3.401v290.872c0,1.857,1.521,3.375,3.387,3.375h290.889c1.857,0,3.369-1.518,3.369-3.375V13.414
				c0-1.878-1.512-3.401-3.369-3.401H13.348z"/>
		</g>
		<g>
			<path fill="#A19468" d="M160.422,274.661l103.66-59.746l-0.668-87.075l16.531-68.496L204.23,98.899l-33.049-9.258l-25.113-46.618
				L37.617,95.464l29.961,54.754v79.707L160.422,274.661z M173.582,101.679l16.525,4.82l-16.525,9.288V101.679z M169.1,130.229
				l94.982-51.286l-10.99,46.817l-87.078,46.12L169.1,130.229z M86.166,146.753l76.744-41.985v16.188l-4.816,2.738l-3.098,48.186
				L86.166,146.753z M78.93,223.679V155.72l75.377,27.632v75.136L78.93,223.679z M53.461,100.296l87.25-41.637l20.133,34.418
				l-85.373,48.186L53.461,100.296z M166.014,258.487v-75.136l85.709-45.029l1.832,70.188l-57.201,33.117L166.014,258.487z"/>
		</g>
	</g>
	<g>
		<path fill="#A19468" d="M86.768,361.39c-1.324,0.639-4.248,1.369-7.99,1.369c-9.775,0-15.711-6.117-15.711-15.48
			c0-10.139,7.08-16.213,16.484-16.213c3.699,0,6.305,0.729,7.445,1.324l-1.189,4.477c-1.461-0.641-3.518-1.189-6.025-1.189
			c-6.26,0-10.779,3.928-10.779,11.326c0,6.758,3.926,11.053,10.732,11.053c2.238,0,4.611-0.459,6.121-1.096L86.768,361.39z"/>
		<path fill="#A19468" d="M98.73,353.579l-2.646,8.725h-5.801l9.865-30.783h7.17l10,30.783h-6.029l-2.781-8.725H98.73z
			 M107.547,349.331l-2.422-7.58c-0.592-1.873-1.096-3.973-1.551-5.752h-0.094c-0.455,1.779-0.912,3.928-1.461,5.752l-2.375,7.58
			H107.547z"/>
		<path fill="#A19468" d="M122.297,331.978c2.146-0.408,5.25-0.682,8.492-0.682c4.432,0,7.4,0.73,9.498,2.463
			c1.691,1.416,2.652,3.562,2.652,6.211c0,3.975-2.697,6.668-5.619,7.672v0.139c2.238,0.822,3.561,2.967,4.293,5.936
			c1.004,3.836,1.828,7.4,2.42,8.588h-5.754c-0.455-0.914-1.232-3.426-2.055-7.264c-0.914-4.018-2.328-5.295-5.525-5.389h-2.832
			v12.652h-5.57V331.978z M127.867,345.54h3.334c3.791,0,6.119-2.008,6.119-5.068c0-3.332-2.328-4.93-5.98-4.93
			c-1.781,0-2.924,0.135-3.473,0.273V345.54z"/>
		<path fill="#A19468" d="M155.084,336.226h-8.766v-4.705h23.244v4.705h-8.861v26.078h-5.617V336.226z"/>
		<path fill="#A19468" d="M185.18,362.804c-8.725,0-14.203-6.666-14.203-15.664c0-9.408,5.982-16.119,14.66-16.119
			c8.951,0,14.248,6.805,14.248,15.572c0,10.32-6.256,16.211-14.658,16.211H185.18z M185.453,358.284
			c5.436,0,8.494-5.021,8.494-11.465c0-5.799-2.877-11.277-8.494-11.277s-8.539,5.342-8.539,11.461
			c0,6.121,3.105,11.281,8.494,11.281H185.453z"/>
		<path fill="#A19468" d="M205.363,362.304v-30.783h6.441l7.947,13.199c2.01,3.426,3.834,6.988,5.252,10.32l0.09-0.045
			c-0.41-4.064-0.5-8.039-0.5-12.742v-10.732h5.205v30.783h-5.846l-8.039-13.562c-1.961-3.381-3.973-7.127-5.48-10.598l-0.182,0.045
			c0.227,3.973,0.318,8.037,0.318,13.109v11.006H205.363z"/>
		<path fill="#A19468" d="M236.875,356.181c1.781,1.053,4.568,1.963,7.445,1.963c3.564,0,5.57-1.688,5.57-4.199
			c0-2.328-1.553-3.697-5.436-5.113c-5.109-1.783-8.355-4.523-8.355-8.904c0-5.068,4.203-8.861,10.916-8.861
			c3.332,0,5.752,0.729,7.35,1.508l-1.318,4.566c-1.145-0.592-3.293-1.463-6.17-1.463c-3.561,0-5.068,1.875-5.068,3.701
			c0,2.373,1.783,3.469,5.891,5.021c5.348,2.057,7.9,4.752,7.9,9.137c0,4.977-3.746,9.223-11.646,9.223
			c-3.287,0-6.668-0.912-8.355-1.918L236.875,356.181z"/>
	</g>
</g>
</svg>
