<?xml version="1.0" encoding="utf-8"?>
<!-- Generator: Adobe Illustrator 16.0.4, SVG Export Plug-In . SVG Version: 6.00 Build 0)  -->
<!DOCTYPE svg PUBLIC "-//W3C//DTD SVG 1.1//EN" "http://www.w3.org/Graphics/SVG/1.1/DTD/svg11.dtd">
<svg version="1.1" id="Calque_1" xmlns="http://www.w3.org/2000/svg" xmlns:xlink="http://www.w3.org/1999/xlink" x="0px" y="0px" viewBox="0 0 317 317">
<g>
	<g>
		<g>
			<path fill="#000000" d="M160.422,274.661l103.66-59.746l-0.668-87.075l16.531-68.496L204.23,98.899l-33.049-9.258l-25.113-46.618
				L37.617,95.464l29.961,54.754v79.707L160.422,274.661z M173.582,101.679l16.525,4.82l-16.525,9.288V101.679z M169.1,130.229
				l94.982-51.286l-10.99,46.817l-87.078,46.12L169.1,130.229z M86.166,146.753l76.744-41.985v16.188l-4.816,2.738l-3.098,48.186
				L86.166,146.753z M78.93,223.679V155.72l75.377,27.632v75.136L78.93,223.679z M53.461,100.296l87.25-41.637l20.133,34.418
				l-85.373,48.186L53.461,100.296z M166.014,258.487v-75.136l85.709-45.029l1.832,70.188l-57.201,33.117L166.014,258.487z"/>
		</g>
	</g>
</g>
</svg>
