<?xml version="1.0" encoding="utf-8"?>
<!-- Generator: Adobe Illustrator 16.0.4, SVG Export Plug-In . SVG Version: 6.00 Build 0)  -->
<!DOCTYPE svg PUBLIC "-//W3C//DTD SVG 1.1//EN" "http://www.w3.org/Graphics/SVG/1.1/DTD/svg11.dtd">
<svg version="1.1" id="Calque_1" xmlns="http://www.w3.org/2000/svg" xmlns:xlink="http://www.w3.org/1999/xlink" x="0px" y="0px" viewBox="0 0 317 317">
<g>
	<g>
		<g>
			<g>
				<g>
					<path fill-rule="evenodd" clip-rule="evenodd" fill="#000" d="M23.09,168.845c0-18.782-0.115-37.525,0.055-56.311
						c0.074-6.566,1.094-13.12,1.371-19.703c0.129-3.318-0.117-6.771-0.887-10.004c-0.902-3.58-0.176-6.611,1.455-9.684
						c4.283-8.199,10.281-14.94,17.592-20.591c3.145-2.418,2.973-4.558-0.336-6.685c-0.609-0.363-1.033-1.441-1.033-2.199
						c-0.102-5.4-0.031-10.804-0.072-16.192c-0.029-1.851,0.639-2.62,2.545-2.606c7.43,0.058,14.842,0.058,22.268,0
						c1.777-0.014,2.738,0.555,2.738,2.46c-0.057,5.535,0,11.025-0.07,16.53c-0.031,0.686-0.408,1.57-0.92,1.979
						c-3.305,2.461-3.279,4.295-0.238,7.238c4.271,4.105,8.395,8.415,12.57,12.638c0.234,0.232,0.426,0.496,0.641,0.787
						c4.721,5.621,7.004,11.475,5.576,19.354c-1.223,6.889,0.16,14.212,0.426,21.377c0.057,2.023,0.303,4.02,0.303,6.044
						c0.047,35.616,0.031,71.251,0.047,106.886c0,2.037,0.055,4.029,0.16,6.072c0.246,6.508-4.094,11.342-10.592,11.4
						c-14.396,0.074-28.756,0.074-43.168,0c-6.207-0.059-10.43-4.471-10.43-10.793C23.061,207.507,23.09,188.182,23.09,168.845z
						 M55.609,212.052c0.289-0.203,0.695-0.398,1.014-0.701c7.312-7.281,14.594-14.605,21.947-21.842
						c1.748-1.705,1.016-2.811-0.334-4.135c-6.859-6.801-13.721-13.588-20.461-20.52c-1.934-1.98-3.086-1.674-4.85,0.131
						c-5.85,6.043-11.791,11.969-17.857,17.842c-1.494,1.482-3.504,2.459-4.771,3.303C39.432,195.479,47.451,203.719,55.609,212.052
						z M54.875,83.017c7.982,0,15.963-0.129,23.928,0.087c3.365,0.073,3.277-2.185,3.438-4.151c0.221-2.168-1.021-3.218-3.307-3.218
						c-15.723,0.06-31.453,0.073-47.178,0c-2.959,0-3.625,1.618-3.652,4.05c-0.016,2.402,1.072,3.348,3.537,3.292
						C39.367,82.973,47.146,83.032,54.875,83.017z M54.967,112.71c8.195,0,16.41,0.057,24.578-0.06
						c1.008-0.044,1.965-1.151,2.943-1.747c-0.945-0.83-1.908-1.676-2.902-2.49c-0.143-0.103-0.434-0.045-0.652-0.045
						c-15.955,0-31.902,0-47.863,0c-1.736,0-3.246,0.349-3.246,2.492c0.031,2.301,1.834,1.835,3.215,1.85
						C39.02,112.738,47.014,112.71,54.967,112.71z M55.531,94.011c-7.41,0-14.836-0.043-22.221,0.029
						c-1.555,0.016-3.686-0.625-3.752,2.083c-0.092,2.679,1.965,2.287,3.576,2.287c14.797,0.014,29.619,0.014,44.445,0
						c1.545,0,3.363,0.303,3.451-2.114c0.016-2.633-1.992-2.271-3.625-2.271C70.125,93.996,62.799,94.011,55.531,94.011z
						 M55.012,105.908c7.645,0,15.271,0.017,22.887-0.015c1.314-0.027,3.18,0.582,3.18-1.849c0-2.169-1.428-2.518-3.18-2.518
						c-15.145,0-30.273-0.046-45.434,0.101c-0.973,0-2.561,1.281-2.807,2.271c-0.584,2.256,1.381,1.994,2.807,1.994
						C39.982,105.925,47.51,105.908,55.012,105.908z M55.318,86.495c-7.531,0-15.057-0.014-22.602,0
						c-1.412,0-3.059-0.318-3.158,1.953c-0.119,2.173,1.367,2.33,2.879,2.33c15.188,0.027,30.361,0.088,45.537-0.059
						c1.033-0.027,2.723-1.295,2.883-2.198c0.434-2.126-1.469-2.026-2.959-2.026C70.371,86.495,62.826,86.495,55.318,86.495z
						 M55.041,33.302v-0.015c-0.904,0-1.896-0.276-2.654,0.044c-1.016,0.437-2.33,1.166-2.617,2.025
						c-0.541,1.907,0.842,2.46,2.557,2.417c2.146-0.073,4.297,0.146,6.4-0.145c0.693-0.104,1.756-1.371,1.756-2.112
						c0-0.73-0.973-1.867-1.756-2.114C57.6,33.024,56.275,33.302,55.041,33.302z"/>
					<path fill-rule="evenodd" clip-rule="evenodd" fill="#000" d="M234.512,24.495c6.58,0,12.857,0,19.119,0
						c3.248,0,6.506,0.131,9.801-0.029c2.869-0.158,4.033,0.787,3.93,3.816c-0.217,5.168-0.332,10.353,0.027,15.523
						c0.219,3.131,0.846,6.448,2.174,9.273c7.99,17.213,15.668,34.602,20.922,52.92c2.668,9.288,4.15,18.713,4.08,28.497
						c-0.264,35.312-0.102,70.61-0.102,105.911c0,1.135-0.072,2.271,0.072,3.377c0.77,5.373-1.5,9.639-6.059,11.766
						c-5.826,2.723-12.014,5.021-18.316,6.395c-16.006,3.479-31.92,2.387-47.459-2.887c-2.854-0.932-5.535-2.461-8.066-4.135
						c-4.383-2.869-6.57-6.742-6.555-12.391c0.219-36.552,0.277-73.075,0.043-109.609c-0.117-18.623,4.951-35.952,12.217-52.713
						c4.299-9.904,9.439-19.383,14.172-29.066c0.713-1.456,2.506-2.912,0.174-4.486c-0.219-0.129-0.146-0.643-0.146-0.975
						C234.512,38.722,234.512,31.79,234.512,24.495z M284.561,201.292c0-13.82,0.016-27.623,0-41.46c0-4.556,0-4.569-4.691-4.569
						c-19.029-0.029-38.004-0.029-56.979,0c-4.865,0-4.879,0.014-4.879,4.847c-0.014,26.504,0.133,53.021-0.143,79.522
						c-0.033,4.721,1.689,7.385,5.719,9.074c1.355,0.553,2.668,1.324,4.08,1.586c6.582,1.252,13.133,2.824,19.805,3.422
						c11.561,1.062,22.787-0.844,33.551-5.301c2.59-1.076,3.652-2.738,3.621-5.68C284.469,228.933,284.561,215.108,284.561,201.292z
						 M261.826,134.048c0.076-0.309,0.135-0.6,0.207-0.92c-0.656-0.365-1.238-0.801-1.896-1.123
						c-4.938-2.371-7.67-6.465-7.934-11.691c-0.465-9.859-0.555-19.762-0.555-29.619c0.027-3.684,0.367-7.457,1.197-11.008
						c1.658-6.804,8.154-8.639,13.117-3.701c1.764,1.733,3.119,4.15,4.021,6.495c2.826,7.223,5.328,14.548,8.008,21.8
						c0.512,1.385,1.197,2.695,1.805,4.019c0.625-0.771,0.672-1.354,0.482-1.805c-6.424-16.019-12.846-32.052-19.439-47.999
						c-0.35-0.887-2.01-1.715-3.117-1.758c-3.701-0.234-7.443,0.072-11.127-0.146c-2.75-0.207-4.352,0.785-5.52,3.26
						c-4.832,10.617-10.162,21-14.559,31.805c-4.982,12.305-8.373,25.12-8.551,38.574c-0.057,2.941,0.891,3.932,3.861,3.902
						c11.691-0.146,23.359-0.084,35.051-0.084C258.525,134.048,260.182,134.048,261.826,134.048z M261.129,81.956
						c-0.814,0.728-1.119,0.904-1.119,1.02c-0.014,12.553-0.26,25.076,0.127,37.568c0.135,3.934,5.287,6.308,9.453,5.26
						c3.773-0.934,5.621-4.064,4.836-8.271c-0.217-1.107-0.51-2.199-0.873-3.232c-3.352-9.263-6.729-18.508-10.152-27.754
						C262.832,85.031,261.961,83.646,261.129,81.956z M251.357,140.612c7.168,0,14.359,0,21.537,0c3.145,0,6.295,0.102,9.408-0.145
						c0.787-0.072,1.457-1.209,2.199-1.865c-0.713-0.669-1.338-1.5-2.199-1.922c-0.641-0.334-1.531-0.146-2.301-0.146
						c-19.088,0-38.168,0-57.242,0.031c-1.137,0-2.301,0-3.336,0.305c-0.537,0.202-1.178,1.105-1.178,1.688
						c0,0.599,0.611,1.531,1.162,1.719c1.02,0.336,2.215,0.336,3.322,0.336C232.27,140.612,241.807,140.612,251.357,140.612z
						 M251.549,152.872c9.58,0,19.102,0,28.674,0c1.018,0,2.109,0.131,2.982-0.231c0.598-0.291,1.137-1.311,1.195-2.01
						c0-0.479-0.83-1.224-1.396-1.443c-0.701-0.274-1.559-0.117-2.332-0.117c-19.57-0.013-39.143-0.013-58.699,0
						c-0.785,0-1.66-0.157-2.357,0.117c-0.57,0.249-1.398,1.036-1.369,1.517c0.07,0.715,0.684,1.688,1.312,1.949
						c0.869,0.367,1.977,0.219,2.984,0.219C232.223,152.872,241.865,152.872,251.549,152.872z M250.963,146.249
						c10.111,0,20.213,0.043,30.322-0.074c1.047,0,2.107-0.945,3.145-1.44c-1.004-0.57-2.039-1.616-3.074-1.616
						c-19.979-0.104-39.973-0.104-59.934-0.016c-1.082,0-2.131,0.99-3.176,1.529c1.033,0.537,2.037,1.529,3.072,1.543
						C231.219,146.292,241.076,146.249,250.963,146.249z M284.023,120.415c-0.557-0.102-1.094-0.22-1.633-0.321
						c-0.305,6.394-4.109,10.337-9.131,13.544c3.275,0.395,6.275,0.51,9.26,0.321c0.686-0.046,1.91-1.079,1.91-1.663
						C284.43,128.353,284.18,124.392,284.023,120.415z M250.951,36.975v-0.016c1.57,0,3.145,0.117,4.672-0.044
						c0.598-0.072,1.078-0.829,1.59-1.252c-0.465-0.377-0.949-1.076-1.441-1.091c-3.16-0.101-6.291-0.132-9.436-0.016
						c-0.539,0.016-1.037,0.846-1.529,1.296c0.58,0.395,1.135,1.02,1.758,1.094C248.008,37.121,249.48,36.975,250.951,36.975z"/>
					<path fill-rule="evenodd" clip-rule="evenodd" fill="#000" d="M198.197,137.055c0,15.962-0.205,31.95,0.131,47.884
						c0.117,5.616-2.314,9.289-6.961,11.02c-6.393,2.361-12.99,4.486-19.672,5.505c-19.15,2.927-38.254,2.505-57.143-2.243
						c-1.848-0.451-3.686-1.062-5.43-1.817c-8.639-3.716-9.887-7.021-9.848-14.461c0.225-31.104,0.225-62.253-0.023-93.401
						c-0.061-6.391,2.545-10.659,8.107-12.479c7.279-2.389,14.869-4.835,22.426-5.344c12.596-0.875,25.35-0.789,37.988-0.031
						c7.168,0.438,14.348,2.507,21.207,4.791c7.498,2.475,9.217,5.84,9.217,13.703C198.197,105.808,198.197,121.433,198.197,137.055
						z M188.41,119.583c-0.361-0.146-0.729-0.307-1.08-0.422c-0.857,0.784-1.76,1.572-2.572,2.443
						c-4.312,4.734-8.729,9.393-12.846,14.287c-1.078,1.294-1.688,3.29-1.809,4.994c-0.215,3.35-1.469,4.994-4.832,5.258
						c-1.123,0.102-2.26,0.043-3.379,0.043c-9.902,0-19.775,0.045-29.68-0.014c-3.668-0.029-6.23-1.862-5.613-4.704
						c0.664-3.233-1.096-4.776-2.828-6.653c-2.025-2.23-3.975-4.588-6.158-6.685c-3.584-3.452-6.219-7.296-6.336-12.466
						c-0.061-1.282-0.553-2.533-0.844-3.785c-0.262,0-0.539,0-0.818,0c-0.16,1.106-0.404,2.213-0.404,3.317
						c-0.029,5.186-0.018,10.354-0.018,15.511c0,16.994,0.104,33.956-0.07,50.936c-0.014,3.379,1.15,5.316,4.266,6.234
						c2.691,0.787,5.359,1.746,8.098,2.314c14.08,2.854,28.338,3.438,42.562,1.82c6.758-0.743,13.41-2.504,20.066-4.049
						c3.029-0.697,4.426-2.59,4.367-6.131c-0.172-19.57-0.084-39.129-0.072-58.684C188.41,121.97,188.41,120.776,188.41,119.583z
						 M110.201,98.276c0.627,3.802,1.277,6.729,1.529,9.701c0.785,8.766,3.859,16.104,10.367,22.512
						c4.088,4.004,7.717,6.203,13.523,5.912c9.523-0.494,19.08-0.117,28.617-0.146c1.965-0.015,3.885,1.135,5.781-1.104
						c5.4-6.336,11.139-12.336,16.705-18.512c0.594-0.655,1.451-1.426,1.451-2.17c0.135-5.313,0.09-10.644,0.09-16.57
						c-13.035,4.208-25.818,5.345-38.705,5.416C136.525,103.419,123.609,102.151,110.201,98.276z M112.297,86.878
						c10.219,7.936,62.457,8.097,73.084,0.014C176.15,78.952,121.561,78.952,112.297,86.878z M148.104,138.759
						c0-0.102,0-0.201,0-0.291c-5.387,0-10.779-0.172-16.148,0.116c-1.223,0.06-3.148,1.532-3.377,2.636
						c-0.451,2.113,1.266,3.133,3.361,3.133c10.895,0,21.738,0,32.631,0c2.07,0,3.57-0.859,3.584-3.074
						c0.047-2.388-1.848-2.486-3.584-2.52C159.068,138.729,153.578,138.759,148.104,138.759z"/>
					<path fill-rule="evenodd" clip-rule="evenodd" fill="#000" d="M49.301,182.46c0.756,0.352,1.748,0.775,3.117,1.428
						c0-1.895,0-3.467,0-5.49c1.076,1.5,1.965,2.725,2.826,3.934c0.318-0.087,0.625-0.207,0.959-0.293
						c-0.484-2.723-0.959-5.445-1.426-8.155c0.127-0.044,0.289-0.103,0.436-0.159c1.24,2.75,2.465,5.503,4.08,9.072
						c0.375-1.543,0.566-2.316,0.754-3.117c0.246-0.043,0.496-0.072,0.773-0.115c0.117,2.926,0.275,5.854,0.465,9.739
						c1.164-1.747,1.91-2.809,2.928-4.341c-0.277,1.879-0.498,3.309-0.729,4.766c0.295-0.043,0.582-0.074,0.846-0.115
						c0.23,1.6,0.889,3.303,0.6,4.789c-0.969,4.439-6.279,7.062-12.133,6.275c-2.74-0.361-4.66-3.479-4.633-7.938
						c0.031-1.993-1.438-4.367,1.473-5.898C50.16,186.581,49.445,184.003,49.301,182.46z M53.697,194.228
						c-0.203,0.145-0.359,0.334-0.539,0.48c-0.332-0.904-0.68-1.777-1.031-2.695c-1.59,3.32-1.428,5.984,1.25,7.297
						c1.387,0.652,3.801,0.495,5.141-0.307c2.039-1.225,3.992-3.277,2.434-6.102c-0.771-1.398-2.066-2.504-3.32-3.989
						c-0.713,1.136-1.266,2.022-1.789,2.853c-0.568-0.23-1.123-0.48-1.91-0.83C53.818,192.26,53.756,193.237,53.697,194.228z"/>
					<path fill-rule="evenodd" clip-rule="evenodd" fill="#000" d="M221.467,206.576c9.287-9.261,19.16-19.032,28.727-28.511
						c9.557,9.594,19.396,19.484,29.168,29.255c-9.305,9.247-19.133,19.048-28.643,28.481
						C241.168,226.251,231.291,216.362,221.467,206.576z M277.834,208.021c-0.336-0.381-0.688-0.746-1.023-1.078
						c-0.184-0.295-0.262-0.656-0.494-0.891c-8.082-8.111-16.207-16.191-24.26-24.33c-1.5-1.503-2.459-0.889-3.641,0.289
						c-7.615,7.646-15.203,15.305-22.904,22.847c-1.719,1.719-1.498,2.825,0.1,4.411c7.549,7.414,15.016,14.859,22.396,22.412
						c1.938,1.996,3.088,1.689,4.896-0.146c6.402-6.607,12.912-13.119,19.498-19.553
						C274.002,210.438,276.023,209.329,277.834,208.021z"/>
					<path fill-rule="evenodd" clip-rule="evenodd" fill="#000" d="M255.67,194.479c-0.334,4.408-0.744,9.314-1.021,14.266
						c-0.131,2.653-1.836,2.551-3.74,2.596c-1.938,0.042-2.781-0.656-2.9-2.695c-0.348-5.724-0.859-11.416-1.367-17.096
						c-0.188-2.082,0.539-2.986,2.68-2.607c0.652,0.117,1.34,0.162,1.98,0.19C255.787,189.351,255.787,189.351,255.67,194.479z"/>
					<path fill-rule="evenodd" clip-rule="evenodd" fill="#000" d="M251.096,224.694c-2.68-0.029-4.936-2.23-4.98-4.852
						c-0.045-2.752,2.344-5.025,5.174-4.936c2.906,0.088,4.697,1.996,4.641,4.982C255.859,222.8,253.951,224.706,251.096,224.694z"
						/>
				</g>
			</g>
		</g>
		<g>
			<defs>
				<path id="SVGID_11_" d="M307.792,302.711c0,2.682-2.172,4.863-4.834,4.863H12.022c-2.689,0-4.848-2.182-4.848-4.863
					L8.439,13.349c0-2.666,2.158-4.822,4.848-4.822h290.936c2.662,0,4.834,2.156,4.834,4.822L307.792,302.711z"/>
			</defs>
			<clipPath id="SVGID_2_">
				<use xlink:href="#SVGID_11_"  overflow="visible"/>
			</clipPath>
			<g clip-path="url(#SVGID_2_)">
				<g id="zlMYrZ_2_">
					<g>
						<path fill-rule="evenodd" clip-rule="evenodd" fill="#000" d="M59.885,207.29c11.248,36.047,22.428,71.887,33.672,107.912
							c5.09-1.584,10.055-3.129,15.012-4.707c0.303-0.102,0.623-0.471,0.73-0.822c1.635-5.258,3.234-10.541,4.807-15.711
							c-1.664-1.719-3.338-3.199-4.748-4.953c-6.09-7.557-4.895-17.412,2.555-21.281c4.641-2.416,9.457-1.484,14.311,0.873
							c0.477,0.229,0.947,0.477,1.658,0.844c-0.854-2.742-1.646-5.08-2.295-7.449c-0.365-1.328-0.92-1.455-1.941-1.23
							c-3.635,0.789-7.27,1.639-10.967,2.127c-2.729,0.361-5.549,0.334-8.344,0.201c-2.064-0.096-4.219-2.084-3.104-5.117
							c0.023-0.064-0.092-0.205-0.121-0.268c-0.885-0.148-1.838-0.051-2.572-0.5c-0.963-0.582-2.182-1.467-2.49-2.469
							c-0.275-0.891,0.342-2.301,0.918-3.15c0.623-0.924,1.658-1.459,2.484-2.139c-1.92-0.096-3.805-0.094-5.688-0.309
							c-1.289-0.148-2.518-0.797-2.973-2.441c-0.422-1.543,0.221-2.697,1.195-3.457c1.4-1.096,2.91-2.018,4.281-2.953
							c-0.627,0.084-1.398,0.236-2.186,0.283c-2.561,0.156-5.113,0.404-7.689,0.355c-1.33-0.023-2.766-0.49-3.307-2.396
							c-0.539-1.904,0.498-2.855,1.545-3.76c0.551-0.475,1.158-0.863,2.102-1.561c-1.504,0.057-2.545,0.158-3.6,0.119
							c-1.125-0.043-2.277-0.057-3.383-0.379c-2.199-0.643-2.947-3.248-1.379-4.859c0.984-1.01,2.131-1.932,3.369-2.475
							c5.117-2.238,10.246-4.465,15.477-6.41c4.307-1.596,8.762-2.783,13.148-4.152c-6.113,0.871-12.059,2.316-18.082,3.395
							c-3.492,0.623-7.102,0.758-10.682,0.9c-1.416,0.059-2.932-0.596-3.451-2.48c-0.49-1.789,0.398-2.998,1.602-3.73
							c2.146-1.302,4.271-2.717,6.574-3.625c6.387-2.518,12.852-4.822,19.309-7.145c0.93-0.334,1.305-0.818,1.361-1.99
							c0.172-3.482,1.805-5.779,4.619-6.679c2.812-0.897,5.488,0,7.617,2.757c0.76,0.982,1.338,1.215,2.367,0.944
							c6.475-1.723,12.939-3.481,19.484-4.938c2.51-0.559,5.199-0.51,7.822-0.383c0.789,0.039,2.045,1.15,2.342,2.029
							c0.301,0.892-0.107,2.275-0.592,3.123c-0.514,0.898-1.4,1.602-2.275,2.078c-3.426,1.852-6.846,3.728-10.381,5.313
							c-4.373,1.953-8.852,3.624-13.518,5.516c0.396-0.024,0.551-0.008,0.689-0.048c6.57-1.789,13.096-3.748,19.719-5.316
							c3.652-0.86,7.467-1.146,11.229-1.541c1.381-0.146,2.832,0.402,3.422,2.17c0.588,1.777-0.359,2.973-1.443,3.839
							c-1.365,1.099-2.84,2.026-4.32,3.062c1.234,0.129,2.416,0.109,3.562,0.406c2.348,0.607,3.16,3.027,1.66,4.936
							c-0.676,0.861-1.512,1.625-2.404,2.186c-2.129,1.334-4.338,2.525-6.393,3.709c1.369-0.023,2.863-0.131,4.361-0.053
							c1.387,0.078,2.754,0.426,3.393,2.262c0.637,1.824-0.158,3.035-1.209,3.951c-1.307,1.145-2.746,2.094-4.18,3.172
							c2.131,0.332,4.693-0.623,5.867,2.426c1.074,2.777-1.174,3.893-2.471,5.375c2.342,2.369,2.465,4.256,0.32,6.334
							c-1.053,1.021-2.205,1.992-3.479,2.623c-4.193,2.092-8.457,4.018-12.697,6.004c-0.643,0.301-1.566,0.307-1.148,1.646
							c0.961,3.043,1.904,6.09,2.861,9.154c0.256-0.111,0.385-0.117,0.438-0.199c0.387-0.623,0.758-1.27,1.143-1.898
							c3.398-5.613,7.975-8.971,14.373-8.832c5.459,0.115,10.129,4.678,11.275,10.904c0.783,4.281,0.061,8.141-1.311,11.832
							c-0.381,1.02-0.355,1.711,0.471,2.59c2.291,2.434,4.535,4.924,6.732,7.467c0.793,0.916,1.482,1.107,2.475,0.785
							c5.574-1.795,11.17-3.51,16.754-5.254c0.594-0.188,1.191-0.369,1.84-0.572c-11.27-36.121-22.465-72.005-33.672-107.932
							C128.139,185.999,94.074,196.626,59.885,207.29z M162.178,293.798c-0.104-0.5-0.139-0.748-0.211-0.98
							c-0.109-0.365-0.176-0.771-0.377-1.07c-2.158-3.287-1.578-6.07,0.422-8.611c0.037-0.047,0.066-0.094,0.092-0.146
							c0.695-1.309,1.641-1.281,2.738-0.359c0.373,0.311,0.727,0.66,1.088,0.988c-0.117-0.494-0.34-0.855-0.592-1.188
							c-1.836-2.439-1.828-2.768-0.807-5.479c0.594-1.582,1.055-3.273,1.375-4.984c0.549-2.953,0.307-5.924-1.367-8.66
							c-2.348-3.824-6.836-5.205-10.941-3.479c-5.666,2.389-8.611,7.715-10.686,13.785c-0.996,2.922-2.43,5.021-5.105,5.619
							c-2.752,0.615-5.209-0.514-7.287-3.1c-3.986-4.963-11.816-7.33-16.83-5.15c-4.307,1.871-6.051,7.014-4.078,12.217
							c1.168,3.084,3.387,5.152,5.68,7.086c2.699,2.279,2.723,2.264,1.738,5.697c-0.568,1.988-1.184,3.961-1.773,5.939
							c1.176-2.066,2.123-4.256,3.166-6.375c1.098-2.238,1.928-2.381,3.879-0.816c0.834,0.672,1.785,1.242,2.439,2.098
							c0.611,0.801,1.127,1.896,1.295,2.904c0.275,1.641,0.227,3.318,0.334,5.223c2.246-0.699,4.316-1.334,6.375-2.006
							c0.225-0.072,0.469-0.299,0.561-0.537c0.699-1.822,1.359-3.666,2.086-5.646c-0.768-0.105-1.252-0.145-1.729-0.23
							c-3.693-0.658-6.867-2.482-9.086-6.271c-1.984-3.389-1.768-6.746,0.475-8.842c2.201-2.059,5.018-1.66,7.629,1.092
							c0.582,0.619,1.283,1.207,1.646,1.961c1.004,2.062,2.531,2.33,4.068,1.949c1.582-0.402,3.131-1.043,4.527-1.893
							c0.588-0.354,0.91-1.469,1.074-2.334c0.271-1.412,0.162-2.967,0.48-4.355c0.74-3.26,3.645-4.781,6.74-3.707
							c2.836,0.98,4.861,4.236,4.43,7.451c-0.203,1.535-0.637,3.094-1.295,4.402c-1.033,2.039-2.342,3.879-3.65,5.992
							c1.385,1.158,2.775,2.359,4.207,3.488c0.279,0.223,0.748,0.324,1.062,0.236C158.008,295.12,160.025,294.466,162.178,293.798z
							 M151.359,297.12c-1.24-1.189-2.256-2.113-3.225-3.098c-2.002-2.033-1.992-2.557-0.297-4.623
							c1.902-2.328,3.828-4.67,4.523-7.977c0.373-1.775-0.375-3.158-1.863-3.68c-1.518-0.531-2.719,0.148-2.984,1.92
							c-0.203,1.373-0.084,2.836-0.268,4.219c-0.113,0.852-0.334,1.838-0.83,2.385c-3.041,3.342-6.822,4.629-11.244,3.6
							c-0.793-0.182-1.588-1.037-2.248-1.748c-0.906-0.969-1.635-2.164-2.531-3.139c-0.979-1.057-2.137-1.639-3.199-0.535
							c-1.064,1.094-0.896,2.455-0.035,3.846c2.535,4.098,6.002,4.855,9.789,4.646c0.715-0.041,1.869,0.162,2.148,0.682
							c0.371,0.693,0.277,1.893,0.057,2.725c-0.459,1.672-1.137,3.244-1.84,5.158C142.158,299.993,146.611,298.604,151.359,297.12z
							 M111.668,218.368c-9.85,3.094-19.789,6.189-29.072,11.131c0.475,0.133,0.91,0.186,1.326,0.102
							c8.736-1.773,17.508-3.451,26.199-5.406c3.697-0.832,3.627-1.105,1.934-5.344C112.012,218.745,111.91,218.665,111.668,218.368
							z M125.48,214.069c0.348,1.104,0.674,1.869,0.814,2.664c0.346,1.961,1.172,2.262,2.648,1.662
							c6.541-2.666,13.137-5.192,19.666-7.887c2.096-0.867,4.055-2.105,6.07-3.178c-0.062-0.156-0.133-0.314-0.199-0.479
							C144.594,208.146,135.137,211.036,125.48,214.069z M114.641,227.198c-5.232,0.568-23.479,7.443-26.975,10.254
							c9.975-0.688,19.135-3.246,28.426-5.602C115.562,230.153,115.117,228.728,114.641,227.198z M129.752,227.374
							c4.143-0.461,23.191-8.955,25.035-11.131c-5.041-0.016-23.27,4.639-26.496,6.818c0.297,0.959,0.602,1.973,0.934,2.975
							C129.377,226.501,129.58,226.95,129.752,227.374z M82.826,215.646c9.166-0.414,17.904-2.602,26.613-4.969
							c-0.578-1.858-1.037-3.34-1.553-4.988C99.23,208.384,90.74,211.204,82.826,215.646z M123.197,206.455
							c8.25-3.107,16.355-5.992,23.672-10.831c-8.701,0.836-17.002,3.104-25.234,5.822
							C122.18,203.189,122.641,204.673,123.197,206.455z M95.287,245.431c4.471,0.516,20.963-2.592,23.637-4.283
							c-0.471-1.516-0.947-3.033-1.463-4.693C109.75,238.886,102.215,241.396,95.287,245.431z M153.738,227.278
							c-7.803,0.492-15.168,2.594-22.604,4.918c0.32,1.021,0.547,1.742,0.768,2.461c0.236,0.764,0.479,1.525,0.791,2.531
							C140.113,234.464,147.287,231.755,153.738,227.278z M100.275,253.175c0.061,0.213,0.119,0.426,0.178,0.637
							c7.666,0.885,13.752-3.76,20.637-5.496c-0.545-3.068-0.594-3.1-2.68-2.385c-2.363,0.811-4.766,1.502-7.078,2.439
							C107.615,249.89,103.955,251.567,100.275,253.175z M134.912,243.97c6.438-2.381,13.801-1.947,19.295-7.131
							c-0.758-0.139-1.498-0.182-2.193-0.025c-5.395,1.209-10.787,2.428-16.166,3.709C133.82,241.005,133.84,241.087,134.912,243.97
							z M104.92,259.628c6.746,0.168,12.795-1.363,18.887-2.711c-0.596-3.121-0.582-3.064-2.84-2.5
							c-2.469,0.611-4.967,1.141-7.463,1.65C110.559,256.663,107.529,257.009,104.92,259.628z M153.697,244.538
							c-0.064-0.229-0.129-0.455-0.189-0.691c-1.75,0.324-3.576,0.41-5.225,1.018c-3.285,1.211-6.451,2.758-9.703,4.059
							c-2.127,0.85-2.203,0.924-0.832,3.695C143.189,250.233,148.838,248.276,153.697,244.538z M117.445,307.767
							c0.42-0.129,1.219-0.375,2.01-0.627c3.711-1.156,3.658-1.16,3.51-5.703c-0.047-1.594-0.477-2.648-2.238-3.285
							C119.635,301.347,118.521,304.62,117.445,307.767z M168.924,291.632c-1.736-1.795-3.219-3.342-4.914-5.098
							c-0.879,2.637,0.869,4.217,1.482,6.17C166.664,292.335,167.658,292.028,168.924,291.632z"/>
						<path fill-rule="evenodd" clip-rule="evenodd" fill="#000" d="M59.885,207.29c34.189-10.664,68.254-21.291,102.453-31.963
							c11.207,35.927,22.402,71.811,33.672,107.932c-0.648,0.203-1.246,0.385-1.84,0.572c-5.584,1.744-11.18,3.459-16.754,5.254
							c-0.992,0.322-1.682,0.131-2.475-0.785c-2.197-2.543-4.441-5.033-6.732-7.467c-0.826-0.879-0.852-1.57-0.471-2.59
							c1.371-3.691,2.094-7.551,1.311-11.832c-1.146-6.227-5.816-10.789-11.275-10.904c-6.398-0.139-10.975,3.219-14.373,8.832
							c-0.385,0.629-0.756,1.275-1.143,1.898c-0.053,0.082-0.182,0.088-0.438,0.199c-0.957-3.064-1.9-6.111-2.861-9.154
							c-0.418-1.34,0.506-1.346,1.148-1.646c4.24-1.986,8.504-3.912,12.697-6.004c1.273-0.631,2.426-1.602,3.479-2.623
							c2.145-2.078,2.021-3.965-0.32-6.334c1.297-1.482,3.545-2.598,2.471-5.375c-1.174-3.049-3.736-2.094-5.867-2.426
							c1.434-1.078,2.873-2.027,4.18-3.172c1.051-0.916,1.846-2.127,1.209-3.951c-0.639-1.836-2.006-2.184-3.393-2.262
							c-1.498-0.078-2.992,0.029-4.361,0.053c2.055-1.184,4.264-2.375,6.393-3.709c0.893-0.561,1.729-1.324,2.404-2.186
							c1.5-1.908,0.688-4.328-1.66-4.936c-1.146-0.297-2.328-0.277-3.562-0.406c1.48-1.035,2.955-1.963,4.32-3.062
							c1.084-0.866,2.031-2.062,1.443-3.839c-0.59-1.768-2.041-2.316-3.422-2.17c-3.762,0.395-7.576,0.681-11.229,1.541
							c-6.623,1.568-13.148,3.527-19.719,5.316c-0.139,0.04-0.293,0.023-0.689,0.048c4.666-1.892,9.145-3.562,13.518-5.516
							c3.535-1.586,6.955-3.462,10.381-5.313c0.875-0.477,1.762-1.18,2.275-2.078c0.484-0.848,0.893-2.231,0.592-3.123
							c-0.297-0.879-1.553-1.99-2.342-2.029c-2.623-0.127-5.312-0.176-7.822,0.383c-6.545,1.457-13.01,3.216-19.484,4.938
							c-1.029,0.271-1.607,0.038-2.367-0.944c-2.129-2.757-4.805-3.654-7.617-2.757c-2.814,0.899-4.447,3.196-4.619,6.679
							c-0.057,1.172-0.432,1.656-1.361,1.99c-6.457,2.322-12.922,4.627-19.309,7.145c-2.303,0.908-4.428,2.323-6.574,3.625
							c-1.203,0.732-2.092,1.941-1.602,3.73c0.52,1.885,2.035,2.539,3.451,2.48c3.58-0.143,7.189-0.277,10.682-0.9
							c6.023-1.078,11.969-2.523,18.082-3.395c-4.387,1.369-8.842,2.557-13.148,4.152c-5.23,1.945-10.359,4.172-15.477,6.41
							c-1.238,0.543-2.385,1.465-3.369,2.475c-1.568,1.611-0.82,4.217,1.379,4.859c1.105,0.322,2.258,0.336,3.383,0.379
							c1.055,0.039,2.096-0.062,3.6-0.119c-0.943,0.697-1.551,1.086-2.102,1.561c-1.047,0.904-2.084,1.855-1.545,3.76
							c0.541,1.906,1.977,2.373,3.307,2.396c2.576,0.049,5.129-0.199,7.689-0.355c0.787-0.047,1.559-0.199,2.186-0.283
							c-1.371,0.936-2.881,1.857-4.281,2.953c-0.975,0.76-1.617,1.914-1.195,3.457c0.455,1.645,1.684,2.293,2.973,2.441
							c1.883,0.215,3.768,0.213,5.688,0.309c-0.826,0.68-1.861,1.215-2.484,2.139c-0.576,0.85-1.193,2.26-0.918,3.15
							c0.309,1.002,1.527,1.887,2.49,2.469c0.734,0.449,1.688,0.352,2.572,0.5c0.029,0.062,0.145,0.203,0.121,0.268
							c-1.115,3.033,1.039,5.021,3.104,5.117c2.795,0.133,5.615,0.16,8.344-0.201c3.697-0.488,7.332-1.338,10.967-2.127
							c1.021-0.225,1.576-0.098,1.941,1.23c0.648,2.369,1.441,4.707,2.295,7.449c-0.711-0.367-1.182-0.615-1.658-0.844
							c-4.854-2.357-9.67-3.289-14.311-0.873c-7.449,3.869-8.645,13.725-2.555,21.281c1.41,1.754,3.084,3.234,4.748,4.953
							c-1.572,5.17-3.172,10.453-4.807,15.711c-0.107,0.352-0.428,0.721-0.73,0.822c-4.957,1.578-9.922,3.123-15.012,4.707
							C82.312,279.177,71.133,243.337,59.885,207.29z"/>
						<path fill-rule="evenodd" clip-rule="evenodd" fill="#000" d="M162.178,293.798c-2.152,0.668-4.17,1.322-6.207,1.908
							c-0.314,0.088-0.783-0.014-1.062-0.236c-1.432-1.129-2.822-2.33-4.207-3.488c1.309-2.113,2.617-3.953,3.65-5.992
							c0.658-1.309,1.092-2.867,1.295-4.402c0.432-3.215-1.594-6.471-4.43-7.451c-3.096-1.074-6,0.447-6.74,3.707
							c-0.318,1.389-0.209,2.943-0.48,4.355c-0.164,0.865-0.486,1.98-1.074,2.334c-1.396,0.85-2.945,1.49-4.527,1.893
							c-1.537,0.381-3.064,0.113-4.068-1.949c-0.363-0.754-1.064-1.342-1.646-1.961c-2.611-2.752-5.428-3.15-7.629-1.092
							c-2.242,2.096-2.459,5.453-0.475,8.842c2.219,3.789,5.393,5.613,9.086,6.271c0.477,0.086,0.961,0.125,1.729,0.23
							c-0.727,1.98-1.387,3.824-2.086,5.646c-0.092,0.238-0.336,0.465-0.561,0.537c-2.059,0.672-4.129,1.307-6.375,2.006
							c-0.107-1.904-0.059-3.582-0.334-5.223c-0.168-1.008-0.684-2.104-1.295-2.904c-0.654-0.855-1.605-1.426-2.439-2.098
							c-1.951-1.564-2.781-1.422-3.879,0.816c-1.043,2.119-1.99,4.309-3.166,6.375c0.59-1.979,1.205-3.951,1.773-5.939
							c0.984-3.434,0.961-3.418-1.738-5.697c-2.293-1.934-4.512-4.002-5.68-7.086c-1.973-5.203-0.229-10.346,4.078-12.217
							c5.014-2.18,12.844,0.188,16.83,5.15c2.078,2.586,4.535,3.715,7.287,3.1c2.676-0.598,4.109-2.697,5.105-5.619
							c2.074-6.07,5.02-11.396,10.686-13.785c4.105-1.727,8.594-0.346,10.941,3.479c1.674,2.736,1.916,5.707,1.367,8.66
							c-0.32,1.711-0.781,3.402-1.375,4.984c-1.021,2.711-1.029,3.039,0.807,5.479c0.252,0.332,0.475,0.693,0.592,1.188
							c-0.361-0.328-0.715-0.678-1.088-0.988c-1.098-0.922-2.043-0.949-2.738,0.359c-0.025,0.053-0.055,0.1-0.092,0.146
							c-2,2.541-2.58,5.324-0.422,8.611c0.201,0.299,0.268,0.705,0.377,1.07C162.039,293.05,162.074,293.298,162.178,293.798z"/>
						<path fill-rule="evenodd" clip-rule="evenodd" fill="#000" d="M151.359,297.12c-4.748,1.484-9.201,2.873-14.047,4.381
							c0.703-1.914,1.381-3.486,1.84-5.158c0.221-0.832,0.314-2.031-0.057-2.725c-0.279-0.52-1.434-0.723-2.148-0.682
							c-3.787,0.209-7.254-0.549-9.789-4.646c-0.861-1.391-1.029-2.752,0.035-3.846c1.062-1.104,2.221-0.521,3.199,0.535
							c0.896,0.975,1.625,2.17,2.531,3.139c0.66,0.711,1.455,1.566,2.248,1.748c4.422,1.029,8.203-0.258,11.244-3.6
							c0.496-0.547,0.717-1.533,0.83-2.385c0.184-1.383,0.064-2.846,0.268-4.219c0.266-1.771,1.467-2.451,2.984-1.92
							c1.488,0.521,2.236,1.904,1.863,3.68c-0.695,3.307-2.621,5.648-4.523,7.977c-1.695,2.066-1.705,2.59,0.297,4.623
							C149.104,295.007,150.119,295.931,151.359,297.12z"/>
						<path fill-rule="evenodd" clip-rule="evenodd" fill="#000" d="M111.668,218.368c0.242,0.297,0.344,0.377,0.387,0.482
							c1.693,4.238,1.764,4.512-1.934,5.344c-8.691,1.955-17.463,3.633-26.199,5.406c-0.416,0.084-0.852,0.031-1.326-0.102
							C91.879,224.558,101.818,221.462,111.668,218.368z"/>
						<path fill-rule="evenodd" clip-rule="evenodd" fill="#000" d="M125.48,214.069c9.656-3.033,19.113-5.924,29-7.217
							c0.066,0.164,0.137,0.322,0.199,0.479c-2.016,1.072-3.975,2.311-6.07,3.178c-6.529,2.694-13.125,5.221-19.666,7.887
							c-1.477,0.6-2.303,0.299-2.648-1.662C126.154,215.938,125.828,215.173,125.48,214.069z"/>
						<path fill-rule="evenodd" clip-rule="evenodd" fill="#000" d="M114.641,227.198c0.477,1.529,0.922,2.955,1.451,4.652
							c-9.291,2.355-18.451,4.914-28.426,5.602C91.162,234.642,109.408,227.767,114.641,227.198z"/>
						<path fill-rule="evenodd" clip-rule="evenodd" fill="#000" d="M129.752,227.374c-0.172-0.424-0.375-0.873-0.527-1.338
							c-0.332-1.002-0.637-2.016-0.934-2.975c3.227-2.18,21.455-6.834,26.496-6.818
							C152.943,218.419,133.895,226.913,129.752,227.374z"/>
						<path fill-rule="evenodd" clip-rule="evenodd" fill="#000" d="M82.826,215.646c7.914-4.441,16.404-7.262,25.061-9.957
							c0.516,1.648,0.975,3.13,1.553,4.988C100.73,213.044,91.992,215.231,82.826,215.646z"/>
						<path fill-rule="evenodd" clip-rule="evenodd" fill="#000" d="M123.197,206.455c-0.557-1.782-1.018-3.266-1.562-5.009
							c8.232-2.719,16.533-4.986,25.234-5.822C139.553,200.463,131.447,203.348,123.197,206.455z"/>
						<path fill-rule="evenodd" clip-rule="evenodd" fill="#000" d="M95.287,245.431c6.928-4.035,14.463-6.545,22.174-8.977
							c0.516,1.66,0.992,3.178,1.463,4.693C116.25,242.839,99.758,245.946,95.287,245.431z"/>
						<path fill-rule="evenodd" clip-rule="evenodd" fill="#000" d="M153.738,227.278c-6.451,4.477-13.625,7.186-21.045,9.91
							c-0.312-1.006-0.555-1.768-0.791-2.531c-0.221-0.719-0.447-1.439-0.768-2.461C138.57,229.872,145.936,227.771,153.738,227.278
							z"/>
						<path fill-rule="evenodd" clip-rule="evenodd" fill="#000" d="M100.275,253.175c3.68-1.607,7.34-3.285,11.057-4.805
							c2.312-0.938,4.715-1.629,7.078-2.439c2.086-0.715,2.135-0.684,2.68,2.385c-6.885,1.736-12.971,6.381-20.637,5.496
							C100.395,253.601,100.336,253.388,100.275,253.175z"/>
						<path fill-rule="evenodd" clip-rule="evenodd" fill="#000" d="M134.912,243.97c-1.072-2.883-1.092-2.965,0.936-3.447
							c5.379-1.281,10.771-2.5,16.166-3.709c0.695-0.156,1.436-0.113,2.193,0.025C148.713,242.022,141.35,241.589,134.912,243.97z"
							/>
						<path fill-rule="evenodd" clip-rule="evenodd" fill="#000" d="M104.92,259.628c2.609-2.619,5.639-2.965,8.584-3.561
							c2.496-0.51,4.994-1.039,7.463-1.65c2.258-0.564,2.244-0.621,2.84,2.5C117.715,258.265,111.666,259.796,104.92,259.628z"/>
						<path fill-rule="evenodd" clip-rule="evenodd" fill="#000" d="M153.697,244.538c-4.859,3.738-10.508,5.695-15.949,8.08
							c-1.371-2.771-1.295-2.846,0.832-3.695c3.252-1.301,6.418-2.848,9.703-4.059c1.648-0.607,3.475-0.693,5.225-1.018
							C153.568,244.083,153.633,244.31,153.697,244.538z"/>
						<path fill-rule="evenodd" clip-rule="evenodd" fill="#000" d="M117.445,307.767c1.076-3.146,2.189-6.42,3.281-9.615
							c1.762,0.637,2.191,1.691,2.238,3.285c0.148,4.543,0.201,4.547-3.51,5.703C118.664,307.392,117.865,307.638,117.445,307.767z"
							/>
						<path fill-rule="evenodd" clip-rule="evenodd" fill="#000" d="M168.924,291.632c-1.266,0.396-2.26,0.703-3.432,1.072
							c-0.613-1.953-2.361-3.533-1.482-6.17C165.705,288.29,167.188,289.837,168.924,291.632z"/>
					</g>
				</g>
			</g>
		</g>
	</g>
</g>
</svg>
