<?xml version="1.0" encoding="utf-8"?>
<!-- Generator: Adobe Illustrator 16.0.4, SVG Export Plug-In . SVG Version: 6.00 Build 0)  -->
<!DOCTYPE svg PUBLIC "-//W3C//DTD SVG 1.1//EN" "http://www.w3.org/Graphics/SVG/1.1/DTD/svg11.dtd">
<svg version="1.1" id="Calque_1" xmlns="http://www.w3.org/2000/svg" xmlns:xlink="http://www.w3.org/1999/xlink" x="0px" y="0px"
	 width="317.48px" height="425.2px" viewBox="0 0 317.48 425.2" enable-background="new 0 0 317.48 425.2" xml:space="preserve">
<g>
	<g>
		<path fill="#28428B" d="M42.635,348.589H31.082v9.006h12.92v4.598h-18.52v-30.668h17.834v4.598H31.082v7.916h11.553V348.589z
			 M41.867,324.427l-5.691,5.463h-4.502l4-5.463H41.867z"/>
		<path fill="#28428B" d="M49.6,331.524h5.598v25.982h12.6v4.686H49.6V331.524z"/>
		<path fill="#28428B" d="M89.863,348.589H78.307v9.006h12.926v4.598H72.711v-30.668h17.836v4.598h-12.24v7.916h11.557V348.589z"/>
		<path fill="#28428B" d="M118.801,361.282c-1.316,0.637-4.232,1.363-7.961,1.363c-9.738,0-15.652-6.096-15.652-15.424
			c0-10.096,7.051-16.152,16.424-16.152c3.688,0,6.281,0.729,7.416,1.32l-1.182,4.461c-1.457-0.639-3.502-1.186-6.006-1.186
			c-6.23,0-10.738,3.912-10.738,11.283c0,6.738,3.914,11.01,10.693,11.01c2.23,0,4.594-0.451,6.098-1.09L118.801,361.282z"/>
		<path fill="#28428B" d="M131.041,336.212h-8.734v-4.688h23.156v4.688h-8.826v25.98h-5.596V336.212z"/>
		<path fill="#28428B" d="M149.738,331.981c2.139-0.408,5.232-0.682,8.465-0.682c4.41,0,7.369,0.729,9.463,2.455
			c1.682,1.41,2.639,3.549,2.639,6.191c0,3.957-2.684,6.639-5.594,7.643v0.135c2.227,0.82,3.545,2.959,4.275,5.912
			c0.998,3.824,1.818,7.373,2.408,8.557h-5.732c-0.455-0.91-1.227-3.412-2.047-7.232c-0.908-4.006-2.316-5.279-5.502-5.369h-2.824
			v12.602h-5.551V331.981z M155.289,345.493h3.322c3.777,0,6.1-2,6.1-5.051c0-3.316-2.322-4.912-5.963-4.912
			c-1.773,0-2.912,0.135-3.459,0.273V345.493z"/>
		<path fill="#28428B" d="M181.904,331.524v30.668h-5.594v-30.668H181.904z"/>
		<path fill="#28428B" d="M214.803,367.106c-4.277-1.186-8.1-2.502-11.969-3.959c-0.635-0.271-1.318-0.408-2.002-0.455
			c-7.096-0.361-13.418-5.596-13.418-15.561c0-9.463,5.867-16.104,14.646-16.104c8.873,0,14.154,6.822,14.154,15.467
			c0,7.371-3.414,12.332-7.918,14.15v0.18c2.637,0.73,5.592,1.367,8.096,1.82L214.803,367.106z M201.834,358.188
			c5.369,0,8.463-5.008,8.463-11.422c0-5.82-2.865-11.236-8.416-11.236c-5.598,0-8.557,5.32-8.557,11.465
			c0,6.143,3.141,11.193,8.465,11.193H201.834z"/>
		<path fill="#28428B" d="M227.27,331.524v17.885c0,6.004,2.5,8.779,6.275,8.779c4.051,0,6.463-2.775,6.463-8.779v-17.885h5.596
			v17.52c0,9.465-4.871,13.648-12.24,13.648c-7.096,0-11.691-3.957-11.691-13.604v-17.564H227.27z"/>
		<path fill="#28428B" d="M269.855,348.589h-11.561v9.006h12.924v4.598h-18.52v-30.668h17.836v4.598h-12.24v7.916h11.561V348.589z"
			/>
		<path fill="#28428B" d="M276.723,356.097c1.775,1.043,4.549,1.957,7.416,1.957c3.553,0,5.555-1.684,5.555-4.188
			c0-2.32-1.549-3.688-5.416-5.098c-5.098-1.773-8.326-4.504-8.326-8.871c0-5.049,4.184-8.828,10.875-8.828
			c3.318,0,5.73,0.729,7.324,1.506l-1.32,4.551c-1.135-0.594-3.273-1.461-6.145-1.461c-3.547,0-5.049,1.867-5.049,3.688
			c0,2.363,1.777,3.457,5.867,5.004c5.326,2.047,7.875,4.732,7.875,9.1c0,4.959-3.729,9.189-11.605,9.189
			c-3.273,0-6.639-0.908-8.324-1.908L276.723,356.097z"/>
	</g>
	<g>
		<g>
			<path fill="#FFFFFF" d="M310.047,304.298c0,2.666-2.145,4.834-4.836,4.834H14.299c-2.666,0-4.848-2.168-4.848-4.834V13.386
				c0-2.676,2.182-4.848,4.848-4.848h290.912c2.691,0,4.836,2.172,4.836,4.848V304.298z"/>
			<path fill="#28428B" d="M305.211,310.583H14.299c-3.475,0-6.299-2.82-6.299-6.285V13.386c0-3.473,2.824-6.298,6.299-6.298
				h290.912c3.465,0,6.285,2.825,6.285,6.298v290.912C311.496,307.763,308.676,310.583,305.211,310.583z M14.299,9.987
				c-1.873,0-3.4,1.523-3.4,3.398v290.912c0,1.865,1.527,3.385,3.4,3.385h290.912c1.869,0,3.385-1.52,3.385-3.385V13.386
				c0-1.875-1.516-3.398-3.385-3.398H14.299z"/>
		</g>
		<path fill="#28428B" d="M213.492,127.481c0,0,27.693,0,32.762,0c5.053,0,5.389-2.404,1.543-8.168
			c-3.812-5.767-10.891-5.214-10.891-5.214s-9.611,0-16.078,0c-6.475,0-7.336,9.028-7.805,11.371
			C212.572,127.802,213.492,127.481,213.492,127.481z M216.885,123.974c0.887-4.385,2.125-6.365,3.943-6.365h16.193h0.102
			c0.047,0,0.146,0,0.246,0c1.182,0,5.242,0.264,7.486,3.654c0.816,1.21,1.281,2.082,1.586,2.695L216.885,123.974z"/>
		<g>
			<path fill="#28428B" d="M273.465,29.635h-52.838c-0.875,0-1.559,0.686-1.559,1.56v36.079c0,0.873,0.684,1.573,1.559,1.573h52.838
				c0.861,0,1.576-0.7,1.576-1.573V31.194C275.041,30.32,274.326,29.635,273.465,29.635z M270.801,64.626h-47.494V33.872h47.494
				V64.626z"/>
			<rect x="222.564" y="68.117" fill="#28428B" width="8.793" height="2.112"/>
			<rect x="262.836" y="68.117" fill="#28428B" width="8.799" height="2.112"/>
			<path fill="#28428B" d="M284.33,86.946c0,0-6.844-12.16-8.127-14.911c-1.264-2.768-3.406-2.403-3.406-2.403H221.15
				c-1.979,0-2.77,1.835-2.77,1.835s-4.393,9.26-7.262,15.479c-1.766,3.799,0.408,5.154,1.688,5.154c1.268,0,64.314,0,68.844,0
				C286.15,92.101,284.33,86.946,284.33,86.946z M258.09,75.05h-6.158l-0.072-1.587h5.986L258.09,75.05z M257.463,71.222
				l0.252,1.396h-5.885l-0.041-1.396H257.463z M244.359,71.222h5.723l0.059,1.396h-5.838L244.359,71.222z M244.258,73.463h5.928
				l0.045,1.587h-6.033L244.258,73.463z M244.17,75.907h6.102l0.061,1.75h-6.234L244.17,75.907z M236.814,71.222h5.857l-0.061,1.396
				h-5.998L236.814,71.222z M236.471,73.463h6.098l-0.059,1.587h-6.307L236.471,73.463z M226.016,77.657h-6.686l0.754-1.75h6.441
				L226.016,77.657z M226.77,75.05h-6.314l0.68-1.587h6.102L226.77,75.05z M221.486,72.618l0.594-1.396h5.799l-0.396,1.396H221.486z
				 M234.08,77.657h-6.287l0.504-1.75h6.062L234.08,77.657z M234.488,75.05h-5.941l0.467-1.587h5.736L234.488,75.05z
				 M234.898,72.618h-5.639l0.393-1.396h5.459L234.898,72.618z M236.076,75.907h6.387l-0.053,1.75h-6.625L236.076,75.907z
				 M256.549,87.223c-1.211,0-18.932,0-18.932,0s-1.191,0.056-0.975-1.267c0.189-1.34,0.686-4.179,0.686-4.179
				s0.203-0.92,1.049-0.92h17.617c0,0,0.771-0.349,0.992,1.007c0.213,1.34,0.639,4.381,0.639,4.381S257.754,87.223,256.549,87.223z
				 M252.035,77.657l-0.072-1.75h6.273l0.279,1.75H252.035z M259.195,71.222h5.621l0.395,1.396h-5.793L259.195,71.222z
				 M259.561,73.463h5.898l0.467,1.587h-6.133L259.561,73.463z M260.232,77.657l-0.287-1.75h6.242l0.51,1.75H260.232z
				 M266.582,71.222h5.854L273,72.618h-5.998L266.582,71.222z M267.232,73.463h6.105l0.639,1.587h-6.26L267.232,73.463z
				 M268.459,77.657l-0.51-1.75h6.377l0.715,1.75H268.459z"/>
		</g>
		<g>
			<path fill="#28428B" d="M282.482,149.642H176.068c-1.219,0-2.225,0.975-2.225,2.197v127.49c0,1.221,1.006,2.213,2.225,2.213
				h7.807v6.199h90.803v-6.199h7.805c1.223,0,2.225-0.992,2.225-2.213v-127.49C284.707,150.616,283.705,149.642,282.482,149.642z
				 M278.053,156.267v16.248h-97.555v-16.248H278.053z M180.498,274.899V178.25h97.555v96.649H180.498z"/>
			<path fill="#28428B" d="M196.035,163.662c0,2.447-1.971,4.426-4.414,4.426c-2.432,0-4.396-1.979-4.396-4.426
				c0-2.431,1.965-4.411,4.396-4.411C194.064,159.251,196.035,161.231,196.035,163.662z"/>
			<path fill="#28428B" d="M209.326,163.662c0,2.447-1.98,4.426-4.412,4.426c-2.443,0-4.426-1.979-4.426-4.426
				c0-2.431,1.982-4.411,4.426-4.411C207.346,159.251,209.326,161.231,209.326,163.662z"/>
			<path fill="#28428B" d="M229.26,193.161c-17.471,0-31.637,14.18-31.637,31.641c0,17.482,14.166,31.666,31.637,31.666
				c17.488,0,31.643-14.184,31.643-31.666C260.902,207.341,246.748,193.161,229.26,193.161z M229.26,249.96
				c-13.877,0-25.131-11.268-25.131-25.158c0-13.875,11.254-25.119,25.131-25.119c13.893,0,25.164,11.244,25.164,25.119
				C254.424,238.692,243.152,249.96,229.26,249.96z"/>
		</g>
		<g>
			<path fill="#28428B" d="M67.707,43.337c-1.674,0-3.041,1.354-3.041,3.043v25.117c0,1.688,1.367,3.043,3.041,3.043
				c1.688,0,3.059-1.354,3.059-3.043V46.38C70.766,44.69,69.395,43.337,67.707,43.337z"/>
			<path fill="#28428B" d="M67.707,151.985c1.688,0,3.059-1.339,3.059-3.044v-50.74c0-1.675-1.371-3.042-3.059-3.042
				c-1.674,0-3.041,1.367-3.041,3.042v50.74C64.666,150.646,66.033,151.985,67.707,151.985z"/>
		</g>
		<path fill="#28428B" d="M156.834,29.635H55.201c-1.619,0-2.924,1.312-2.924,2.927v191.67c0,1.629,1.305,2.943,2.924,2.943h7.295
			v5.809h87.248v-5.809h7.09c1.604,0,2.914-1.314,2.914-2.943V32.562C159.748,30.946,158.438,29.635,156.834,29.635z
			 M154.521,221.946H57.469V86.378h97.053V221.946z M154.521,81.02H57.469V34.832h97.053V81.02z"/>
		<g>
			<path fill="#28428B" d="M194.404,57.126c0,0.406-0.309,0.713-0.701,0.713l0,0c-0.391,0-0.701-0.307-0.701-0.713v-3.641
				c0-0.38,0.311-0.699,0.701-0.699l0,0c0.393,0,0.701,0.319,0.701,0.699V57.126z"/>
			<path fill="#28428B" d="M200.545,64.944c-0.391,0-0.697-0.318-0.697-0.699l0,0c0-0.394,0.307-0.697,0.697-0.697h3.643
				c0.408,0,0.727,0.304,0.727,0.697l0,0c0,0.381-0.318,0.699-0.727,0.699H200.545z"/>
			<path fill="#28428B" d="M199.117,59.833c-0.303,0.22-0.752,0.133-0.986-0.176l0,0c-0.217-0.318-0.162-0.77,0.172-0.988
				l2.93-2.125c0.334-0.234,0.77-0.177,1.002,0.145l0,0c0.221,0.32,0.16,0.758-0.172,0.992L199.117,59.833z"/>
			<path fill="#28428B" d="M193.717,61.042h-13.963v-0.875h-3.467v0.875h-1.877c-1.574,0-2.852,1.281-2.852,2.855v37.738
				c0,1.588,1.277,2.867,2.852,2.867h19.307c1.588,0,2.854-1.279,2.854-2.867V63.897C196.57,62.323,195.305,61.042,193.717,61.042z
				 M184.064,101.622c-1.266,0-2.299-1.033-2.299-2.316c0-1.266,1.033-2.301,2.299-2.301c1.283,0,2.314,1.035,2.314,2.301
				C186.379,100.589,185.348,101.622,184.064,101.622z M194.129,94.517h-19.486v-30.59h19.486V94.517z"/>
		</g>
		<path fill="#28428B" d="M284.707,141.414c0,0-4.818-7.12-12.299-15.769c-11.025-12.709-21.889-17.297-28.531-17.297v-1.775
			h-12.549v1.658h-12.768c0,0-8.113,0.117-9.672,7.119c-1.557,7.021-3.145,13.877-3.145,13.877l0,0
			c-3.652-0.756-17.865-2.854-31.623,7.266c-5.49,4.018-16.688,4.223-16.688,4.223l0.145,3.989c0,0,1.789,0.115,2.705,0.115
			c5.129,0,10.793-1.295,16.123-5.195c12.809-9.394,26.064-7.034,28.508-6.495l-1.953,8.284H284.707z M212.342,116.124
			c0.902-4.033,5.617-4.323,6.26-4.354l25.275,0.116c8.781,0,19.428,8.663,25.877,16.075c1.73,2.022,3.305,3.916,4.732,5.707h-66.02
			C209.559,128.702,211.365,120.637,212.342,116.124z M207.83,136.479h68.854c0.381,0.479,0.744,0.946,1.098,1.37h-70.258
			C207.523,137.849,207.623,137.352,207.83,136.479z"/>
	</g>
	<g>
		<rect x="37.502" y="212.747" fill="#FFFFFF" width="101.793" height="57.318"/>
		<path fill="#28428B" d="M141.818,209.295H35.738c-1.074,0-1.965,0.933-1.965,2.077v62.564c0,1.146,0.891,2.094,1.965,2.094H78.18
			v4.141c-14.275,0.658-26.318,5.562-26.318,5.562h10.324c0,0,8.355-2.824,26.584-2.824c17.43,0,27.477,2.824,27.477,2.824h9.43
			c0,0-8.826-5.148-26.297-5.592v-4.111h42.439c1.061,0,1.936-0.947,1.936-2.094v-62.564
			C143.754,210.228,142.879,209.295,141.818,209.295z M88.77,275.212c-0.988,0-1.807-0.875-1.807-1.949
			c0-1.061,0.818-1.938,1.807-1.938s1.807,0.877,1.807,1.938C90.576,274.337,89.758,275.212,88.77,275.212z M135.455,269.075H41.516
			v-52.83h93.939V269.075z"/>
	</g>
</g>
</svg>
