<?xml version="1.0" encoding="utf-8"?>
<!-- Generator: Adobe Illustrator 16.0.4, SVG Export Plug-In . SVG Version: 6.00 Build 0)  -->
<!DOCTYPE svg PUBLIC "-//W3C//DTD SVG 1.1//EN" "http://www.w3.org/Graphics/SVG/1.1/DTD/svg11.dtd">
<svg version="1.1" id="Calque_1" xmlns="http://www.w3.org/2000/svg" xmlns:xlink="http://www.w3.org/1999/xlink" x="0px" y="0px" viewBox="0 0 317 317">
<g>
	<path fill="#000" d="M110.875,380.819c-1.262,4.297-3.316,9.068-5.047,11.963l-3.553,0.377
		c1.213-3.461,2.479-8.086,3.041-11.873L110.875,380.819z"/>
		<g>
			<g>
				<defs>
					<path id="SVGID_9_" d="M309.207,304.308c0,2.666-2.154,4.836-4.85,4.836H13.453c-2.695,0-4.867-2.17-4.867-4.836V13.378
						c0-2.668,2.172-4.852,4.867-4.852h290.904c2.695,0,4.85,2.184,4.85,4.852V304.308z"/>
				</defs>
				<clipPath id="SVGID_2_">
					<use xlink:href="#SVGID_9_"  overflow="visible"/>
				</clipPath>
				<g clip-path="url(#SVGID_2_)">
					<path fill="#000" d="M80.684,209.481l5.797,7.441l3.029,16.82h-4.43l1.951,11.852h4.691l6.07,29.809h5.244l-11.184-54.607
						l30.477-5.533l2.477-5.781L327.494,170.6l3.891,3.003l18.463-3.003l7.717,47.983l15.453-2.752v-14.083l-13.777-12.755
						l-3.045-20.59c0,0-0.361-6.438-5.793-10.223C345.434,159.025,80.684,209.481,80.684,209.481z"/>
					<path fill="#000" d="M325.848,137.487v-11.576l-103.955,18.756l-12.975-9.654l-79.701,13.237l11.307,12.683l-90.727,16.281
						l26.738,28.674l270.285-51.842L325.848,137.487z M206.979,176.659l-36.389-7.456l12.975-2.196l-16.541-15.174l25.908-4.136
						l12.971,13.235l14.053-2.752L206.979,176.659z"/>
					<path fill="#000" d="M353.168,224.103l-6.348-47.443l-15.729,3.045l-2.752-3.045l-201.057,39.436l-1.926,3.58l-28.131,5.242
						l11.871,52.949l-14.635,2.211l-6.598-29.5h-4.15l-3.859-19.311l3.859-1.092l-2.74-12.973l-35.309-36.669l-6.35,40.263
						c0,0-5.232,0.541-11.857,3.018c-6.621,2.5,0,4.965,0,4.965s3.586-0.555,12.119-1.662c4.15,14.619,15.729,27.598,18.477,27.873
						c2.795,0.262,3.045,1.645,4.139,6.869c1.105,5.244,3.041,8.303,3.041,8.303s1.387,1.094,10.5,10.734
						c9.084,9.666,13.482,4.967,17.355,2.211c3.859-2.752,15.191,3.027,23.172,1.105c7.994-1.92,2.209-3.566,8.836-5.547
						l196.051-41.342c0,0,14.91-4.424,19.045-2.736c4.139,1.629,12.975,2.459,15.162-1.383c2.209-3.873,3.582-5.521,8.561-6.367
						c4.963-0.816,9.102-6.607,9.102-6.607L353.168,224.103z M63.484,234.63c-4.453,0.859-9.201-4.094-10.57-11.062
						c-1.355-6.992,1.178-13.342,5.664-14.232c4.443-0.857,9.178,4.092,10.529,11.068C70.477,227.396,67.957,233.743,63.484,234.63z
						 M132.395,273.044c0.205,0.207-4.627,0-4.627,0s2.576-9.258-0.602-23.836c-3.219-14.883-5.109-24.566-5.109-24.566l5.17-1.223
						l4.484,23.121C131.711,246.54,135.275,262.083,132.395,273.044z M153.83,268.892c0.236,0.223-4.615,0-4.615,0
						s2.578-9.258-0.6-23.834c-3.234-14.883-5.125-24.568-5.125-24.568l5.184-1.236l4.473,23.154
						C153.146,242.407,156.727,257.931,153.83,268.892z M174.467,264.569c0.215,0.207-4.635,0-4.635,0s2.566-9.262-0.58-23.838
						c-3.246-14.893-5.127-24.564-5.127-24.564l5.152-1.236l4.5,23.137C173.777,238.067,177.361,253.603,174.467,264.569z
						 M195.74,259.853c0.217,0.203-4.631,0-4.631,0s2.576-9.262-0.582-23.854c-3.236-14.881-5.127-24.551-5.127-24.551l5.156-1.236
						l4.482,23.125C195.039,233.337,198.633,248.903,195.74,259.853z M216.361,255.513c0.215,0.189-4.297,0-4.297,0
						s2.389-9.287-0.568-23.881c-3.014-14.883-4.76-24.551-4.76-24.551l4.814-1.24l4.168,23.139
						C215.719,228.979,219.084,244.532,216.361,255.513z M237.982,251.476c0.191,0.193-4.324,0-4.324,0s2.43-9.258-0.523-23.879
						c-3.029-14.867-4.793-24.535-4.793-24.535l4.822-1.238l4.193,23.123C237.357,224.946,240.695,240.497,237.982,251.476z
						 M258.076,247.503c0.221,0.219-4.311,0-4.311,0s2.393-9.23-0.553-23.822c-2.996-14.883-4.762-24.551-4.762-24.551l4.822-1.238
						l4.152,23.125C257.426,221.017,260.805,236.569,258.076,247.503z M279.119,241.913c0.193,0.203-4.307,0-4.307,0
						s2.416-9.014-0.541-23.213c-2.998-14.52-4.746-23.91-4.746-23.91l4.803-1.195l4.182,22.525
						C278.51,216.12,281.846,231.253,279.119,241.913z M299.463,237.075c0.189,0.176-4.334,0-4.334,0s2.428-8.795-0.557-22.686
						c-2.986-14.184-4.748-23.342-4.748-23.342l4.818-1.196l4.139,22.005C298.781,211.856,302.146,226.638,299.463,237.075z
						 M319.297,233.015c0.189,0.189-4.324,0-4.324,0s2.371-8.781-0.566-22.688c-2.988-14.17-4.748-23.359-4.748-23.359l4.805-1.176
						l4.182,22.029C318.645,207.821,322.006,222.587,319.297,233.015z M338.684,228.864c0.182,0.232-4.314,0-4.314,0
						s2.387-8.779-0.555-22.672c-2.998-14.156-4.789-23.33-4.789-23.33l4.836-1.208l4.16,22.03
						C338.021,203.685,341.387,218.454,338.684,228.864z"/>
				</g>
				<g clip-path="url(#SVGID_2_)">
					<path fill="#000" d="M82.562,29.569c0,0-8.344-0.611-8.344,8.562c0,9.159,0,84.694,0,84.694s-0.873,9.681,7.207,7.965
						c8.346-1.82,13.137-0.845,13.137,5.27c0,6.102,0,8.344,0,8.344l6.93-3.667V43.619c0,0,1.211-14.283-6.93-14.05H82.562z"/>
					<path fill="#000" d="M53.674,135.522l16.584,0.667c0,0,7.234,0.322,11.779-0.931c6.016-1.629,8.49-0.537,8.49,2.913
						c0,3.438,0,6.231,0,6.231l-36.854-2.125V135.522z"/>
					<path fill="#000" d="M72.908,29.556c0,0-18.174,0-31.002,0c-12.873,0-12.613,8.969-12.613,8.969s0,73.568,0,82.594
						c0,9.001,6.803,8.827,6.803,8.827l35.238,1.704c-1.965-0.801-1.861-5.578-1.861-5.578s-0.043-70.45-0.043-82.77
						C69.43,30.968,72.908,29.556,72.908,29.556z M63.123,111.453l-27.797-1.414V61.548l27.797,0.83V111.453z"/>
					<path fill="#000" d="M48.225,103.078c5.537,0,8.842-4.454,9.521-8.066c0.629-3.525-0.361-5.665-4.965-11.491
						c-4.369-5.562-4.529-10.352-4.529-10.352s0.16,4.715-4.553,10.352c-4.326,5.126-5.549,7.633-4.984,11.491
						C39.256,98.652,42.709,103.078,48.225,103.078z"/>
				</g>
				<polygon clip-path="url(#SVGID_2_)" fill="#000" points="129.133,153.157 134.012,158.849 129.133,160.131 				"/>
			</g>
		</g>
</g>
</svg>
