<?xml version="1.0" encoding="utf-8"?>
<!-- Generator: Adobe Illustrator 16.0.4, SVG Export Plug-In . SVG Version: 6.00 Build 0)  -->
<!DOCTYPE svg PUBLIC "-//W3C//DTD SVG 1.1//EN" "http://www.w3.org/Graphics/SVG/1.1/DTD/svg11.dtd">
<svg version="1.1" id="Calque_1" xmlns="http://www.w3.org/2000/svg" xmlns:xlink="http://www.w3.org/1999/xlink" x="0px" y="0px"
	 width="317.48px" height="425.2px" viewBox="0 0 317.48 425.2" enable-background="new 0 0 317.48 425.2" xml:space="preserve">
<g>
	<path fill="#3C4047" d="M110.875,380.819c-1.262,4.297-3.316,9.068-5.047,11.963l-3.553,0.377
		c1.213-3.461,2.479-8.086,3.041-11.873L110.875,380.819z"/>
	<g>
		<g>
			<path fill="#3C4047" d="M42.172,361.356c-1.355,0.654-4.348,1.402-8.184,1.402c-10,0-16.076-6.264-16.076-15.848
				c0-10.371,7.242-16.592,16.873-16.592c3.789,0,6.453,0.748,7.621,1.355l-1.219,4.584c-1.494-0.658-3.596-1.223-6.168-1.223
				c-6.404,0-11.031,4.023-11.031,11.596c0,6.92,4.02,11.312,10.986,11.312c2.289,0,4.719-0.469,6.264-1.123L42.172,361.356z"/>
			<path fill="#3C4047" d="M54.42,353.362l-2.713,8.932h-5.936l10.098-31.508h7.338l10.234,31.508h-6.168l-2.852-8.932H54.42z
				 M63.439,349.019l-2.477-7.762c-0.607-1.918-1.123-4.066-1.592-5.889h-0.092c-0.471,1.822-0.936,4.02-1.498,5.889l-2.428,7.762
				H63.439z"/>
			<path fill="#3C4047" d="M78.537,331.253c2.197-0.418,5.375-0.701,8.693-0.701c4.531,0,7.576,0.75,9.723,2.523
				c1.73,1.449,2.715,3.648,2.715,6.357c0,4.07-2.758,6.824-5.752,7.855v0.139c2.289,0.84,3.645,3.037,4.395,6.076
				c1.027,3.926,1.869,7.574,2.475,8.791h-5.889c-0.469-0.938-1.264-3.506-2.102-7.436c-0.938-4.113-2.383-5.42-5.656-5.516H84.24
				v12.951h-5.703V331.253z M84.24,345.136h3.412c3.883,0,6.264-2.057,6.264-5.186c0-3.41-2.381-5.051-6.123-5.051
				c-1.82,0-2.994,0.137-3.553,0.281V345.136z"/>
			<path fill="#3C4047" d="M112.098,335.601h-8.973v-4.814h23.791v4.814h-9.068v26.693h-5.75V335.601z"/>
			<path fill="#3C4047" d="M142.902,362.804c-8.928,0-14.539-6.822-14.539-16.031c0-9.627,6.123-16.5,15.008-16.5
				c9.16,0,14.584,6.965,14.584,15.938c0,10.564-6.402,16.594-15.006,16.594H142.902z M143.182,358.177
				c5.566,0,8.697-5.143,8.697-11.73c0-5.936-2.947-11.547-8.697-11.547c-5.748,0-8.74,5.473-8.74,11.732
				c0,6.264,3.18,11.545,8.695,11.545H143.182z"/>
			<path fill="#3C4047" d="M169.316,330.786v18.373c0,6.168,2.568,9.018,6.445,9.018c4.162,0,6.641-2.85,6.641-9.018v-18.373h5.746
				v17.996c0,9.727-4.998,14.021-12.57,14.021c-7.291,0-12.014-4.064-12.014-13.975v-18.043H169.316z"/>
			<path fill="#3C4047" d="M218.02,361.356c-1.355,0.654-4.348,1.402-8.18,1.402c-10.002,0-16.08-6.264-16.08-15.848
				c0-10.371,7.246-16.592,16.877-16.592c3.785,0,6.449,0.748,7.615,1.355l-1.215,4.584c-1.494-0.658-3.6-1.223-6.172-1.223
				c-6.398,0-11.027,4.023-11.027,11.596c0,6.92,4.021,11.312,10.984,11.312c2.291,0,4.721-0.469,6.264-1.123L218.02,361.356z"/>
			<path fill="#3C4047" d="M229.379,330.786v12.619h13.324v-12.619h5.746v31.508h-5.746v-13.885h-13.324v13.885h-5.75v-31.508
				H229.379z"/>
			<path fill="#3C4047" d="M273.365,348.317h-11.873v9.25h13.277v4.727h-19.027v-31.508h18.324v4.721h-12.574v8.135h11.873V348.317z
				"/>
			<path fill="#3C4047" d="M280.426,356.026c1.82,1.076,4.672,2.012,7.617,2.012c3.648,0,5.703-1.73,5.703-4.303
				c0-2.383-1.59-3.783-5.562-5.232c-5.234-1.826-8.555-4.629-8.555-9.115c0-5.191,4.301-9.068,11.176-9.068
				c3.41,0,5.885,0.748,7.521,1.543l-1.355,4.678c-1.168-0.611-3.363-1.504-6.309-1.504c-3.646,0-5.189,1.92-5.189,3.791
				c0,2.43,1.822,3.553,6.029,5.139c5.469,2.105,8.09,4.863,8.09,9.35c0,5.096-3.834,9.443-11.92,9.443
				c-3.367,0-6.826-0.934-8.559-1.963L280.426,356.026z"/>
		</g>
		<g>
			<path fill="#3C4047" d="M71.502,382.104c2.57-0.42,5.752-0.701,9.162-0.701c5.889,0,9.91,1.217,12.809,3.645
				c3.084,2.48,4.955,6.266,4.955,11.594c0,5.658-1.918,9.816-4.908,12.529c-3.131,2.852-8.135,4.299-14.26,4.299
				c-3.314,0-5.84-0.186-7.758-0.42V382.104z M77.254,408.796c0.793,0.141,2.006,0.141,3.174,0.141
				c7.48,0.045,11.922-4.113,11.922-12.105c0.049-6.918-3.971-10.941-11.172-10.941c-1.82,0-3.084,0.141-3.924,0.33V408.796z"/>
			<path fill="#3C4047" d="M133.857,399.167h-11.871v9.254h13.271v4.725h-19.023v-31.51h18.324v4.723h-12.572v8.133h11.871V399.167z
				"/>
			<path fill="#3C4047" d="M140.963,413.146v-31.51h6.596l8.133,13.512c2.057,3.506,3.922,7.152,5.373,10.562l0.092-0.047
				c-0.42-4.16-0.512-8.225-0.512-13.039v-10.988h5.326v31.51h-5.98l-8.227-13.883c-2.012-3.463-4.068-7.295-5.609-10.846
				l-0.189,0.045c0.236,4.068,0.326,8.227,0.326,13.416v11.268H140.963z"/>
			<path fill="#3C4047" d="M195.889,412.208c-1.355,0.656-4.35,1.402-8.18,1.402c-10.002,0-16.078-6.262-16.078-15.848
				c0-10.373,7.244-16.592,16.873-16.592c3.787,0,6.449,0.748,7.615,1.355l-1.209,4.582c-1.498-0.656-3.602-1.219-6.174-1.219
				c-6.402,0-11.029,4.023-11.029,11.594c0,6.918,4.018,11.312,10.98,11.312c2.293,0,4.725-0.465,6.266-1.121L195.889,412.208z"/>
			<path fill="#3C4047" d="M201.498,382.104c2.197-0.42,5.375-0.701,8.693-0.701c4.535,0,7.572,0.75,9.723,2.523
				c1.73,1.451,2.709,3.648,2.709,6.359c0,4.066-2.756,6.826-5.746,7.854v0.141c2.291,0.84,3.646,3.035,4.393,6.078
				c1.029,3.924,1.871,7.568,2.479,8.787h-5.893c-0.467-0.938-1.26-3.51-2.1-7.436c-0.936-4.113-2.385-5.422-5.652-5.518h-2.904
				v12.953h-5.701V382.104z M207.199,395.989h3.414c3.879,0,6.264-2.057,6.264-5.189c0-3.41-2.385-5.049-6.123-5.049
				c-1.824,0-2.994,0.139-3.555,0.279V395.989z"/>
			<path fill="#3C4047" d="M246.42,399.167h-11.871v9.254h13.271v4.725h-19.023v-31.51h18.32v4.723h-12.568v8.133h11.871V399.167z"
				/>
		</g>
		<g>
			<g>
				<path fill="#FFFFFF" d="M309.207,304.308c0,2.666-2.154,4.836-4.85,4.836H13.453c-2.695,0-4.867-2.17-4.867-4.836V13.378
					c0-2.668,2.172-4.852,4.867-4.852h290.904c2.695,0,4.85,2.184,4.85,4.852V304.308z"/>
				<path fill="#3C4047" d="M304.357,310.583H13.453c-3.473,0-6.301-2.816-6.301-6.275V13.378c0-3.469,2.828-6.29,6.301-6.29
					h290.904c3.473,0,6.291,2.821,6.291,6.29v290.93C310.648,307.767,307.83,310.583,304.357,310.583z M13.453,9.966
					c-1.889,0-3.424,1.53-3.424,3.412v290.93c0,1.873,1.535,3.396,3.424,3.396h290.904c1.883,0,3.41-1.523,3.41-3.396V13.378
					c0-1.882-1.527-3.412-3.41-3.412H13.453z"/>
			</g>
			<g>
				<defs>
					<path id="SVGID_9_" d="M309.207,304.308c0,2.666-2.154,4.836-4.85,4.836H13.453c-2.695,0-4.867-2.17-4.867-4.836V13.378
						c0-2.668,2.172-4.852,4.867-4.852h290.904c2.695,0,4.85,2.184,4.85,4.852V304.308z"/>
				</defs>
				<clipPath id="SVGID_2_">
					<use xlink:href="#SVGID_9_"  overflow="visible"/>
				</clipPath>
				<g clip-path="url(#SVGID_2_)">
					<path fill="#3C4047" d="M80.684,209.481l5.797,7.441l3.029,16.82h-4.43l1.951,11.852h4.691l6.07,29.809h5.244l-11.184-54.607
						l30.477-5.533l2.477-5.781L327.494,170.6l3.891,3.003l18.463-3.003l7.717,47.983l15.453-2.752v-14.083l-13.777-12.755
						l-3.045-20.59c0,0-0.361-6.438-5.793-10.223C345.434,159.025,80.684,209.481,80.684,209.481z"/>
					<path fill="#3C4047" d="M325.848,137.487v-11.576l-103.955,18.756l-12.975-9.654l-79.701,13.237l11.307,12.683l-90.727,16.281
						l26.738,28.674l270.285-51.842L325.848,137.487z M206.979,176.659l-36.389-7.456l12.975-2.196l-16.541-15.174l25.908-4.136
						l12.971,13.235l14.053-2.752L206.979,176.659z"/>
					<path fill="#3C4047" d="M353.168,224.103l-6.348-47.443l-15.729,3.045l-2.752-3.045l-201.057,39.436l-1.926,3.58l-28.131,5.242
						l11.871,52.949l-14.635,2.211l-6.598-29.5h-4.15l-3.859-19.311l3.859-1.092l-2.74-12.973l-35.309-36.669l-6.35,40.263
						c0,0-5.232,0.541-11.857,3.018c-6.621,2.5,0,4.965,0,4.965s3.586-0.555,12.119-1.662c4.15,14.619,15.729,27.598,18.477,27.873
						c2.795,0.262,3.045,1.645,4.139,6.869c1.105,5.244,3.041,8.303,3.041,8.303s1.387,1.094,10.5,10.734
						c9.084,9.666,13.482,4.967,17.355,2.211c3.859-2.752,15.191,3.027,23.172,1.105c7.994-1.92,2.209-3.566,8.836-5.547
						l196.051-41.342c0,0,14.91-4.424,19.045-2.736c4.139,1.629,12.975,2.459,15.162-1.383c2.209-3.873,3.582-5.521,8.561-6.367
						c4.963-0.816,9.102-6.607,9.102-6.607L353.168,224.103z M63.484,234.63c-4.453,0.859-9.201-4.094-10.57-11.062
						c-1.355-6.992,1.178-13.342,5.664-14.232c4.443-0.857,9.178,4.092,10.529,11.068C70.477,227.396,67.957,233.743,63.484,234.63z
						 M132.395,273.044c0.205,0.207-4.627,0-4.627,0s2.576-9.258-0.602-23.836c-3.219-14.883-5.109-24.566-5.109-24.566l5.17-1.223
						l4.484,23.121C131.711,246.54,135.275,262.083,132.395,273.044z M153.83,268.892c0.236,0.223-4.615,0-4.615,0
						s2.578-9.258-0.6-23.834c-3.234-14.883-5.125-24.568-5.125-24.568l5.184-1.236l4.473,23.154
						C153.146,242.407,156.727,257.931,153.83,268.892z M174.467,264.569c0.215,0.207-4.635,0-4.635,0s2.566-9.262-0.58-23.838
						c-3.246-14.893-5.127-24.564-5.127-24.564l5.152-1.236l4.5,23.137C173.777,238.067,177.361,253.603,174.467,264.569z
						 M195.74,259.853c0.217,0.203-4.631,0-4.631,0s2.576-9.262-0.582-23.854c-3.236-14.881-5.127-24.551-5.127-24.551l5.156-1.236
						l4.482,23.125C195.039,233.337,198.633,248.903,195.74,259.853z M216.361,255.513c0.215,0.189-4.297,0-4.297,0
						s2.389-9.287-0.568-23.881c-3.014-14.883-4.76-24.551-4.76-24.551l4.814-1.24l4.168,23.139
						C215.719,228.979,219.084,244.532,216.361,255.513z M237.982,251.476c0.191,0.193-4.324,0-4.324,0s2.43-9.258-0.523-23.879
						c-3.029-14.867-4.793-24.535-4.793-24.535l4.822-1.238l4.193,23.123C237.357,224.946,240.695,240.497,237.982,251.476z
						 M258.076,247.503c0.221,0.219-4.311,0-4.311,0s2.393-9.23-0.553-23.822c-2.996-14.883-4.762-24.551-4.762-24.551l4.822-1.238
						l4.152,23.125C257.426,221.017,260.805,236.569,258.076,247.503z M279.119,241.913c0.193,0.203-4.307,0-4.307,0
						s2.416-9.014-0.541-23.213c-2.998-14.52-4.746-23.91-4.746-23.91l4.803-1.195l4.182,22.525
						C278.51,216.12,281.846,231.253,279.119,241.913z M299.463,237.075c0.189,0.176-4.334,0-4.334,0s2.428-8.795-0.557-22.686
						c-2.986-14.184-4.748-23.342-4.748-23.342l4.818-1.196l4.139,22.005C298.781,211.856,302.146,226.638,299.463,237.075z
						 M319.297,233.015c0.189,0.189-4.324,0-4.324,0s2.371-8.781-0.566-22.688c-2.988-14.17-4.748-23.359-4.748-23.359l4.805-1.176
						l4.182,22.029C318.645,207.821,322.006,222.587,319.297,233.015z M338.684,228.864c0.182,0.232-4.314,0-4.314,0
						s2.387-8.779-0.555-22.672c-2.998-14.156-4.789-23.33-4.789-23.33l4.836-1.208l4.16,22.03
						C338.021,203.685,341.387,218.454,338.684,228.864z"/>
				</g>
				<g clip-path="url(#SVGID_2_)">
					<path fill="#3C4047" d="M82.562,29.569c0,0-8.344-0.611-8.344,8.562c0,9.159,0,84.694,0,84.694s-0.873,9.681,7.207,7.965
						c8.346-1.82,13.137-0.845,13.137,5.27c0,6.102,0,8.344,0,8.344l6.93-3.667V43.619c0,0,1.211-14.283-6.93-14.05H82.562z"/>
					<path fill="#3C4047" d="M53.674,135.522l16.584,0.667c0,0,7.234,0.322,11.779-0.931c6.016-1.629,8.49-0.537,8.49,2.913
						c0,3.438,0,6.231,0,6.231l-36.854-2.125V135.522z"/>
					<path fill="#3C4047" d="M72.908,29.556c0,0-18.174,0-31.002,0c-12.873,0-12.613,8.969-12.613,8.969s0,73.568,0,82.594
						c0,9.001,6.803,8.827,6.803,8.827l35.238,1.704c-1.965-0.801-1.861-5.578-1.861-5.578s-0.043-70.45-0.043-82.77
						C69.43,30.968,72.908,29.556,72.908,29.556z M63.123,111.453l-27.797-1.414V61.548l27.797,0.83V111.453z"/>
					<path fill="#3C4047" d="M48.225,103.078c5.537,0,8.842-4.454,9.521-8.066c0.629-3.525-0.361-5.665-4.965-11.491
						c-4.369-5.562-4.529-10.352-4.529-10.352s0.16,4.715-4.553,10.352c-4.326,5.126-5.549,7.633-4.984,11.491
						C39.256,98.652,42.709,103.078,48.225,103.078z"/>
				</g>
				<polygon clip-path="url(#SVGID_2_)" fill="#3C4047" points="129.133,153.157 134.012,158.849 129.133,160.131 				"/>
			</g>
		</g>
	</g>
</g>
</svg>
