<?xml version="1.0" encoding="utf-8"?>
<!-- Generator: Adobe Illustrator 16.0.4, SVG Export Plug-In . SVG Version: 6.00 Build 0)  -->
<!DOCTYPE svg PUBLIC "-//W3C//DTD SVG 1.1//EN" "http://www.w3.org/Graphics/SVG/1.1/DTD/svg11.dtd">
<svg version="1.1" id="Calque_1" xmlns="http://www.w3.org/2000/svg" xmlns:xlink="http://www.w3.org/1999/xlink" x="0px" y="0px"
	 width="317.48px" height="425.2px" viewBox="0 0 317.48 425.2" enable-background="new 0 0 317.48 425.2" xml:space="preserve">
<g>
	<g>
		<path fill="#343B47" d="M64.979,331.171c2.585-0.423,5.78-0.705,9.211-0.705c5.922,0,9.964,1.222,12.878,3.666
			c3.102,2.491,4.981,6.298,4.981,11.655c0,5.687-1.927,9.869-4.935,12.595c-3.149,2.867-8.178,4.324-14.334,4.324
			c-3.337,0-5.875-0.188-7.802-0.423V331.171z M70.759,358.006c0.799,0.142,2.021,0.142,3.196,0.142
			c7.52,0.047,11.984-4.136,11.984-12.173c0.047-6.955-3.995-10.997-11.232-10.997c-1.833,0-3.103,0.142-3.948,0.329V358.006z"/>
		<path fill="#343B47" d="M115.502,348.325h-11.938v9.305h13.348v4.747H97.785v-31.676h18.423v4.746h-12.643v8.178h11.938V348.325z
			 M114.704,323.369l-5.875,5.64h-4.652l4.136-5.64H114.704z"/>
		<path fill="#343B47" d="M145.394,361.438c-1.362,0.657-4.37,1.409-8.225,1.409c-10.057,0-16.167-6.298-16.167-15.932
			c0-10.434,7.285-16.685,16.966-16.685c3.808,0,6.486,0.752,7.661,1.363l-1.222,4.605c-1.504-0.657-3.619-1.222-6.204-1.222
			c-6.438,0-11.091,4.042-11.091,11.655c0,6.956,4.041,11.373,11.044,11.373c2.303,0,4.747-0.47,6.298-1.128L145.394,361.438z"/>
		<path fill="#343B47" d="M156.816,330.701v12.689h13.395v-12.689h5.78v31.676h-5.78v-13.958h-13.395v13.958h-5.78v-31.676H156.816z
			"/>
		<path fill="#343B47" d="M201.042,348.325h-11.938v9.305h13.348v4.747h-19.128v-31.676h18.423v4.746h-12.643v8.178h11.938V348.325z
			"/>
		<path fill="#343B47" d="M214.767,335.542h-9.023v-4.841h23.922v4.841h-9.118v26.835h-5.78V335.542z"/>
		<path fill="#343B47" d="M233.615,356.079c1.832,1.081,4.699,2.021,7.66,2.021c3.666,0,5.733-1.739,5.733-4.324
			c0-2.396-1.598-3.807-5.593-5.264c-5.264-1.833-8.6-4.652-8.6-9.164c0-5.217,4.323-9.118,11.231-9.118
			c3.431,0,5.922,0.752,7.567,1.552l-1.363,4.699c-1.175-0.61-3.384-1.504-6.345-1.504c-3.666,0-5.217,1.927-5.217,3.807
			c0,2.444,1.833,3.572,6.062,5.17c5.499,2.115,8.131,4.888,8.131,9.399c0,5.123-3.854,9.493-11.984,9.493
			c-3.384,0-6.861-0.939-8.601-1.974L233.615,356.079z"/>
		<path fill="#343B47" d="M86.599,399.125H74.662v9.305h13.348v4.747H68.881v-31.676h18.423v4.746H74.662v8.178h11.938V399.125z"/>
		<path fill="#343B47" d="M93.745,413.177v-31.676h6.626l8.178,13.582c2.068,3.524,3.948,7.19,5.404,10.621l0.095-0.047
			c-0.423-4.183-0.518-8.271-0.518-13.112v-11.044h5.358v31.676h-6.016l-8.271-13.958c-2.021-3.478-4.089-7.332-5.64-10.903
			l-0.188,0.047c0.235,4.089,0.329,8.271,0.329,13.488v11.326H93.745z"/>
		<path fill="#343B47" d="M126.268,381.501h18.329v4.746h-12.549v8.742h11.655v4.699h-11.655v13.488h-5.78V381.501z"/>
		<path fill="#343B47" d="M163.866,413.693c-8.976,0-14.616-6.861-14.616-16.119c0-9.682,6.157-16.591,15.087-16.591
			c9.211,0,14.663,7.003,14.663,16.026c0,10.621-6.439,16.684-15.086,16.684H163.866z M164.148,409.041
			c5.593,0,8.741-5.17,8.741-11.796c0-5.969-2.96-11.608-8.741-11.608c-5.78,0-8.788,5.498-8.788,11.796s3.195,11.608,8.741,11.608
			H164.148z"/>
		<path fill="#343B47" d="M190.421,381.501v18.47c0,6.203,2.585,9.07,6.485,9.07c4.183,0,6.674-2.867,6.674-9.07v-18.47h5.78v18.094
			c0,9.775-5.028,14.099-12.642,14.099c-7.332,0-12.078-4.088-12.078-14.052v-18.141H190.421z"/>
		<path fill="#343B47" d="M222.475,381.501v31.676h-5.78v-31.676H222.475z"/>
		<path fill="#343B47" d="M229.713,406.879c1.833,1.081,4.699,2.021,7.66,2.021c3.666,0,5.733-1.739,5.733-4.324
			c0-2.396-1.598-3.807-5.593-5.264c-5.264-1.833-8.601-4.652-8.601-9.164c0-5.217,4.324-9.117,11.232-9.117
			c3.432,0,5.922,0.752,7.566,1.551l-1.362,4.699c-1.175-0.611-3.384-1.504-6.345-1.504c-3.666,0-5.217,1.927-5.217,3.807
			c0,2.444,1.833,3.572,6.062,5.17c5.499,2.115,8.131,4.888,8.131,9.399c0,5.123-3.854,9.493-11.984,9.493
			c-3.384,0-6.861-0.939-8.601-1.974L229.713,406.879z"/>
	</g>
	<path fill="#FFFFFF" d="M308.488,304.274c0,2.676-2.16,4.846-4.832,4.846H12.759c-2.679,0-4.841-2.17-4.841-4.846V13.399
		c0-2.68,2.162-4.851,4.841-4.851h290.896c2.672,0,4.832,2.171,4.832,4.851V304.274z"/>
	<path fill="#343B47" d="M303.656,310.583H12.759c-3.477,0-6.304-2.832-6.304-6.309V13.399c0-3.481,2.827-6.312,6.304-6.312h290.896
		c3.473,0,6.295,2.83,6.295,6.312v290.875C309.951,307.751,307.128,310.583,303.656,310.583z M12.759,10.013
		c-1.863,0-3.379,1.519-3.379,3.387v290.875c0,1.865,1.516,3.385,3.379,3.385h290.896c1.855,0,3.371-1.52,3.371-3.385V13.399
		c0-1.868-1.516-3.387-3.371-3.387H12.759z"/>
	<path fill="#343B47" d="M308.686,234.334l-54.036,32.855v-12.361l53.924-30.621l0.001-4.929l-56.344,32.015
		c-7.319-2.092-61.24-18.798-64.757-57.491c-0.216-5.564,0.502-12.454,5.128-13.797c5.874-1.697,16.466,5.412,21.563,12.703
		c-2.94,2.065-8.854,6.289-10.937,8.288c-0.584,0.56-0.928,1.264-1.035,2.044c-1.204,3.314-3.289,11.666,2.994,18.414
		c5.487,5.901,11.823,8.871,18.888,8.871c1.68,0,3.401-0.169,5.162-0.505l0.248-0.048l0.23-0.104
		c0.137-0.062,1.403-0.65,3.061-1.876c10.712-3.95,59.684-34.042,72.224-41.792l3.465,2.724l0.137-5.323L185.193,86.378
		c3.582-1.729,7.158-4.678,10.05-8.449c3.081-4.02,4.989-8.316,5.665-12.219l13.508,10.619c-2.002,3.437-2.765,7.829-2.319,13.309
		c0.75,9.305,8.288,16.768,16.701,16.766c0.307,0,0.617-0.01,0.926-0.029c2.702-0.178,4.345-0.678,6.966-2.136l9.177-3.121
		l62.599,49.526l0.141-5.398L250.679,99.48l4.142-1.409l-0.042-0.124c1.764-0.623,3.343-1.792,4.639-3.481
		c2.993-3.908,4.098-10.078,2.884-16.108c-1.978-9.753-8.38-16.306-15.931-16.306c-0.271,0-0.542,0.009-0.813,0.026
		c-0.934,0.062-1.816,0.25-2.648,0.542l-0.046-0.113l-25.728,10.404l-0.072,0.07l-16.056-12.623
		c-0.407-2.504-1.517-4.607-3.364-6.025l-15.503-12.396c-0.116-0.099-0.198-0.16-0.245-0.195c0,0,0,0,0,0
		c-0.002-0.002-0.002-0.002-0.004-0.003c-0.024-0.019-0.041-0.029-0.041-0.029l-0.001,0.001c-1.333-1.009-2.989-1.521-4.923-1.521
		c-5.659,0-13.135,4.588-18.181,11.157c-6.771,8.825-7.84,19.415-2.383,23.608c0.361,0.276,0.743,0.52,1.142,0.73l15.561,10.662
		c1.504,1.154,3.342,1.739,5.465,1.739c0.571,0,1.159-0.054,1.752-0.14l56.18,44.168l-42.29,20.654
		c-1.667-2.654-4.156-6.592-6.958-11.021c-5.757-9.104-12.922-20.436-14.422-23.01c-4.683-8.039-10.8-11.423-17.222-9.533
		c-7.434,2.186-20.398,12.631-24.337,19.607c-2.09,3.705-5.779,3.402-7.313,3.084c-1.559-2.04-6.295-8.119-9.462-10.93
		c-4.78-4.246-12.404-0.516-12.727-0.354l-0.334,0.166l-0.267,0.259c-0.659,0.64-65.979,63.979-73.541,71.539
		c-1.984,1.983-2.064,3.913-1.782,5.183c1.019,4.58,7.919,7.395,18.33,11.162c2.899,1.049,6.67,2.414,8.425,3.379
		c-2.677,2.205-11.603,6.102-16.146,8.086c-7.646,3.338-10.415,4.629-11.457,6.012c-0.813,1.079-0.933,2.379-0.32,3.484
		c0.929,1.673,3.043,3.168,17.295,3.168c1.551,0,3.246-0.018,5.098-0.056c10.203-0.204,23.626-1,38.036-2.249
		c-1.462,10.164-2.726,30.102,8.959,34.133c2.006,0.692,3.803,1.005,5.419,1.005c1.438,0,2.731-0.249,3.902-0.694l98.081-17.238
		l-0.012-0.066c6.214,4.815,12.497,8.729,18.131,11.81c17.205,9.407,31.825,13.205,32.439,13.363l0.871,0.222l55.63-33.875
		L308.686,234.334z M237.694,67.142c-1.875,3.318-2.49,7.98-1.725,13.389c1.166,8.266,6.292,15.24,12.197,17.312l-12.338,4.196
		l-0.196,0.088c-2.377,1.329-3.68,1.737-6.063,1.893c-8.308,0.538-14.519-7.097-15.121-14.572
		c-0.534-6.54,0.776-11.295,4.001-14.523L237.694,67.142z M160.438,52.646c4.667-6.078,11.448-10.322,16.487-10.322
		c1.474,0,2.708,0.373,3.666,1.109l0.003,0.002c0.116,0.09,0.226,0.186,0.332,0.285c0.315,0.307,0.838,0.92,1.288,1.876
		c0.991,2.292,0.931,5.591-0.059,9.179c-2.666,8.387-6.569,12.584-12.803,17.338c-2.566,1.562-5.178,2.445-7.523,2.445
		c-1.21,0-2.288-0.238-3.22-0.707c-0.01-0.006-0.033-0.019-0.033-0.019l-0.001,0.002c-0.321-0.164-0.626-0.354-0.912-0.573
		C153.139,69.786,154.384,60.536,160.438,52.646z M216.369,196.378c4.982,8.975,4.896,11.772,4.354,12.643
		c-0.298,0.479-1.322,0.693-2.798,0.593c-6.573-0.45-10.87-4.304-11.442-5.813C208.427,202.056,213.24,198.582,216.369,196.378z
		 M303.211,184.595c-11.774,7.264-50.05,30.739-65.963,38.812c1.627-2.122,3.083-4.837,3.833-8.236
		c2.296-10.424-2.887-23.047-15.401-37.52c-10.864-12.562-21.838-19.136-32.632-19.583l47.142-23.022L303.211,184.595z
		 M31.621,227.815c1.934-0.921,4.485-2.035,6.724-3.012c11.97-5.227,17.931-8.125,19.296-11.291
		c16.424-9.986,48.84-30.229,52.356-36.494c0.987-1.755,0.423-2.873-0.001-3.384c-1.177-1.418-4.261-2.372-18.198,1.301
		c-7.456,1.965-14.644,4.397-14.716,4.421c-0.697,0.236-1.07,0.993-0.833,1.689c0.236,0.697,0.993,1.071,1.689,0.834
		c14.408-4.889,27.938-7.866,29.928-6.6c-0.023,0.084-0.075,0.225-0.192,0.434c-2.872,5.117-31.459,23.316-50.125,34.729
		c-0.025-0.047-0.046-0.094-0.072-0.138c-1.242-2.058-4.866-3.443-11.698-5.917c-4.786-1.732-14.745-5.337-15.264-7.676
		c-0.018-0.076,0.099-0.342,0.484-0.727c7.278-7.274,68.404-66.556,73.196-71.203c1.556-0.682,5.262-1.811,7.063-0.211
		c2.752,2.441,7.129,8.033,8.717,10.102c0.573,0.872,7.864,11.959,15.595,22.779c14.524,20.328,18.208,22.541,19.85,22.541
		c0.247,0,0.448-0.051,0.632-0.097c0.427-0.106,1.437-0.53,1.586-2.157c0.787-8.709,3.369-23.181,3.395-23.326
		c0.13-0.725-0.353-1.416-1.077-1.546c-0.722-0.134-1.417,0.353-1.545,1.077c-0.026,0.143-2.543,14.252-3.384,23.111
		c-3.981-2.379-17.803-21.201-30.427-40.211c3.451,0.246,8.078-0.776,10.834-5.663c3.35-5.934,15.203-15.502,21.498-17.353
		c4.205-1.236,8.14,1.23,11.696,7.335c1.543,2.649,8.434,13.546,14.514,23.16c2.549,4.032,4.987,7.888,6.675,10.573l-1.573,0.768
		l-0.086,0.045c-0.718,0.392-1.564,0.813-2.461,1.262c-3.618,1.807-8.54,4.275-12.587,8.505c-0.225,0.221-0.36,0.364-0.396,0.404
		l0.009,0.008c-1.515,1.651-2.898,3.554-4.019,5.788c-4.304,8.578-3.936,19.713,1.15,33.912l-87.714,14.678l0.625,4.221
		c2.244-0.288,2.987,0.412,3.233,0.884c-0.027,0.133-0.06,0.29-0.094,0.461C58.156,228.282,39.033,228.658,31.621,227.815z
		 M90.235,225.962c0.016-0.072,0.032-0.153,0.048-0.224l0.086-0.386l-0.057-0.39c-0.071-0.481-0.25-1.06-0.566-1.643l81.668-13.665
		c0.295,0.732,0.588,1.462,0.907,2.209c0.021,0.051,0.045,0.102,0.067,0.152L90.235,225.962z M95.419,260.843
		c-2.941-1.015-4.75-3.779-5.799-7.381l20.183-4.374C106.445,258.376,103.501,263.637,95.419,260.843z M109.582,259.757
		c2.144-3.26,3.572-7.31,4.812-10.832c1.411-4.012,2.867-8.147,4.698-9.356c0.887,0.357,1.47,0.935,1.471,0.935c0,0,0,0,0,0
		l0.797,0.834l61.782-11.367c4.257,5.418,9.032,10.209,13.956,14.406L109.582,259.757z M176.25,210.19
		c-9.846-23.075-6.535-34.804-0.253-41.566c0.904-0.907,6.689-6.328,15.884-6.328c0.11,0,0.222,0,0.333,0.002
		c9.772,0.14,19.945,6.244,30.236,18.146c11.395,13.174,16.4,24.842,14.477,33.742c-1.622,7.501-7.558,10.876-8.762,11.492
		c-7.618,1.369-14.112-0.963-19.852-7.134c-2.886-3.099-3.37-6.731-3.104-9.655c2.8,2.506,7.285,4.629,12.424,4.982
		c3.247,0.225,5.502-0.648,6.714-2.595c2.417-3.879-0.422-10.425-5.43-19.059c-4.794-8.28-18.208-19.007-27.501-16.313
		c-4.027,1.168-8.717,5.26-8.203,18.12l0.006,0.105c1.653,18.433,14.134,34.936,36.095,47.723
		c13.553,7.893,26.602,12.056,31.068,13.353v12.94C238.766,264.568,192.453,248.185,176.25,210.19z"/>
</g>
</svg>
