<?xml version="1.0" encoding="utf-8"?>
<!-- Generator: Adobe Illustrator 16.0.4, SVG Export Plug-In . SVG Version: 6.00 Build 0)  -->
<!DOCTYPE svg PUBLIC "-//W3C//DTD SVG 1.1//EN" "http://www.w3.org/Graphics/SVG/1.1/DTD/svg11.dtd">
<svg version="1.1" id="Calque_1" xmlns="http://www.w3.org/2000/svg" xmlns:xlink="http://www.w3.org/1999/xlink" x="0px" y="0px" viewBox="0 0 317 317">
<g>
	<g>
		<path fill-rule="evenodd" clip-rule="evenodd" fill="#000" d="M247.484,169.819c-1.426-2.285-1.193-3.506,0.678-5.285
			c4.389-4.104,8.479-8.516,12.723-12.753c1.225-1.194,1.82-2.183,0.453-3.711c-5.963-6.655-11.873-13.38-17.785-20.149
			c-1.18-1.371-2.127-1.312-3.393-0.177c-3.189,2.779-6.393,5.505-9.602,8.241c-3.01,2.592-6.035,5.152-9.25,7.891
			c-2.143-2.488-4.066-4.688-6.055-7.033c3.35-2.953,6.459-5.691,9.957-8.732c-4.279-3.364-8.232-6.291-11.953-9.508
			c-1.42-1.224-2.75-2.942-3.289-4.703c-3.793-12.154-7.469-24.326-10.904-36.601c-0.773-2.737-2.365-3.246-4.695-3.64
			c-2.346-0.393-2.914,1.224-3.684,2.678c-1.949,3.494-3.865,7.004-5.824,10.529c-0.799,1.395-1.674,2.779-2.58,4.264
			c-2.807-1.529-5.27-2.897-7.926-4.368c0.713-1.425,1.303-2.633,1.938-3.813c4.279-7.746,8.576-15.461,12.834-23.223
			c4.18-7.672,4.076-7.584-2.475-13.48c-2.111-1.908-3.129-1.545-4.529,0.699c-6.182,9.798-12.479,19.523-18.729,29.277
			c-0.604,0.931-1.291,1.819-2.004,2.838c-2.723-1.791-5.146-3.391-7.721-5.078c3.002-4.75,5.824-9.233,8.621-13.66
			c-2.721-2.3-4.904-2.619-7.789-0.976c-7.598,4.341-15.375,8.357-23.164,12.331c-2.248,1.137-3.498,2.725-4.205,5.113
			c-2.164,7.352-4.523,14.675-6.795,22.026c-1.111,3.596-3.592,7.559-2.859,10.773c0.764,3.351,4.6,6.015,7.162,8.924
			c3.451,3.933,6.959,7.79,10.629,11.866c-2.459,2.184-4.627,4.134-6.863,6.145c-0.707-0.627-1.195-1.004-1.596-1.455
			c-8.48-9.392-17.006-18.723-25.387-28.188c-1.738-1.966-2.811-2.139-4.697-0.131c-8.756,9.391-17.689,18.637-26.57,27.953
			c-1.049,1.135-2.051,2.343-3.275,3.77c10.918,12.578,21.727,25,32.701,37.576c-2.525,2.199-4.682,4.048-7.006,6.086
			c-1.49-1.643-3.02-2.984-4.123-4.584c-1.48-2.172-3.072-2.289-5.375-1.383c-5.5,2.139-11.072,4.104-16.662,5.967
			c-2.168,0.715-3.512,1.966-4.5,4.006c-4.586,9.114-9.285,18.168-13.934,27.27c-0.539,1.076-0.971,2.238-1.66,3.826
			c1.617,0.088,2.744,0.176,3.844,0.176c16.746,0.014,33.518,0,50.291,0c4.184,0,8.418-0.07,12.639,0.045l-0.082,9.156
			c-25.137,0-50.287,0-75.455-0.014c-1.602,0-4.426-0.232-4.584-0.848c-0.57-2.371-0.293-4.977-0.293-7.496
			c0-0.16,0.188-0.48,0.332-0.492c4.318-0.789,4.428-4.937,5.941-7.776c5.68-10.554,10.979-21.329,16.574-31.942
			c0.695-1.31,2.195-2.547,3.605-3.102c5.168-2.067,10.492-3.812,15.717-5.691c1.352-0.495,2.674-1.034,4.725-1.818
			c-8.734-9.99-17.062-19.557-25.65-29.397c15.055-15.782,30.021-31.446,45.279-47.432c3.332,3.581,6.494,7.003,10.104,10.904
			c0.713-1.79,1.262-2.971,1.631-4.192c2.938-9.332,5.781-18.71,8.84-27.996c0.447-1.341,1.543-2.811,2.734-3.482
			c10.906-5.952,21.871-11.79,32.902-17.483c1.164-0.611,2.982-0.45,4.33-0.059c2.744,0.829,5.764,3.363,7.992,2.739
			c2.08-0.557,3.334-4.283,4.885-6.627c2.99-4.586,5.947-9.201,8.932-13.803c0.115-0.188,0.297-0.275,0.744-0.639
			c4.688,4.118,9.42,8.285,14.137,12.402c2.061,1.82,4.02,3.758,6.182,5.434c2.018,1.557,2.453,2.971,0.99,5.268
			c-2.236,3.525-4.041,7.295-6.004,10.936c0.594,0.467,0.84,0.801,1.09,0.785c5.516-0.203,7.496,2.885,8.811,7.906
			c3.15,11.998,6.92,23.849,10.57,35.729c0.525,1.556,1.639,3.173,2.889,4.265c3.107,2.692,6.473,5.081,9.652,7.659
			c1.404,1.119,2.453,1.148,3.83-0.104c2.643-2.415,5.438-4.658,8.438-7.234c2.824,3.158,5.518,6.173,8.227,9.242
			c7.512,8.548,14.967,17.123,22.555,25.609c1.586,1.793,1.41,2.883-0.195,4.471c-4.641,4.556-9.096,9.347-13.727,13.947
			c-1.586,1.543-1.725,2.723-0.555,4.613c0.846,1.357,1.697,2.711,2.547,4.078C263.803,178.308,249.266,172.617,247.484,169.819z"/>
		<path fill-rule="evenodd" clip-rule="evenodd" fill="#000" d="M150.506,96.591c1.668-1.107,3.008-1.981,4.752-3.147
			c3.141,4.834,6.203,9.522,9.387,14.416c-1.668,1.106-3.064,2.052-4.777,3.2C156.725,106.213,153.711,101.585,150.506,96.591z"/>
		<path fill-rule="evenodd" clip-rule="evenodd" fill="#000" d="M94.062,195.823c-3.158-1.704-5.895-3.219-8.965-4.91
			c0.83-1.599,1.598-3.068,2.611-4.963c3.037,1.645,5.91,3.204,9.064,4.907C95.842,192.561,95.039,194.032,94.062,195.823z"/>
		<path fill-rule="evenodd" clip-rule="evenodd" fill="#000" d="M199.09,114.132c1.371,1.5,2.432,2.666,3.826,4.195
			c-2.236,2.082-4.318,4.061-6.662,6.272c-1.281-1.456-2.432-2.68-3.834-4.19C194.725,118.253,196.82,116.286,199.09,114.132z"/>
		<g>
			<g>
				<polygon fill="#000" points="114.893,181.306 114.893,238.991 223.707,297.981 212.875,226.921 				"/>
				<path fill="#000" d="M226.662,302.187l-114.055-61.83v-62.644l102.342,47.651L226.662,302.187z M117.182,237.636
					l103.568,56.139l-9.949-65.297l-93.619-43.591V237.636z"/>
			</g>
			<path fill="#000" d="M213.227,229.671L112.1,178.075l12.223-8.111l5.875,2.622l31.383-23.673l-5.344-2.561l11.961-8.753
				l98.893,47.463l-9.967,6.712l-4.557-1.763l-12.564,9.624l4.309,2.449l-9.676,7.83l-4.588-1.892l-11.305,9.521l5.496,2.355
				L213.227,229.671z M121.154,177.567l91.373,46.598l3.264-2.895l-5.682-2.432l19.109-16.115l4.645,1.918l2.352-1.904l-4.471-2.547
				l20.078-15.375l4.717,1.835l1.361-0.919l-89.209-42.816l-3.574,2.605l5.227,2.52l-39.551,29.831l-6.037-2.693L121.154,177.567z"
				/>
			<path fill="#000" d="M167.984,197.423l-34.541-17.47l18.242-14.077l35.381,17.295L167.984,197.423z M141.99,179.14
				l25.531,12.91l10.793-8.064l-26.09-12.754L141.99,179.14z"/>
			<path fill="#000" d="M189.266,181.437l-35.512-17.295l20.428-15.273l36.111,16.496L189.266,181.437z M162.504,163.312
				l26.225,12.77l12.725-9.725l-26.705-12.188L162.504,163.312z"/>
			<polygon fill="#000" points="174.465,172.222 174.465,151.521 205.373,165.86 188.516,178.759 			"/>
			<path fill="#000" d="M205.193,217.458l-35.051-17.268l19.457-14.849l35.592,16.274L205.193,217.458z M178.789,199.347
				l25.838,12.723l11.861-9.404l-26.293-12.025L178.789,199.347z"/>
			<path fill="#000" d="M227.436,199.535l-36.021-16.06L212.6,167.2l35.057,16.916L227.436,199.535z M200.295,182.427
				l26.527,11.822l12.129-9.244l-25.799-12.461L200.295,182.427z"/>
			<polygon fill="#000" points="212.875,190.756 212.875,169.878 245.84,184.887 228.236,198.749 212.875,191.279 			"/>
			<polygon fill="#000" points="190.854,207.905 190.854,186.854 223.707,202.025 206.189,215.503 			"/>
			<polygon fill="#000" points="226.729,302.231 223.539,298.942 228.92,293.714 219.617,220.351 224.158,219.771 
				233.754,295.401 			"/>
			<g>
				<polygon fill="#000" points="229.926,207.935 229.633,268.063 244.223,276.493 234.582,209.726 				"/>
				<path fill="#000" d="M247.162,280.829l-19.822-11.441l0.314-64.789l9.002,3.467L247.162,280.829z M231.93,266.753l9.35,5.4
					l-8.771-60.783l-0.311-0.116L231.93,266.753z"/>
			</g>
			<polygon fill="#000" points="247.062,280.669 244.383,276.958 249.734,273.087 239.656,202.866 244.186,202.214 
				254.652,275.167 			"/>
			<polygon fill="#000" points="248.924,255.222 246.479,251.347 250.969,248.495 253.418,252.366 			"/>
			<polygon fill="#000" points="228.576,271.644 225.912,267.917 228.299,266.2 230.963,269.927 			"/>
			<g>
				<polygon fill="#000" points="256.83,191.644 264.648,257.786 252.195,250.431 252.195,189.867 				"/>
				<path fill="#000" d="M267.469,262.106l-17.561-10.363V186.55l9.035,3.448L267.469,262.106z M254.48,249.122l7.35,4.354
					l-7.35-60.275V249.122z"/>
			</g>
			<polygon fill="#000" points="267.258,261.774 264.838,257.886 270.203,254.565 262.377,185.442 266.92,184.933 
				275.082,256.925 			"/>
			<polygon fill="#000" points="151.955,168.554 184.641,183.214 167.6,196.534 151.955,188.617 			"/>
		</g>
		<polygon fill-rule="evenodd" clip-rule="evenodd" fill="#000" points="156.184,146.323 157.053,154.168 163.123,149.396 		"/>
	</g>
</g>
</svg>
