<?xml version="1.0" encoding="utf-8"?>
<!-- Generator: Adobe Illustrator 16.0.4, SVG Export Plug-In . SVG Version: 6.00 Build 0)  -->
<!DOCTYPE svg PUBLIC "-//W3C//DTD SVG 1.1//EN" "http://www.w3.org/Graphics/SVG/1.1/DTD/svg11.dtd">
<svg version="1.1" id="Calque_1" xmlns="http://www.w3.org/2000/svg" xmlns:xlink="http://www.w3.org/1999/xlink" x="0px" y="0px"
	 width="317.48px" height="425.2px" viewBox="0 0 317.48 425.2" enable-background="new 0 0 317.48 425.2" xml:space="preserve">
<g>
	<g>
		<path fill="#3C4047" d="M91.674,330.786v12.619h13.324v-12.619h5.748v31.508h-5.748v-13.885H91.674v13.885h-5.748v-31.508H91.674z
			"/>
		<path fill="#3C4047" d="M123.742,330.786v18.373c0,6.168,2.57,9.018,6.451,9.018c4.16,0,6.637-2.85,6.637-9.018v-18.373h5.752
			v17.996c0,9.727-5.006,14.021-12.576,14.021c-7.291,0-12.014-4.064-12.014-13.975v-18.043H123.742z"/>
		<path fill="#3C4047" d="M155.621,330.786v31.508h-5.75v-31.508H155.621z"/>
		<path fill="#3C4047" d="M162.914,330.786h5.748v26.689h12.949v4.818h-18.697V330.786z"/>
		<path fill="#3C4047" d="M204.283,348.317H192.41v9.25h13.273v4.727h-19.021v-31.508h18.318v4.721h-12.57v8.135h11.873V348.317z"/>
		<path fill="#3C4047" d="M211.342,356.026c1.818,1.076,4.672,2.012,7.617,2.012c3.643,0,5.703-1.73,5.703-4.303
			c0-2.383-1.59-3.783-5.561-5.232c-5.236-1.826-8.557-4.629-8.557-9.115c0-5.191,4.301-9.068,11.17-9.068
			c3.412,0,5.891,0.748,7.527,1.543l-1.354,4.678c-1.17-0.611-3.369-1.504-6.311-1.504c-3.648,0-5.191,1.92-5.191,3.791
			c0,2.43,1.824,3.553,6.031,5.139c5.471,2.105,8.088,4.863,8.088,9.35c0,5.096-3.834,9.443-11.92,9.443
			c-3.369,0-6.824-0.934-8.553-1.963L211.342,356.026z"/>
	</g>
	<g>
		<path fill="#3C4047" d="M15.646,404.202l-2.709,8.93H7l10.094-31.508h7.34l10.24,31.508h-6.17l-2.854-8.93H15.646z M24.67,399.854
			l-2.479-7.758c-0.609-1.918-1.123-4.068-1.59-5.891H20.51c-0.471,1.822-0.938,4.02-1.498,5.891l-2.43,7.758H24.67z"/>
		<path fill="#3C4047" d="M39.768,381.624h5.75v26.693h12.947v4.814H39.768V381.624z"/>
		<path fill="#3C4047" d="M69.262,381.624v31.508H63.51v-31.508H69.262z"/>
		<path fill="#3C4047" d="M103.15,400.276c-0.186-4.068-0.42-8.928-0.373-13.23h-0.139c-1.029,3.834-2.34,8.088-3.742,12.061
			l-4.627,13.648h-4.393l-4.209-13.461c-1.217-4.021-2.34-8.32-3.178-12.248h-0.096c-0.139,4.113-0.324,9.117-0.561,13.416
			l-0.697,12.67H75.76l2.102-31.508h7.574l4.113,12.67c1.119,3.693,2.105,7.43,2.898,10.938h0.139
			c0.844-3.412,1.918-7.293,3.131-10.988l4.35-12.619h7.479l1.822,31.508h-5.609L103.15,400.276z"/>
		<path fill="#3C4047" d="M133.535,399.153h-11.873v9.254h13.275v4.725H115.91v-31.508h18.324v4.721h-12.572v8.135h11.873V399.153z"
			/>
		<path fill="#3C4047" d="M140.639,413.132v-31.508h6.59l8.135,13.51c2.057,3.506,3.93,7.152,5.377,10.562l0.09-0.045
			c-0.418-4.162-0.512-8.225-0.512-13.041v-10.986h5.328v31.508h-5.984l-8.225-13.885c-2.012-3.459-4.066-7.291-5.611-10.844
			l-0.188,0.045c0.236,4.068,0.332,8.227,0.332,13.416v11.268H140.639z"/>
		<path fill="#3C4047" d="M179.014,386.438h-8.973v-4.814h23.793v4.814h-9.068v26.693h-5.752V386.438z"/>
		<path fill="#3C4047" d="M201.125,404.202l-2.709,8.93h-5.938l10.096-31.508h7.342l10.234,31.508h-6.17l-2.852-8.93H201.125z
			 M210.146,399.854l-2.477-7.758c-0.607-1.918-1.123-4.068-1.588-5.891h-0.096c-0.467,1.822-0.936,4.02-1.496,5.891l-2.43,7.758
			H210.146z"/>
		<path fill="#3C4047" d="M230.994,381.624v31.508h-5.748v-31.508H230.994z"/>
		<path fill="#3C4047" d="M238.285,382.091c2.197-0.42,5.377-0.701,8.693-0.701c4.535,0,7.574,0.75,9.725,2.523
			c1.73,1.451,2.709,3.648,2.709,6.359c0,4.068-2.754,6.826-5.748,7.854v0.141c2.295,0.84,3.646,3.037,4.396,6.078
			c1.025,3.924,1.867,7.568,2.475,8.787h-5.887c-0.467-0.938-1.264-3.508-2.102-7.436c-0.939-4.113-2.389-5.42-5.656-5.516h-2.9
			v12.951h-5.705V382.091z M243.99,395.976h3.41c3.881,0,6.264-2.057,6.264-5.189c0-3.408-2.383-5.049-6.123-5.049
			c-1.822,0-2.99,0.141-3.551,0.281V395.976z"/>
		<path fill="#3C4047" d="M283.205,399.153h-11.873v9.254h13.277v4.725h-19.023v-31.508h18.322v4.721h-12.576v8.135h11.873V399.153z
			"/>
		<path fill="#3C4047" d="M290.264,406.864c1.824,1.076,4.676,2.014,7.621,2.014c3.646,0,5.701-1.732,5.701-4.303
			c0-2.383-1.588-3.787-5.559-5.236c-5.24-1.822-8.557-4.627-8.557-9.113c0-5.189,4.301-9.066,11.172-9.066
			c3.412,0,5.889,0.746,7.525,1.543l-1.355,4.676c-1.168-0.611-3.363-1.5-6.312-1.5c-3.646,0-5.184,1.918-5.184,3.787
			c0,2.432,1.82,3.553,6.025,5.141c5.471,2.105,8.088,4.861,8.088,9.348c0,5.098-3.832,9.443-11.918,9.443
			c-3.367,0-6.826-0.936-8.555-1.963L290.264,406.864z"/>
	</g>
	<g>
		<g>
			<path fill="#FFFFFF" d="M309.248,304.294c0,2.68-2.184,4.85-4.877,4.85H13.479c-2.691,0-4.848-2.17-4.848-4.85V13.378
				c0-2.682,2.156-4.852,4.848-4.852h290.893c2.693,0,4.877,2.17,4.877,4.852V304.294z"/>
			<path fill="#3C4047" d="M304.371,310.583H13.479c-3.467,0-6.287-2.822-6.287-6.289V13.378c0-3.469,2.82-6.29,6.287-6.29h290.893
				c3.482,0,6.314,2.821,6.314,6.29v290.916C310.686,307.761,307.854,310.583,304.371,310.583z M13.479,9.966
				c-1.881,0-3.41,1.53-3.41,3.412v290.916c0,1.881,1.529,3.41,3.41,3.41h290.893c1.895,0,3.438-1.529,3.438-3.41V13.378
				c0-1.882-1.543-3.412-3.438-3.412H13.479z"/>
		</g>
		<g>
			<path fill="#3C4047" d="M274.346,69.848h-60.314c-4.717,0-8.531,3.786-8.531,8.491H58.824l-16-8.491c0,0-2.363,2.884-4.285,8.94
				c-1.936,6.061,7.428,9.627,9.523,10.88c1.891,1.151,0.26,4.804,0,5.3l-20.443,41.618c-3.391,6.798-3.877,14.519-1.428,21.695
				c2.432,7.196,7.529,13.018,14.328,16.368l123.275,60.959c3.961,1.951,8.184,2.939,12.551,2.939
				c10.893,0,20.691-6.07,25.494-15.842l28.834-58.555L205.5,151.585V86.856h8.531h6.816h53.498c4.686,0,8.486-3.801,8.486-8.518
				C282.832,73.634,279.031,69.848,274.346,69.848z M181.152,139.453l-5.125-2.577v-7.412h10.602v9.989H181.152z M75.758,86.856
				h7.791v3.888L75.758,86.856z M87.697,86.856h10.574v10.471h-1.516l-9.059-4.5V86.856z M171.906,125.328H161.32v-10.149h10.586
				V125.328z M176.027,115.179h10.602v10.149h-10.602V115.179z M161.32,111.015v-9.523h10.586v9.523H161.32z M146.613,101.491
				h10.543v9.523h-10.543V101.491z M142.463,111.015h-10.586v-9.523h10.586V111.015z M161.32,97.327V86.856h10.586v10.471H161.32z
				 M157.156,97.327h-10.543V86.856h10.543V97.327z M142.463,97.327h-10.586V86.856h10.586V97.327z M127.744,97.327h-10.602V86.856
				h10.602V97.327z M113.004,97.327h-10.6V86.856h10.6V97.327z M113.004,101.491v3.945l-7.951-3.945H113.004z M117.143,101.491
				h10.602v9.523h-3.559l-7.043-3.51V101.491z M142.463,115.179v4.967l-9.975-4.967H142.463z M146.613,115.179h10.543v10.149h-4.281
				l-6.262-3.13V115.179z M161.32,129.464h10.586v5.346l-10.586-5.259V129.464z M190.775,129.464h10.559v9.989h-10.559V129.464z
				 M190.775,125.328v-10.149h10.559v10.149H190.775z M201.334,111.015h-10.559v-9.523h10.559V111.015z M186.629,111.015h-10.602
				v-9.523h10.602V111.015z M176.027,97.327V86.856h10.602v10.471H176.027z M195.191,219.384
				c-3.588,7.207-10.762,11.707-18.846,11.707c-3.215,0-6.318-0.74-9.246-2.168L43.82,167.953
				c-5.004-2.476-8.764-6.759-10.551-12.043c-1.803-5.302-1.441-10.995,1.033-16.018l25.816-52.497L220.688,167.5L195.191,219.384z
				 M190.775,144.23v-0.641h10.559v5.929L190.775,144.23z M201.334,97.327h-10.559V86.856h10.559V97.327z"/>
			<path fill="#3C4047" d="M256.506,201.126c-11.182-8.506-22.189-23.84-23.229-33.393c-0.084-0.641-10.713,71.893,9.846,94.479
				c12.77,13.994,44.281,13.18,51.127-15.873C301.107,217.302,267.705,209.642,256.506,201.126z"/>
			<path fill="#FFFFFF" d="M265.227,224.567h6.219c0,0,9.115,8.492,8.098,17.619h-8.316
				C271.227,242.187,274.139,231.835,265.227,224.567z"/>
		</g>
	</g>
</g>
</svg>
