<?xml version="1.0" encoding="utf-8"?>
<!-- Generator: Adobe Illustrator 16.0.4, SVG Export Plug-In . SVG Version: 6.00 Build 0)  -->
<!DOCTYPE svg PUBLIC "-//W3C//DTD SVG 1.1//EN" "http://www.w3.org/Graphics/SVG/1.1/DTD/svg11.dtd">
<svg version="1.1" id="Calque_1" xmlns="http://www.w3.org/2000/svg" xmlns:xlink="http://www.w3.org/1999/xlink" x="0px" y="0px" viewBox="0 0 317 317">
<g>
	<g>
		<g>
			<path fill="#000" d="M274.346,69.848h-60.314c-4.717,0-8.531,3.786-8.531,8.491H58.824l-16-8.491c0,0-2.363,2.884-4.285,8.94
				c-1.936,6.061,7.428,9.627,9.523,10.88c1.891,1.151,0.26,4.804,0,5.3l-20.443,41.618c-3.391,6.798-3.877,14.519-1.428,21.695
				c2.432,7.196,7.529,13.018,14.328,16.368l123.275,60.959c3.961,1.951,8.184,2.939,12.551,2.939
				c10.893,0,20.691-6.07,25.494-15.842l28.834-58.555L205.5,151.585V86.856h8.531h6.816h53.498c4.686,0,8.486-3.801,8.486-8.518
				C282.832,73.634,279.031,69.848,274.346,69.848z M181.152,139.453l-5.125-2.577v-7.412h10.602v9.989H181.152z M75.758,86.856
				h7.791v3.888L75.758,86.856z M87.697,86.856h10.574v10.471h-1.516l-9.059-4.5V86.856z M171.906,125.328H161.32v-10.149h10.586
				V125.328z M176.027,115.179h10.602v10.149h-10.602V115.179z M161.32,111.015v-9.523h10.586v9.523H161.32z M146.613,101.491
				h10.543v9.523h-10.543V101.491z M142.463,111.015h-10.586v-9.523h10.586V111.015z M161.32,97.327V86.856h10.586v10.471H161.32z
				 M157.156,97.327h-10.543V86.856h10.543V97.327z M142.463,97.327h-10.586V86.856h10.586V97.327z M127.744,97.327h-10.602V86.856
				h10.602V97.327z M113.004,97.327h-10.6V86.856h10.6V97.327z M113.004,101.491v3.945l-7.951-3.945H113.004z M117.143,101.491
				h10.602v9.523h-3.559l-7.043-3.51V101.491z M142.463,115.179v4.967l-9.975-4.967H142.463z M146.613,115.179h10.543v10.149h-4.281
				l-6.262-3.13V115.179z M161.32,129.464h10.586v5.346l-10.586-5.259V129.464z M190.775,129.464h10.559v9.989h-10.559V129.464z
				 M190.775,125.328v-10.149h10.559v10.149H190.775z M201.334,111.015h-10.559v-9.523h10.559V111.015z M186.629,111.015h-10.602
				v-9.523h10.602V111.015z M176.027,97.327V86.856h10.602v10.471H176.027z M195.191,219.384
				c-3.588,7.207-10.762,11.707-18.846,11.707c-3.215,0-6.318-0.74-9.246-2.168L43.82,167.953
				c-5.004-2.476-8.764-6.759-10.551-12.043c-1.803-5.302-1.441-10.995,1.033-16.018l25.816-52.497L220.688,167.5L195.191,219.384z
				 M190.775,144.23v-0.641h10.559v5.929L190.775,144.23z M201.334,97.327h-10.559V86.856h10.559V97.327z"/>
			<path fill="#000" d="M256.506,201.126c-11.182-8.506-22.189-23.84-23.229-33.393c-0.084-0.641-10.713,71.893,9.846,94.479
				c12.77,13.994,44.281,13.18,51.127-15.873C301.107,217.302,267.705,209.642,256.506,201.126z"/>
			<path fill="#FFFFFF" d="M265.227,224.567h6.219c0,0,9.115,8.492,8.098,17.619h-8.316
				C271.227,242.187,274.139,231.835,265.227,224.567z"/>
		</g>
	</g>
</g>
</svg>
