<?xml version="1.0" encoding="utf-8"?>
<!-- Generator: Adobe Illustrator 16.0.4, SVG Export Plug-In . SVG Version: 6.00 Build 0)  -->
<!DOCTYPE svg PUBLIC "-//W3C//DTD SVG 1.1//EN" "http://www.w3.org/Graphics/SVG/1.1/DTD/svg11.dtd">
<svg version="1.1" id="Calque_1" xmlns="http://www.w3.org/2000/svg" xmlns:xlink="http://www.w3.org/1999/xlink" x="0px" y="0px" viewBox="0 0 317 317">
<g>
	<g id="YMHbEK_2_">
		<g>
			<path fill-rule="evenodd" clip-rule="evenodd" fill="#000" d="M232.453,179.909c0,34.713,0,69.443,0,104.172
				c0,6.945-1.285,8.256-8.156,8.256c-46.105,0-92.191,0-138.293,0c-7.297,0-8.33-1.033-8.33-8.355c0-55.977,0-111.968,0-167.945
				c0-7.408,0.307-7.861,7.334-9.654c14.352-3.697,28.719-7.266,43.004-11.106c1.98-0.525,4.049-1.911,5.348-3.454
				c5.811-6.914,11.416-13.994,16.951-21.115c1.834-2.357,3.902-3.361,6.945-3.336c22.598,0.09,45.199,0,67.846,0.033
				c5.834,0.013,7.352,1.569,7.352,7.557C232.482,109.923,232.453,144.915,232.453,179.909z M226.803,179.005
				c0-32.256,0-64.481,0-96.751c0-1.339,0-2.708-0.031-4.063c-0.186-4.598-2.619-7.033-7.18-7.149
				c-2.475-0.058-4.947,0.146-7.412-0.028c-3.666-0.264-6.039,1.353-7.848,4.442c-4.061,6.917-8.359,13.702-12.318,20.692
				c-1.676,2.969-3.816,4.004-7.178,3.976c-16.559-0.19-33.113-0.147-49.672-0.147c-1.473,0-2.984,0.059-4.396,0.396
				c-13.779,3.42-27.541,6.901-41.283,10.396c-5.242,1.355-6.713,3.264-6.713,8.636c-0.016,10.878,0,21.756,0,32.587
				c0,41.781,0,83.529,0,125.293c0,6.945,2.184,9.131,9.012,9.131c41.895,0.018,83.775,0,125.672,0c7.162,0,9.316-2.111,9.316-9.172
				C226.803,244.489,226.803,211.771,226.803,179.005z M166.064,97.428c1.467,0,2.941,0,4.439,0
				c17.68-0.027,15.074,1.413,25.531-13.788c0.086-0.104,0.205-0.176,0.23-0.307c0.248-2.068,1.312-4.574,0.525-6.089
				c-0.818-1.542-3.48-2.866-5.359-2.926c-10.221-0.277-20.508-0.277-30.742-0.015c-1.951,0.061-4.324,1.28-5.633,2.736
				c-3.115,3.482-5.971,7.299-8.385,11.271c-1.023,1.633-1.531,4.516-0.746,6.043c0.787,1.503,3.391,2.783,5.314,2.913
				C156.148,97.675,161.127,97.4,166.064,97.428z"/>
			<path fill-rule="evenodd" clip-rule="evenodd" fill="#000" d="M62.455,26.643c3.482-3.888,6.771-7.543,10.34-11.477
				c16.764,20.126,28.355,33.829,39.678,71.909c-6.506,1.762-12.84,3.438-19.438,5.201C84.096,56.815,75.416,42.108,62.455,26.643z
				 M108.678,85.138c-3.92-22.76-22.852-55.932-35.621-65.675C88.436,34.899,102.037,63.601,108.678,85.138z"/>
			<path fill-rule="evenodd" clip-rule="evenodd" fill="#000" d="M123.951,85.038c0.842,3.157,1.619,5.953,2.477,9.201
				c-14.082,3.785-27.887,7.5-42.186,11.344c-0.816-3.102-1.588-5.984-2.449-9.201C96.006,92.552,109.844,88.837,123.951,85.038z"/>
			<path fill-rule="evenodd" clip-rule="evenodd" fill="#000" d="M223.771,178.903c0,32.647,0,65.266,0,97.914
				c0,5.838-0.713,6.521-6.654,6.521c-41.545,0.014-83.074,0.014-124.605,0c-6.01,0-6.686-0.639-6.686-6.496
				c0-52.025,0-104.071,0-156.1c0-5.769,0.09-5.885,5.609-7.281c12.322-3.131,24.623-6.318,36.973-9.334
				c2.854-0.713,5.852-1.021,8.777-1.05c15.934-0.073,31.895-0.116,47.854,0.104c4.469,0.042,7.365-1.546,9.582-5.465
				c3.797-6.798,8.035-13.339,11.928-20.064c1.439-2.547,3.201-3.654,6.215-3.626c11.564,0.188,11.008-1.106,11.008,11.067
				C223.76,116.345,223.771,147.638,223.771,178.903z"/>
		</g>
	</g>
</g>
<g>
	<path fill-rule="evenodd" clip-rule="evenodd" fill="#FFFFFF" d="M207.6,188.854c7.227,19.522,22.723,30.333,40.094,39.302
		c3.936,2.02,7.719,4.418,11.355,6.951c13.457,9.32,17.877,24.076,11.719,38.684c-6.168,14.621-21.377,22.557-37.238,19.42
		c-14.623-2.914-25.857-16.418-25.914-31.557C207.543,237.391,207.6,213.107,207.6,188.854z"/>
	<path fill="#000" d="M240.408,296.572c-2.461,0-4.949-0.238-7.41-0.723c-15.93-3.182-28.004-17.877-28.066-34.18
		c-0.043-16.502-0.043-33.029-0.027-49.52l0.016-38.273l5.195,14.049c7.154,19.363,22.883,29.646,38.818,37.846
		c3.607,1.867,7.42,4.195,11.645,7.141c14.479,10.027,19.324,26.094,12.67,41.924C267.576,288.25,255,296.572,240.408,296.572z
		 M210.281,200.5v11.65c-0.016,16.49-0.031,33,0.01,49.504c0.047,13.799,10.268,26.242,23.756,28.938
		c2.107,0.412,4.238,0.617,6.361,0.617c12.396,0,23.086-7.066,27.891-18.463c5.711-13.547,1.676-26.805-10.781-35.432
		c-4.033-2.812-7.643-5.02-11.045-6.773C232.705,223.443,219.068,214.846,210.281,200.5z"/>
</g>
<path fill-rule="evenodd" clip-rule="evenodd" fill="#3C3F41" d="M249.33,264.102c3.211,0,5.742-0.146,8.271,0.047
	c3.229,0.23,4.512-0.902,4.537-4.334c0.033-8.039-4.373-15.666-11.779-18.834c-2.191-0.926-4.871-0.723-7.316-1.016
	c-0.264,0.441-0.574,0.9-0.84,1.355C250.344,246.9,249.535,255.193,249.33,264.102z"/>
</svg>
