<?xml version="1.0" encoding="utf-8"?>
<!-- Generator: Adobe Illustrator 16.0.4, SVG Export Plug-In . SVG Version: 6.00 Build 0)  -->
<!DOCTYPE svg PUBLIC "-//W3C//DTD SVG 1.1//EN" "http://www.w3.org/Graphics/SVG/1.1/DTD/svg11.dtd">
<svg version="1.1" id="Calque_1" xmlns="http://www.w3.org/2000/svg" xmlns:xlink="http://www.w3.org/1999/xlink" x="0px" y="0px"
	 width="317.48px" height="425.2px" viewBox="0 0 317.48 425.2" enable-background="new 0 0 317.48 425.2" xml:space="preserve">
<g>
	<g>
		<g>
			<path fill="#FFFFFF" d="M308.468,304.274c0,2.676-2.16,4.846-4.832,4.846H12.74c-2.679,0-4.841-2.17-4.841-4.846V13.399
				c0-2.68,2.162-4.851,4.841-4.851h290.896c2.672,0,4.832,2.171,4.832,4.851V304.274z"/>
			<path fill="#2E587C" d="M303.636,310.583H12.74c-3.477,0-6.304-2.832-6.304-6.309V13.399c0-3.481,2.827-6.312,6.304-6.312
				h290.896c3.473,0,6.295,2.83,6.295,6.312v290.875C309.931,307.751,307.109,310.583,303.636,310.583z M12.74,10.013
				c-1.863,0-3.379,1.519-3.379,3.387v290.875c0,1.865,1.516,3.385,3.379,3.385h290.896c1.855,0,3.371-1.52,3.371-3.385V13.399
				c0-1.868-1.516-3.387-3.371-3.387H12.74z"/>
		</g>
		<g>
			<g>
				<path fill="#2E587C" d="M93.137,103.262c-1.44-0.568-1.918-1.281-1.396-2.767c4.804-14.007,9.558-27.999,14.314-42.019
					c0.479-1.469,1.215-1.891,2.773-1.383c7.553,2.518,15.19,4.848,22.721,7.441c5.604,1.92,8.801,6.07,9.811,11.863
					c0.524,3,1.887,4.209,4.544,3.947c2.453-0.246,3.423-1.703,3.22-4.849c-0.539-8.239-7.065-15.987-15.842-18.841
					c-17.851-5.752-35.694-11.559-53.589-17.282c-2.671-0.843-5.481-1.266-8.211-1.892c-6.342,0.38-11.684,2.591-16.111,6.975
					c-2.175,2.213-2.447,4.92-0.696,6.566c1.646,1.617,3.96,1.236,6.272-0.891c4.383-4.043,9.349-5.531,15.196-3.594
					c6.804,2.256,13.617,4.455,20.479,6.58c1.896,0.598,2.495,1.383,1.773,3.436c-4.505,12.958-8.865,25.975-13.307,38.961
					c-1.5,4.338-1.53,4.338-5.956,2.753c-4.491-1.589-6.072-0.876-7.585,3.595c-5.619,16.511-11.247,33.007-16.866,49.516
					c-4.246,12.563-7.708,25.55-18.579,34.606c-1.704,1.441-1.587,3.523,0.027,5.197c1.624,1.643,3.854,1.674,5.717-0.104
					c6.624-6.174,12.155-13.118,15.112-21.852c2.511-7.381,5.019-14.765,7.514-22.13c4.237-12.419,8.467-24.809,12.678-37.229
					c1.211-3.55,1.211-3.536,4.814-2.242c1.841,0.643,3.646,1.43,5.525,1.924c2.417,0.624,2.985,1.66,2.111,4.148
					c-6.334,18.14-12.72,36.268-18.606,54.539c-2.956,9.201-7.485,17.149-14.429,23.815c-2.264,2.186-2.489,4.324-0.862,5.999
					c1.779,1.851,4.009,1.704,6.322-0.495c6.813-6.536,12.136-14.02,15.193-23.088c6.836-20.326,13.794-40.561,20.696-60.858
					C100.428,106.218,100.479,106.188,93.137,103.262z"/>
				<path fill="#2E587C" d="M189.771,116.976c-3.145,0-6.217,0.321-9.188,0.858c-2.941-11.034-5.189-19.552-5.189-19.552
					c-0.363-1.603,0.174-3.014,0.965-3.99c4.443-5.444,9.104-10.657,13.59-16.028c1.336-1.56,2.604-1.895,4.625-1.516
					c4.414,0.846,8.928,1.764,13.361,1.703c6.545-0.086,10.184-6.607,7.135-12.141c-2.031-3.655-5.682-4.383-9.398-4.412
					c-13.279-0.088-26.609-0.072-39.893,0c-1.652,0.029-3.381,0.423-4.879,1.049c-2.97,1.236-3.315,4.208-0.686,5.983
					c1.559,1.063,3.494,1.731,5.381,2.139c5.379,1.224,10.877,2.216,16.941,3.409c-0.838,1.162-1.268,1.818-1.748,2.4
					c-3.525,4.121-7.207,8.095-10.527,12.346c-1.85,2.375-3.902,3.045-6.799,3.029c-19.789-0.115-39.55-0.059-59.315-0.059
					c-4.746,0-6.29,1.91-5.038,6.465c6.1,23.031,12.243,46.037,18.374,69.024c0.845,3.187,1.922,3.975,5.292,3.975
					c0.721,0,7.499,0,16.445,0.029c2.024,26.148,23.892,46.719,50.55,46.719c28.023,0,50.727-22.682,50.727-50.693
					C240.498,139.704,217.794,116.976,189.771,116.976z M123.94,161.277l-16.189-61.291h56.293c2.664-0.016,4.006,0.727,4.6,3.451
					l4.363,16.406c-18.654,6.551-32.346,23.7-33.803,44.215c-6.652,0-11.487,0-11.908,0
					C125.069,164.059,124.429,163.188,123.94,161.277z M175.031,127.457l8.932,33.646c0.641,2.301,0.016,2.955-2.316,2.955
					c0,0-19.014,0-34.576,0C148.494,147.169,159.721,133.077,175.031,127.457z M189.771,210.577
					c-22.334,0-40.666-17.096-42.66-38.889c17.849,0,39.296,0.014,41.25,0.014c4.24,0,5.953-1.966,4.818-6.246
					c-1.441-5.503-6.307-23.86-10.586-39.993c2.346-0.393,4.73-0.609,7.178-0.609c23.674,0,42.877,19.185,42.877,42.86
					C232.648,191.384,213.445,210.577,189.771,210.577z"/>
			</g>
			<g>
				<g>
					<polyline fill="#FFFFFF" points="180.367,261.729 147.285,261.729 255.224,198.062 281.5,198.062 					"/>
					<polygon fill="#2E587C" points="180.367,264.222 137.573,264.222 254.503,195.258 281.5,195.258 281.5,200.558 
						255.943,200.558 156.998,258.925 180.367,258.925 					"/>
				</g>
				<g>
					<polyline fill="#FFFFFF" points="181.158,280.048 278.701,214.72 278.701,197.978 					"/>
					<polygon fill="#2E587C" points="182.636,282.087 179.679,277.69 276.05,213.151 276.05,197.822 281.353,197.822 
						281.353,215.976 					"/>
				</g>
				<g>
					<line fill="#2D2E87" x1="180.367" y1="261.729" x2="180.367" y2="279.478"/>
					<rect x="177.716" y="261.729" fill="#FFFFFF" width="5.299" height="17.748"/>
				</g>
				<g>
					<polygon fill="#FFFFFF" points="147.285,196.654 255.224,144.604 255.224,198.062 147.285,261.729 					"/>
					<path fill="#2E587C" d="M144.638,266.202v-71.381l113.237-54.596v59.195L144.638,266.202z M149.938,198.155v58.773
						l102.636-60.534V148.67L149.938,198.155z"/>
				</g>
				<g>
					<line fill="#2D2E87" x1="95.823" y1="257.667" x2="131.655" y2="241.493"/>
					
						<rect x="111.089" y="229.768" transform="matrix(0.4114 0.9115 -0.9115 0.4114 294.2963 43.1499)" fill="#2E587C" width="5.303" height="39.314"/>
				</g>
				<g>
					<polyline fill="#FFFFFF" points="101.867,177.188 226.722,133.743 280.027,133.743 280.027,150.194 175.693,196.811 					"/>
					<polygon fill="#2E587C" points="176.773,199.071 174.617,194.239 277.376,148.319 277.376,136.238 227.175,136.238 
						102.741,179.533 100.995,174.526 226.722,130.938 282.677,130.938 282.677,151.756 					"/>
				</g>
				<g>
					<line fill="#2D2E87" x1="174.199" y1="178.978" x2="280.027" y2="133.743"/>
					
						<rect x="224.462" y="98.654" transform="matrix(0.3926 0.9197 -0.9197 0.3926 281.5967 -114.0059)" fill="#2E587C" width="5.303" height="115.088"/>
				</g>
				<g>
					<polygon fill="#2E587C" points="103.419,177.175 174.199,178.821 174.199,196.496 147.285,196.496 147.285,261.573 
						180.367,261.573 180.367,279.323 97.23,275.696 97.23,257.935 130.543,259.403 130.543,195.899 103.419,194.853 					"/>
					<path fill="#2E587C" d="M183.015,282.087l-88.436-3.855v-23.076l33.312,1.469v-58.178l-27.125-1.046v-22.946l76.083,1.775
						v22.918h-26.912v59.777h33.078V282.087z M99.877,273.147l77.839,3.406v-12.332h-33.079v-70.374h26.911v-12.435l-65.481-1.527
						v12.418l27.124,1.049v68.818L99.877,260.7V273.147z"/>
				</g>
				<g>
					<line fill="#2D2E87" x1="181.158" y1="262.122" x2="279.759" y2="199.302"/>
					<polygon fill="#2E587C" points="182.587,264.194 179.734,259.724 278.332,196.903 281.183,201.375 					"/>
				</g>
			</g>
		</g>
	</g>
	<g>
		<g>
			<path fill="#2E587C" d="M101.082,349.745c-0.183-3.975-0.412-8.725-0.363-12.924h-0.139c-1.006,3.742-2.283,7.898-3.653,11.781
				l-4.521,13.336h-4.292l-4.109-13.154c-1.189-3.928-2.285-8.127-3.105-11.963h-0.092c-0.136,4.016-0.319,8.904-0.55,13.105
				l-0.685,12.377h-5.251l2.055-30.783h7.397l4.02,12.379c1.096,3.605,2.055,7.26,2.832,10.684h0.137
				c0.821-3.332,1.873-7.119,3.06-10.73l4.248-12.332h7.306l1.779,30.783h-5.479L101.082,349.745z"/>
			<path fill="#2E587C" d="M130.767,348.647h-11.6v9.043h12.97v4.613H113.55v-30.783h17.902v4.615h-12.285v7.945h11.6V348.647z
				 M129.99,324.397l-5.707,5.48h-4.523l4.021-5.48H129.99z"/>
			<path fill="#2E587C" d="M144.103,336.226h-8.771v-4.705h23.247v4.705h-8.861v26.078h-5.615V336.226z"/>
			<path fill="#2E587C" d="M165.705,353.579l-2.652,8.725h-5.798l9.867-30.783h7.166l10.002,30.783h-6.027l-2.785-8.725H165.705z
				 M174.517,349.331l-2.422-7.58c-0.592-1.873-1.096-3.973-1.551-5.752h-0.092c-0.459,1.779-0.914,3.928-1.461,5.752l-2.373,7.58
				H174.517z"/>
			<path fill="#2E587C" d="M193.375,331.521v17.951c0,6.025,2.516,8.812,6.305,8.812c4.064,0,6.486-2.787,6.486-8.812v-17.951h5.613
				v17.584c0,9.5-4.883,13.699-12.283,13.699c-7.123,0-11.734-3.973-11.734-13.652v-17.631H193.375z"/>
			<path fill="#2E587C" d="M235.345,362.304l-3.287-6.123c-1.326-2.369-2.193-4.018-3.107-5.797h-0.09
				c-0.73,1.779-1.553,3.428-2.789,5.797l-3.057,6.123h-6.441l9.135-15.572l-8.812-15.211h6.482l3.338,6.348
				c1.002,1.92,1.734,3.426,2.51,5.162h0.137c0.822-1.918,1.463-3.289,2.422-5.162l3.287-6.348h6.438l-8.994,15.025l9.361,15.758
				H235.345z"/>
		</g>
	</g>
</g>
</svg>
