<?xml version="1.0" encoding="utf-8"?>
<!-- Generator: Adobe Illustrator 16.0.4, SVG Export Plug-In . SVG Version: 6.00 Build 0)  -->
<!DOCTYPE svg PUBLIC "-//W3C//DTD SVG 1.1//EN" "http://www.w3.org/Graphics/SVG/1.1/DTD/svg11.dtd">
<svg version="1.1" id="Calque_1" xmlns="http://www.w3.org/2000/svg" xmlns:xlink="http://www.w3.org/1999/xlink" x="0px" y="0px" viewBox="0 0 317 317">
<g>
	<g>
		<path fill="#000" d="M91.616,349.63c-0.186-4.004-0.416-8.797-0.367-13.035h-0.141c-1.012,3.779-2.301,7.969-3.684,11.885
			l-4.561,13.451h-4.33l-4.146-13.27c-1.197-3.961-2.303-8.199-3.135-12.066h-0.09c-0.139,4.055-0.322,8.982-0.551,13.223
			L69.919,362.3h-5.295l2.07-31.051h7.463l4.055,12.486c1.104,3.639,2.072,7.324,2.855,10.779h0.139
			c0.83-3.363,1.889-7.186,3.086-10.826l4.285-12.439h7.369l1.797,31.051h-5.529L91.616,349.63z"/>
		<path fill="#000" d="M121.56,348.524h-11.701v9.123h13.082v4.652h-18.746v-31.051h18.059v4.65h-12.395v8.021h11.701V348.524z"
			/>
		<path fill="#000" d="M134.228,331.249v18.105c0,6.08,2.535,8.893,6.359,8.893c4.096,0,6.541-2.812,6.541-8.893v-18.105h5.666
			v17.738c0,9.58-4.93,13.816-12.395,13.816c-7.184,0-11.838-4.004-11.838-13.771v-17.783H134.228z"/>
		<path fill="#000" d="M159.978,331.712c1.799-0.367,5.066-0.689,8.293-0.689c4.145,0,6.771,0.551,8.846,1.98
			c1.936,1.152,3.223,3.174,3.223,5.848c0,2.855-1.797,5.438-5.158,6.678v0.141c3.27,0.828,6.264,3.41,6.264,7.646
			c0,2.768-1.195,4.932-2.947,6.404c-2.211,1.936-5.852,2.9-11.561,2.9c-3.135,0-5.482-0.23-6.959-0.412V331.712z M165.599,343.964
			h2.9c3.961,0,6.127-1.844,6.127-4.467c0-2.947-2.211-4.285-5.803-4.285c-1.656,0-2.625,0.092-3.225,0.229V343.964z
			 M165.599,358.198c0.74,0.141,1.703,0.141,2.996,0.141c3.639,0,6.908-1.34,6.908-5.205c0-3.594-3.176-5.07-7.094-5.07h-2.811
			V358.198z"/>
		<path fill="#000" d="M187.202,331.249h5.668v26.305h12.76v4.746h-18.428V331.249z"/>
		<path fill="#000" d="M227.97,348.524h-11.701v9.123h13.082v4.652h-18.748v-31.051h18.061v4.65h-12.395v8.021h11.701V348.524z"
			/>
		<path fill="#000" d="M234.929,356.126c1.793,1.059,4.604,1.98,7.506,1.98c3.594,0,5.621-1.705,5.621-4.236
			c0-2.35-1.564-3.73-5.482-5.158c-5.158-1.799-8.428-4.564-8.428-8.986c0-5.113,4.236-8.938,11.008-8.938
			c3.363,0,5.807,0.738,7.416,1.523l-1.336,4.605c-1.152-0.6-3.314-1.477-6.217-1.477c-3.592,0-5.115,1.891-5.115,3.732
			c0,2.395,1.799,3.504,5.943,5.068c5.389,2.074,7.971,4.791,7.971,9.213c0,5.023-3.779,9.305-11.748,9.305
			c-3.318,0-6.727-0.92-8.434-1.936L234.929,356.126z"/>
	</g>
	<g>
		<g>
			<path fill-rule="evenodd" clip-rule="evenodd" fill="#000" d="M278.896,58.976c-0.158-1.792-0.391-2.373-2.664-2.824
				c-2.256-0.439-26.309-5.872-33.734-5.914c-17.299-0.145-34.643,0.494-51.971,0.787c-19.162,0.293-38.309,0.539-57.486,0.815
				c-0.916,0.015-1.834,0.145-3,0.263c1.475,20.221,0.365,38.511,0.801,60.207c-5.033-0.714-8.43-0.494-14.184-0.408
				c-27.154,0.729-41.045,9.377-41.045,9.377c-7.209,4.295-12.189,11.5-12.828,19.468c-0.406,5.022,0,10.146,0.275,15.216
				c0.205,3.826,0.773,7.656,1.193,11.56c-0.873,0.159-1.281,0.319-1.701,0.319c-13.57-0.045-21.465,6.042-23.062,19.408
				c-0.979,7.849-0.715,16.018,0.291,23.88c2.182,17.472,7.977,34.026,13.57,50.653c1.789,5.33,3.756,8.914,10.162,7.588
				c1.848-0.41,2.926,0.68,3.363,2.635c0.641,2.939,1.617,5.822,2.258,8.777c0.492,2.201,1.076,3.803,3.9,3.568
				c2.533-0.188,5.055,0.32,5.537-3.289c0.291-2.125,1.104-4.195,1.729-6.246c1.719-5.664,0.424-5.504,7.092-5.504
				c4.137,0,4.166,0,4.195-4.311c0.016-0.338,0.016-0.652,0-0.975c-0.221-2.316,0.695-3.322,3.158-3.291
				c11.258,0.074,22.512,0.088,33.795,0c2.623-0.031,3.162,0.959,3.145,3.436c-0.016,4.645,0.164,7.439,0.164,12.188
				c0,1.732-0.029,2.953,2.023,3.23c9.316,1.092,20.471,2.303,30.068,3.438c0,0-0.311-3.408-0.482-5.912
				c-0.232-2.43-0.83-3.725-3.377-3.977c-3.887-0.348-7.527-0.867-10.963-1.25c-7.561-0.83-8.143-0.102-8.143-8.43
				c0-2.332,1.645-2.77,3.6-2.709c2.838,0.074,5.65,0.016,8.457,0.016c4.473,0,4.719,0.031,4.41,4.498
				c-0.203,3.406,1.008,3.904,4.238,4.049c3.162,0.143,3.963,0.711,4.473,3.379c0.607,3.156,1.572,6.301,2.504,9.389
				c0.232,0.803,0.916,1.836,1.631,2.055c4.223,1.381,6.434,0.146,7.631-4.076c0.188-0.627,0.365-1.24,0.553-1.865
				c2.461-8.709,2.461-8.779,11.346-8.822c2.15-0.018,3.377-0.602,4.045-2.781c3.918-12.594,8.402-25.018,11.854-37.756
				c3.623-13.264,6.053-26.806,4.207-40.74c-1.297-9.754-6.812-16.935-14.416-19.408V60.356c13.164-0.247,26.428-0.479,38.979-0.684
				c0,0,6.129,0.479,6.129,4.047c0,3.554,0,209.262,0,209.262s0.236,6.129-5.883,5.678c-1.062-0.059-2.344-0.145-3.869-0.264
				c-14.691-1.107-29.367-1.951-44.064-2.812c-0.814-0.041-2.299,0.746-2.387,1.283c-0.408,2.518-0.408,5.082-0.611,7.818
				c3.482,0.277,6.555,0.553,9.715,0.762c16.174,1.059,32.365,2.125,48.545,3.117c2.141,0.129,4.414,0.275,6.438-0.309
				c10.104-2.809,16.889-4.398,26.965-7.268c2.27-0.625,3.113-1.906,3.246-4.164c0.1-1.967,0.088-5.443,0.188-7.424
				C278.896,269.399,279.03,60.517,278.896,58.976z M78.571,271.437c-0.775,3.045-1.619,6.045-2.67,8.967
				c-0.23,0.686-0.945,1.488-2.08,1.457c-1.105,0-1.777-0.596-1.951-1.18c-1.02-3.055-1.791-6.199-2.752-9.666
				c-0.932-2.928,4.342-2.098,6.814-2.084C77.185,268.944,79.165,269.106,78.571,271.437z M82.093,222.354h0.025
				c0.031,10.73,0.031,21.447,0,32.148c0,5.434-0.025,5.447-5.252,5.447c-3.699,0-7.385-0.076-11.053,0.014
				c-1.893,0.027-2.943-0.643-3.596-2.49c-6.439-18.26-12.393-36.693-13.834-56.159c-0.381-5.473,0.48-11.224,1.746-16.612
				c1.24-5.416,5.883-7.922,11.432-7.498c6.406,0.479,12.215,2.636,17.604,6.102c2.154,1.365,3.018,3.041,2.984,5.605
				C82.063,200.062,82.093,211.216,82.093,222.354z M153.849,251.446c-9.742-0.115-19.482-0.029-29.225-0.029
				c-9.67,0.014-19.307-0.086-28.92,0.059c-3.012,0.041-4.205-0.803-4.176-4.02c0.158-11.809,0.115-23.615,0-35.439
				c-0.029-2.709,0.785-4.004,3.566-4.689c19.848-4.994,39.648-4.396,59.451,0.145c2.186,0.495,3.031,1.559,3.002,3.83
				c-0.043,12.217-0.074,24.459,0.029,36.723C157.577,250.819,156.382,251.487,153.849,251.446z M160.56,178.429
				c-2.33,1.411-3.289,3.449-3.086,6.273c0.217,3.553-0.031,7.133,0.074,10.701c0.084,2.372-0.873,3.072-3.16,2.562
				c-12.406-2.895-24.986-3.812-37.684-3.041c-7.223,0.449-14.373,1.643-21.506,2.865c-2.885,0.512-3.73-0.232-3.641-2.998
				c0.129-3.671,0.23-7.369-0.059-11.023c-0.133-1.558-0.83-3.564-1.98-4.41c-3.902-2.855-8.199-5.199-12.174-7.924
				c-1.252-0.885-2.871-2.297-3.027-3.639c-0.979-7.805-1.721-15.65-2.215-23.513c-0.219-3.466,0.846-6.685,3.248-9.813
				c0,0,9.217-12.814,45.852-13.163c5.535-0.072,11.357,0.919,14.166,1.69c9.484,2.604,18.975,5.242,28.148,8.691
				c10.309,3.857,11.666,7.119,10.918,18.144c-0.416,6.23-0.1,12.505-0.318,18.767c-0.027,0.93-1.092,2.125-1.994,2.707
				C168.308,173.78,164.392,176.01,160.56,178.429z M177.55,271.741c-0.578,2.824-1.395,5.639-2.367,8.357
				c-0.293,0.771-1.428,1.732-2.172,1.75c-0.773,0.012-1.939-0.92-2.199-1.691c-0.975-2.723-1.922-5.531-2.27-8.387
				c-0.234-1.805,0.334-2.316,1.135-2.4c1.006-0.133,5.141-0.469,6.523,0.043C176.999,269.821,177.843,270.343,177.55,271.741z
				 M200.575,190.335c1.396,10.762-0.422,21.218-3.041,31.48c-2.945,11.59-6.775,22.979-10.111,34.506
				c-0.814,2.693-2.195,3.553-5.137,3.67c-4.428,0.205-7.207-0.117-11.355,0c-2.959,0.09-4.006-0.859-3.963-3.885
				c0.131-11.258,0.07-22.525,0.07-33.797c0-11.152,0.061-22.305-0.07-33.46c-0.027-2.575,0.758-4.54,3.09-5.544
				c4.609-1.982,9.195-4.559,14.049-5.52C194.374,175.734,199.276,179.956,200.575,190.335z M186.438,167.856
				c-2.824,0.027-3.191-0.686-3.146-4.354c0.074-5.94,0.277-11.907,0.598-17.851c0.596-10.805-4.283-18.068-14.26-21.869
				c-7.234-2.766-17.051-5.939-24.43-8.373c-2.17-0.712-3.381-1.514-3.553-4.135c-0.963-14.326-0.439-28.844-1.15-46.898
				c-0.074-2.255,0.568-3.145,2.84-3.158c6.828-0.062,13.643-0.291,20.469-0.365c7.354-0.118,14.941-0.219,22.633-0.364V167.856z
				 M272.302,68.876c0,0-0.439,187.314,0,200.186c0.115,3.598-3.406,4.912-3.406,4.912s-5.348,1.873-11.605,3.127
				c-9.072,1.822-8.01-6.451-8.01-6.451s0.061-200.564,0-206.055c-0.059-4.922,3.041-4.5,3.041-4.5l15.439,3.146
				C272.794,63.691,272.302,68.876,272.302,68.876z"/>
		</g>
	</g>
</g>
</svg>
