<?xml version="1.0" encoding="utf-8"?>
<!-- Generator: Adobe Illustrator 16.0.4, SVG Export Plug-In . SVG Version: 6.00 Build 0)  -->
<!DOCTYPE svg PUBLIC "-//W3C//DTD SVG 1.1//EN" "http://www.w3.org/Graphics/SVG/1.1/DTD/svg11.dtd">
<svg version="1.1" id="Calque_1" xmlns="http://www.w3.org/2000/svg" xmlns:xlink="http://www.w3.org/1999/xlink" x="0px" y="0px"
	 width="317.48px" height="425.2px" viewBox="0 0 317.48 425.2" enable-background="new 0 0 317.48 425.2" xml:space="preserve">
<g>
	<g>
		<g>
			<path fill="#2D81B1" d="M304.819,310.583H13.874c-3.463,0-6.275-2.822-6.275-6.289V13.362c0-3.461,2.812-6.274,6.275-6.274
				h290.945c3.459,0,6.275,2.813,6.275,6.274v290.932C311.095,307.761,308.278,310.583,304.819,310.583z M13.874,9.966
				c-1.875,0-3.398,1.522-3.398,3.396v290.932c0,1.881,1.523,3.41,3.398,3.41h290.945c1.873,0,3.396-1.529,3.396-3.41V13.362
				c0-1.874-1.523-3.396-3.396-3.396H13.874z"/>
		</g>
	</g>
	<g>
		<g>
			<path fill="#2D81B1" d="M111.653,50.262v-4.991c0-4.267,3.459-7.724,7.725-7.724h135.904c4.266,0,7.723,3.457,7.723,7.724
				v197.984c0,4.267-3.457,7.723-7.723,7.723h-7.115"/>
			<path fill="#FFFFFF" d="M255.282,253.702h-7.115v-5.449h7.115c2.756,0,4.998-2.242,4.998-4.998V45.271
				c0-2.757-2.242-4.999-4.998-4.999H119.378c-2.758,0-5,2.242-5,4.999v4.991h-5.449v-4.991c0-5.761,4.688-10.448,10.449-10.448
				h135.904c5.76,0,10.447,4.688,10.447,10.448v197.984C265.729,249.016,261.042,253.702,255.282,253.702z"/>
		</g>
		<g>
			<path fill="#2D81B1" d="M96.821,65.928v-6.731c0-4.267,3.457-7.724,7.723-7.724h135.904c4.266,0,7.725,3.457,7.725,7.724v197.984
				c0,4.267-3.459,7.724-7.725,7.724H230.3h-6.207l-14.836,15.22"/>
			<path fill="#FFFFFF" d="M211.208,282.026l-3.902-3.804l15.637-16.043h17.506c2.758,0,5-2.242,5-4.999V59.196
				c0-2.757-2.242-4.999-5-4.999H104.544c-2.756,0-4.998,2.242-4.998,4.999v6.731h-5.449v-6.731c0-5.761,4.688-10.448,10.447-10.448
				h135.904c5.762,0,10.449,4.688,10.449,10.448v197.984c0,5.761-4.688,10.448-10.449,10.448h-15.207L211.208,282.026z"/>
		</g>
		<g>
			<path fill="#2D81B1" d="M82.649,235.725v35.824c0,4.267,3.455,7.725,7.723,7.725h118.141v-19.816
				c0-4.267,3.459-7.724,7.723-7.724h19.07V73.652c0-4.267-3.459-7.725-7.725-7.725H90.372c-4.268,0-7.723,3.458-7.723,7.725v86.246
				"/>
			<path fill="#FFFFFF" d="M211.237,281.998H90.372c-5.762,0-10.447-4.688-10.447-10.449v-35.824h5.449v35.824
				c0,2.757,2.242,5,4.998,5h115.416v-17.092c0-5.761,4.686-10.448,10.447-10.448h16.346V73.652c0-2.757-2.242-5-5-5H90.372
				c-2.756,0-4.998,2.243-4.998,5v86.246h-5.449V73.652c0-5.762,4.686-10.449,10.447-10.449h137.209
				c5.762,0,10.449,4.688,10.449,10.449v180.806h-21.795c-2.756,0-4.998,2.242-4.998,4.999V281.998z"/>
		</g>
		<g>
			<line fill="#2D81B1" x1="96.821" y1="112.407" x2="221.196" y2="112.407"/>
			<path fill="#FFFFFF" d="M221.196,115.132H96.821c-1.506,0-2.725-1.22-2.725-2.725s1.219-2.725,2.725-2.725h124.375
				c1.504,0,2.725,1.22,2.725,2.725S222.7,115.132,221.196,115.132z"/>
		</g>
		<g>
			<line fill="#2D81B1" x1="96.821" y1="127.844" x2="221.196" y2="127.844"/>
			<path fill="#FFFFFF" d="M221.196,130.568H96.821c-1.506,0-2.725-1.22-2.725-2.725s1.219-2.725,2.725-2.725h124.375
				c1.504,0,2.725,1.22,2.725,2.725S222.7,130.568,221.196,130.568z"/>
		</g>
		<g>
			<line fill="#2D81B1" x1="96.821" y1="143.279" x2="221.196" y2="143.279"/>
			<path fill="#FFFFFF" d="M221.196,146.004H96.821c-1.506,0-2.725-1.22-2.725-2.725s1.219-2.725,2.725-2.725h124.375
				c1.504,0,2.725,1.22,2.725,2.725S222.7,146.004,221.196,146.004z"/>
		</g>
		<g>
			<line fill="#2D81B1" x1="209.257" y1="280.124" x2="236.099" y2="252.584"/>
			
				<rect x="219.953" y="247.126" transform="matrix(0.7162 0.6979 -0.6979 0.7162 249.0889 -79.814)" fill="#FFFFFF" width="5.449" height="38.457"/>
		</g>
		<g>
			<path fill="#2D81B1" d="M202.06,228.002c0,4.267-3.459,7.725-7.725,7.725H55.411c-4.264,0-7.725-3.458-7.725-7.725v-60.38
				c0-4.266,3.461-7.724,7.725-7.724h138.924c4.266,0,7.725,3.458,7.725,7.724V228.002z"/>
			<path fill="#FFFFFF" d="M194.335,238.451H55.411c-5.762,0-10.449-4.688-10.449-10.449v-60.38c0-5.761,4.688-10.448,10.449-10.448
				h138.924c5.762,0,10.449,4.688,10.449,10.448v60.38C204.784,233.764,200.097,238.451,194.335,238.451z M55.411,162.623
				c-2.758,0-5,2.242-5,4.999v60.38c0,2.757,2.242,5,5,5h138.924c2.758,0,5-2.243,5-5v-60.38c0-2.757-2.242-4.999-5-4.999H55.411z"
				/>
		</g>
		<g>
			<polyline fill="#2D81B1" points="51.093,161.217 124.874,208.818 198.651,161.217 			"/>
			<polygon fill="#FFFFFF" points="124.874,212.061 49.616,163.506 52.571,158.928 124.874,205.576 197.173,158.928 
				200.128,163.506 			"/>
		</g>
	</g>
	<g>
		<path fill="#2D81B1" d="M79.259,331.506c2.114-0.376,4.981-0.658,8.835-0.658c4.23,0,7.285,0.894,9.306,2.585
			c1.88,1.551,3.102,4.042,3.102,7.003c0,3.008-0.939,5.451-2.679,7.144c-2.35,2.303-5.922,3.431-10.01,3.431
			c-1.081,0-2.021-0.047-2.82-0.235v11.984h-5.733V331.506z M84.992,346.216c0.752,0.235,1.645,0.282,2.82,0.282
			c4.323,0,6.955-2.162,6.955-5.828c0-3.478-2.443-5.357-6.438-5.357c-1.598,0-2.726,0.141-3.337,0.282V346.216z"/>
		<path fill="#2D81B1" d="M108.539,353.782l-2.727,8.977h-5.968l10.151-31.676h7.378l10.293,31.676h-6.204l-2.867-8.977H108.539z
			 M117.609,349.411l-2.491-7.801c-0.61-1.927-1.128-4.089-1.598-5.922h-0.094c-0.47,1.833-0.94,4.042-1.504,5.922l-2.444,7.801
			H117.609z"/>
		<path fill="#2D81B1" d="M132.086,331.506c2.115-0.376,4.981-0.658,8.835-0.658c4.23,0,7.285,0.894,9.306,2.585
			c1.88,1.551,3.102,4.042,3.102,7.003c0,3.008-0.939,5.451-2.679,7.144c-2.35,2.303-5.921,3.431-10.01,3.431
			c-1.081,0-2.021-0.047-2.82-0.235v11.984h-5.733V331.506z M137.819,346.216c0.752,0.235,1.646,0.282,2.82,0.282
			c4.323,0,6.955-2.162,6.955-5.828c0-3.478-2.443-5.357-6.438-5.357c-1.598,0-2.726,0.141-3.337,0.282V346.216z"/>
		<path fill="#2D81B1" d="M164.139,331.083v31.676h-5.78v-31.676H164.139z"/>
		<path fill="#2D81B1" d="M188.483,348.707h-11.938v9.305h13.348v4.747h-19.128v-31.676h18.423v4.746h-12.643v8.178h11.938V348.707z
			"/>
		<path fill="#2D81B1" d="M194.971,331.553c2.209-0.423,5.404-0.705,8.741-0.705c4.559,0,7.613,0.752,9.775,2.538
			c1.739,1.457,2.726,3.666,2.726,6.392c0,4.089-2.772,6.861-5.78,7.896v0.141c2.303,0.846,3.666,3.055,4.418,6.109
			c1.034,3.948,1.88,7.614,2.49,8.836h-5.921c-0.471-0.939-1.27-3.524-2.115-7.473c-0.939-4.136-2.396-5.451-5.687-5.546h-2.914
			v13.019h-5.733V331.553z M200.704,345.511h3.431c3.901,0,6.298-2.067,6.298-5.217c0-3.431-2.396-5.075-6.156-5.075
			c-1.833,0-3.008,0.141-3.572,0.282V345.511z"/>
		<path fill="#2D81B1" d="M221.619,356.461c1.832,1.081,4.699,2.021,7.66,2.021c3.666,0,5.733-1.739,5.733-4.324
			c0-2.396-1.598-3.807-5.593-5.264c-5.264-1.833-8.6-4.652-8.6-9.164c0-5.217,4.323-9.118,11.231-9.118
			c3.431,0,5.922,0.752,7.567,1.552l-1.363,4.699c-1.175-0.61-3.384-1.504-6.345-1.504c-3.666,0-5.217,1.927-5.217,3.807
			c0,2.444,1.833,3.572,6.062,5.17c5.499,2.115,8.131,4.888,8.131,9.399c0,5.123-3.854,9.493-11.984,9.493
			c-3.384,0-6.861-0.939-8.601-1.974L221.619,356.461z"/>
	</g>
</g>
</svg>
