<?xml version="1.0" encoding="utf-8"?>
<!-- Generator: Adobe Illustrator 16.0.4, SVG Export Plug-In . SVG Version: 6.00 Build 0)  -->
<!DOCTYPE svg PUBLIC "-//W3C//DTD SVG 1.1//EN" "http://www.w3.org/Graphics/SVG/1.1/DTD/svg11.dtd">
<svg version="1.1" id="Calque_1" xmlns="http://www.w3.org/2000/svg" xmlns:xlink="http://www.w3.org/1999/xlink" x="0px" y="0px" viewBox="0 0 317 317">
<g>
	<g>
		<path fill="#000" d="M105.475,331.708c2.072-0.369,4.887-0.645,8.664-0.645c4.146,0,7.145,0.873,9.123,2.533
			c1.842,1.52,3.039,3.961,3.039,6.863c0,2.947-0.922,5.342-2.625,7.006c-2.303,2.258-5.805,3.361-9.812,3.361
			c-1.062,0-1.984-0.047-2.766-0.23v11.748h-5.623V331.708z M111.098,346.126c0.734,0.232,1.613,0.275,2.766,0.275
			c4.236,0,6.818-2.117,6.818-5.711c0-3.408-2.396-5.252-6.314-5.252c-1.566,0-2.67,0.139-3.27,0.277V346.126z"/>
		<path fill="#000" d="M137.588,331.292v31.053h-5.67v-31.053H137.588z"/>
		<path fill="#000" d="M144.779,331.292h5.666v26.307h12.758v4.746h-18.424V331.292z"/>
		<path fill="#000" d="M185.551,348.569h-11.705v9.121h13.088v4.654H168.18v-31.053h18.061v4.652h-12.395v8.016h11.705V348.569z"
			/>
		<path fill="#000" d="M192.506,356.169c1.799,1.062,4.607,1.982,7.51,1.982c3.592,0,5.623-1.705,5.623-4.238
			c0-2.348-1.566-3.732-5.484-5.158c-5.156-1.799-8.432-4.561-8.432-8.986c0-5.113,4.24-8.938,11.01-8.938
			c3.365,0,5.807,0.738,7.42,1.52l-1.336,4.609c-1.154-0.6-3.314-1.479-6.223-1.479c-3.588,0-5.113,1.893-5.113,3.736
			c0,2.395,1.799,3.5,5.945,5.066c5.391,2.074,7.969,4.793,7.969,9.215c0,5.021-3.775,9.305-11.746,9.305
			c-3.318,0-6.725-0.918-8.43-1.934L192.506,356.169z"/>
	</g>
	<g>
		<g id="_x34_qqU4n_2_">
			<g>
				<path fill-rule="evenodd" clip-rule="evenodd" fill="#000" d="M166.709,95.468c18.215-17.547,35.963-34.643,53.623-51.68
					c3.598,3.643,7.031,7.076,10.789,10.906c4.85-4.658,9.316-8.953,14.094-13.468c11.617,12.056,23.109,23.938,34.537,35.775
					c-4.525,4.646-8.779,9.046-13.307,13.688c3.434,3.699,6.812,7.31,10.412,11.125c-28.381,27.359-56.627,54.604-84.902,81.848
					c0.131,0.305,0.289,0.625,0.422,0.945c1.877,0,3.771,0,5.635-0.014c19.482-0.16,38.92,0.977,57.762,6.363
					c5.707,1.601,11.182,4.398,16.395,7.295c3.887,2.139,5.531,6.012,5.504,10.656c-0.086,16.295-0.117,32.574,0.027,48.852
					c0.07,5.551-2.545,9.279-6.859,12.127c-7.482,4.867-16.016,7.08-24.635,8.613c-31.754,5.631-63.572,5.732-95.252-0.674
					c-6.16-1.238-12.217-3.463-18.068-5.869c-7.396-3.043-11.723-8.457-10.852-16.99c0.104-0.875-0.111-1.748-0.275-3.57
					c-9.154,8.797-17.791,17.066-26.701,25.584c-18.766-19.451-37.32-38.699-56.715-58.793c2.186-1.748,4.312-3.252,6.189-5.057
					c8.078-7.67,16.061-15.478,24.189-23.064c2.031-1.875,2.223-3.565,1.434-6.014C58.99,149.343,47.896,114.601,36.785,79.887
					c-1.98-6.131-1.367-10.165,4.035-13.763c4.836-3.231,10.34-5.677,15.873-7.51c22.869-7.559,45.803-14.884,68.838-21.959
					c4.645-1.413,9.781-1.762,14.693-1.675c5.15,0.087,8.227,3.407,9.795,8.474c4.967,16.062,10.193,32.005,15.305,48.037
					C165.658,92.556,166.066,93.603,166.709,95.468z M125.25,59.544c-5.41,1.572-10.844,3.234-16.248,4.733
					c-2.326,0.626-2.709,1.675-1.965,3.932c3.408,10.265,6.602,20.56,9.902,30.825c0.26,0.846,0.699,1.632,1.18,2.68
					c6.395-2.082,12.551-4.078,18.928-6.174c-2.502-7.878-4.834-15.216-7.234-22.568c-1.484-4.531-3.055-9-4.617-13.5
					c1.836-0.525,3.717-0.977,5.535-1.602c4.396-1.586,8.836-3.465,11.238-7.731c1.094-1.907,1.15-4.616,1.094-6.947
					c-0.029-0.683-2.055-1.92-3.059-1.849c-1.006,0.074-2.709,1.428-2.764,2.301c-0.25,4.076-3.281,5.418-6.191,6.844
					c-2.041,1.034-4.252,1.749-6.77,2.738C126.854,55.321,126.494,57.392,125.25,59.544z M220.492,56.72
					c-1.383,1.295-2.477,2.271-3.535,3.262c-13.176,12.74-26.355,25.453-39.535,38.182c-40.945,39.472-81.873,78.961-122.9,118.363
					c-1.98,1.922-1.98,2.984-0.088,4.893c10.18,10.408,20.195,20.967,30.34,31.424c3.455,3.582,7.053,7.029,10.775,10.729
					c8.592-8.256,17.152-16.393,25.568-24.666c0.73-0.713,0.887-2.271,0.9-3.422c0.078-8.561,0.15-17.094,0.016-25.612
					c-0.07-4.98,1.736-8.97,5.768-11.708c2.902-1.961,6-3.771,9.277-4.994c10.686-4.076,21.883-5.982,33.225-7.031
					c4.283-0.395,7.629-1.703,10.773-4.792c22.902-22.306,46-44.396,68.93-66.658c4.459-4.354,8.562-9.058,13.045-13.846
					C249.205,86.498,235.037,71.792,220.492,56.72z M133.232,222.087c0,0.846,0,2.043,0,3.248c0,5.795,0,11.59,0,17.4
					c0,9.859,0,9.916,9.395,12.871c14.75,4.689,30.037,6.232,45.354,6.846c15.709,0.637,31.424,0.26,47-1.996
					c9.797-1.414,19.484-3.262,28.623-7.281c2.287-1.018,3.264-2.299,3.219-4.877c-0.143-7.834-0.059-15.68-0.074-23.545
					c0-0.975-0.127-1.967-0.158-2.633C222.096,234.626,177.932,234.669,133.232,222.087z M266.283,208.705c0-0.493,0-0.958,0-1.409
					c-2.035-1.122-4.018-2.361-6.111-3.248c-10.967-4.6-22.572-6.16-34.221-7.295c-20.893-2.037-41.801-1.979-62.537,1.428
					c-8.662,1.412-17.102,4.31-25.578,6.696c-1.604,0.481-2.928,1.808-5.17,3.293c3.566,1.731,6.07,3.319,8.779,4.323
					c11.826,4.369,24.246,6.303,36.709,6.84c14.5,0.631,29.088,0.57,43.592,0c12.346-0.537,24.65-2.471,36.369-6.709
					C260.941,211.604,263.547,210.03,266.283,208.705z M133.422,255.856c-0.785,2.416,0.131,4.395,2.766,5.414
					c4.881,1.85,9.652,4.166,14.705,5.256c30.699,6.6,61.566,6.656,92.432,1.197c6.945-1.227,13.615-4.051,20.342-6.438
					c2.561-0.898,3.975-2.896,2.893-5.359C222.066,268.845,177.906,268.958,133.422,255.856z M85.184,72.417
					c-6.113,1.907-11.762,3.582-17.285,5.504c-0.695,0.232-1.482,1.966-1.264,2.738c3.26,10.613,6.635,21.188,10.133,31.742
					c0.232,0.742,1.703,1.82,2.271,1.646c5.824-1.705,11.592-3.627,17.619-5.594C92.812,96.341,89.055,84.575,85.184,72.417z
					 M259.748,83.964c1.949-1.864,3.436-3.424,5.068-4.79c1.717-1.443,1.629-2.606,0.07-4.179
					c-5.682-5.725-11.227-11.576-16.834-17.372c-0.99-1.018-2.078-1.952-4.045-3.815c-1.646,2.125-3.229,3.961-4.543,5.956
					c-0.451,0.698-0.629,2.271-0.189,2.767C245.928,69.649,252.686,76.624,259.748,83.964z M85.896,72.169
					c6.799-2.186,13.398-4.297,19.469-6.248c-0.973-2.226-1.734-3.986-2.637-6.07c-5.969,1.892-12.186,3.887-18.754,5.926
					c-0.508-2.168-0.932-4.006-1.498-6.334c-4.516,1.559-8.883,3.029-13.221,4.529c-5.182,1.718-5.609,2.562-3.668,8.197
					c4.859-1.499,9.693-3.041,14.574-4.498C84.443,66.374,85.316,66.999,85.896,72.169z M63.371,72.489
					c-1.439,0.436-3.055,0.947-4.715,1.369c-4.15,1.034-8.33,2.49-11.924-1.602c-0.523-0.613-2.766-0.408-3.584,0.232
					c-0.799,0.641-1.439,2.679-0.992,3.436c1.053,1.748,2.535,3.759,4.344,4.443c6.387,2.475,12.535,0.786,18.006-1.531
					C64.1,76.464,63.768,74.63,63.371,72.489z M101.436,53.911c1.088,2.269,1.893,3.959,2.705,5.648
					c6.23-2.054,12.1-3.977,17.984-5.913c0.115-0.378,0.232-0.802,0.379-1.177c-1.578-1.297-3.438-3.963-4.66-3.672
					C112.443,49.978,107.244,51.987,101.436,53.911z"/>
				<path fill-rule="evenodd" clip-rule="evenodd" fill="#000" d="M226.943,88.288c1.922,1.732,3.844,3.479,6.115,5.549
					c-3.758,3.437-7.223,6.641-10.834,9.959c3.697,3.902,6.859,7.266,10.268,10.86c-2.113,2.013-4.062,3.859-6.465,6.16
					c-3.322-3.669-6.426-7.075-9.73-10.687c-3.736,3.537-7.076,6.727-10.51,9.975c-2.098-2.082-4.002-3.976-6.146-6.116
					c3.469-3.276,6.832-6.435,10.531-9.902c-3.523-3.711-6.715-7.046-9.861-10.367c2.027-2.098,3.945-4.076,6.004-6.217
					c3.393,3.422,6.633,6.697,10.498,10.615c3.143-3.728,6.127-7.279,9.096-10.833C226.26,87.633,226.609,87.953,226.943,88.288z"/>
				<path fill-rule="evenodd" clip-rule="evenodd" fill="#000" d="M72.646,216.802c2.082-2.404,3.783-4.396,5.65-6.609
					c9.043,9.332,17.674,18.289,26.354,27.258c-1.922,2.127-3.713,4.119-5.838,6.467C89.814,234.583,81.193,225.657,72.646,216.802z
					"/>
				<path fill-rule="evenodd" clip-rule="evenodd" fill="#000" d="M203.863,202.621c4.777,1.687,10.238-1.47,14.125,2.256
					c-0.088,0.538-0.189,1.079-0.219,1.632c-4.367,0-8.719,0-13.379,0c0.432,3.291,0.77,6.057,1.16,9.025c-3.766,0-7.322,0-11.207,0
					c0.422-2.982,0.74-5.75,1.193-9.025c-4.615,0-8.865,0-13.117,0c-0.162-0.479-0.355-0.932-0.514-1.356
					c1.252-0.698,2.418-1.719,3.73-1.965c1.879-0.306,3.861-0.029,5.793-0.073c2.33-0.057,5.158,0.846,5.475-3.129
					c0.045-0.51,2.271-1.137,3.469-1.107c0.988,0.043,2.094,0.861,2.867,1.602C203.703,200.96,203.689,201.95,203.863,202.621z"/>
			</g>
		</g>
	</g>
</g>
</svg>
