<?xml version="1.0" encoding="utf-8"?>
<!-- Generator: Adobe Illustrator 16.0.4, SVG Export Plug-In . SVG Version: 6.00 Build 0)  -->
<!DOCTYPE svg PUBLIC "-//W3C//DTD SVG 1.1//EN" "http://www.w3.org/Graphics/SVG/1.1/DTD/svg11.dtd">
<svg version="1.1" id="Calque_1" xmlns="http://www.w3.org/2000/svg" xmlns:xlink="http://www.w3.org/1999/xlink" x="0px" y="0px"
	 width="317.48px" height="425.2px" viewBox="0 0 317.48 425.2" enable-background="new 0 0 317.48 425.2" xml:space="preserve">
<g>
	<g>
		<path fill="#677A9E" d="M85.599,331.737c2.061-0.367,4.848-0.643,8.598-0.643c4.119,0,7.09,0.869,9.053,2.516
			c1.832,1.51,3.02,3.936,3.02,6.811c0,2.932-0.914,5.307-2.605,6.955c-2.287,2.24-5.764,3.34-9.74,3.34
			c-1.053,0-1.965-0.047-2.744-0.23v11.662h-5.58V331.737z M91.179,346.05c0.732,0.227,1.6,0.275,2.744,0.275
			c4.205,0,6.768-2.104,6.768-5.672c0-3.383-2.375-5.215-6.266-5.215c-1.555,0-2.65,0.139-3.246,0.277V346.05z"/>
		<path fill="#677A9E" d="M111.849,331.325h5.627v26.109h12.666v4.713h-18.293V331.325z"/>
		<path fill="#677A9E" d="M141.44,353.413l-2.656,8.734h-5.809l9.881-30.822h7.18l10.014,30.822h-6.037l-2.787-8.734H141.44z
			 M150.265,349.161l-2.426-7.596c-0.592-1.873-1.096-3.977-1.555-5.76h-0.088c-0.461,1.783-0.918,3.934-1.467,5.76l-2.379,7.596
			H150.265z"/>
		<path fill="#677A9E" d="M167.231,336.032h-8.781v-4.707h23.277v4.707h-8.871v26.115h-5.625V336.032z"/>
		<path fill="#677A9E" d="M186.026,331.78c2.152-0.41,5.26-0.686,8.508-0.686c4.436,0,7.406,0.732,9.512,2.471
			c1.691,1.418,2.65,3.566,2.65,6.219c0,3.98-2.695,6.678-5.625,7.684v0.139c2.244,0.822,3.566,2.973,4.301,5.943
			c1.006,3.84,1.826,7.408,2.424,8.598h-5.764c-0.455-0.916-1.234-3.43-2.057-7.273c-0.916-4.021-2.332-5.301-5.535-5.395h-2.836
			v12.668h-5.578V331.78z M191.604,345.362h3.342c3.795,0,6.125-2.01,6.125-5.076c0-3.336-2.33-4.939-5.99-4.939
			c-1.783,0-2.926,0.137-3.477,0.275V345.362z"/>
		<path fill="#677A9E" d="M229.976,348.472h-11.617v9.057h12.986v4.619h-18.611v-30.822h17.928v4.615h-12.303v7.963h11.617V348.472z
			"/>
	</g>
	<g>
		<g>
			<path fill="#FFFFFF" d="M308.024,304.3c0,2.668-2.162,4.82-4.848,4.82H12.296c-2.668,0-4.84-2.152-4.84-4.82V13.415
				c0-2.694,2.172-4.866,4.84-4.866h290.881c2.686,0,4.848,2.172,4.848,4.866V304.3z"/>
			<path fill="#677A9E" d="M303.177,310.583H12.296c-3.475,0-6.303-2.818-6.303-6.283V13.415c0-3.49,2.828-6.327,6.303-6.327
				h290.881c3.48,0,6.312,2.837,6.312,6.327V304.3C309.489,307.765,306.657,310.583,303.177,310.583z M12.296,10.013
				c-1.861,0-3.379,1.525-3.379,3.402V304.3c0,1.85,1.518,3.359,3.379,3.359h290.881c1.867,0,3.387-1.51,3.387-3.359V13.415
				c0-1.877-1.52-3.402-3.387-3.402H12.296z"/>
		</g>
		<g>
			<defs>
				<path id="SVGID_7_" d="M308.024,304.3c0,2.668-2.162,4.82-4.848,4.82H12.296c-2.668,0-4.84-2.152-4.84-4.82V13.415
					c0-2.694,2.172-4.866,4.84-4.866h290.881c2.686,0,4.848,2.172,4.848,4.866V304.3z"/>
			</defs>
			<clipPath id="SVGID_2_">
				<use xlink:href="#SVGID_7_"  overflow="visible"/>
			</clipPath>
			<g clip-path="url(#SVGID_2_)">
				<g>
					<g>
						<polygon fill="#677A9E" points="-59.231,160.327 163.313,278.56 163.313,253.563 -59.231,134.938 						"/>
						<path fill="#677A9E" d="M166.343,283.601L-62.259,162.147v-32.262l228.602,121.859V283.601z M-56.2,158.509l216.482,115.016
							v-18.141L-56.2,139.978V158.509z"/>
					</g>
					<polygon fill="#677A9E" points="166.073,283.54 162.444,278.69 280.956,189.942 280.956,172.122 165.091,256.007 
						161.536,251.101 287.017,160.254 287.017,192.969 					"/>
					
						<rect x="267.53" y="156.362" transform="matrix(0.921 0.3896 -0.3896 0.921 83.9774 -95.313)" fill="#677A9E" width="18.906" height="6.054"/>
					<polygon fill="#677A9E" points="-59.616,135.025 -62.354,129.624 65.862,64.589 105.903,83.836 103.282,89.296 65.935,71.343 
											"/>
					<polygon fill="#677A9E" points="163.56,257.116 161.886,256.228 -60.659,137.601 -57.806,132.259 163.065,249.997 
						280.032,165.278 283.587,170.185 					"/>
				</g>
				<g>
					<g>
						<polygon fill="#677A9E" points="56.397,181.933 157.14,235.669 157.14,210.672 56.397,156.558 						"/>
						<path fill="#677A9E" d="M160.169,240.706L53.368,183.753V151.49l106.801,57.363V240.706z M59.429,180.114l94.682,50.506
							v-18.141l-94.682-50.854V180.114z"/>
					</g>
					<polygon fill="#677A9E" points="159.89,240.649 156.267,235.8 274.753,147.052 274.753,129.216 158.917,213.12 155.36,208.212 
						280.813,117.351 280.813,150.079 					"/>
					<polygon fill="#677A9E" points="157.38,214.237 56.36,159.95 59.229,154.621 156.897,207.108 273.866,122.388 277.421,127.294 
											"/>
				</g>
				<path fill="#677A9E" d="M55.333,156.907l-2.066-5.693l56.699-20.543c1.381-3.799,5.18-15.752,1.164-23.279
					c-5.629-10.569-12.559-35.028-12.852-36.062l-0.967-3.421l21.316-2.477c0.523-0.059,11.414-1.033,20.596,2.854
					c6.275,2.679,19.061,0.787,23.441-0.159l1.258-0.277l1.07,0.712l115.703,48.832l-2.359,5.578l-115.359-48.73
					c-3.846,0.742-17.916,3.115-26.127-0.379c-7.76-3.289-17.486-2.402-17.584-2.402l-14.164,1.646
					c2.123,7.148,7.242,23.688,11.371,31.432c6.166,11.56-1.08,28.958-1.391,29.686l-0.518,1.225L55.333,156.907z"/>
				<g>
					<path fill="#677A9E" d="M101.192,70.517v40.689c2.299,7.529,5.934,19.277,0,23.878c-5.992,4.63-10.652,5.853-10.652,5.853
						l21.756-7.891c0,0,6.305-15.782,2.781-23.818c-3.525-8.05-11.986-23.993-11.736-27.313"/>
					<path fill="#677A9E" d="M91.308,143.861l-1.799-5.779l2.053-0.742c1.725-0.729,4.533-2.141,7.773-4.659
						c4.252-3.291,0.84-14.456-1.002-20.469l-0.17-1.006V70.517h6.057v11.456l2.141,0.159c0.104,1.951,4.598,11.298,7.275,16.889
						c1.607,3.334,3.137,6.523,4.213,8.984c3.916,8.937-2.043,24.428-2.746,26.162l-0.502,1.266l-20.842,7.555
						C92.298,143.602,91.394,143.832,91.308,143.861z M104.22,110.756c1.932,6.318,4.424,14.763,2.584,21.066l3.145-1.151
						c1.756-4.846,4.604-15.112,2.354-20.236c-1.057-2.401-2.557-5.518-4.129-8.793c-1.553-3.233-2.867-5.996-3.953-8.371V110.756z"
						/>
				</g>
			</g>
		</g>
	</g>
</g>
</svg>
