<?xml version="1.0" encoding="utf-8"?>
<!-- Generator: Adobe Illustrator 16.0.4, SVG Export Plug-In . SVG Version: 6.00 Build 0)  -->
<!DOCTYPE svg PUBLIC "-//W3C//DTD SVG 1.1//EN" "http://www.w3.org/Graphics/SVG/1.1/DTD/svg11.dtd">
<svg version="1.1" id="Calque_1" xmlns="http://www.w3.org/2000/svg" xmlns:xlink="http://www.w3.org/1999/xlink" x="0px" y="0px" viewBox="0 0 317 317">
<g>
	<g>
		<g>
			<defs>
				<path id="SVGID_7_" d="M308.024,304.3c0,2.668-2.162,4.82-4.848,4.82H12.296c-2.668,0-4.84-2.152-4.84-4.82V13.415
					c0-2.694,2.172-4.866,4.84-4.866h290.881c2.686,0,4.848,2.172,4.848,4.866V304.3z"/>
			</defs>
			<clipPath id="SVGID_2_">
				<use xlink:href="#SVGID_7_"  overflow="visible"/>
			</clipPath>
			<g clip-path="url(#SVGID_2_)">
				<g>
					<g>
						<polygon fill="#000" points="-59.231,160.327 163.313,278.56 163.313,253.563 -59.231,134.938 						"/>
						<path fill="#000" d="M166.343,283.601L-62.259,162.147v-32.262l228.602,121.859V283.601z M-56.2,158.509l216.482,115.016
							v-18.141L-56.2,139.978V158.509z"/>
					</g>
					<polygon fill="#000" points="166.073,283.54 162.444,278.69 280.956,189.942 280.956,172.122 165.091,256.007 
						161.536,251.101 287.017,160.254 287.017,192.969 					"/>
					
						<rect x="267.53" y="156.362" transform="matrix(0.921 0.3896 -0.3896 0.921 83.9774 -95.313)" fill="#000" width="18.906" height="6.054"/>
					<polygon fill="#000" points="-59.616,135.025 -62.354,129.624 65.862,64.589 105.903,83.836 103.282,89.296 65.935,71.343 
											"/>
					<polygon fill="#000" points="163.56,257.116 161.886,256.228 -60.659,137.601 -57.806,132.259 163.065,249.997 
						280.032,165.278 283.587,170.185 					"/>
				</g>
				<g>
					<g>
						<polygon fill="#000" points="56.397,181.933 157.14,235.669 157.14,210.672 56.397,156.558 						"/>
						<path fill="#000" d="M160.169,240.706L53.368,183.753V151.49l106.801,57.363V240.706z M59.429,180.114l94.682,50.506
							v-18.141l-94.682-50.854V180.114z"/>
					</g>
					<polygon fill="#000" points="159.89,240.649 156.267,235.8 274.753,147.052 274.753,129.216 158.917,213.12 155.36,208.212 
						280.813,117.351 280.813,150.079 					"/>
					<polygon fill="#000" points="157.38,214.237 56.36,159.95 59.229,154.621 156.897,207.108 273.866,122.388 277.421,127.294 
											"/>
				</g>
				<path fill="#000" d="M55.333,156.907l-2.066-5.693l56.699-20.543c1.381-3.799,5.18-15.752,1.164-23.279
					c-5.629-10.569-12.559-35.028-12.852-36.062l-0.967-3.421l21.316-2.477c0.523-0.059,11.414-1.033,20.596,2.854
					c6.275,2.679,19.061,0.787,23.441-0.159l1.258-0.277l1.07,0.712l115.703,48.832l-2.359,5.578l-115.359-48.73
					c-3.846,0.742-17.916,3.115-26.127-0.379c-7.76-3.289-17.486-2.402-17.584-2.402l-14.164,1.646
					c2.123,7.148,7.242,23.688,11.371,31.432c6.166,11.56-1.08,28.958-1.391,29.686l-0.518,1.225L55.333,156.907z"/>
				<g>
					<path fill="#000" d="M101.192,70.517v40.689c2.299,7.529,5.934,19.277,0,23.878c-5.992,4.63-10.652,5.853-10.652,5.853
						l21.756-7.891c0,0,6.305-15.782,2.781-23.818c-3.525-8.05-11.986-23.993-11.736-27.313"/>
					<path fill="#000" d="M91.308,143.861l-1.799-5.779l2.053-0.742c1.725-0.729,4.533-2.141,7.773-4.659
						c4.252-3.291,0.84-14.456-1.002-20.469l-0.17-1.006V70.517h6.057v11.456l2.141,0.159c0.104,1.951,4.598,11.298,7.275,16.889
						c1.607,3.334,3.137,6.523,4.213,8.984c3.916,8.937-2.043,24.428-2.746,26.162l-0.502,1.266l-20.842,7.555
						C92.298,143.602,91.394,143.832,91.308,143.861z M104.22,110.756c1.932,6.318,4.424,14.763,2.584,21.066l3.145-1.151
						c1.756-4.846,4.604-15.112,2.354-20.236c-1.057-2.401-2.557-5.518-4.129-8.793c-1.553-3.233-2.867-5.996-3.953-8.371V110.756z"
						/>
				</g>
			</g>
		</g>
	</g>
</g>
</svg>
