<?xml version="1.0" encoding="utf-8"?>
<!-- Generator: Adobe Illustrator 16.0.4, SVG Export Plug-In . SVG Version: 6.00 Build 0)  -->
<!DOCTYPE svg PUBLIC "-//W3C//DTD SVG 1.1//EN" "http://www.w3.org/Graphics/SVG/1.1/DTD/svg11.dtd">
<svg version="1.1" id="Calque_1" xmlns="http://www.w3.org/2000/svg" xmlns:xlink="http://www.w3.org/1999/xlink" x="0px" y="0px" viewBox="0 0 317 317">
<g>
	<g>
		<g>
			<g id="ePvZEw_4_">
				<g>
					<path fill-rule="evenodd" clip-rule="evenodd" fill="#000" d="M219.844,215.202c0,5.297-0.174,10.6,0.045,15.896
						c0.48,12.451-5.574,22.559-16.092,31.092c-12.955,10.484-28.816,16.6-46.17,20.139c-31.803,6.463-63.049,5.195-93.379-5.463
						c-13.715-4.82-25.686-11.719-34.396-22c-5.678-6.699-8.662-14.096-8.633-22.309c0.031-10.965,0.262-21.943-0.072-32.906
						c-0.408-13.689,6.465-24.508,18.404-33.389c14.139-10.543,31.176-16.221,49.555-19.512c15.066-2.74,30.326-3.408,45.658-2.2
						c21.566,1.733,41.951,6.495,59.848,17.065c11.355,6.699,20.27,15.057,23.818,26.56c0.816,2.753,1.283,5.65,1.371,8.46
						C220.006,202.825,219.844,209.014,219.844,215.202z M124.807,151.163c-17.957,0-31.162,1.412-43.992,4.674
						c-15.285,3.872-29.234,9.625-40.201,19.583c-13.469,12.22-14.314,28.001-2.012,41.05c5.711,6.07,12.979,10.656,21.1,14.326
						c16.965,7.658,35.254,11.17,54.463,11.809c20.438,0.684,40.285-1.645,59.143-8.504c11.998-4.352,22.805-10.102,30.49-19.074
						c8.842-10.367,10.121-21.332,2.682-32.602c-5.748-8.677-14.781-14.635-25.061-19.323
						C162.402,154.437,141.754,151.31,124.807,151.163z M138.258,249.214c-5.373,0.25-10.137,0.424-14.91,0.701
						c-0.686,0.043-1.484,0.51-1.934,0.961c-3.178,3.172-6.365,6.348-9.379,9.639c-0.496,0.539-0.584,1.852-0.133,2.389
						c3.902,5.008,7.91,9.959,11.971,14.854c0.451,0.521,1.383,1.135,2.068,1.088c6.102-0.275,12.158-0.742,18.916-1.178
						c-1.02-1.191-1.545-1.846-2.113-2.477c-3.539-3.682-7.047-7.381-10.645-11.02c-1.105-1.121-1.283-2.012-0.479-3.338
						C133.863,257.108,135.959,253.294,138.258,249.214z M172.887,270.896c0.027-0.275,0.059-0.582,0.088-0.846
						c-5.521-3.652-11.023-7.307-16.514-10.961c3.291-4.965,6.436-9.715,9.828-14.809c-5.998,1.209-11.342,2.23-16.629,3.377
						c-0.666,0.131-1.338,0.727-1.627,1.268c-2.244,3.74-4.43,7.512-6.455,11.326c-0.363,0.688-0.203,1.908,0.336,2.492
						c3.639,4.006,7.381,7.904,11.199,11.795c0.465,0.508,1.705,1.031,2.314,0.859C161.293,273.985,167.064,272.427,172.887,270.896
						z M111.438,249.741c-3.654-0.307-6.555-0.672-9.439-0.699c-1.275-0.029-2.793,0.332-3.824,0.99
						c-4.34,2.779-8.488,5.811-12.801,8.633c-1.412,0.947-1.484,1.705-0.568,2.957c2.533,3.449,5.287,6.844,7.268,10.516
						c2.258,4.162,5.666,6.156,11.168,6.156c3.436,0,6.887,0.391,11.008,0.656c-0.93-1.258-1.322-1.879-1.82-2.475
						c-3.508-4.338-6.9-8.752-10.6-12.973c-1.488-1.68-1.396-2.77,0.219-4.299C105.178,256.321,107.998,253.22,111.438,249.741z
						 M84.051,274.856c-0.627-0.961-1.049-1.584-1.457-2.182c-2.914-4.209-5.779-8.447-8.811-12.596
						c-0.988-1.385-0.756-2.156,0.686-3.115c3.977-2.623,7.834-5.332,11.734-8.01c0.658-0.482,1.238-1.049,2.115-1.762
						c-3.947-0.904-7.328-1.793-10.777-2.418c-1.146-0.246-2.623-0.115-3.697,0.307c-3.861,1.484-7.574,3.273-11.475,4.676
						c-1.834,0.668-2.1,1.51-1.779,2.908c1.049,4.922,1.996,9.857,3.207,14.752c0.203,0.828,1.119,1.879,2.037,2.184
						c5.258,1.777,10.613,3.35,15.957,4.965C82.318,274.739,82.916,274.739,84.051,274.856z M189.572,235.296
						c-3.77,1.629-6.754,2.912-9.699,4.223c-0.447,0.201-0.857,0.553-1.107,0.914c-3.523,5.217-7.018,10.4-10.361,15.67
						c-0.322,0.508,0,1.762,0.537,2.111c3.826,2.664,7.746,5.199,11.689,7.717c0.498,0.32,1.486,0.715,1.848,0.541
						c4.066-2.141,8.07-4.371,12.406-6.729c-3.623-2.127-6.523-3.83-9.389-5.576c-4.326-2.592-3.756-1.457-2.084-5.299
						C185.334,244.54,187.334,240.247,189.572,235.296z M211.021,219.188c-1.967,1.912-3.363,3.584-5.168,4.91
						c-2.479,1.879-3.873,4.148-4.969,6.67c-1.963,4.498-4.031,8.951-6.127,13.395c-2.477,5.211-2.508,5.211,3.086,8.547
						c3.162,1.893,2.986,1.791,5.518-0.787C212.766,242.257,211.311,230.94,211.021,219.188z M64.654,240.901
						c-2.432-1.006-4.266-1.719-6.031-2.486c-1.906-0.848-4-1.477-5.561-2.609c-3.334-2.447-5.998-1.967-9.127,0.32
						c-1.752,1.266-2.828,2.328-2.639,4.338c0.176,2.809,0.465,5.648-0.025,8.373c-1.213,5.607,2.037,9.156,7.129,12.088
						c1.768,1.004,3.471,2.062,5.201,3.1c-0.51-5.518-1.455-10.629-2.635-15.727c-0.32-1.311,0.131-1.818,1.443-2.344
						C56.312,244.409,60.182,242.751,64.654,240.901z M41.021,229.106c-3.641-3.219-7.133-6.275-11.127-9.797
						c0.555,8.229-1.379,16.102,2.535,23.615c0.422-2.154,0.582-4.25,0.41-6.377c-0.176-1.789,0.479-3.016,2.414-3.975
						C37.277,231.583,39.115,230.286,41.021,229.106z"/>
					<path fill-rule="evenodd" clip-rule="evenodd" fill="#000" d="M117.246,172.698c17.242,0.335,30.93,1.716,43.773,6.697
						c6.221,2.373,11.834,5.403,15.463,10.428c3.541,4.893,3.172,10.978-0.947,15.564c-5.389,5.91-12.986,9.088-21.17,11.357
						c-12.787,3.596-25.992,4.715-39.475,4.178c-10.994-0.453-21.811-1.76-31.975-5.418c-4.252-1.541-8.566-3.404-12.189-5.793
						c-11.707-7.703-11.311-18.45,0.566-26.008c7.893-4.963,17.082-7.57,26.676-9.014
						C105.367,173.586,112.951,173.135,117.246,172.698z M166.582,202.839c4.689-3.463,5.301-7.7,0.961-11.021
						c-3.496-2.651-7.545-5.113-11.895-6.521c-20.723-6.848-41.953-6.902-63.346-2.113c-6.811,1.529-13.363,3.743-18.287,8.184
						c-1.484,1.322-2.617,3.173-3.129,4.949c-0.742,2.418,0.857,4.585,3.061,5.971c0.676,0.438,2.838-0.697,4.332-1.135
						c0.514-0.145,0.953-0.396,1.443-0.57c21-7.569,42.738-8.139,64.871-4.599C152.4,197.263,159.766,199.563,166.582,202.839z
						 M158.295,207.457c-19.643-8.974-59.133-8.112-75.236,0.058C99.76,215.919,140.195,216.194,158.295,207.457z"/>
				</g>
			</g>
			<g>
				<defs>
					<path id="SVGID_1_" d="M208.531,268.03c13.062-10.615,19.424-23.107,18.844-37.246c-0.133-3.5-0.061-7.037-0.047-10.574
						l0.047-5.008v-5.301c0.055-4.485,0.068-9.001-0.061-13.482c-0.133-3.583-0.67-7.107-1.717-10.457
						c-3.697-12.143-12.6-22.234-27.172-30.811c-17.227-10.178-37.873-16.074-63.076-18.084c-5.068-0.408-10.15-0.6-15.203-0.6
						c-10.949,0-21.799,0.965-32.383,2.887c-21.885,3.915-39.139,10.76-52.711,20.881c0,0,91.617-126.945,93.379-128.255
						c1.762-1.339,159.078,0,159.078,0l8.824,129.446l-18.564,96.334L208.531,268.03z"/>
				</defs>
				<clipPath id="SVGID_2_">
					<use xlink:href="#SVGID_1_"  overflow="visible"/>
				</clipPath>
				<g id="ePvZEw_3_" clip-path="url(#SVGID_2_)">
					<g>
						<path fill-rule="evenodd" clip-rule="evenodd" fill="#000" d="M187.477,41.924c6.551-0.899,13.088-1.557,19.602-2.62
							c15.271-2.533,28.551,1.982,40.447,11.301c14.695,11.459,24.33,26.633,31.029,43.74c12.217,31.291,14.863,63.328,5.795,95.9
							c-4.074,14.749-10.949,28.057-22.422,38.6c-7.498,6.889-16.223,11.111-26.354,12.422c-13.52,1.746-27.059,3.289-40.525,5.398
							c-16.789,2.67-31.029-2.574-43.598-13.277c-14.898-12.664-24.17-29.107-30.736-47.224
							c-5.359-14.907-8.215-30.343-8.795-46.155c-0.787-22.234,2.371-43.74,12.943-63.66c6.758-12.668,15.828-23.109,29.502-28.584
							c3.291-1.311,6.799-2.213,10.279-2.754C172.229,43.788,179.873,42.913,187.477,41.924z M121.381,149.093
							c2.416,18.261,5.959,31.456,11.68,44.02c6.828,14.911,15.785,28.176,29.531,37.697c16.865,11.723,36.418,10.004,50.816-4.602
							c6.727-6.842,11.402-14.954,14.852-23.805c7.148-18.521,8.971-37.729,7.211-57.371c-1.908-20.939-7.459-40.756-18.424-58.842
							c-6.959-11.475-15.533-21.55-27.619-27.898c-13.934-7.324-27.627-6.857-40.508,2.562c-9.918,7.267-16.02,17.416-20.414,28.656
							C120.367,110.274,119.27,131.811,121.381,149.093z M240.391,119.435c1.006,5.416,1.82,10.25,2.871,15.056
							c0.113,0.685,0.799,1.428,1.424,1.806c4.309,2.724,8.652,5.444,13.104,7.963c0.76,0.438,2.316,0.292,2.988-0.217
							c5.633-4.775,11.178-9.685,16.703-14.634c0.564-0.524,1.191-1.601,1.074-2.272c-1.225-6.129-2.574-12.26-4.033-19.043
							c-1.34,1.22-2.064,1.848-2.754,2.547c-4.062,4.179-8.166,8.359-12.17,12.609c-1.211,1.311-2.289,1.674-4.066,1.048
							C250.668,122.594,245.705,121.124,240.391,119.435z M262.418,80.674c-0.35,0-0.711,0-1.061,0.042
							c-3.754,6.188-7.516,12.379-11.256,18.58c-6.58-2.547-12.871-4.98-19.596-7.586c2.295,5.896,4.291,11.154,6.408,16.383
							c0.244,0.624,1.074,1.192,1.758,1.44c4.936,1.661,9.873,3.289,14.838,4.716c0.902,0.293,2.357-0.115,3.029-0.742
							c4.443-4.339,8.766-8.793,13.018-13.292c0.568-0.612,1.047-1.924,0.771-2.549C267.797,91.958,265.1,86.337,262.418,80.674z
							 M244.598,146.649c0.145,3.771,0.088,6.756,0.438,9.682c0.117,1.342,0.785,2.825,1.715,3.742
							c4.035,3.961,8.291,7.717,12.365,11.648c1.355,1.281,2.316,1.24,3.713,0.104c3.934-3.159,7.748-6.494,11.982-9.102
							c4.822-2.985,6.818-6.785,6.088-12.378c-0.467-3.509-0.467-7.076-0.699-11.297c-1.412,1.121-2.125,1.644-2.805,2.226
							c-4.854,4.282-9.82,8.447-14.535,12.9c-1.877,1.809-3.207,1.866-5.316,0.496C253.537,151.964,249.359,149.573,244.598,146.649
							z M279.238,170.427c-1.105,0.799-1.818,1.311-2.506,1.82c-4.777,3.652-9.611,7.279-14.328,11.053
							c-1.543,1.236-2.547,1.119-3.916-0.204c-3.77-3.612-7.643-7.108-11.475-10.63c-0.664-0.599-1.426-1.12-2.432-1.865
							c-0.592,4.166-1.207,7.717-1.541,11.343c-0.115,1.21,0.232,2.665,0.873,3.7c2.357,3.697,5.08,7.192,7.324,10.934
							c1.078,1.775,2.143,1.895,3.803,1.34c5.941-1.893,11.865-3.638,17.748-5.651c0.99-0.331,2.186-1.468,2.432-2.442
							c1.469-5.65,2.711-11.344,3.963-17.039C279.324,172.204,279.238,171.591,279.238,170.427z M216.336,69.431
							c2.506,3.598,4.471,6.422,6.482,9.203c0.316,0.438,0.785,0.801,1.291,0.99c6.875,2.709,13.746,5.46,20.678,8.038
							c0.686,0.232,2.143-0.321,2.531-0.932c2.783-4.312,5.348-8.723,7.953-13.147c0.336-0.584,0.658-1.647,0.395-1.996
							c-3.148-3.77-6.438-7.471-9.961-11.504c-2.127,4.004-3.814,7.252-5.559,10.454c-2.625,4.821-1.301,4.078-6.268,2.987
							C228.273,72.271,222.732,70.931,216.336,69.431z M193.58,50.239c2.646,1.69,4.891,2.854,6.801,4.471
							c2.604,2.229,5.586,3.275,8.82,3.961c5.811,1.267,11.576,2.664,17.355,4.077c6.773,1.66,6.773,1.717,10.135-4.559
							c1.879-3.509,1.775-3.348-1.76-5.474C221.779,44.72,207.992,48.041,193.58,50.239z M239.996,195.705
							c-0.891,2.632-1.529,4.601-2.242,6.552c-0.768,2.053-1.268,4.295-2.445,6.059c-2.576,3.785-1.617,6.422,1.629,9.23
							c1.779,1.557,3.236,2.504,5.697,2.012c3.406-0.643,6.869-1.43,10.307-1.312c7.049,0.244,11.008-3.584,13.936-9.278
							c0.99-1.964,2.084-3.868,3.131-5.777c-6.744,1.412-12.926,3.216-19.062,5.239c-1.557,0.538-2.258,0.163-3.072-1.092
							C245.459,203.625,242.926,199.97,239.996,195.705z M228.684,221.651c-3.482,4.266-6.783,8.287-10.617,12.947
							c10.109-1.926,20.053-1.211,28.73-6.438c-2.664-0.088-5.285,0.115-7.879,0.627c-2.182,0.449-3.756,0-5.197-1.818
							C232.207,225.073,230.385,223.429,228.684,221.651z"/>
						<path fill-rule="evenodd" clip-rule="evenodd" fill="#000" d="M148.945,153.257c-1.922-17.572-2.049-31.756,2.33-45.633
							c2.096-6.725,5.111-12.93,10.805-17.442c5.551-4.397,13.076-5.01,19.279-1.56c8.025,4.514,12.93,11.736,16.834,19.702
							c6.158,12.434,9.334,25.687,10.455,39.489c0.932,11.256,0.758,22.482-2.377,33.416c-1.322,4.617-3.023,9.277-5.502,13.342
							c-7.908,13.176-21.188,14.558-32.062,3.682c-7.236-7.222-11.648-16.147-14.723-25.686
							C151.613,165.198,150.055,157.569,148.945,153.257z M179.457,98.117c-4.926-4.151-10.24-4.12-13.734,0.858
							c-2.768,3.945-5.256,8.49-6.438,13.149c-5.619,22.206-2.854,43.858,5.898,64.794c2.809,6.714,6.42,13.02,12.553,17.313
							c1.846,1.296,4.279,2.125,6.506,2.374c3.092,0.333,5.547-1.615,6.963-4.064c0.453-0.785-1.252-2.807-1.982-4.248
							c-0.262-0.511-0.609-0.934-0.887-1.399c-12.16-20.123-15.775-42.155-14.371-65.233
							C174.475,113.493,176.295,105.601,179.457,98.117z M186.252,105.835c-8.414,21.446-2.053,61.519,10.164,76.574
							C204.523,164.003,199.43,122.827,186.252,105.835z"/>
					</g>
				</g>
			</g>
		</g>
	</g>
</g>
</svg>
