<?xml version="1.0" encoding="utf-8"?>
<!-- Generator: Adobe Illustrator 16.0.4, SVG Export Plug-In . SVG Version: 6.00 Build 0)  -->
<!DOCTYPE svg PUBLIC "-//W3C//DTD SVG 1.1//EN" "http://www.w3.org/Graphics/SVG/1.1/DTD/svg11.dtd">
<svg version="1.1" id="Calque_1" xmlns="http://www.w3.org/2000/svg" xmlns:xlink="http://www.w3.org/1999/xlink" x="0px" y="0px"
	 width="317.48px" height="425.2px" viewBox="0 0 317.48 425.2" enable-background="new 0 0 317.48 425.2" xml:space="preserve">
<g>
	<g>
		<path fill="#3C4047" d="M66.021,331.304c2.572-0.42,5.75-0.699,9.162-0.699c5.891,0,9.912,1.209,12.809,3.643
			c3.086,2.477,4.957,6.266,4.957,11.59c0,5.658-1.918,9.818-4.91,12.531c-3.133,2.85-8.135,4.297-14.256,4.297
			c-3.318,0-5.842-0.188-7.762-0.42V331.304z M71.771,357.989c0.795,0.141,2.012,0.141,3.18,0.141
			c7.48,0.051,11.92-4.111,11.92-12.105c0.047-6.916-3.973-10.938-11.172-10.938c-1.822,0-3.086,0.139-3.928,0.33V357.989z"/>
		<path fill="#3C4047" d="M116.271,348.362h-11.869v9.256h13.273v4.721H98.648v-31.504h18.328v4.721h-12.574v8.131h11.869V348.362z
			 M115.479,323.542l-5.844,5.607h-4.625l4.111-5.607H115.479z"/>
		<path fill="#3C4047" d="M146,361.405c-1.352,0.652-4.346,1.398-8.178,1.398c-10.004,0-16.08-6.262-16.08-15.844
			c0-10.377,7.246-16.598,16.875-16.598c3.783,0,6.449,0.752,7.617,1.361l-1.213,4.578c-1.5-0.654-3.602-1.215-6.172-1.215
			c-6.404,0-11.031,4.021-11.031,11.592c0,6.918,4.02,11.311,10.988,11.311c2.289,0,4.715-0.465,6.26-1.121L146,361.405z"/>
		<path fill="#3C4047" d="M157.361,330.835v12.621h13.32v-12.621h5.752v31.504h-5.752v-13.883h-13.32v13.883h-5.752v-31.504H157.361
			z"/>
		<path fill="#3C4047" d="M201.348,348.362h-11.873v9.256h13.275v4.721h-19.023v-31.504h18.322v4.721h-12.574v8.131h11.873V348.362z
			"/>
		<path fill="#3C4047" d="M214.998,335.647h-8.977v-4.812h23.793v4.812h-9.068v26.691h-5.748V335.647z"/>
		<path fill="#3C4047" d="M233.744,356.077c1.818,1.072,4.674,2.008,7.617,2.008c3.646,0,5.703-1.727,5.703-4.301
			c0-2.381-1.59-3.785-5.562-5.232c-5.236-1.824-8.559-4.629-8.559-9.117c0-5.188,4.303-9.072,11.176-9.072
			c3.414,0,5.889,0.752,7.525,1.547l-1.355,4.674c-1.168-0.605-3.367-1.496-6.312-1.496c-3.645,0-5.186,1.918-5.186,3.785
			c0,2.432,1.822,3.553,6.029,5.145c5.469,2.102,8.088,4.863,8.088,9.348c0,5.096-3.836,9.439-11.922,9.439
			c-3.363,0-6.826-0.93-8.553-1.959L233.744,356.077z"/>
	</g>
	<g>
		<path fill="#3C4047" d="M64.084,382.079c2.57-0.422,5.748-0.701,9.16-0.701c5.891,0,9.91,1.215,12.809,3.645
			c3.086,2.479,4.953,6.264,4.953,11.592c0,5.658-1.914,9.818-4.904,12.525c-3.133,2.855-8.137,4.305-14.258,4.305
			c-3.318,0-5.846-0.188-7.76-0.42V382.079z M69.832,408.771c0.797,0.141,2.012,0.141,3.18,0.141
			c7.479,0.047,11.92-4.113,11.92-12.109c0.045-6.918-3.973-10.936-11.172-10.936c-1.822,0-3.086,0.139-3.928,0.326V408.771z"/>
		<path fill="#3C4047" d="M114.336,399.142h-11.877v9.254h13.277v4.721H96.713V381.61h18.322v4.721h-12.576v8.137h11.877V399.142z"
			/>
		<path fill="#3C4047" d="M131.77,406.851c1.824,1.078,4.674,2.012,7.617,2.012c3.648,0,5.703-1.73,5.703-4.301
			c0-2.383-1.588-3.787-5.561-5.232c-5.238-1.826-8.555-4.629-8.555-9.115c0-5.191,4.301-9.068,11.17-9.068
			c3.414,0,5.891,0.746,7.527,1.543l-1.355,4.672c-1.17-0.607-3.367-1.494-6.312-1.494c-3.646,0-5.188,1.918-5.188,3.787
			c0,2.43,1.822,3.553,6.031,5.139c5.469,2.105,8.084,4.863,8.084,9.35c0,5.096-3.83,9.443-11.918,9.443
			c-3.365,0-6.824-0.936-8.557-1.965L131.77,406.851z"/>
		<path fill="#3C4047" d="M169.727,413.63c-8.93,0-14.537-6.826-14.537-16.031c0-9.631,6.121-16.502,15.004-16.502
			c9.16,0,14.582,6.967,14.582,15.941c0,10.564-6.404,16.592-15.002,16.592H169.727z M170.006,409.003
			c5.562,0,8.695-5.141,8.695-11.73c0-5.936-2.947-11.547-8.695-11.547c-5.75,0-8.74,5.469-8.74,11.732
			c0,6.262,3.176,11.545,8.695,11.545H170.006z"/>
		<path fill="#3C4047" d="M196.184,381.61v31.506h-5.754V381.61H196.184z"/>
		<path fill="#3C4047" d="M203.43,413.116V381.61h6.59l8.131,13.51c2.059,3.506,3.93,7.152,5.377,10.562l0.092-0.045
			c-0.418-4.162-0.514-8.225-0.514-13.039V381.61h5.33v31.506h-5.984l-8.227-13.883c-2.008-3.459-4.062-7.291-5.609-10.844
			l-0.184,0.045c0.23,4.068,0.328,8.227,0.328,13.418v11.264H203.43z"/>
		<path fill="#3C4047" d="M235.682,406.851c1.822,1.078,4.676,2.012,7.621,2.012c3.645,0,5.699-1.73,5.699-4.301
			c0-2.383-1.59-3.787-5.562-5.232c-5.234-1.826-8.555-4.629-8.555-9.115c0-5.191,4.301-9.068,11.172-9.068
			c3.414,0,5.891,0.746,7.525,1.543l-1.354,4.672c-1.168-0.607-3.365-1.494-6.311-1.494c-3.646,0-5.186,1.918-5.186,3.787
			c0,2.43,1.82,3.553,6.027,5.139c5.469,2.105,8.086,4.863,8.086,9.35c0,5.096-3.832,9.443-11.92,9.443
			c-3.365,0-6.824-0.936-8.555-1.965L235.682,406.851z"/>
	</g>
	<g>
		<g>
			<path fill="#FFFFFF" d="M309.057,304.282c0,2.68-2.188,4.861-4.848,4.861H13.305c-2.693,0-4.863-2.182-4.863-4.861V13.349
				c0-2.666,2.17-4.822,4.863-4.822h290.904c2.66,0,4.848,2.156,4.848,4.822V304.282z"/>
			<path fill="#3C4047" d="M304.209,310.583H13.305c-3.475,0-6.305-2.828-6.305-6.301V13.349c0-3.453,2.83-6.261,6.305-6.261
				h290.904c3.465,0,6.285,2.808,6.285,6.261v290.934C310.494,307.755,307.674,310.583,304.209,310.583z M13.305,9.966
				c-1.891,0-3.426,1.517-3.426,3.383v290.934c0,1.887,1.535,3.422,3.426,3.422h290.904c1.877,0,3.41-1.535,3.41-3.422V13.349
				c0-1.866-1.533-3.383-3.41-3.383H13.305z"/>
		</g>
		<g id="UEVS0T_2_">
			<g>
				<path fill-rule="evenodd" clip-rule="evenodd" fill="#3C4047" d="M93.031,154.358c5.561-2.52,5.664-2.783,2.561-7.182
					c-3.916-5.549-7.822-11.095-11.734-16.674c-1.908-2.736-2.43-5.547,0-8.285c2.123-2.447,5.105-2.504,8.59-0.83
					c1.033,0.494,2.984,0.16,3.975-0.537c24.057-17.055,48.041-34.236,72.055-51.364c7.541-5.359,15.057-10.719,22.6-16.021
					c3.742-2.664,5.707-2.256,8.459,1.588c3.186,4.441,6.525,8.782,9.48,13.371c1.76,2.721,3.16,2.488,5.432,0.783
					c6.857-5.053,13.824-9.916,20.738-14.867c1.816-1.297,3.568-2.258,6.055-1.121c0.83,0.393,2.49-0.378,3.496-1.033
					c5.037-3.379,9.959-6.947,14.955-10.385c0.713-0.465,1.586-0.684,2.387-1.004c0.193,0.264,0.348,0.568,0.539,0.828
					c-0.828,0.714-1.586,1.5-2.463,2.142c-4.861,3.438-9.783,6.772-14.531,10.326c-1.018,0.743-1.412,2.257-2.182,3.349
					c-0.988,1.459-1.791,3.219-3.148,4.209c-6.814,5.068-13.789,9.918-20.721,14.869c-0.93,0.699-1.863,1.455-3.014,2.344
					c3.977,5.562,7.764,10.909,11.533,16.226c2.795,3.96,2.49,6.069-1.4,8.822c-31.336,22.341-62.672,44.679-94.066,66.972
					c-1.879,1.344-3.219,2.492-2.799,5.217c0.438,3.028-1.396,5.053-4.176,6.099c-2.914,1.095-5.273-0.099-6.963-2.442
					c-4.295-5.887-8.443-11.871-12.668-17.812c-0.744-1.076-1.57-2.082-2.547-3.333c-1.648,1.206-3.088,2.257-4.809,3.554
					c1.543,2.184,3.133,4.032,4.193,6.145c0.512,1.032,0,2.574-0.041,3.873c-1.27-0.306-2.93-0.189-3.717-0.976
					c-1.701-1.661-2.984-3.772-4.742-6.116c-14.578,10.484-28.98,20.854-43.762,31.482c2.057,2.913,3.947,5.52,5.768,8.201
					c2.402,3.449,2.129,6.771-0.654,8.606c-2.666,1.776-5.68,0.946-8.07-2.362c-5.721-7.993-11.412-16.029-17.064-24.057
					c-2.402-3.42-2.127-6.404,0.537-8.326c2.824-2.012,5.711-1.24,8.301,2.298c1.926,2.608,3.789,5.302,5.928,8.315
					c14.605-10.514,28.961-20.824,43.672-31.396c-1.488-2.184-3.031-4.033-4.047-6.16c-0.512-1.062-0.062-2.593,0-3.904
					c1.307,0.379,2.979,0.396,3.9,1.254C90.494,150.556,91.719,152.597,93.031,154.358z M193.768,62.524
					c-31.699,22.646-63.139,45.045-94.928,67.717c8.533,12.102,16.836,23.823,25.281,35.781c6.508-4.676,12.578-9.015,18.812-13.501
					c-3.787-5.345-7.4-10.206-10.719-15.263c-0.668-1.018-0.336-2.719-0.477-4.105c1.133,0.555,2.693,0.817,3.391,1.734
					c3.275,4.225,6.205,8.693,9.42,12.945c0.609,0.785,2.436,1.676,2.988,1.354c2.865-1.747,5.502-3.858,8.4-6.001
					c-3.408-4.85-6.654-9.346-9.783-13.965c-1.08-1.542-3.703-3.42-1.33-5.141c2.51-1.849,3.293,1.43,4.385,2.869
					c3.406,4.516,6.641,9.176,10.078,13.952c3.1-2.257,5.781-4.194,8.604-6.234c-2.195-3.087-4.018-5.647-5.852-8.195
					c-1.881-2.695-3.885-5.29-5.621-8.072c-0.436-0.681,0.016-1.89,0.055-2.868c0.994,0.174,2.068,0.16,2.887,0.613
					c0.697,0.395,1.033,1.312,1.543,2.025c3.379,4.676,6.762,9.346,10.27,14.211c2.459-1.732,4.453-3.361,6.641-4.586
					c2.869-1.618,2.91-3.176,0.959-5.678c-3.236-4.107-6.203-8.404-9.102-12.73c-0.494-0.771-0.09-2.125-0.117-3.219
					c1.064,0.308,2.332,0.308,3.086,0.92c0.992,0.8,1.619,2.111,2.391,3.187c3.014,4.196,6.014,8.389,9.199,12.817
					c11.871-8.461,23.289-16.616,34.967-24.976C210.633,86.163,202.346,74.538,193.768,62.524z"/>
				<path fill-rule="evenodd" clip-rule="evenodd" fill="#3C4047" d="M57.107,275.942c5.475-5.287,10.818-10.691,16.41-15.832
					c14.504-13.236,30.391-24.506,47.311-34.398c1.574-0.9,2.416-2.982,3.496-4.568c1.193-1.734,1.836-4.035,3.379-5.201
					c35.41-26.852,70.887-53.604,106.344-80.328c9.787-7.383,19.707-14.592,29.445-22.019c3.172-2.401,6.451-3.671,10.426-3.493
					c3.596,0.129,7.264,0.087,10.891,0c2.682-0.074,3.541,1.195,3.686,3.756c0.523,8.58-1.834,15.465-9.436,20.578
					c-33.914,22.878-67.654,46.004-101.451,69.011c-11.33,7.718-22.633,15.479-34.105,23.024c-1.967,1.295-4.658,2.012-7.018,2.025
					c-3.471,0.016-6.291,0.844-9.031,2.986c-6.479,5.096-13.48,9.596-19.541,15.145c-3.67,3.303-5.857,8.184-8.867,12.188
					c-1.646,2.184-3.381,4.615-5.68,5.943c-11.023,6.348-23.314,9.172-35.516,12.098C57.6,276.554,57.352,276.249,57.107,275.942z
					 M85.049,259.354c1.049-0.553,1.865-0.846,2.521-1.326c9.363-7.148,18.74-14.199,27.957-21.449
					c0.934-0.758,0.934-2.693,1.398-4.092c-1.383,0.104-3.143-0.291-4.109,0.41c-5.98,4.291-11.807,8.85-17.693,13.326
					c-3.637,2.793-7.354,5.502-10.904,8.428c-0.74,0.627-1.178,2.039-1.133,3.055C83.086,258.265,84.354,258.815,85.049,259.354z"/>
			</g>
		</g>
	</g>
</g>
</svg>
