<?xml version="1.0" encoding="utf-8"?>
<!-- Generator: Adobe Illustrator 16.0.4, SVG Export Plug-In . SVG Version: 6.00 Build 0)  -->
<!DOCTYPE svg PUBLIC "-//W3C//DTD SVG 1.1//EN" "http://www.w3.org/Graphics/SVG/1.1/DTD/svg11.dtd">
<svg version="1.1" id="Calque_1" xmlns="http://www.w3.org/2000/svg" xmlns:xlink="http://www.w3.org/1999/xlink" x="0px" y="0px" viewBox="0 0 317 317">
<g>
	<g>
		<g id="UEVS0T_2_">
			<g>
				<path fill-rule="evenodd" clip-rule="evenodd" fill="#000" d="M93.031,154.358c5.561-2.52,5.664-2.783,2.561-7.182
					c-3.916-5.549-7.822-11.095-11.734-16.674c-1.908-2.736-2.43-5.547,0-8.285c2.123-2.447,5.105-2.504,8.59-0.83
					c1.033,0.494,2.984,0.16,3.975-0.537c24.057-17.055,48.041-34.236,72.055-51.364c7.541-5.359,15.057-10.719,22.6-16.021
					c3.742-2.664,5.707-2.256,8.459,1.588c3.186,4.441,6.525,8.782,9.48,13.371c1.76,2.721,3.16,2.488,5.432,0.783
					c6.857-5.053,13.824-9.916,20.738-14.867c1.816-1.297,3.568-2.258,6.055-1.121c0.83,0.393,2.49-0.378,3.496-1.033
					c5.037-3.379,9.959-6.947,14.955-10.385c0.713-0.465,1.586-0.684,2.387-1.004c0.193,0.264,0.348,0.568,0.539,0.828
					c-0.828,0.714-1.586,1.5-2.463,2.142c-4.861,3.438-9.783,6.772-14.531,10.326c-1.018,0.743-1.412,2.257-2.182,3.349
					c-0.988,1.459-1.791,3.219-3.148,4.209c-6.814,5.068-13.789,9.918-20.721,14.869c-0.93,0.699-1.863,1.455-3.014,2.344
					c3.977,5.562,7.764,10.909,11.533,16.226c2.795,3.96,2.49,6.069-1.4,8.822c-31.336,22.341-62.672,44.679-94.066,66.972
					c-1.879,1.344-3.219,2.492-2.799,5.217c0.438,3.028-1.396,5.053-4.176,6.099c-2.914,1.095-5.273-0.099-6.963-2.442
					c-4.295-5.887-8.443-11.871-12.668-17.812c-0.744-1.076-1.57-2.082-2.547-3.333c-1.648,1.206-3.088,2.257-4.809,3.554
					c1.543,2.184,3.133,4.032,4.193,6.145c0.512,1.032,0,2.574-0.041,3.873c-1.27-0.306-2.93-0.189-3.717-0.976
					c-1.701-1.661-2.984-3.772-4.742-6.116c-14.578,10.484-28.98,20.854-43.762,31.482c2.057,2.913,3.947,5.52,5.768,8.201
					c2.402,3.449,2.129,6.771-0.654,8.606c-2.666,1.776-5.68,0.946-8.07-2.362c-5.721-7.993-11.412-16.029-17.064-24.057
					c-2.402-3.42-2.127-6.404,0.537-8.326c2.824-2.012,5.711-1.24,8.301,2.298c1.926,2.608,3.789,5.302,5.928,8.315
					c14.605-10.514,28.961-20.824,43.672-31.396c-1.488-2.184-3.031-4.033-4.047-6.16c-0.512-1.062-0.062-2.593,0-3.904
					c1.307,0.379,2.979,0.396,3.9,1.254C90.494,150.556,91.719,152.597,93.031,154.358z M193.768,62.524
					c-31.699,22.646-63.139,45.045-94.928,67.717c8.533,12.102,16.836,23.823,25.281,35.781c6.508-4.676,12.578-9.015,18.812-13.501
					c-3.787-5.345-7.4-10.206-10.719-15.263c-0.668-1.018-0.336-2.719-0.477-4.105c1.133,0.555,2.693,0.817,3.391,1.734
					c3.275,4.225,6.205,8.693,9.42,12.945c0.609,0.785,2.436,1.676,2.988,1.354c2.865-1.747,5.502-3.858,8.4-6.001
					c-3.408-4.85-6.654-9.346-9.783-13.965c-1.08-1.542-3.703-3.42-1.33-5.141c2.51-1.849,3.293,1.43,4.385,2.869
					c3.406,4.516,6.641,9.176,10.078,13.952c3.1-2.257,5.781-4.194,8.604-6.234c-2.195-3.087-4.018-5.647-5.852-8.195
					c-1.881-2.695-3.885-5.29-5.621-8.072c-0.436-0.681,0.016-1.89,0.055-2.868c0.994,0.174,2.068,0.16,2.887,0.613
					c0.697,0.395,1.033,1.312,1.543,2.025c3.379,4.676,6.762,9.346,10.27,14.211c2.459-1.732,4.453-3.361,6.641-4.586
					c2.869-1.618,2.91-3.176,0.959-5.678c-3.236-4.107-6.203-8.404-9.102-12.73c-0.494-0.771-0.09-2.125-0.117-3.219
					c1.064,0.308,2.332,0.308,3.086,0.92c0.992,0.8,1.619,2.111,2.391,3.187c3.014,4.196,6.014,8.389,9.199,12.817
					c11.871-8.461,23.289-16.616,34.967-24.976C210.633,86.163,202.346,74.538,193.768,62.524z"/>
				<path fill-rule="evenodd" clip-rule="evenodd" fill="#000" d="M57.107,275.942c5.475-5.287,10.818-10.691,16.41-15.832
					c14.504-13.236,30.391-24.506,47.311-34.398c1.574-0.9,2.416-2.982,3.496-4.568c1.193-1.734,1.836-4.035,3.379-5.201
					c35.41-26.852,70.887-53.604,106.344-80.328c9.787-7.383,19.707-14.592,29.445-22.019c3.172-2.401,6.451-3.671,10.426-3.493
					c3.596,0.129,7.264,0.087,10.891,0c2.682-0.074,3.541,1.195,3.686,3.756c0.523,8.58-1.834,15.465-9.436,20.578
					c-33.914,22.878-67.654,46.004-101.451,69.011c-11.33,7.718-22.633,15.479-34.105,23.024c-1.967,1.295-4.658,2.012-7.018,2.025
					c-3.471,0.016-6.291,0.844-9.031,2.986c-6.479,5.096-13.48,9.596-19.541,15.145c-3.67,3.303-5.857,8.184-8.867,12.188
					c-1.646,2.184-3.381,4.615-5.68,5.943c-11.023,6.348-23.314,9.172-35.516,12.098C57.6,276.554,57.352,276.249,57.107,275.942z
					 M85.049,259.354c1.049-0.553,1.865-0.846,2.521-1.326c9.363-7.148,18.74-14.199,27.957-21.449
					c0.934-0.758,0.934-2.693,1.398-4.092c-1.383,0.104-3.143-0.291-4.109,0.41c-5.98,4.291-11.807,8.85-17.693,13.326
					c-3.637,2.793-7.354,5.502-10.904,8.428c-0.74,0.627-1.178,2.039-1.133,3.055C83.086,258.265,84.354,258.815,85.049,259.354z"/>
			</g>
		</g>
	</g>
</g>
</svg>
