<?xml version="1.0" encoding="utf-8"?>
<!-- Generator: Adobe Illustrator 16.0.4, SVG Export Plug-In . SVG Version: 6.00 Build 0)  -->
<!DOCTYPE svg PUBLIC "-//W3C//DTD SVG 1.1//EN" "http://www.w3.org/Graphics/SVG/1.1/DTD/svg11.dtd">
<svg version="1.1" id="Calque_1" xmlns="http://www.w3.org/2000/svg" xmlns:xlink="http://www.w3.org/1999/xlink" x="0px" y="0px" viewBox="0 0 317 317">
<g>
	<path fill="#000" d="M198.358,59.475l-0.432,0.042c-0.199,0.021-19.793,1.899-39.031,1.899c-19.24,0-38.834-1.879-39.031-1.899
		l-0.434-0.042L30.872,73.336l-4.709,0.754l2.186,4.248c0.07,0.135,6.906,13.796,7.271,47.872l0.031,2.824l2.775,0.524
		c18.004,3.415,41.838,8.657,49.936,10.458l-6.549,135.968h154.164l-6.549-135.97c8.096-1.799,31.93-7.041,49.934-10.456
		l2.775-0.524l0.031-2.824c0.367-34.076,7.203-47.737,7.264-47.857l2.254-4.269L198.358,59.475z M192.731,66.876
		c-3.535,5.572-12.438,14.082-33.836,14.082c-21.408,0-30.311-8.519-33.84-14.082c7.367,0.572,20.664,1.438,33.84,1.438
		C172.067,68.313,185.362,67.448,192.731,66.876z M42.472,123.311c-0.506-23.654-4.045-37.438-6.25-43.83l53.883-8.435
		c2.721,8.008,9.027,31.382,3.275,63.022l-0.678-0.151C92.407,133.852,64.21,127.516,42.472,123.311z M89.052,269.087l6.445-133.847
		c5.977-31.972-0.207-55.865-3.096-64.554l24.84-3.889c2.832,6.538,12.412,21.057,41.654,21.057s38.82-14.519,41.652-21.057
		l24.842,3.889c-2.889,8.688-9.072,32.582-3.096,64.554l6.445,133.847H89.052z M275.317,123.311
		c-21.736,4.205-49.934,10.541-50.229,10.606l-0.678,0.151c-5.746-31.607,0.559-55.008,3.275-63.022l53.881,8.435
		C279.362,85.872,275.825,99.656,275.317,123.311z"/>
	<g>
		<path fill="#000" d="M75.336,335.924h-9.023v-4.841h23.922v4.841h-9.118v26.835h-5.78V335.924z"/>
		<path fill="#000" d="M111.666,348.707H99.729v9.305h13.348v4.747H93.948v-31.676h18.423v4.746H99.729v8.178h11.938V348.707z"/>
		<path fill="#000" d="M135.072,362.759l-3.384-6.298c-1.363-2.443-2.256-4.136-3.196-5.969h-0.094
			c-0.752,1.833-1.598,3.525-2.866,5.969l-3.149,6.298h-6.626l9.398-16.026l-9.07-15.649h6.674l3.431,6.532
			c1.034,1.974,1.786,3.524,2.585,5.311h0.141c0.847-1.974,1.504-3.384,2.491-5.311l3.384-6.532h6.627l-9.259,15.462l9.635,16.214
			H135.072z"/>
		<path fill="#000" d="M152.462,335.924h-9.023v-4.841h23.922v4.841h-9.118v26.835h-5.78V335.924z"/>
		<path fill="#000" d="M176.854,331.083v31.676h-5.78v-31.676H176.854z"/>
		<path fill="#000" d="M183.481,331.083h5.78v26.835h13.019v4.841h-18.799V331.083z"/>
		<path fill="#000" d="M224.37,348.707h-11.938v9.305h13.348v4.747h-19.128v-31.676h18.423v4.746h-12.643v8.178h11.938V348.707z"
			/>
		<path fill="#000" d="M230.764,356.461c1.833,1.081,4.699,2.021,7.66,2.021c3.666,0,5.733-1.739,5.733-4.324
			c0-2.396-1.598-3.807-5.593-5.264c-5.264-1.833-8.601-4.652-8.601-9.164c0-5.217,4.324-9.118,11.232-9.118
			c3.432,0,5.922,0.752,7.566,1.552l-1.362,4.699c-1.175-0.61-3.384-1.504-6.345-1.504c-3.666,0-5.217,1.927-5.217,3.807
			c0,2.444,1.833,3.572,6.062,5.17c5.499,2.115,8.131,4.888,8.131,9.399c0,5.123-3.854,9.493-11.984,9.493
			c-3.384,0-6.861-0.939-8.601-1.974L230.764,356.461z"/>
	</g>
</g>
</svg>
