<?xml version="1.0" encoding="utf-8"?>
<!-- Generator: Adobe Illustrator 16.0.4, SVG Export Plug-In . SVG Version: 6.00 Build 0)  -->
<!DOCTYPE svg PUBLIC "-//W3C//DTD SVG 1.1//EN" "http://www.w3.org/Graphics/SVG/1.1/DTD/svg11.dtd">
<svg version="1.1" id="Calque_1" xmlns="http://www.w3.org/2000/svg" xmlns:xlink="http://www.w3.org/1999/xlink" x="0px" y="0px"
	 width="317.48px" height="425.2px" viewBox="0 0 317.48 425.2" enable-background="new 0 0 317.48 425.2" xml:space="preserve">
<g>
	<g>
		<path fill="#4D8746" d="M57.977,362.304l-9.955-30.783h6.117l4.205,14.02c1.186,3.885,2.238,7.49,3.012,11.189h0.09
			c0.824-3.652,1.967-7.398,3.152-11.143l4.477-14.066h5.984l-10.645,30.783H57.977z"/>
		<path fill="#4D8746" d="M96.291,348.647h-11.6v9.043h12.971v4.613H79.076v-30.783h17.9v4.615H84.691v7.945h11.6V348.647z
			 M95.518,324.397l-5.711,5.48h-4.521l4.021-5.48H95.518z"/>
		<path fill="#4D8746" d="M127.939,360.888c-1.963,0.73-5.799,1.734-9.863,1.734c-5.207,0-9.18-1.324-12.1-4.109
			c-2.742-2.605-4.295-6.666-4.295-11.326c0.045-9.771,6.941-15.984,17.123-15.984c3.795,0,6.762,0.775,8.176,1.461l-1.23,4.521
			c-1.691-0.773-3.746-1.324-6.988-1.324c-6.578,0-11.189,3.881-11.189,11.051c0,7.033,4.293,11.145,10.688,11.145
			c2.053,0,3.514-0.271,4.244-0.594v-7.717h-5.432v-4.43h10.867V360.888z"/>
		<path fill="#4D8746" d="M151.596,348.647h-11.602v9.043h12.971v4.613h-18.586v-30.783h17.902v4.615h-12.287v7.945h11.602V348.647z
			 M150.818,324.397l-5.707,5.48h-4.521l4.018-5.48H150.818z"/>
		<path fill="#4D8746" d="M164.932,336.226h-8.768v-4.705h23.244v4.705h-8.861v26.078h-5.615V336.226z"/>
		<path fill="#4D8746" d="M186.533,353.579l-2.648,8.725h-5.801l9.865-30.783h7.17l10,30.783h-6.029l-2.787-8.725H186.533z
			 M195.346,349.331l-2.42-7.58c-0.594-1.873-1.098-3.973-1.551-5.752h-0.092c-0.459,1.779-0.914,3.928-1.463,5.752l-2.375,7.58
			H195.346z"/>
		<path fill="#4D8746" d="M214.205,331.521v17.951c0,6.025,2.514,8.812,6.305,8.812c4.064,0,6.482-2.787,6.482-8.812v-17.951h5.617
			v17.584c0,9.5-4.885,13.699-12.283,13.699c-7.127,0-11.738-3.973-11.738-13.652v-17.631H214.205z"/>
		<path fill="#4D8746" d="M256.174,362.304l-3.285-6.123c-1.326-2.369-2.193-4.018-3.109-5.797h-0.092
			c-0.729,1.779-1.551,3.428-2.783,5.797l-3.059,6.123h-6.441l9.133-15.572l-8.812-15.211h6.486l3.332,6.348
			c1.006,1.92,1.736,3.426,2.514,5.162h0.137c0.82-1.918,1.459-3.289,2.418-5.162l3.291-6.348h6.438l-8.998,15.025l9.363,15.758
			H256.174z"/>
	</g>
	<g>
		<g>
			<path fill="#FFFFFF" d="M309.029,304.274c0,2.676-2.191,4.846-4.848,4.846H13.295c-2.688,0-4.832-2.17-4.832-4.846V13.429
				c0-2.708,2.145-4.88,4.832-4.88h290.887c2.656,0,4.848,2.172,4.848,4.88V304.274z"/>
			<path fill="#4D8746" d="M304.182,310.583H13.295c-3.473,0-6.295-2.832-6.295-6.309V13.429c0-3.497,2.822-6.341,6.295-6.341
				h290.887c3.48,0,6.312,2.844,6.312,6.341v290.846C310.494,307.751,307.662,310.583,304.182,310.583z M13.295,10.013
				c-1.891,0-3.371,1.499-3.371,3.416v290.846c0,1.863,1.512,3.385,3.371,3.385h290.887c1.865,0,3.387-1.521,3.387-3.385V13.429
				c0-1.885-1.521-3.416-3.387-3.416H13.295z"/>
		</g>
		<g>
			<path fill-rule="evenodd" clip-rule="evenodd" fill="#4D8746" d="M222.258,98.293c-9.361,5.562-18.406,10.582-27.064,16.219
				c-27.99,18.212-53.332,39.686-76.365,63.827c-10.41,10.976-18.305,23.932-24.713,37.516c-8.49,17.998-16.25,36.338-23.871,54.684
				c-3.771,8.996-12.143,12.623-20.828,7.713c-9.705-5.473-14.58-14.336-16.066-25.199c-0.805-6.055,0.648-11.633,3.568-17.047
				c15.84-29.35,34.848-56.313,59.523-78.998c22.176-20.336,47.529-35.944,74.699-48.609c13.787-6.449,27.793-12.449,41.676-18.766
				c2.184-1.008,3.471-0.862,4.693,1.324C218.924,93.503,220.678,95.877,222.258,98.293z M67.818,247.771
				c0.781-1.689,1.32-2.783,1.828-3.875c3.406-7.572,6.654-15.24,10.32-22.697c9.189-18.869,18.914-37.65,34.041-52.484
				c14.521-14.269,30.227-27.326,45.422-40.91c0.979-0.889,1.971-1.777,2.943-2.693c-1.42-0.204-2.43,0.088-3.244,0.61
				c-11.146,6.858-22.617,13.278-33.326,20.733c-31.289,21.721-54.641,50.618-73.76,83.205c-1.225,2.08-0.859,2.896,1.297,4.107
				c3.145,1.742,6.07,3.984,8.684,6.461C64.129,242.208,65.613,244.841,67.818,247.771z M61.174,264.073
				c0.049-7.482-4.281-16.145-9.812-20.076c-4.264-3.057-6.887-1.996-7.922,3.174c-1.492,7.438,4.07,19.072,10.789,22.465
				c3.312,1.689,5.08,1.004,6.246-2.488C60.859,265.966,61.041,264.729,61.174,264.073z"/>
			<path fill-rule="evenodd" clip-rule="evenodd" fill="#4D8746" d="M105.467,212.856c11.338-14.646,25.387-23.223,44.342-22.787
				c15.332,0.351,28.465,6.205,41.199,14.84c-12.398,8.412-24.326,17.076-39.553,19.072
				C134.809,226.177,120.225,219.931,105.467,212.856z M170.85,205.623c-10.529-9.234-42.295-6.452-47.084,3.97
				C135.762,217.353,160.146,215.388,170.85,205.623z"/>
			<path fill-rule="evenodd" clip-rule="evenodd" fill="#4D8746" d="M55.439,195.531c-16.445-10.833-28.371-30.865-23.201-55.747
				c1.779-8.531,4.389-16.886,6.723-25.826c8.453,5.371,16.008,11.139,20.348,20.193c6.684,13.857,8.4,28.17,3.08,42.934
				C60.152,183.257,57.738,189.358,55.439,195.531z M50.916,177.273c7.678-11.237,3.939-39.236-5.832-44.854
				C38.709,147.384,39.918,165.437,50.916,177.273z"/>
			<path fill-rule="evenodd" clip-rule="evenodd" fill="#4D8746" d="M90.365,65.083c6.783,10.965,15.492,19.625,18.691,31.725
				c3.256,12.17,2.869,24.008-1.746,35.727c-2.008,5.051-4.086,10.062-6.273,15.448c-11.211-8.531-18.512-19-20.541-32.815
				c-1.523-10.382,0.797-20.324,3.709-30.15C86.098,78.624,88.135,72.261,90.365,65.083z M97.236,129.058
				c6.156-10.193,4.428-32.25-2.953-39.559C88.703,99.923,88.174,119.927,97.236,129.058z"/>
			<path fill-rule="evenodd" clip-rule="evenodd" fill="#4D8746" d="M164.746,45.661c9.102,27.896,3.773,51.511-20.732,69.154
				C129.818,94.71,133.549,65.097,164.746,45.661z M147.596,96.896c8.227-5.605,13.904-23.718,10.158-31.871
				C149.576,70.105,143.898,87.694,147.596,96.896z"/>
			<path fill-rule="evenodd" clip-rule="evenodd" fill="#4D8746" d="M220.393,160.591c-18.533,18.694-47.463,21.487-70.174,6.726
				C167.203,141.707,198.074,143.192,220.393,160.591z M200.332,161.331c-7.594-5.094-26.178-4.892-31.812,2.447
				C176.221,169.005,192.76,167.652,200.332,161.331z"/>
			<path fill-rule="evenodd" clip-rule="evenodd" fill="#4D8746" d="M229.434,37.218c2.891,22.447-10.039,41.799-34.213,51.188
				C184.381,69.856,204.391,39.923,229.434,37.218z M216.916,53.363c-7.398,3.335-14.104,13.263-12.67,18.476
				C210.668,69.046,217.264,59.608,216.916,53.363z"/>
			<path fill-rule="evenodd" clip-rule="evenodd" fill="#4D8746" d="M256.855,135.55c-28.699,11.15-41.645,6.812-61.01-11.401
				C213.496,108.397,239.057,111.454,256.855,135.55z M236.662,130.539c-4.605-5.269-16.943-7.815-21.873-4.658
				C218.828,130.599,230.66,133.22,236.662,130.539z"/>
			<path fill-rule="evenodd" clip-rule="evenodd" fill="#4D8746" d="M286.447,97.331c-23.32,11.299-34.576,9.945-54.348-5.866
				C246.855,75.596,269.938,77.152,286.447,97.331z M252.234,91.769c3.961,2.725,8.227,3.321,12.752,1.951
				C261.014,91.274,256.834,90.185,252.234,91.769z"/>
		</g>
	</g>
</g>
<g>
	<g>
		<g>
			<defs>
				<path id="SVGID_7_" d="M680.006,304.3c0,2.668-2.162,4.82-4.848,4.82H384.277c-2.668,0-4.84-2.152-4.84-4.82V13.415
					c0-2.694,2.172-4.866,4.84-4.866h290.881c2.686,0,4.848,2.172,4.848,4.866V304.3z"/>
			</defs>
			<clipPath id="SVGID_2_">
				<use xlink:href="#SVGID_7_"  overflow="visible"/>
			</clipPath>
			<g clip-path="url(#SVGID_2_)">
				<g>
					<g>
						<polygon fill="#677A9E" points="312.75,160.327 535.295,278.56 535.295,253.563 312.75,134.938 						"/>
						<path fill="#677A9E" d="M538.324,283.601L309.723,162.147v-32.262l228.602,121.859V283.601z M315.781,158.509l216.482,115.016
							v-18.141L315.781,139.978V158.509z"/>
					</g>
					<polygon fill="#677A9E" points="312.365,135.025 309.627,129.624 437.844,64.589 477.885,83.836 475.264,89.296 
						437.916,71.343 					"/>
					<polygon fill="#677A9E" points="535.541,257.116 533.867,256.228 311.322,137.601 314.176,132.259 535.047,249.997 
						652.014,165.278 655.568,170.185 					"/>
				</g>
			</g>
		</g>
	</g>
</g>
</svg>
