<?xml version="1.0" encoding="utf-8"?>
<!-- Generator: Adobe Illustrator 16.0.4, SVG Export Plug-In . SVG Version: 6.00 Build 0)  -->
<!DOCTYPE svg PUBLIC "-//W3C//DTD SVG 1.1//EN" "http://www.w3.org/Graphics/SVG/1.1/DTD/svg11.dtd">
<svg version="1.1" id="Calque_1" xmlns="http://www.w3.org/2000/svg" xmlns:xlink="http://www.w3.org/1999/xlink" x="0px" y="0px" viewBox="0 0 317 317">
<g>
	<path fill="#000" d="M126.155,106.64c-7.434-5.005-11.642-8.209-11.642-15.88V65.738c2.147-0.854,3.673-2.942,3.673-5.391
		v-22.94c0-3.205-2.606-5.811-5.81-5.811H83.722c-3.204,0-5.812,2.605-5.812,5.811v22.94c0,2.664,1.812,4.893,4.264,5.574V90.76
		c0,7.671-4.208,10.875-11.643,15.88c-8.043,5.414-18.053,12.151-18.053,29.431v138.797l0.013,0.316
		c0.33,3.837,3.687,11.09,14.034,11.09h31.521h0.593h31.521c10.348,0,13.704-7.253,14.035-11.09l0.013-139.113
		C144.209,118.791,134.199,112.054,126.155,106.64z M85.326,39.014h25.443v19.728H99.611h-2.537H85.326V39.014z M136.791,274.668
		c-0.104,0.758-0.865,3.943-6.061,4.167c-1.519-0.484-3.248-1.084-5.157-1.835c-6.922-2.721-16.286-3.955-26.934-3.955h-0.591
		c-10.646,0-20.012,1.234-26.934,3.955c-1.91,0.751-3.641,1.352-5.158,1.836c-4.977-0.214-5.9-3.162-6.062-4.19V136.07
		c0-13.331,7.18-18.163,14.778-23.278c6.991-4.706,14.917-10.04,14.917-22.032V66.158h7.484h2.537h7.486V90.76
		c0,11.992,7.925,17.326,14.916,22.032c7.6,5.115,14.777,9.947,14.777,23.278V274.668z"/>
	<path fill="#000" d="M256.027,156.14v-9.434h1.796c2.048,0,3.71-1.66,3.71-3.709c0-2.048-1.662-3.708-3.71-3.708h-1.796v-7.929
		h-34.322h-1.102h-34.324v7.929h-1.355c-2.049,0-3.708,1.66-3.708,3.708c0,2.049,1.659,3.709,3.708,3.709h1.355v9.434
		c-3.293,2.345-9.249,8.068-9.249,18.793v79.729c0,15.281,6.876,31.611,26.173,31.611h13.215h9.471h13.215
		c19.299,0,26.174-16.33,26.174-31.611v-79.729C265.277,164.208,259.321,158.484,256.027,156.14z M257.86,254.662
		c0,7.275-1.829,24.193-18.757,24.193h-13.215h-9.471h-13.215c-16.928,0-18.756-16.918-18.756-24.193v-79.729
		c0-9.704,6.875-13.258,7.135-13.39l2.115-1.007v-21.759h26.906h1.102h26.905v19.418l0.034,2.308l2.047,1.025
		c0.295,0.146,7.169,3.7,7.169,13.404V254.662z"/>
</g>
</svg>
