<?xml version="1.0" encoding="utf-8"?>
<!-- Generator: Adobe Illustrator 16.0.4, SVG Export Plug-In . SVG Version: 6.00 Build 0)  -->
<!DOCTYPE svg PUBLIC "-//W3C//DTD SVG 1.1//EN" "http://www.w3.org/Graphics/SVG/1.1/DTD/svg11.dtd">
<svg version="1.1" id="Calque_1" xmlns="http://www.w3.org/2000/svg" xmlns:xlink="http://www.w3.org/1999/xlink" x="0px" y="0px"
	 width="317.48px" height="425.2px" viewBox="0 0 317.48 425.2" enable-background="new 0 0 317.48 425.2" xml:space="preserve">
<g>
	<path fill="#036937" d="M304.351,310.583H13.405c-3.463,0-6.275-2.822-6.275-6.289V13.362c0-3.461,2.812-6.274,6.275-6.274h290.945
		c3.459,0,6.275,2.813,6.275,6.274v290.932C310.626,307.761,307.81,310.583,304.351,310.583z M13.405,9.966
		c-1.875,0-3.398,1.522-3.398,3.396v290.932c0,1.881,1.523,3.41,3.398,3.41h290.945c1.873,0,3.396-1.529,3.396-3.41V13.362
		c0-1.874-1.523-3.396-3.396-3.396H13.405z"/>
</g>
<g>
	<path fill="#036937" d="M104.243,363.229l-10.244-31.676h6.297l4.324,14.428c1.221,3.995,2.303,7.708,3.102,11.515h0.094
		c0.846-3.76,2.021-7.614,3.242-11.468l4.605-14.475h6.158l-10.951,31.676H104.243z"/>
	<path fill="#036937" d="M142.972,349.177h-11.938v9.305h13.348v4.747h-19.129v-31.676h18.424v4.746h-12.643v8.178h11.938V349.177z"
		/>
	<path fill="#036937" d="M149.458,332.022c2.209-0.423,5.404-0.705,8.742-0.705c4.559,0,7.613,0.752,9.775,2.538
		c1.738,1.457,2.725,3.666,2.725,6.392c0,4.089-2.771,6.861-5.779,7.896v0.141c2.303,0.846,3.666,3.055,4.418,6.109
		c1.033,3.948,1.879,7.614,2.49,8.836h-5.922c-0.471-0.939-1.27-3.524-2.115-7.473c-0.939-4.136-2.396-5.451-5.686-5.546h-2.914
		v13.019h-5.734V332.022z M155.192,345.98h3.43c3.902,0,6.299-2.067,6.299-5.217c0-3.431-2.396-5.075-6.156-5.075
		c-1.834,0-3.008,0.141-3.572,0.282V345.98z"/>
	<path fill="#036937" d="M176.2,332.022c2.209-0.423,5.404-0.705,8.742-0.705c4.559,0,7.613,0.752,9.775,2.538
		c1.738,1.457,2.725,3.666,2.725,6.392c0,4.089-2.771,6.861-5.779,7.896v0.141c2.303,0.846,3.666,3.055,4.418,6.109
		c1.033,3.948,1.879,7.614,2.49,8.836h-5.922c-0.471-0.939-1.27-3.524-2.115-7.473c-0.939-4.136-2.396-5.451-5.686-5.546h-2.914
		v13.019H176.2V332.022z M181.935,345.98h3.43c3.902,0,6.299-2.067,6.299-5.217c0-3.431-2.396-5.075-6.156-5.075
		c-1.834,0-3.008,0.141-3.572,0.282V345.98z"/>
	<path fill="#036937" d="M220.661,349.177h-11.938v9.305h13.348v4.747h-19.129v-31.676h18.424v4.746h-12.643v8.178h11.938V349.177z"
		/>
</g>
<g>
	<path fill="#036937" d="M126.155,106.64c-7.434-5.005-11.642-8.209-11.642-15.88V65.738c2.147-0.854,3.673-2.942,3.673-5.391
		v-22.94c0-3.205-2.606-5.811-5.81-5.811H83.722c-3.204,0-5.812,2.605-5.812,5.811v22.94c0,2.664,1.812,4.893,4.264,5.574V90.76
		c0,7.671-4.208,10.875-11.643,15.88c-8.043,5.414-18.053,12.151-18.053,29.431v138.797l0.013,0.316
		c0.33,3.837,3.687,11.09,14.034,11.09h31.521h0.593h31.521c10.348,0,13.704-7.253,14.035-11.09l0.013-139.113
		C144.209,118.791,134.199,112.054,126.155,106.64z M85.326,39.014h25.443v19.728H99.611h-2.537H85.326V39.014z M136.791,274.668
		c-0.104,0.758-0.865,3.943-6.061,4.167c-1.519-0.484-3.248-1.084-5.157-1.835c-6.922-2.721-16.286-3.955-26.934-3.955h-0.591
		c-10.646,0-20.012,1.234-26.934,3.955c-1.91,0.751-3.641,1.352-5.158,1.836c-4.977-0.214-5.9-3.162-6.062-4.19V136.07
		c0-13.331,7.18-18.163,14.778-23.278c6.991-4.706,14.917-10.04,14.917-22.032V66.158h7.484h2.537h7.486V90.76
		c0,11.992,7.925,17.326,14.916,22.032c7.6,5.115,14.777,9.947,14.777,23.278V274.668z"/>
	<path fill="#036937" d="M256.027,156.14v-9.434h1.796c2.048,0,3.71-1.66,3.71-3.709c0-2.048-1.662-3.708-3.71-3.708h-1.796v-7.929
		h-34.322h-1.102h-34.324v7.929h-1.355c-2.049,0-3.708,1.66-3.708,3.708c0,2.049,1.659,3.709,3.708,3.709h1.355v9.434
		c-3.293,2.345-9.249,8.068-9.249,18.793v79.729c0,15.281,6.876,31.611,26.173,31.611h13.215h9.471h13.215
		c19.299,0,26.174-16.33,26.174-31.611v-79.729C265.277,164.208,259.321,158.484,256.027,156.14z M257.86,254.662
		c0,7.275-1.829,24.193-18.757,24.193h-13.215h-9.471h-13.215c-16.928,0-18.756-16.918-18.756-24.193v-79.729
		c0-9.704,6.875-13.258,7.135-13.39l2.115-1.007v-21.759h26.906h1.102h26.905v19.418l0.034,2.308l2.047,1.025
		c0.295,0.146,7.169,3.7,7.169,13.404V254.662z"/>
</g>
</svg>
