<?xml version="1.0" encoding="UTF-8" standalone="no"?>
<svg width="623px" height="623px" viewBox="0 0 623 623" version="1.1" xmlns="http://www.w3.org/2000/svg" xmlns:xlink="http://www.w3.org/1999/xlink" xmlns:sketch="http://www.bohemiancoding.com/sketch/ns">
    <!-- Generator: Sketch 3.4.1 (15681) - http://www.bohemiancoding.com/sketch -->
    <title>Bois traités</title>
    <desc>Created with Sketch.</desc>
    <defs></defs>
    <g id="Page-1" stroke="none" stroke-width="1" fill="none" fill-rule="evenodd" sketch:type="MSPage">
        <g id="Bois-traités" sketch:type="MSLayerGroup" transform="translate(8.000000, 7.000000)">
            <path d="M423.0058,289.169 L48.2498,289.169 L48.2498,258.739 L423.0058,258.739 L423.0058,289.169 Z" id="Fill-661" fill="#FFFFFF" sketch:type="MSShapeGroup"></path>
            <path d="M423.9944,258.408 L48.2464,258.408 L99.8484,231.948 L475.5974,231.948 L423.9944,258.408 Z" id="Fill-648" fill="#FFFFFF" sketch:type="MSShapeGroup"></path>
            <path d="M423.9944,258.408 L48.2464,258.408 L99.8484,231.948 L475.5974,231.948 L423.9944,258.408 L423.9944,258.408 Z" id="Stroke-650" stroke="#155E36" stroke-width="14.038" stroke-linecap="round" stroke-linejoin="round" sketch:type="MSShapeGroup"></path>
            <path d="M180.9691,283.225 L180.9691,265.157" id="Stroke-651" stroke="#84BF41" stroke-width="5.014" sketch:type="MSShapeGroup"></path>
            <path d="M192.8766,283.225 L192.8766,265.157" id="Stroke-652" stroke="#84BF41" stroke-width="5.014" sketch:type="MSShapeGroup"></path>
            <path d="M204.7841,283.225 L204.7841,265.157" id="Stroke-653" stroke="#84BF41" stroke-width="5.014" sketch:type="MSShapeGroup"></path>
            <path d="M216.6917,283.225 L216.6917,265.157" id="Stroke-654" stroke="#84BF41" stroke-width="5.014" sketch:type="MSShapeGroup"></path>
            <path d="M228.5991,283.225 L228.5991,265.157" id="Stroke-655" stroke="#84BF41" stroke-width="5.014" sketch:type="MSShapeGroup"></path>
            <path d="M240.5067,283.225 L240.5067,265.157" id="Stroke-656" stroke="#84BF41" stroke-width="5.014" sketch:type="MSShapeGroup"></path>
            <path d="M252.4141,283.225 L252.4141,265.157" id="Stroke-657" stroke="#84BF41" stroke-width="5.014" sketch:type="MSShapeGroup"></path>
            <path d="M264.3217,283.225 L264.3217,265.157" id="Stroke-658" stroke="#84BF41" stroke-width="5.014" sketch:type="MSShapeGroup"></path>
            <path d="M276.2291,283.225 L276.2291,265.157" id="Stroke-659" stroke="#84BF41" stroke-width="5.014" sketch:type="MSShapeGroup"></path>
            <path d="M288.1367,283.225 L288.1367,265.157" id="Stroke-660" stroke="#84BF41" stroke-width="5.014" sketch:type="MSShapeGroup"></path>
            <path d="M423.0058,289.169 L48.2498,289.169 L48.2498,258.739 L423.0058,258.739 L423.0058,289.169 Z" id="Stroke-661" stroke="#155E36" stroke-width="14.038" stroke-linecap="round" stroke-linejoin="round" sketch:type="MSShapeGroup"></path>
            <path d="M476.2583,262.708 L423.0053,289.169 L423.0053,258.739 L476.2583,232.278 L476.2583,262.708 Z" id="Fill-662" fill="#FFFFFF" sketch:type="MSShapeGroup"></path>
            <path d="M476.2583,262.708 L423.0053,289.169 L423.0053,258.739 L476.2583,232.278 L476.2583,262.708 L476.2583,262.708 Z" id="Stroke-663" stroke="#155E36" stroke-width="14.038" stroke-linecap="round" stroke-linejoin="round" sketch:type="MSShapeGroup"></path>
            <path d="M163.025,258.987 L214.628,232.527" id="Fill-664" fill="#FFFFFF" sketch:type="MSShapeGroup"></path>
            <path d="M163.025,258.987 L214.628,232.527" id="Stroke-665" stroke="#155E36" stroke-width="14.038" stroke-linecap="round" stroke-linejoin="round" sketch:type="MSShapeGroup"></path>
            <path d="M166.9942,288.177 L166.9942,258.986 L166.9942,288.177 Z" id="Fill-667" fill="#FFFFFF" sketch:type="MSShapeGroup"></path>
            <path d="M166.9945,258.987 L166.9945,288.178" id="Stroke-668" stroke="#155E36" stroke-width="14.038" stroke-linecap="round" stroke-linejoin="round" sketch:type="MSShapeGroup"></path>
            <path d="M297.9758,258.987 L349.5788,232.527" id="Fill-669" fill="#FFFFFF" sketch:type="MSShapeGroup"></path>
            <path d="M297.9758,258.987 L349.5788,232.527" id="Stroke-670" stroke="#155E36" stroke-width="14.038" stroke-linecap="round" stroke-linejoin="round" sketch:type="MSShapeGroup"></path>
            <path d="M301.9454,288.177 L301.9454,258.986 L301.9454,288.177 Z" id="Fill-672" fill="#FFFFFF" sketch:type="MSShapeGroup"></path>
            <path d="M301.9453,258.987 L301.9453,288.178" id="Stroke-673" stroke="#155E36" stroke-width="14.038" stroke-linecap="round" stroke-linejoin="round" sketch:type="MSShapeGroup"></path>
            <path d="M352.1907,245.786 L375.3407,245.786" id="Stroke-674" stroke="#84BF41" stroke-width="5.014" stroke-linecap="round" stroke-linejoin="round" sketch:type="MSShapeGroup"></path>
            <path d="M391.3005,245.786 L397.7015,245.786" id="Stroke-675" stroke="#84BF41" stroke-width="5.014" stroke-linecap="round" stroke-linejoin="round" sketch:type="MSShapeGroup"></path>
            <path d="M410.4078,245.782 L427.2118,245.782" id="Stroke-676" stroke="#84BF41" stroke-width="5.014" stroke-linecap="round" stroke-linejoin="round" sketch:type="MSShapeGroup"></path>
            <path d="M102.8061,245.786 L119.3291,245.786" id="Stroke-677" stroke="#84BF41" stroke-width="5.014" stroke-linecap="round" stroke-linejoin="round" sketch:type="MSShapeGroup"></path>
            <path d="M135.2889,245.786 L141.6899,245.786" id="Stroke-678" stroke="#84BF41" stroke-width="5.014" stroke-linecap="round" stroke-linejoin="round" sketch:type="MSShapeGroup"></path>
            <path d="M154.3963,245.782 L171.2003,245.782" id="Stroke-679" stroke="#84BF41" stroke-width="5.014" stroke-linecap="round" stroke-linejoin="round" sketch:type="MSShapeGroup"></path>
            <path d="M323.9418,273.473 L329.3788,273.473" id="Stroke-680" stroke="#84BF41" stroke-width="5.014" stroke-linecap="round" stroke-linejoin="round" sketch:type="MSShapeGroup"></path>
            <path d="M396.7305,273.473 L402.1675,273.473" id="Stroke-681" stroke="#84BF41" stroke-width="5.014" stroke-linecap="round" stroke-linejoin="round" sketch:type="MSShapeGroup"></path>
            <path d="M345.0342,273.473 L367.8332,273.473" id="Stroke-682" stroke="#84BF41" stroke-width="5.014" stroke-linecap="round" stroke-linejoin="round" sketch:type="MSShapeGroup"></path>
            <path d="M73.2226,273.473 L78.6596,273.473" id="Stroke-683" stroke="#84BF41" stroke-width="5.014" stroke-linecap="round" stroke-linejoin="round" sketch:type="MSShapeGroup"></path>
            <path d="M146.0111,273.473 L151.4481,273.473" id="Stroke-684" stroke="#84BF41" stroke-width="5.014" stroke-linecap="round" stroke-linejoin="round" sketch:type="MSShapeGroup"></path>
            <path d="M94.3149,273.473 L117.1139,273.473" id="Stroke-685" stroke="#84BF41" stroke-width="5.014" stroke-linecap="round" stroke-linejoin="round" sketch:type="MSShapeGroup"></path>
            <path d="M435.9052,267.83 L439.2132,266.187" id="Stroke-686" stroke="#84BF41" stroke-width="5.014" stroke-linecap="round" stroke-linejoin="round" sketch:type="MSShapeGroup"></path>
            <path d="M451.2236,259.744 L462.5936,254.095" id="Stroke-687" stroke="#84BF41" stroke-width="5.014" stroke-linecap="round" stroke-linejoin="round" sketch:type="MSShapeGroup"></path>
            <path d="M507.3475,226.655 L131.5995,226.655 L183.2015,200.194 L558.9505,200.194 L507.3475,226.655 Z" id="Fill-688" fill="#FFFFFF" sketch:type="MSShapeGroup"></path>
            <path d="M507.3475,226.655 L131.5995,226.655 L183.2015,200.194 L558.9505,200.194 L507.3475,226.655 L507.3475,226.655 Z" id="Stroke-689" stroke="#155E36" stroke-width="14.038" stroke-linecap="round" stroke-linejoin="round" sketch:type="MSShapeGroup"></path>
            <path d="M506.358,257.417 L131.602,257.417 L131.602,226.987 L506.358,226.987 L506.358,257.417 Z" id="Fill-690" fill="#FFFFFF" sketch:type="MSShapeGroup"></path>
            <path d="M506.358,257.417 L131.602,257.417 L131.602,226.987 L506.358,226.987 L506.358,257.417 Z" id="Stroke-691" stroke="#155E36" stroke-width="14.038" stroke-linecap="round" stroke-linejoin="round" sketch:type="MSShapeGroup"></path>
            <path d="M559.6115,230.955 L506.3585,257.416 L506.3585,226.986 L559.6115,200.525 L559.6115,230.955 Z" id="Fill-692" fill="#FFFFFF" sketch:type="MSShapeGroup"></path>
            <path d="M559.6115,230.955 L506.3585,257.416 L506.3585,226.986 L559.6115,200.525 L559.6115,230.955 L559.6115,230.955 Z" id="Stroke-693" stroke="#155E36" stroke-width="14.038" stroke-linecap="round" stroke-linejoin="round" sketch:type="MSShapeGroup"></path>
            <path d="M246.3781,227.234 L297.9811,200.773" id="Fill-694" fill="#FFFFFF" sketch:type="MSShapeGroup"></path>
            <path d="M246.3781,227.234 L297.9811,200.773" id="Stroke-695" stroke="#155E36" stroke-width="14.038" stroke-linecap="round" stroke-linejoin="round" sketch:type="MSShapeGroup"></path>
            <path d="M250.3472,256.424 L250.3472,227.233 L250.3472,256.424 Z" id="Fill-697" fill="#FFFFFF" sketch:type="MSShapeGroup"></path>
            <path d="M250.3475,227.234 L250.3475,256.425" id="Stroke-698" stroke="#155E36" stroke-width="14.038" stroke-linecap="round" stroke-linejoin="round" sketch:type="MSShapeGroup"></path>
            <path d="M381.3289,227.234 L432.9319,200.773" id="Fill-699" fill="#FFFFFF" sketch:type="MSShapeGroup"></path>
            <path d="M381.3289,227.234 L432.9319,200.773" id="Stroke-700" stroke="#155E36" stroke-width="14.038" stroke-linecap="round" stroke-linejoin="round" sketch:type="MSShapeGroup"></path>
            <path d="M385.2983,256.424 L385.2983,227.233 L385.2983,256.424 Z" id="Fill-702" fill="#FFFFFF" sketch:type="MSShapeGroup"></path>
            <path d="M385.2983,227.234 L385.2983,256.425" id="Stroke-703" stroke="#155E36" stroke-width="14.038" stroke-linecap="round" stroke-linejoin="round" sketch:type="MSShapeGroup"></path>
            <path d="M431.5326,214.033 L454.6826,214.033" id="Stroke-704" stroke="#84BF41" stroke-width="5.014" stroke-linecap="round" stroke-linejoin="round" sketch:type="MSShapeGroup"></path>
            <path d="M470.6425,214.033 L477.0435,214.033" id="Stroke-705" stroke="#84BF41" stroke-width="5.014" stroke-linecap="round" stroke-linejoin="round" sketch:type="MSShapeGroup"></path>
            <path d="M489.7498,214.029 L506.5538,214.029" id="Stroke-706" stroke="#84BF41" stroke-width="5.014" stroke-linecap="round" stroke-linejoin="round" sketch:type="MSShapeGroup"></path>
            <path d="M182.3947,214.033 L200.6767,214.033" id="Stroke-707" stroke="#84BF41" stroke-width="5.014" stroke-linecap="round" stroke-linejoin="round" sketch:type="MSShapeGroup"></path>
            <path d="M216.6365,214.033 L223.0375,214.033" id="Stroke-708" stroke="#84BF41" stroke-width="5.014" stroke-linecap="round" stroke-linejoin="round" sketch:type="MSShapeGroup"></path>
            <path d="M235.7438,214.029 L246.8218,214.029" id="Stroke-709" stroke="#84BF41" stroke-width="5.014" stroke-linecap="round" stroke-linejoin="round" sketch:type="MSShapeGroup"></path>
            <path d="M407.2949,241.72 L412.7319,241.72" id="Stroke-710" stroke="#84BF41" stroke-width="5.014" stroke-linecap="round" stroke-linejoin="round" sketch:type="MSShapeGroup"></path>
            <path d="M480.0835,241.72 L485.5205,241.72" id="Stroke-711" stroke="#84BF41" stroke-width="5.014" stroke-linecap="round" stroke-linejoin="round" sketch:type="MSShapeGroup"></path>
            <path d="M428.3873,241.72 L451.1863,241.72" id="Stroke-712" stroke="#84BF41" stroke-width="5.014" stroke-linecap="round" stroke-linejoin="round" sketch:type="MSShapeGroup"></path>
            <path d="M156.5756,241.72 L162.0126,241.72" id="Stroke-713" stroke="#84BF41" stroke-width="5.014" stroke-linecap="round" stroke-linejoin="round" sketch:type="MSShapeGroup"></path>
            <path d="M229.3642,241.72 L234.8012,241.72" id="Stroke-714" stroke="#84BF41" stroke-width="5.014" stroke-linecap="round" stroke-linejoin="round" sketch:type="MSShapeGroup"></path>
            <path d="M177.6681,241.72 L200.4671,241.72" id="Stroke-715" stroke="#84BF41" stroke-width="5.014" stroke-linecap="round" stroke-linejoin="round" sketch:type="MSShapeGroup"></path>
            <path d="M519.2583,236.077 L522.5663,234.433" id="Stroke-716" stroke="#84BF41" stroke-width="5.014" stroke-linecap="round" stroke-linejoin="round" sketch:type="MSShapeGroup"></path>
            <path d="M534.5767,227.992 L545.9467,222.343" id="Stroke-717" stroke="#84BF41" stroke-width="5.014" stroke-linecap="round" stroke-linejoin="round" sketch:type="MSShapeGroup"></path>
            <path d="M263.5775,252.641 L263.5775,231.761" id="Stroke-718" stroke="#84BF41" stroke-width="5.014" sketch:type="MSShapeGroup"></path>
            <path d="M275.4849,252.641 L275.4849,231.761" id="Stroke-719" stroke="#84BF41" stroke-width="5.014" sketch:type="MSShapeGroup"></path>
            <path d="M287.3925,252.641 L287.3925,231.761" id="Stroke-720" stroke="#84BF41" stroke-width="5.014" sketch:type="MSShapeGroup"></path>
            <path d="M299.3,252.641 L299.3,231.761" id="Stroke-721" stroke="#84BF41" stroke-width="5.014" sketch:type="MSShapeGroup"></path>
            <path d="M311.2075,252.641 L311.2075,231.761" id="Stroke-722" stroke="#84BF41" stroke-width="5.014" sketch:type="MSShapeGroup"></path>
            <path d="M323.115,252.641 L323.115,231.761" id="Stroke-723" stroke="#84BF41" stroke-width="5.014" sketch:type="MSShapeGroup"></path>
            <path d="M335.0225,252.641 L335.0225,231.761" id="Stroke-724" stroke="#84BF41" stroke-width="5.014" sketch:type="MSShapeGroup"></path>
            <path d="M346.9301,252.641 L346.9301,231.761" id="Stroke-725" stroke="#84BF41" stroke-width="5.014" sketch:type="MSShapeGroup"></path>
            <path d="M358.8375,252.641 L358.8375,231.761" id="Stroke-726" stroke="#84BF41" stroke-width="5.014" sketch:type="MSShapeGroup"></path>
            <path d="M370.7451,252.641 L370.7451,231.761" id="Stroke-727" stroke="#84BF41" stroke-width="5.014" sketch:type="MSShapeGroup"></path>
            <path d="M131.6024,226.987 L506.3584,226.987 L506.3584,257.417 L131.6024,257.417 L131.6024,226.987 Z" id="Stroke-728" stroke="#155E36" stroke-width="14.038" stroke-linecap="round" stroke-linejoin="round" sketch:type="MSShapeGroup"></path>
            <path d="M328.3105,213.637 C332.1975,213.595 336.2505,213.545 339.5655,213.266 C342.8795,212.987 345.1515,212.403 343.6065,211.917 C337.6635,211.777 331.5055,211.637 325.6645,211.842 C319.8235,212.047 314.3695,212.695 314.1035,213.514 C313.8705,214.23 317.7415,214.888 322.5705,215.177 C327.3995,215.466 332.9585,215.441 338.1165,215.289 C347.7435,215.008 357.7575,214.053 357.7315,212.715 C357.7175,211.997 354.6675,211.323 350.4965,210.882 C346.3265,210.44 341.1455,210.209 335.9455,210.08" id="Stroke-729" stroke="#84BF41" stroke-width="2.712" stroke-linecap="round" sketch:type="MSShapeGroup"></path>
            <path d="M105.1671,365.786 L475.5681,364.862 L479.8421,408.14 L110.4841,409.149" id="Fill-730" fill="#FFFFFF" sketch:type="MSShapeGroup"></path>
            <path d="M105.1671,365.786 L475.5681,364.862 L479.8421,408.14 L110.4841,409.149" id="Stroke-731" stroke="#0C5D35" stroke-width="14.038" stroke-linecap="round" stroke-linejoin="round" sketch:type="MSShapeGroup"></path>
            <path d="M110.6071,408.947 C98.7301,410.694 87.6851,402.482 85.9381,390.605 C84.1911,378.728 92.4021,367.682 104.2801,365.936" id="Fill-735" fill="#FFFFFF" sketch:type="MSShapeGroup"></path>
            <path d="M110.6071,408.947 C98.7301,410.694 87.6851,402.482 85.9381,390.605 C84.1911,378.728 92.4021,367.682 104.2801,365.936" id="Stroke-736" stroke="#0C5D35" stroke-width="14.038" stroke-linecap="round" stroke-linejoin="round" sketch:type="MSShapeGroup"></path>
            <path d="M456.2924,389.666 C454.5444,377.782 462.7614,366.73 474.6454,364.983 C486.5284,363.235 497.5804,371.451 499.3284,383.336 C501.0764,395.219 492.8604,406.27 480.9754,408.019 C469.0914,409.7674 458.0404,401.55 456.2924,389.666" id="Fill-733" fill="#FFFFFF" sketch:type="MSShapeGroup"></path>
            <path d="M456.2924,389.666 C454.5444,377.782 462.7614,366.73 474.6454,364.983 C486.5284,363.235 497.5804,371.451 499.3284,383.336 C501.0764,395.219 492.8604,406.27 480.9754,408.019 C469.0914,409.767 458.0404,401.55 456.2924,389.666 L456.2924,389.666 Z" id="Stroke-734" stroke="#0C5D35" stroke-width="14.038" stroke-linecap="round" stroke-linejoin="round" sketch:type="MSShapeGroup"></path>
            <path d="M302.395,408.556 C290.518,410.303 279.472,402.091 277.726,390.214 C275.979,378.337 284.19,367.291 296.068,365.545" id="Fill-738" fill="#FFFFFF" sketch:type="MSShapeGroup"></path>
            <path d="M302.395,408.556 C290.518,410.303 279.472,402.091 277.726,390.214 C275.979,378.337 284.19,367.291 296.068,365.545" id="Stroke-739" stroke="#0C5D35" stroke-width="14.038" stroke-linecap="round" stroke-linejoin="round" sketch:type="MSShapeGroup"></path>
            <path d="M248.2528,378.045 L218.5868,378.217" id="Stroke-741" stroke="#84BF41" stroke-width="5.014" stroke-linecap="round" stroke-linejoin="round" sketch:type="MSShapeGroup"></path>
            <path d="M198.1353,378.335 L189.9323,378.382" id="Stroke-742" stroke="#84BF41" stroke-width="5.014" stroke-linecap="round" stroke-linejoin="round" sketch:type="MSShapeGroup"></path>
            <path d="M122.9277,378.737 L114.7247,378.784" id="Stroke-743" stroke="#84BF41" stroke-width="5.014" stroke-linecap="round" stroke-linejoin="round" sketch:type="MSShapeGroup"></path>
            <path d="M173.65,378.472 L152.117,378.596" id="Stroke-744" stroke="#84BF41" stroke-width="5.014" stroke-linecap="round" stroke-linejoin="round" sketch:type="MSShapeGroup"></path>
            <path d="M221.0307,394.24 L191.3647,394.411" id="Stroke-745" stroke="#84BF41" stroke-width="5.014" stroke-linecap="round" stroke-linejoin="round" sketch:type="MSShapeGroup"></path>
            <path d="M170.9131,394.53 L162.7101,394.577" id="Stroke-746" stroke="#84BF41" stroke-width="5.014" stroke-linecap="round" stroke-linejoin="round" sketch:type="MSShapeGroup"></path>
            <path d="M254.4598,393.827 L246.2568,393.874" id="Stroke-747" stroke="#84BF41" stroke-width="5.014" stroke-linecap="round" stroke-linejoin="round" sketch:type="MSShapeGroup"></path>
            <path d="M146.4279,394.667 L124.8949,394.791" id="Stroke-748" stroke="#84BF41" stroke-width="5.014" stroke-linecap="round" stroke-linejoin="round" sketch:type="MSShapeGroup"></path>
            <path d="M389.72,386.984 C380.518,387.252 370.921,387.513 363.04,386.981 C355.16,386.45 349.704,384.853 353.294,383.172 C367.336,382.121 381.89,381.05 395.736,381.09 C409.584,381.13 422.577,382.6 423.319,385.135 C423.967,387.353 414.898,389.816 403.512,391.217 C392.126,392.618 378.968,393.112 366.742,393.169 C343.926,393.276 320.101,391.316 319.981,387.125 C319.917,384.876 327.04,382.45 336.849,380.64 C346.657,378.829 358.883,377.57 371.17,376.632" id="Stroke-749" stroke="#84BF41" stroke-width="5.014" stroke-linecap="round" stroke-linejoin="round" sketch:type="MSShapeGroup"></path>
            <path d="M481.3989,387.462 C479.7189,387.919 477.9619,388.38 476.2589,388.019 C474.5559,387.658 472.9509,386.194 473.0579,384.457 C475.3979,383.123 477.8289,381.759 480.5099,381.509 C483.1909,381.258 486.2039,382.439 487.2279,384.93 C488.1239,387.109 487.2319,389.733 485.5259,391.358 C483.8209,392.982 481.4569,393.745 479.1229,394.058 C474.7649,394.643 469.4949,393.204 468.0159,389.063 C467.2209,386.841 467.7499,384.293 469.0099,382.298 C470.2709,380.302 472.1879,378.801 474.2279,377.616" id="Stroke-750" stroke="#84BF41" stroke-width="5.014" stroke-linecap="round" stroke-linejoin="round" sketch:type="MSShapeGroup"></path>
            <path d="M553.3496,608.5282 L54.5066,608.5282 C24.5766,608.5282 0.0876,584.0392 0.0876,554.1092 L0.0876,55.2662 C0.0876,25.3352 24.5766,0.8462 54.5066,0.8462 L553.3496,0.8462 C583.2816,0.8462 607.7696,25.3352 607.7696,55.2662 L607.7696,554.1092 C607.7696,584.0392 583.2816,608.5282 553.3496,608.5282 L553.3496,608.5282 Z" id="Stroke-752" stroke="#254F3D" stroke-width="14.24" stroke-linejoin="round" sketch:type="MSShapeGroup"></path>
        </g>
    </g>
</svg>