<?xml version="1.0" encoding="UTF-8" standalone="no"?>
<svg viewBox="0 0 623 623" version="1.1" xmlns="http://www.w3.org/2000/svg" xmlns:xlink="http://www.w3.org/1999/xlink" xmlns:sketch="http://www.bohemiancoding.com/sketch/ns">
    <!-- Generator: Sketch 3.4.1 (15681) - http://www.bohemiancoding.com/sketch -->
    <title>Cartons</title>
    <desc>Created with Sketch.</desc>
    <defs></defs>
    <g id="Page-1" stroke="none" stroke-width="1" fill="none" fill-rule="evenodd" sketch:type="MSPage">
        <g id="Cartons" sketch:type="MSLayerGroup" transform="translate(8.000000, 7.000000)">
            <path d="M303.7942,148.825 L504.1852,204.493 L504.1852,404.884 L303.7942,349.216 L303.7942,148.825 L303.7942,148.825 Z" id="Fill-302" fill="#FFFFFF" sketch:type="MSShapeGroup"></path>
            <path d="M303.7959,148.825 L103.4049,204.493 L103.4049,404.884 L303.7959,349.216 L303.7959,148.825 L303.7959,148.825 Z" id="Fill-305" fill="#FFFFFF" sketch:type="MSShapeGroup"></path>
            <path d="M303.7942,148.825 L504.1852,204.493 L504.1852,404.884 L303.7942,349.216 L303.7942,148.825 L303.7942,148.825 Z" id="Stroke-302" stroke="#0C5D35" stroke-width="14.038" stroke-linecap="round" stroke-linejoin="round" sketch:type="MSShapeGroup"></path>
            <path d="M303.7959,148.825 L103.4049,204.493 L103.4049,404.884 L303.7959,349.216 L303.7959,148.825 L303.7959,148.825 Z" id="Stroke-305" stroke="#0C5D35" stroke-width="14.038" stroke-linecap="round" stroke-linejoin="round" sketch:type="MSShapeGroup"></path>
            <path d="M502.3321,204.493 L301.9411,260.161 L301.9411,460.5523 L502.3321,404.884 L502.3321,204.493 Z" id="Fill-308" fill="#FFFFFF" sketch:type="MSShapeGroup"></path>
            <path d="M502.3321,204.493 L301.9411,260.161 L301.9411,460.552 L502.3321,404.884 L502.3321,204.493 L502.3321,204.493 Z" id="Stroke-310" stroke="#0C5D35" stroke-width="14.038" stroke-linecap="round" stroke-linejoin="round" sketch:type="MSShapeGroup"></path>
            <path d="M103.4025,204.493 L303.7935,260.161 L303.7935,460.5523 L103.4025,404.884 L103.4025,204.493 Z" id="Fill-311" fill="#FFFFFF" sketch:type="MSShapeGroup"></path>
            <path d="M103.4025,204.493 L303.7935,260.161 L303.7935,460.552 L103.4025,404.884 L103.4025,204.493 L103.4025,204.493 Z" id="Stroke-312" stroke="#0C5D35" stroke-width="14.038" stroke-linecap="round" stroke-linejoin="round" sketch:type="MSShapeGroup"></path>
            <path d="M103.4025,204.493 L303.7935,260.161 L252.6275,332.634 L52.2355,276.967 L103.4025,204.493 Z" id="Fill-313" fill="#FFFFFF" sketch:type="MSShapeGroup"></path>
            <path d="M103.4025,204.493 L303.7935,260.161 L252.6275,332.634 L52.2355,276.967 L103.4025,204.493 L103.4025,204.493 Z" id="Stroke-314" stroke="#39AB47" stroke-width="14.038" stroke-linecap="round" stroke-linejoin="round" sketch:type="MSShapeGroup"></path>
            <path d="M504.459,203.973 L304.068,259.641 L355.234,332.114 L555.626,276.447 L504.459,203.973 Z" id="Fill-315" fill="#FFFFFF" sketch:type="MSShapeGroup"></path>
            <path d="M504.459,203.973 L304.068,259.641 L355.234,332.114 L555.626,276.447 L504.459,203.973 L504.459,203.973 Z" id="Stroke-316" stroke="#84BF41" stroke-width="14.038" stroke-linecap="round" stroke-linejoin="round" sketch:type="MSShapeGroup"></path>
            <path d="M553.3496,608.5282 L54.5066,608.5282 C24.5766,608.5282 0.0876,584.0392 0.0876,554.1092 L0.0876,55.2662 C0.0876,25.3352 24.5766,0.8462 54.5066,0.8462 L553.3496,0.8462 C583.2816,0.8462 607.7696,25.3352 607.7696,55.2662 L607.7696,554.1092 C607.7696,584.0392 583.2816,608.5282 553.3496,608.5282 L553.3496,608.5282 Z" id="Stroke-318" stroke="#254F3D" stroke-width="14.24" stroke-linejoin="round" sketch:type="MSShapeGroup"></path>
        </g>
    </g>
</svg>