<?xml version="1.0" encoding="UTF-8" standalone="no"?>
<svg width="623px" height="623px" viewBox="0 0 623 623" version="1.1" xmlns="http://www.w3.org/2000/svg" xmlns:xlink="http://www.w3.org/1999/xlink" xmlns:sketch="http://www.bohemiancoding.com/sketch/ns">
    <!-- Generator: Sketch 3.4.1 (15681) - http://www.bohemiancoding.com/sketch -->
    <title>Déchets verts</title>
    <desc>Created with Sketch.</desc>
    <defs></defs>
    <g id="Page-1" stroke="none" stroke-width="1" fill="none" fill-rule="evenodd" sketch:type="MSPage">
        <g id="Déchets-verts" sketch:type="MSLayerGroup" transform="translate(8.000000, 7.000000)">
            <path d="M238.261,311.381 L238.261,304.027" id="Stroke-966" stroke="#39AB47" stroke-width="14" stroke-linecap="round" sketch:type="MSShapeGroup"></path>
            <path d="M306.5784,128.737 L306.5784,121.383" id="Stroke-969" stroke="#39AB47" stroke-width="14" stroke-linecap="round" sketch:type="MSShapeGroup"></path>
            <path d="M231.2899,204.025 L231.2899,196.671" id="Stroke-972" stroke="#39AB47" stroke-width="14" stroke-linecap="round" sketch:type="MSShapeGroup"></path>
            <path d="M374.8958,312.392 L374.8958,305.038" id="Stroke-975" stroke="#39AB47" stroke-width="14" stroke-linecap="round" sketch:type="MSShapeGroup"></path>
            <path d="M353.9822,208.208 L353.9822,200.854" id="Stroke-978" stroke="#39AB47" stroke-width="14" stroke-linecap="round" sketch:type="MSShapeGroup"></path>
            <path d="M409.9636,228.293 C418.1126,218.087 423.1806,205.337 423.1806,191.275 C423.1806,158.347 396.4836,131.65 363.5546,131.65 C363.5546,98.722 336.8576,72.024 303.9296,72.024 C271.0016,72.024 244.3036,98.722 244.3036,131.65 C211.3756,131.65 184.6786,158.347 184.6786,191.275 C184.6786,205.337 189.7516,218.087 197.9056,228.293 C172.5446,240.188 154.8656,265.763 154.8656,295.62 C154.8656,336.787 188.2366,370.152 229.3976,370.152 L289.0236,370.152 L318.8356,370.152 L378.4616,370.152 C419.6276,370.152 452.9936,336.787 452.9936,295.62 C452.9936,265.763 435.3196,240.188 409.9636,228.293 L409.9636,228.293 Z" id="Stroke-981" stroke="#0C5D35" stroke-width="14" stroke-linecap="round" stroke-linejoin="round" fill="#FFFFFF" sketch:type="MSShapeGroup"></path>
            <path d="M296.0914,535.0046 L296.0914,188.3056" id="Stroke-984" stroke="#84BF41" stroke-width="14" stroke-linecap="round" stroke-linejoin="round" sketch:type="MSShapeGroup"></path>
            <path d="M296.8187,313.089 L359.5587,250.349" id="Stroke-987" stroke="#84BF41" stroke-width="14" stroke-linecap="round" stroke-linejoin="round" sketch:type="MSShapeGroup"></path>
            <path d="M295.7731,261.503 L264.0541,229.784" id="Stroke-990" stroke="#84BF41" stroke-width="14" stroke-linecap="round" stroke-linejoin="round" sketch:type="MSShapeGroup"></path>
            <path d="M553.3496,608.5282 L54.5066,608.5282 C24.5766,608.5282 0.0876,584.0392 0.0876,554.1092 L0.0876,55.2662 C0.0876,25.3352 24.5766,0.8462 54.5066,0.8462 L553.3496,0.8462 C583.2816,0.8462 607.7696,25.3352 607.7696,55.2662 L607.7696,554.1092 C607.7696,584.0392 583.2816,608.5282 553.3496,608.5282 L553.3496,608.5282 Z" id="Stroke-994" stroke="#254F3D" stroke-width="14.24" stroke-linejoin="round" sketch:type="MSShapeGroup"></path>
        </g>
    </g>
</svg>