<?xml version="1.0" encoding="UTF-8" standalone="no"?>
<svg viewBox="0 0 623 623" version="1.1" xmlns="http://www.w3.org/2000/svg" xmlns:xlink="http://www.w3.org/1999/xlink" xmlns:sketch="http://www.bohemiancoding.com/sketch/ns">
    <!-- Generator: Sketch 3.4.1 (15681) - http://www.bohemiancoding.com/sketch -->
    <title>Déchets ménagers spéciaux</title>
    <desc>Created with Sketch.</desc>
    <defs>
        <path id="path-1" d="M54.507,0.847 C24.576,0.847 0.088,25.336 0.088,55.266 L0.088,554.109 C0.088,584.039 24.576,608.528 54.507,608.528 L553.349,608.528 C583.281,608.528 607.77,584.039 607.77,554.109 L607.77,55.266 C607.77,25.336 583.281,0.847 553.349,0.847 L54.507,0.847"></path>
        <path id="path-3" d="M54.507,0.847 C24.576,0.847 0.088,25.336 0.088,55.266 L0.088,554.109 C0.088,584.039 24.576,608.528 54.507,608.528 L553.349,608.528 C583.281,608.528 607.77,584.039 607.77,554.109 L607.77,55.266 C607.77,25.336 583.281,0.847 553.349,0.847 L54.507,0.847"></path>
        <path id="path-5" d="M54.507,0.847 C24.576,0.847 0.088,25.336 0.088,55.266 L0.088,554.109 C0.088,584.039 24.576,608.528 54.507,608.528 L553.349,608.528 C583.281,608.528 607.77,584.039 607.77,554.109 L607.77,55.266 C607.77,25.336 583.281,0.847 553.349,0.847 L54.507,0.847"></path>
        <path id="path-7" d="M54.507,0.847 C24.576,0.847 0.088,25.336 0.088,55.266 L0.088,554.109 C0.088,584.039 24.576,608.528 54.507,608.528 L553.349,608.528 C583.281,608.528 607.77,584.039 607.77,554.109 L607.77,55.266 C607.77,25.336 583.281,0.847 553.349,0.847 L54.507,0.847"></path>
        <path id="path-9" d="M54.507,0.847 C24.576,0.847 0.088,25.336 0.088,55.266 L0.088,554.109 C0.088,584.039 24.576,608.528 54.507,608.528 L553.349,608.528 C583.281,608.528 607.77,584.039 607.77,554.109 L607.77,55.266 C607.77,25.336 583.281,0.847 553.349,0.847 L54.507,0.847"></path>
        <path id="path-11" d="M54.507,0.847 C24.576,0.847 0.088,25.336 0.088,55.266 L0.088,554.109 C0.088,584.039 24.576,608.528 54.507,608.528 L553.349,608.528 C583.281,608.528 607.77,584.039 607.77,554.109 L607.77,55.266 C607.77,25.336 583.281,0.847 553.349,0.847 L54.507,0.847"></path>
        <path id="path-13" d="M54.507,0.847 C24.576,0.847 0.088,25.336 0.088,55.266 L0.088,554.109 C0.088,584.039 24.576,608.528 54.507,608.528 L553.349,608.528 C583.281,608.528 607.77,584.039 607.77,554.109 L607.77,55.266 C607.77,25.336 583.281,0.847 553.349,0.847 L54.507,0.847 L54.507,0.847 Z"></path>
        <path id="path-15" d="M54.507,0.847 C24.576,0.847 0.088,25.336 0.088,55.266 L0.088,554.109 C0.088,584.039 24.576,608.528 54.507,608.528 L553.349,608.528 C583.281,608.528 607.77,584.039 607.77,554.109 L607.77,55.266 C607.77,25.336 583.281,0.847 553.349,0.847 L54.507,0.847 L54.507,0.847 Z"></path>
        <path id="path-17" d="M54.507,0.847 C24.576,0.847 0.088,25.336 0.088,55.266 L0.088,554.109 C0.088,584.039 24.576,608.528 54.507,608.528 L553.349,608.528 C583.281,608.528 607.77,584.039 607.77,554.109 L607.77,55.266 C607.77,25.336 583.281,0.847 553.349,0.847 L54.507,0.847"></path>
        <path id="path-19" d="M57.845,0.798 L0.655,82.555 L0.57,82.555 L0.57,193.7 L0.57,334.222 C0.57,371.719 31.249,402.397 68.745,402.397 L92.891,402.397 C130.386,402.397 161.067,371.719 161.067,334.222 L161.067,193.7 C161.067,175.912 160.979,82.555 160.979,82.555 L160.923,82.555 L103.732,0.798 L57.845,0.798"></path>
        <path id="path-21" d="M57.845,0.798 L0.655,82.555 L0.57,82.555 L0.57,193.7 L0.57,334.222 C0.57,371.719 31.249,402.397 68.745,402.397 L92.891,402.397 C130.386,402.397 161.067,371.719 161.067,334.222 L161.067,193.7 C161.067,175.912 160.979,82.555 160.979,82.555 L160.923,82.555 L103.732,0.798 L57.845,0.798"></path>
        <path id="path-23" d="M57.845,0.798 L0.655,82.555 L0.57,82.555 L0.57,193.7 L0.57,334.222 C0.57,371.719 31.249,402.397 68.745,402.397 L92.891,402.397 C130.386,402.397 161.067,371.719 161.067,334.222 L161.067,193.7 C161.067,175.912 160.979,82.555 160.979,82.555 L160.923,82.555 L103.732,0.798 L57.845,0.798"></path>
        <path id="path-25" d="M54.507,0.847 C24.576,0.847 0.088,25.336 0.088,55.266 L0.088,554.109 C0.088,584.039 24.576,608.528 54.507,608.528 L553.349,608.528 C583.281,608.528 607.77,584.039 607.77,554.109 L607.77,55.266 C607.77,25.336 583.281,0.847 553.349,0.847 L54.507,0.847 L54.507,0.847 Z"></path>
        <path id="path-27" d="M54.507,0.847 C24.576,0.847 0.088,25.336 0.088,55.266 L0.088,554.109 C0.088,584.039 24.576,608.528 54.507,608.528 L553.349,608.528 C583.281,608.528 607.77,584.039 607.77,554.109 L607.77,55.266 C607.77,25.336 583.281,0.847 553.349,0.847 L54.507,0.847 L54.507,0.847 Z"></path>
        <path id="path-29" d="M54.507,0.847 C24.576,0.847 0.088,25.336 0.088,55.266 L0.088,554.109 C0.088,584.039 24.576,608.528 54.507,608.528 L553.349,608.528 C583.281,608.528 607.77,584.039 607.77,554.109 L607.77,55.266 C607.77,25.336 583.281,0.847 553.349,0.847 L54.507,0.847 L54.507,0.847 Z"></path>
        <path id="path-31" d="M54.507,0.847 C24.576,0.847 0.088,25.336 0.088,55.266 L0.088,554.109 C0.088,584.039 24.576,608.528 54.507,608.528 L553.349,608.528 C583.281,608.528 607.77,584.039 607.77,554.109 L607.77,55.266 C607.77,25.336 583.281,0.847 553.349,0.847 L54.507,0.847"></path>
        <path id="path-33" d="M54.507,0.847 C24.576,0.847 0.088,25.336 0.088,55.266 L0.088,554.109 C0.088,584.039 24.576,608.528 54.507,608.528 L553.349,608.528 C583.281,608.528 607.77,584.039 607.77,554.109 L607.77,55.266 C607.77,25.336 583.281,0.847 553.349,0.847 L54.507,0.847"></path>
        <path id="path-35" d="M54.507,0.847 C24.576,0.847 0.088,25.336 0.088,55.266 L0.088,554.109 C0.088,584.039 24.576,608.528 54.507,608.528 L553.349,608.528 C583.281,608.528 607.77,584.039 607.77,554.109 L607.77,55.266 C607.77,25.336 583.281,0.847 553.349,0.847 L54.507,0.847"></path>
        <path id="path-37" d="M54.507,0.847 C24.576,0.847 0.088,25.336 0.088,55.266 L0.088,554.109 C0.088,584.039 24.576,608.528 54.507,608.528 L553.349,608.528 C583.281,608.528 607.77,584.039 607.77,554.109 L607.77,55.266 C607.77,25.336 583.281,0.847 553.349,0.847 L54.507,0.847"></path>
        <path id="path-39" d="M54.507,0.847 C24.576,0.847 0.088,25.336 0.088,55.266 L0.088,554.109 C0.088,584.039 24.576,608.528 54.507,608.528 L553.349,608.528 C583.281,608.528 607.77,584.039 607.77,554.109 L607.77,55.266 C607.77,25.336 583.281,0.847 553.349,0.847 L54.507,0.847"></path>
        <path id="path-41" d="M54.507,0.847 C24.576,0.847 0.088,25.336 0.088,55.266 L0.088,554.109 C0.088,584.039 24.576,608.528 54.507,608.528 L553.349,608.528 C583.281,608.528 607.77,584.039 607.77,554.109 L607.77,55.266 C607.77,25.336 583.281,0.847 553.349,0.847 L54.507,0.847"></path>
        <path id="path-43" d="M54.507,0.847 C24.576,0.847 0.088,25.336 0.088,55.266 L0.088,554.109 C0.088,584.039 24.576,608.528 54.507,608.528 L553.349,608.528 C583.281,608.528 607.77,584.039 607.77,554.109 L607.77,55.266 C607.77,25.336 583.281,0.847 553.349,0.847 L54.507,0.847"></path>
        <path id="path-45" d="M54.507,0.847 C24.576,0.847 0.088,25.336 0.088,55.266 L0.088,554.109 C0.088,584.039 24.576,608.528 54.507,608.528 L553.349,608.528 C583.281,608.528 607.77,584.039 607.77,554.109 L607.77,55.266 C607.77,25.336 583.281,0.847 553.349,0.847 L54.507,0.847"></path>
        <path id="path-47" d="M54.507,0.847 C24.576,0.847 0.088,25.336 0.088,55.266 L0.088,554.109 C0.088,584.039 24.576,608.528 54.507,608.528 L553.349,608.528 C583.281,608.528 607.77,584.039 607.77,554.109 L607.77,55.266 C607.77,25.336 583.281,0.847 553.349,0.847 L54.507,0.847"></path>
        <path id="path-49" d="M54.507,0.847 C24.576,0.847 0.088,25.336 0.088,55.266 L0.088,554.109 C0.088,584.039 24.576,608.528 54.507,608.528 L553.349,608.528 C583.281,608.528 607.77,584.039 607.77,554.109 L607.77,55.266 C607.77,25.336 583.281,0.847 553.349,0.847 L54.507,0.847 L54.507,0.847 Z"></path>
        <path id="path-51" d="M54.507,0.847 C24.576,0.847 0.088,25.336 0.088,55.266 L0.088,554.109 C0.088,584.039 24.576,608.528 54.507,608.528 L553.349,608.528 C583.281,608.528 607.77,584.039 607.77,554.109 L607.77,55.266 C607.77,25.336 583.281,0.847 553.349,0.847 L54.507,0.847"></path>
    </defs>
    <g id="Page-1" stroke="none" stroke-width="1" fill="none" fill-rule="evenodd" sketch:type="MSPage">
        <g id="Déchets-ménagers-spéciaux" sketch:type="MSLayerGroup" transform="translate(8.000000, 7.000000)">
            <g id="Group-1899">
                <g id="Group-1875">
                    <mask id="mask-2" sketch:name="Clip 1874" fill="white">
                        <use xlink:href="#path-1"></use>
                    </mask>
                    <g id="Clip-1874"></g>
                    <path d="M285.5924,214.082 L126.6704,214.082" id="Stroke-1873" stroke="#84BF41" stroke-width="14" stroke-linecap="round" stroke-linejoin="round" sketch:type="MSShapeGroup" mask="url(#mask-2)"></path>
                </g>
                <g id="Group-1878">
                    <mask id="mask-4" sketch:name="Clip 1877" fill="white">
                        <use xlink:href="#path-3"></use>
                    </mask>
                    <g id="Clip-1877"></g>
                    <path d="M185.3409,99.696 L185.3409,85.848" id="Stroke-1876" stroke="#39AB47" stroke-width="14" stroke-linecap="round" sketch:type="MSShapeGroup" mask="url(#mask-4)"></path>
                </g>
                <g id="Group-1881">
                    <mask id="mask-6" sketch:name="Clip 1880" fill="white">
                        <use xlink:href="#path-5"></use>
                    </mask>
                    <g id="Clip-1880"></g>
                    <path d="M195.6382,99.696 L195.6382,85.848" id="Stroke-1879" stroke="#39AB47" stroke-width="14" stroke-linecap="round" sketch:type="MSShapeGroup" mask="url(#mask-6)"></path>
                </g>
                <g id="Group-1884">
                    <mask id="mask-8" sketch:name="Clip 1883" fill="white">
                        <use xlink:href="#path-7"></use>
                    </mask>
                    <g id="Clip-1883"></g>
                    <path d="M205.9355,99.696 L205.9355,85.848" id="Stroke-1882" stroke="#39AB47" stroke-width="14" stroke-linecap="round" sketch:type="MSShapeGroup" mask="url(#mask-8)"></path>
                </g>
                <g id="Group-1887">
                    <mask id="mask-10" sketch:name="Clip 1886" fill="white">
                        <use xlink:href="#path-9"></use>
                    </mask>
                    <g id="Clip-1886"></g>
                    <path d="M216.2328,99.696 L216.2328,85.848" id="Stroke-1885" stroke="#39AB47" stroke-width="14" stroke-linecap="round" sketch:type="MSShapeGroup" mask="url(#mask-10)"></path>
                </g>
                <g id="Group-1890">
                    <mask id="mask-12" sketch:name="Clip 1889" fill="white">
                        <use xlink:href="#path-11"></use>
                    </mask>
                    <g id="Clip-1889"></g>
                    <path d="M226.5302,99.696 L226.5302,85.848" id="Stroke-1888" stroke="#39AB47" stroke-width="14" stroke-linecap="round" sketch:type="MSShapeGroup" mask="url(#mask-12)"></path>
                </g>
                <g id="Group-1893">
                    <mask id="mask-14" sketch:name="Clip 1892" fill="white">
                        <use xlink:href="#path-13"></use>
                    </mask>
                    <g id="Clip-1892"></g>
                    <path d="M227.5698,105.076 L183.8728,105.076 L183.8728,131.352 L227.5698,131.352 L227.5698,105.076 Z" id="Stroke-1891" stroke="#0C5D35" stroke-width="14" fill="#FFFFFF" sketch:type="MSShapeGroup" mask="url(#mask-14)"></path>
                </g>
                <g id="Group-1896">
                    <mask id="mask-16" sketch:name="Clip 1895" fill="white">
                        <use xlink:href="#path-15"></use>
                    </mask>
                    <g id="Clip-1895"></g>
                    <path d="M234.327,105.254 L177.084,105.254 C175.881,105.254 174.896,104.27 174.896,103.066 L174.896,82.586 C174.896,81.383 175.881,80.398 177.084,80.398 L234.327,80.398 C235.53,80.398 236.515,81.383 236.515,82.586 L236.515,103.066 C236.515,104.27 235.53,105.254 234.327,105.254 L234.327,105.254 Z" id="Stroke-1894" stroke="#0C5D35" stroke-width="14" sketch:type="MSShapeGroup" mask="url(#mask-16)"></path>
                </g>
                <mask id="mask-18" sketch:name="Clip 1898" fill="white">
                    <use xlink:href="#path-17"></use>
                </mask>
                <g id="Clip-1898"></g>
                <path d="M285.98,214.555 L285.922,214.555 L228.732,132.798 L182.845,132.798 L125.655,214.555 L125.57,214.555 L125.57,325.699 L125.57,466.2219 C125.57,503.7179 156.249,534.3969 193.745,534.3969 L217.891,534.3969 C255.387,534.3969 286.066,503.7179 286.066,466.2219 L286.066,325.699 C286.066,307.912 285.98,214.555 285.98,214.555" id="Fill-1897" fill="#FFFFFF" sketch:type="MSShapeGroup" mask="url(#mask-18)"></path>
            </g>
            <g id="Group-1909" transform="translate(125.000000, 132.000000)">
                <g id="Group-1902">
                    <mask id="mask-20" sketch:name="Clip 1901" fill="white">
                        <use xlink:href="#path-19"></use>
                    </mask>
                    <g id="Clip-1901"></g>
                    <path d="M159.6455,186.587 L0.7235,186.587" id="Stroke-1900" stroke="#84BF41" stroke-width="14" stroke-linecap="round" stroke-linejoin="round" sketch:type="MSShapeGroup" mask="url(#mask-20)"></path>
                </g>
                <g id="Group-1905">
                    <mask id="mask-22" sketch:name="Clip 1904" fill="white">
                        <use xlink:href="#path-21"></use>
                    </mask>
                    <g id="Clip-1904"></g>
                    <path d="M159.6455,168.123 L0.7235,168.123" id="Stroke-1903" stroke="#84BF41" stroke-width="14" stroke-linecap="round" stroke-linejoin="round" sketch:type="MSShapeGroup" mask="url(#mask-22)"></path>
                </g>
                <g id="Group-1908">
                    <mask id="mask-24" sketch:name="Clip 1907" fill="white">
                        <use xlink:href="#path-23"></use>
                    </mask>
                    <g id="Clip-1907"></g>
                    <path d="M159.6455,149.659 L0.7235,149.659" id="Stroke-1906" stroke="#84BF41" stroke-width="14" stroke-linecap="round" stroke-linejoin="round" sketch:type="MSShapeGroup" mask="url(#mask-24)"></path>
                </g>
            </g>
            <g id="Group-1962">
                <g id="Group-1912">
                    <mask id="mask-26" sketch:name="Clip 1911" fill="white">
                        <use xlink:href="#path-25"></use>
                    </mask>
                    <g id="Clip-1911"></g>
                    <path d="M285.98,214.555 L285.922,214.555 L228.732,132.798 L182.845,132.798 L125.655,214.555 L125.57,214.555 L125.57,325.699 L125.57,466.222 C125.57,503.718 156.249,534.397 193.745,534.397 L217.891,534.397 C255.387,534.397 286.066,503.718 286.066,466.222 L286.066,325.699 C286.066,307.912 285.98,214.555 285.98,214.555 L285.98,214.555 Z" id="Stroke-1910" stroke="#155E36" stroke-width="14" stroke-linecap="round" stroke-linejoin="round" sketch:type="MSShapeGroup" mask="url(#mask-26)"></path>
                </g>
                <g id="Group-1915">
                    <mask id="mask-28" sketch:name="Clip 1914" fill="white">
                        <use xlink:href="#path-27"></use>
                    </mask>
                    <g id="Clip-1914"></g>
                    <path d="M207.7678,387.695 L164.6738,430.789 L207.7678,473.883 L250.8618,430.789 L207.7678,387.695 L207.7678,387.695 Z" id="Stroke-1913" stroke="#84BF41" stroke-width="10" stroke-linejoin="round" sketch:type="MSShapeGroup" mask="url(#mask-28)"></path>
                </g>
                <g id="Group-1918">
                    <mask id="mask-30" sketch:name="Clip 1917" fill="white">
                        <use xlink:href="#path-29"></use>
                    </mask>
                    <g id="Clip-1917"></g>
                    <path d="M224.4449,431.4442 L220.8789,424.9322 L217.1189,418.4192 L214.5389,422.8882 L212.6289,419.4002 L207.4519,410.4332 L202.2749,419.4002 L200.3699,422.8912 L197.7889,418.4192 L194.0289,424.9322 L190.4749,431.4442 C190.2199,432.2112 190.0769,433.0282 190.0769,433.8802 C190.0769,438.1432 193.5319,441.5992 197.7949,441.5992 C199.1819,441.5992 200.4799,441.2282 201.6049,440.5872 C203.2849,441.6992 205.2959,442.3492 207.4609,442.3492 C209.6249,442.3492 211.6359,441.6992 213.3149,440.5872 C214.4399,441.2282 215.7379,441.5992 217.1259,441.5992 C221.3879,441.5992 224.8439,438.1432 224.8439,433.8802 C224.8439,433.0282 224.6999,432.2112 224.4449,431.4442 L224.4449,431.4442 Z" id="Stroke-1916" stroke="#155E36" stroke-width="5" stroke-linecap="round" stroke-linejoin="round" sketch:type="MSShapeGroup" mask="url(#mask-30)"></path>
                </g>
                <g id="Group-1921">
                    <mask id="mask-32" sketch:name="Clip 1920" fill="white">
                        <use xlink:href="#path-31"></use>
                    </mask>
                    <g id="Clip-1920"></g>
                    <path d="M200.3286,449.4285 L214.5916,449.4285" id="Stroke-1919" stroke="#84BF41" stroke-width="5" stroke-linecap="round" sketch:type="MSShapeGroup" mask="url(#mask-32)"></path>
                </g>
                <g id="Group-1924">
                    <mask id="mask-34" sketch:name="Clip 1923" fill="white">
                        <use xlink:href="#path-33"></use>
                    </mask>
                    <g id="Clip-1923"></g>
                    <path d="M361.9167,100.777 L361.9167,81.514" id="Stroke-1922" stroke="#39AB47" stroke-width="14" stroke-linecap="round" sketch:type="MSShapeGroup" mask="url(#mask-34)"></path>
                </g>
                <g id="Group-1927">
                    <mask id="mask-36" sketch:name="Clip 1926" fill="white">
                        <use xlink:href="#path-35"></use>
                    </mask>
                    <g id="Clip-1926"></g>
                    <path d="M372.2141,100.777 L372.2141,81.514" id="Stroke-1925" stroke="#39AB47" stroke-width="14" stroke-linecap="round" sketch:type="MSShapeGroup" mask="url(#mask-36)"></path>
                </g>
                <g id="Group-1930">
                    <mask id="mask-38" sketch:name="Clip 1929" fill="white">
                        <use xlink:href="#path-37"></use>
                    </mask>
                    <g id="Clip-1929"></g>
                    <path d="M382.5115,100.777 L382.5115,81.514" id="Stroke-1928" stroke="#39AB47" stroke-width="14" stroke-linecap="round" sketch:type="MSShapeGroup" mask="url(#mask-38)"></path>
                </g>
                <g id="Group-1933">
                    <mask id="mask-40" sketch:name="Clip 1932" fill="white">
                        <use xlink:href="#path-39"></use>
                    </mask>
                    <g id="Clip-1932"></g>
                    <path d="M392.8087,100.777 L392.8087,81.514" id="Stroke-1931" stroke="#39AB47" stroke-width="14" stroke-linecap="round" sketch:type="MSShapeGroup" mask="url(#mask-40)"></path>
                </g>
                <g id="Group-1936">
                    <mask id="mask-42" sketch:name="Clip 1935" fill="white">
                        <use xlink:href="#path-41"></use>
                    </mask>
                    <g id="Clip-1935"></g>
                    <path d="M403.1061,100.777 L403.1061,81.514" id="Stroke-1934" stroke="#39AB47" stroke-width="14" stroke-linecap="round" sketch:type="MSShapeGroup" mask="url(#mask-42)"></path>
                </g>
                <g id="Group-1939">
                    <mask id="mask-44" sketch:name="Clip 1938" fill="white">
                        <use xlink:href="#path-43"></use>
                    </mask>
                    <g id="Clip-1938"></g>
                    <path d="M413.4033,100.777 L413.4033,81.514" id="Stroke-1937" stroke="#39AB47" stroke-width="14" stroke-linecap="round" sketch:type="MSShapeGroup" mask="url(#mask-44)"></path>
                </g>
                <g id="Group-1942">
                    <mask id="mask-46" sketch:name="Clip 1941" fill="white">
                        <use xlink:href="#path-45"></use>
                    </mask>
                    <g id="Clip-1941"></g>
                    <path d="M423.7007,100.777 L423.7007,81.514" id="Stroke-1940" stroke="#39AB47" stroke-width="14" stroke-linecap="round" sketch:type="MSShapeGroup" mask="url(#mask-46)"></path>
                </g>
                <g id="Group-1945">
                    <mask id="mask-48" sketch:name="Clip 1944" fill="white">
                        <use xlink:href="#path-47"></use>
                    </mask>
                    <g id="Clip-1944"></g>
                    <path d="M433.9979,100.777 L433.9979,81.514" id="Stroke-1943" stroke="#39AB47" stroke-width="14" stroke-linecap="round" sketch:type="MSShapeGroup" mask="url(#mask-48)"></path>
                </g>
                <g id="Group-1948">
                    <mask id="mask-50" sketch:name="Clip 1947" fill="white">
                        <use xlink:href="#path-49"></use>
                    </mask>
                    <g id="Clip-1947"></g>
                    <path d="M445.8145,103.207 L349.7495,103.207 C348.5465,103.207 347.5615,102.223 347.5615,101.02 L347.5615,80.539 C347.5615,79.336 348.5465,78.351 349.7495,78.351 L445.8145,78.351 C447.0175,78.351 448.0025,79.336 448.0025,80.539 L448.0025,101.02 C448.0025,102.223 447.0175,103.207 445.8145,103.207 L445.8145,103.207 Z" id="Stroke-1946" stroke="#0C5D35" stroke-width="14" sketch:type="MSShapeGroup" mask="url(#mask-50)"></path>
                </g>
                <mask id="mask-52" sketch:name="Clip 1950" fill="white">
                    <use xlink:href="#path-51"></use>
                </mask>
                <g id="Clip-1950"></g>
                <path d="M397.5438,122.462 L397.5408,122.44 C397.5408,122.44 397.4428,122.444 397.3038,122.45 C397.1628,122.444 397.0658,122.44 397.0658,122.44 L397.0628,122.461 C386.8508,123.024 205.8268,138.476 302.3778,534.3327 L408.9028,534.3327 L409.3758,534.3327 L493.5398,534.3327 C590.1038,138.423 407.7838,123.02 397.5438,122.462" id="Fill-1949" fill="#FFFFFF" sketch:type="MSShapeGroup" mask="url(#mask-52)"></path>
                <path d="M397.5438,122.462 L397.5408,122.44 C397.5408,122.44 397.4428,122.444 397.3038,122.45 C397.1628,122.444 397.0658,122.44 397.0658,122.44 L397.0628,122.461 C386.8508,123.024 205.8268,138.476 302.3778,534.333 L408.9028,534.333 L409.3758,534.333 L493.5398,534.333 C590.1038,138.423 407.7838,123.02 397.5438,122.462 L397.5438,122.462 Z" id="Stroke-1951" stroke="#155E36" stroke-width="14" stroke-linecap="round" stroke-linejoin="round" sketch:type="MSShapeGroup" mask="url(#mask-52)"></path>
                <path d="M475.043,228.454 C488.941,266.386 489.461,301.073 476.203,305.931 C462.945,310.789 440.931,283.977 427.033,246.045 C413.134,208.114 412.615,173.426 425.873,168.568 C439.13,163.711 461.145,190.522 475.043,228.454 L475.043,228.454 Z" id="Stroke-1952" stroke="#84BF41" stroke-width="14" fill="#FFFFFF" sketch:type="MSShapeGroup" mask="url(#mask-52)"></path>
                <path d="M433.423,103.029 L362.195,103.029 L362.195,129.305 L433.423,129.305 L433.423,103.029 Z" id="Fill-1953" fill="#FFFFFF" sketch:type="MSShapeGroup" mask="url(#mask-52)"></path>
                <path d="M433.4227,103.029 L362.1947,103.029 L362.1947,129.305 L433.4227,129.305 L433.4227,103.029 Z" id="Stroke-1954" stroke="#0C5D35" stroke-width="14" sketch:type="MSShapeGroup" mask="url(#mask-52)"></path>
                <path d="M404.807,429.3686 C404.795,429.3466 404.504,428.8186 404.497,428.0936 C404.492,427.4226 404.735,426.4496 405.928,425.6286 L405.937,425.6216 C405.98,425.5946 407.004,424.9316 406.436,423.7736" id="Stroke-1955" stroke="#84BF41" stroke-width="5" stroke-linecap="round" sketch:type="MSShapeGroup" mask="url(#mask-52)"></path>
                <path d="M398.7494,427.0204 L395.8234,427.8044 L398.2894,433.0924 L400.7704,431.3544 L400.7594,431.3304 C400.8394,431.3034 400.9204,431.2834 400.9994,431.2474 L409.5454,427.2614 C410.7424,426.7034 411.2654,425.2674 410.7064,424.0694 C410.1484,422.8724 408.7124,422.3504 407.5154,422.9084 L398.9684,426.8944 C398.8904,426.9304 398.8234,426.9804 398.7514,427.0234 L398.7494,427.0204 L398.7494,427.0204 Z" id="Stroke-1956" stroke="#0C5D35" stroke-width="5" stroke-linecap="round" stroke-linejoin="round" sketch:type="MSShapeGroup" mask="url(#mask-52)"></path>
                <path d="M408.0015,444.6038 L398.2975,444.6038 C397.9085,446.3418 396.3615,447.6428 394.5065,447.6428 C392.6525,447.6428 391.1065,446.3418 390.7175,444.6038 L381.1365,444.6038 L381.1365,444.7248" id="Stroke-1957" stroke="#39AB47" stroke-width="5" stroke-linecap="round" stroke-linejoin="round" sketch:type="MSShapeGroup" mask="url(#mask-52)"></path>
                <path d="M400.6682,439.6212 C399.3932,439.6212 398.3622,440.6532 398.3622,441.9282" id="Stroke-1958" stroke="#84BF41" stroke-width="5" stroke-linecap="round" sketch:type="MSShapeGroup" mask="url(#mask-52)"></path>
                <path d="M388.3953,439.6212 C389.6703,439.6212 390.7013,440.6532 390.7013,441.9282" id="Stroke-1959" stroke="#84BF41" stroke-width="5" stroke-linecap="round" sketch:type="MSShapeGroup" mask="url(#mask-52)"></path>
                <path d="M394.65,435.0386 C394.619,435.0006 394.558,435.0006 394.527,435.0386 C394.266,435.3766 393.29,436.6986 393.29,437.3206 C393.29,438.0346 393.874,438.6186 394.589,438.6186 C395.303,438.6186 395.887,438.0346 395.887,437.3206 C395.887,436.6986 394.911,435.3766 394.65,435.0386 L394.65,435.0386 Z" id="Stroke-1960" stroke="#0C5D35" stroke-width="5" stroke-linecap="round" stroke-linejoin="round" sketch:type="MSShapeGroup" mask="url(#mask-52)"></path>
                <path d="M396.3165,392.336 L353.2225,435.43 L396.3165,478.524 L439.4105,435.43 L396.3165,392.336 L396.3165,392.336 Z" id="Stroke-1961" stroke="#84BF41" stroke-width="10" stroke-linejoin="round" sketch:type="MSShapeGroup" mask="url(#mask-52)"></path>
            </g>
            <path d="M553.3496,608.5282 L54.5066,608.5282 C24.5766,608.5282 0.0876,584.0392 0.0876,554.1092 L0.0876,55.2662 C0.0876,25.3352 24.5766,0.8462 54.5066,0.8462 L553.3496,0.8462 C583.2816,0.8462 607.7696,25.3352 607.7696,55.2662 L607.7696,554.1092 C607.7696,584.0392 583.2816,608.5282 553.3496,608.5282 L553.3496,608.5282 Z" id="Stroke-1963" stroke="#254F3D" stroke-width="14.24" stroke-linejoin="round" sketch:type="MSShapeGroup"></path>
        </g>
    </g>
</svg>