<?xml version="1.0" encoding="UTF-8" standalone="no"?>
<svg viewBox="0 0 623 623" version="1.1" xmlns="http://www.w3.org/2000/svg" xmlns:xlink="http://www.w3.org/1999/xlink" xmlns:sketch="http://www.bohemiancoding.com/sketch/ns">
    <!-- Generator: Sketch 3.4.1 (15681) - http://www.bohemiancoding.com/sketch -->
    <title>Encombrants</title>
    <desc>Created with Sketch.</desc>
    <defs>
        <path id="path-1" d="M54.507,0.847 C24.576,0.847 0.088,25.336 0.088,55.266 L0.088,554.109 C0.088,584.039 24.576,608.528 54.507,608.528 L553.349,608.528 C583.281,608.528 607.77,584.039 607.77,554.109 L607.77,55.266 C607.77,25.336 583.281,0.847 553.349,0.847 L54.507,0.847"></path>
        <path id="path-3" d="M54.507,0.847 C24.576,0.847 0.088,25.336 0.088,55.266 L0.088,554.109 C0.088,584.039 24.576,608.528 54.507,608.528 L553.349,608.528 C583.281,608.528 607.77,584.039 607.77,554.109 L607.77,55.266 C607.77,25.336 583.281,0.847 553.349,0.847 L54.507,0.847"></path>
        <path id="path-5" d="M54.507,0.847 C24.576,0.847 0.088,25.336 0.088,55.266 L0.088,554.109 C0.088,584.039 24.576,608.528 54.507,608.528 L553.349,608.528 C583.281,608.528 607.77,584.039 607.77,554.109 L607.77,55.266 C607.77,25.336 583.281,0.847 553.349,0.847 L54.507,0.847"></path>
        <path id="path-7" d="M54.507,0.847 C24.576,0.847 0.088,25.336 0.088,55.266 L0.088,554.109 C0.088,584.039 24.576,608.528 54.507,608.528 L553.349,608.528 C583.281,608.528 607.77,584.039 607.77,554.109 L607.77,55.266 C607.77,25.336 583.281,0.847 553.349,0.847 L54.507,0.847"></path>
        <path id="path-9" d="M54.507,0.847 C24.576,0.847 0.088,25.336 0.088,55.266 L0.088,554.109 C0.088,584.039 24.576,608.528 54.507,608.528 L553.349,608.528 C583.281,608.528 607.77,584.039 607.77,554.109 L607.77,55.266 C607.77,25.336 583.281,0.847 553.349,0.847 L54.507,0.847"></path>
        <path id="path-11" d="M54.507,0.847 C24.576,0.847 0.088,25.336 0.088,55.266 L0.088,554.109 C0.088,584.039 24.576,608.528 54.507,608.528 L553.349,608.528 C583.281,608.528 607.77,584.039 607.77,554.109 L607.77,55.266 C607.77,25.336 583.281,0.847 553.349,0.847 L54.507,0.847 L54.507,0.847 Z"></path>
        <path id="path-13" d="M54.507,0.847 C24.576,0.847 0.088,25.336 0.088,55.266 L0.088,554.109 C0.088,584.039 24.576,608.528 54.507,608.528 L553.349,608.528 C583.281,608.528 607.77,584.039 607.77,554.109 L607.77,55.266 C607.77,25.336 583.281,0.847 553.349,0.847 L54.507,0.847 L54.507,0.847 Z"></path>
        <path id="path-15" d="M54.507,0.847 C24.576,0.847 0.088,25.336 0.088,55.266 L0.088,554.109 C0.088,584.039 24.576,608.528 54.507,608.528 L553.349,608.528 C583.281,608.528 607.77,584.039 607.77,554.109 L607.77,55.266 C607.77,25.336 583.281,0.847 553.349,0.847 L54.507,0.847"></path>
        <path id="path-17" d="M54.507,0.847 C24.576,0.847 0.088,25.336 0.088,55.266 L0.088,554.109 C0.088,584.039 24.576,608.528 54.507,608.528 L553.349,608.528 C583.281,608.528 607.77,584.039 607.77,554.109 L607.77,55.266 C607.77,25.336 583.281,0.847 553.349,0.847 L54.507,0.847"></path>
        <path id="path-19" d="M54.507,0.847 C24.576,0.847 0.088,25.336 0.088,55.266 L0.088,554.109 C0.088,584.039 24.576,608.528 54.507,608.528 L553.349,608.528 C583.281,608.528 607.77,584.039 607.77,554.109 L607.77,55.266 C607.77,25.336 583.281,0.847 553.349,0.847 L54.507,0.847"></path>
        <path id="path-21" d="M54.507,0.847 C24.576,0.847 0.088,25.336 0.088,55.266 L0.088,554.109 C0.088,584.039 24.576,608.528 54.507,608.528 L553.349,608.528 C583.281,608.528 607.77,584.039 607.77,554.109 L607.77,55.266 C607.77,25.336 583.281,0.847 553.349,0.847 L54.507,0.847"></path>
        <path id="path-23" d="M34.638,241.758 L192.881,241.114 L206.128,1.259 L0.473,0.729 L34.638,241.758"></path>
        <path id="path-25" d="M34.638,241.758 L192.881,241.114 L206.128,1.259 L0.473,0.729 L34.638,241.758"></path>
        <path id="path-27" d="M34.638,241.758 L192.881,241.114 L206.128,1.259 L0.473,0.729 L34.638,241.758"></path>
        <path id="path-29" d="M34.638,241.758 L192.881,241.114 L206.128,1.259 L0.473,0.729 L34.638,241.758"></path>
        <path id="path-31" d="M34.638,241.758 L192.881,241.114 L206.128,1.259 L0.473,0.729 L34.638,241.758"></path>
        <path id="path-33" d="M34.638,241.758 L192.881,241.114 L206.128,1.259 L0.473,0.729 L34.638,241.758"></path>
        <path id="path-35" d="M34.638,241.758 L192.881,241.114 L206.128,1.259 L0.473,0.729 L34.638,241.758"></path>
        <path id="path-37" d="M34.638,241.758 L192.881,241.114 L206.128,1.259 L0.473,0.729 L34.638,241.758"></path>
        <path id="path-39" d="M34.638,241.758 L192.881,241.114 L206.128,1.259 L0.473,0.729 L34.638,241.758"></path>
        <path id="path-41" d="M34.638,241.758 L192.881,241.114 L206.128,1.259 L0.473,0.729 L34.638,241.758"></path>
        <path id="path-43" d="M34.638,241.758 L192.881,241.114 L206.128,1.259 L0.473,0.729 L34.638,241.758"></path>
        <path id="path-45" d="M34.638,241.758 L192.881,241.114 L206.128,1.259 L0.473,0.729 L34.638,241.758"></path>
        <path id="path-47" d="M34.638,241.758 L192.881,241.114 L206.128,1.259 L0.473,0.729 L34.638,241.758"></path>
        <path id="path-49" d="M34.638,241.758 L192.881,241.114 L206.128,1.259 L0.473,0.729 L34.638,241.758"></path>
        <path id="path-51" d="M34.638,241.758 L192.881,241.114 L206.128,1.259 L0.473,0.729 L34.638,241.758"></path>
        <path id="path-53" d="M34.638,241.758 L192.881,241.114 L206.128,1.259 L0.473,0.729 L34.638,241.758"></path>
        <path id="path-55" d="M34.638,241.758 L192.881,241.114 L206.128,1.259 L0.473,0.729 L34.638,241.758"></path>
        <path id="path-57" d="M34.638,241.758 L192.881,241.114 L206.128,1.259 L0.473,0.729 L34.638,241.758"></path>
        <path id="path-59" d="M34.638,241.758 L192.881,241.114 L206.128,1.259 L0.473,0.729 L34.638,241.758"></path>
        <path id="path-61" d="M34.638,241.758 L192.881,241.114 L206.128,1.259 L0.473,0.729 L34.638,241.758"></path>
        <path id="path-63" d="M34.638,241.758 L192.881,241.114 L206.128,1.259 L0.473,0.729 L34.638,241.758"></path>
        <path id="path-65" d="M34.638,241.758 L192.881,241.114 L206.128,1.259 L0.473,0.729 L34.638,241.758"></path>
    </defs>
    <g id="Page-1" stroke="none" stroke-width="1" fill="none" fill-rule="evenodd" sketch:type="MSPage">
        <g id="Encombrants" sketch:type="MSLayerGroup" transform="translate(8.000000, 7.000000)">
            <g id="Group-1129">
                <g id="Group-1097">
                    <mask id="mask-2" sketch:name="Clip 1096" fill="white">
                        <use xlink:href="#path-1"></use>
                    </mask>
                    <g id="Clip-1096"></g>
                    <path d="M240.7969,203.243 L240.7969,114.917 C240.7969,100.12 228.6899,88.014 213.8929,88.014 L162.9399,88.014" id="Stroke-1095" stroke="#0C5D35" stroke-width="14" stroke-linecap="round" sketch:type="MSShapeGroup" mask="url(#mask-2)"></path>
                </g>
                <g id="Group-1100">
                    <mask id="mask-4" sketch:name="Clip 1099" fill="white">
                        <use xlink:href="#path-3"></use>
                    </mask>
                    <g id="Clip-1099"></g>
                    <path d="M366.1193,216.632 L289.0043,139.517" id="Stroke-1098" stroke="#84BF41" stroke-width="14" stroke-linecap="round" sketch:type="MSShapeGroup" mask="url(#mask-4)"></path>
                </g>
                <g id="Group-1103">
                    <mask id="mask-6" sketch:name="Clip 1102" fill="white">
                        <use xlink:href="#path-5"></use>
                    </mask>
                    <g id="Clip-1102"></g>
                    <path d="M366.1193,216.632 L366.3173,106.296" id="Stroke-1101" stroke="#84BF41" stroke-width="14" stroke-linecap="round" sketch:type="MSShapeGroup" mask="url(#mask-6)"></path>
                </g>
                <g id="Group-1106">
                    <mask id="mask-8" sketch:name="Clip 1105" fill="white">
                        <use xlink:href="#path-7"></use>
                    </mask>
                    <g id="Clip-1105"></g>
                    <path d="M363.0452,401.126 L441.2042,323.247" id="Stroke-1104" stroke="#84BF41" stroke-width="14" stroke-linecap="round" sketch:type="MSShapeGroup" mask="url(#mask-8)"></path>
                </g>
                <g id="Group-1109">
                    <mask id="mask-10" sketch:name="Clip 1108" fill="white">
                        <use xlink:href="#path-9"></use>
                    </mask>
                    <g id="Clip-1108"></g>
                    <path d="M484.2499,399.856 L406.3709,321.697" id="Stroke-1107" stroke="#84BF41" stroke-width="14" stroke-linecap="round" sketch:type="MSShapeGroup" mask="url(#mask-10)"></path>
                </g>
                <g id="Group-1112">
                    <mask id="mask-12" sketch:name="Clip 1111" fill="white">
                        <use xlink:href="#path-11"></use>
                    </mask>
                    <g id="Clip-1111"></g>
                    <path d="M254.6887,217.82 C254.0437,222.572 251.2357,320.362 367.1557,320.362 L462.2017,320.362 C578.1207,320.362 575.3137,222.572 574.6687,217.82 L254.6887,217.82 L254.6887,217.82 Z" id="Stroke-1110" stroke="#0C5D35" stroke-width="14" stroke-linecap="round" stroke-linejoin="round" fill="#FFFFFF" sketch:type="MSShapeGroup" mask="url(#mask-12)"></path>
                </g>
                <g id="Group-1115">
                    <mask id="mask-14" sketch:name="Clip 1114" fill="white">
                        <use xlink:href="#path-13"></use>
                    </mask>
                    <g id="Clip-1114"></g>
                    <path d="M446.4658,137.472 C426.1058,117.112 397.9788,104.519 366.9098,104.519 C304.7738,104.519 254.4018,154.891 254.4018,217.028 L366.9098,217.028 L446.4658,137.472 L446.4658,137.472 Z" id="Stroke-1113" stroke="#0C5D35" stroke-width="14" stroke-linecap="round" stroke-linejoin="round" fill="#FFFFFF" sketch:type="MSShapeGroup" mask="url(#mask-14)"></path>
                </g>
                <g id="Group-1118">
                    <mask id="mask-16" sketch:name="Clip 1117" fill="white">
                        <use xlink:href="#path-15"></use>
                    </mask>
                    <g id="Clip-1117"></g>
                    <path d="M403.1149,295.922 L427.4359,295.922" id="Stroke-1116" stroke="#39AB47" stroke-width="10" stroke-linecap="round" sketch:type="MSShapeGroup" mask="url(#mask-16)"></path>
                </g>
                <g id="Group-1121">
                    <mask id="mask-18" sketch:name="Clip 1120" fill="white">
                        <use xlink:href="#path-17"></use>
                    </mask>
                    <g id="Clip-1120"></g>
                    <path d="M349.1147,295.922 L373.4357,295.922" id="Stroke-1119" stroke="#39AB47" stroke-width="10" stroke-linecap="round" sketch:type="MSShapeGroup" mask="url(#mask-18)"></path>
                </g>
                <g id="Group-1124">
                    <mask id="mask-20" sketch:name="Clip 1123" fill="white">
                        <use xlink:href="#path-19"></use>
                    </mask>
                    <g id="Clip-1123"></g>
                    <path d="M464.0054,295.922 L488.3264,295.922" id="Stroke-1122" stroke="#39AB47" stroke-width="10" stroke-linecap="round" sketch:type="MSShapeGroup" mask="url(#mask-20)"></path>
                </g>
                <mask id="mask-22" sketch:name="Clip 1126" fill="white">
                    <use xlink:href="#path-21"></use>
                </mask>
                <g id="Clip-1126"></g>
                <path d="M510.2648,400.324 C510.2648,385.909 498.5788,374.224 484.1648,374.224 C469.7498,374.224 458.0638,385.909 458.0638,400.324 C458.0638,414.7391 469.7498,426.4241 484.1648,426.4241 C498.5788,426.4241 510.2648,414.7391 510.2648,400.324" id="Fill-1125" fill="#FFFFFF" sketch:type="MSShapeGroup" mask="url(#mask-22)"></path>
                <path d="M510.2648,400.324 C510.2648,385.909 498.5788,374.224 484.1648,374.224 C469.7498,374.224 458.0638,385.909 458.0638,400.324 C458.0638,414.739 469.7498,426.424 484.1648,426.424 C498.5788,426.424 510.2648,414.739 510.2648,400.324 L510.2648,400.324 Z" id="Stroke-1127" stroke="#0C5D35" stroke-width="14" stroke-linecap="round" sketch:type="MSShapeGroup" mask="url(#mask-22)"></path>
                <path d="M306.8807,438.1143 L148.6387,438.7583 L114.4727,197.728 L320.1277,198.258 L306.8807,438.1143 Z" id="Fill-1128" fill="#FFFFFF" sketch:type="MSShapeGroup" mask="url(#mask-22)"></path>
                <path d="M358.850734,422.798819 L439.131038,422.798819 L163.98018,519.224747 L59.3462784,519.224747 L358.850734,422.798819 Z" id="Rectangle-2" stroke="#979797" stroke-width="3" fill="#FFFFFF" sketch:type="MSShapeGroup" mask="url(#mask-22)"></path>
            </g>
            <g id="Group-1218" transform="translate(114.000000, 197.000000)">
                <g id="Group-1133">
                    <mask id="mask-24" sketch:name="Clip 1131" fill="white">
                        <use xlink:href="#path-23"></use>
                    </mask>
                    <g id="Clip-1131"></g>
                    <path d="M-116.9525,139.186 L132.5245,-132.858" id="Fill-1130" fill="#FFFFFF" sketch:type="MSShapeGroup" mask="url(#mask-24)"></path>
                    <path d="M-116.9525,139.186 L132.5245,-132.858" id="Stroke-1132" stroke="#84BF41" stroke-width="10" stroke-linecap="round" stroke-linejoin="round" sketch:type="MSShapeGroup" mask="url(#mask-24)"></path>
                </g>
                <g id="Group-1137">
                    <mask id="mask-26" sketch:name="Clip 1135" fill="white">
                        <use xlink:href="#path-25"></use>
                    </mask>
                    <g id="Clip-1135"></g>
                    <path d="M-104.5869,150.526 L144.8901,-121.518" id="Fill-1134" fill="#FFFFFF" sketch:type="MSShapeGroup" mask="url(#mask-26)"></path>
                    <path d="M-104.5869,150.526 L144.8901,-121.518" id="Stroke-1136" stroke="#84BF41" stroke-width="10" stroke-linecap="round" stroke-linejoin="round" sketch:type="MSShapeGroup" mask="url(#mask-26)"></path>
                </g>
                <g id="Group-1141">
                    <mask id="mask-28" sketch:name="Clip 1139" fill="white">
                        <use xlink:href="#path-27"></use>
                    </mask>
                    <g id="Clip-1139"></g>
                    <path d="M-79.8557,173.206 L169.6213,-98.838" id="Fill-1138" fill="#FFFFFF" sketch:type="MSShapeGroup" mask="url(#mask-28)"></path>
                    <path d="M-79.8557,173.206 L169.6213,-98.838" id="Stroke-1140" stroke="#84BF41" stroke-width="10" stroke-linecap="round" stroke-linejoin="round" sketch:type="MSShapeGroup" mask="url(#mask-28)"></path>
                </g>
                <g id="Group-1145">
                    <mask id="mask-30" sketch:name="Clip 1143" fill="white">
                        <use xlink:href="#path-29"></use>
                    </mask>
                    <g id="Clip-1143"></g>
                    <path d="M-55.1244,195.885 L194.3526,-76.159" id="Fill-1142" fill="#FFFFFF" sketch:type="MSShapeGroup" mask="url(#mask-30)"></path>
                    <path d="M-55.1244,195.885 L194.3526,-76.159" id="Stroke-1144" stroke="#84BF41" stroke-width="10" stroke-linecap="round" stroke-linejoin="round" sketch:type="MSShapeGroup" mask="url(#mask-30)"></path>
                </g>
                <g id="Group-1149">
                    <mask id="mask-32" sketch:name="Clip 1147" fill="white">
                        <use xlink:href="#path-31"></use>
                    </mask>
                    <g id="Clip-1147"></g>
                    <path d="M-30.3931,218.565 L219.0839,-53.479" id="Fill-1146" fill="#FFFFFF" sketch:type="MSShapeGroup" mask="url(#mask-32)"></path>
                    <path d="M-30.3931,218.565 L219.0839,-53.479" id="Stroke-1148" stroke="#84BF41" stroke-width="10" stroke-linecap="round" stroke-linejoin="round" sketch:type="MSShapeGroup" mask="url(#mask-32)"></path>
                </g>
                <g id="Group-1153">
                    <mask id="mask-34" sketch:name="Clip 1151" fill="white">
                        <use xlink:href="#path-33"></use>
                    </mask>
                    <g id="Clip-1151"></g>
                    <path d="M-5.6617,241.2447 L243.8153,-30.7993" id="Fill-1150" fill="#FFFFFF" sketch:type="MSShapeGroup" mask="url(#mask-34)"></path>
                    <path d="M-5.6617,241.2447 L243.8153,-30.7993" id="Stroke-1152" stroke="#84BF41" stroke-width="10" stroke-linecap="round" stroke-linejoin="round" sketch:type="MSShapeGroup" mask="url(#mask-34)"></path>
                </g>
                <g id="Group-1157">
                    <mask id="mask-36" sketch:name="Clip 1155" fill="white">
                        <use xlink:href="#path-35"></use>
                    </mask>
                    <g id="Clip-1155"></g>
                    <path d="M19.0695,263.9244 L268.5465,-8.1196" id="Fill-1154" fill="#FFFFFF" sketch:type="MSShapeGroup" mask="url(#mask-36)"></path>
                    <path d="M19.0695,263.9244 L268.5465,-8.1196" id="Stroke-1156" stroke="#84BF41" stroke-width="10" stroke-linecap="round" stroke-linejoin="round" sketch:type="MSShapeGroup" mask="url(#mask-36)"></path>
                </g>
                <g id="Group-1161">
                    <mask id="mask-38" sketch:name="Clip 1159" fill="white">
                        <use xlink:href="#path-37"></use>
                    </mask>
                    <g id="Clip-1159"></g>
                    <path d="M43.8008,286.6041 L293.2778,14.5601" id="Fill-1158" fill="#FFFFFF" sketch:type="MSShapeGroup" mask="url(#mask-38)"></path>
                    <path d="M43.8008,286.6041 L293.2778,14.5601" id="Stroke-1160" stroke="#84BF41" stroke-width="10" stroke-linecap="round" stroke-linejoin="round" sketch:type="MSShapeGroup" mask="url(#mask-38)"></path>
                </g>
                <g id="Group-1165">
                    <mask id="mask-40" sketch:name="Clip 1163" fill="white">
                        <use xlink:href="#path-39"></use>
                    </mask>
                    <g id="Clip-1163"></g>
                    <path d="M68.532,309.2838 L318.009,37.2398" id="Fill-1162" fill="#FFFFFF" sketch:type="MSShapeGroup" mask="url(#mask-40)"></path>
                    <path d="M68.532,309.2838 L318.009,37.2398" id="Stroke-1164" stroke="#84BF41" stroke-width="10" stroke-linecap="round" stroke-linejoin="round" sketch:type="MSShapeGroup" mask="url(#mask-40)"></path>
                </g>
                <g id="Group-1169">
                    <mask id="mask-42" sketch:name="Clip 1167" fill="white">
                        <use xlink:href="#path-41"></use>
                    </mask>
                    <g id="Clip-1167"></g>
                    <path d="M93.2634,331.9635 L342.7404,59.9195" id="Fill-1166" fill="#FFFFFF" sketch:type="MSShapeGroup" mask="url(#mask-42)"></path>
                    <path d="M93.2634,331.9635 L342.7404,59.9195" id="Stroke-1168" stroke="#84BF41" stroke-width="10" stroke-linecap="round" stroke-linejoin="round" sketch:type="MSShapeGroup" mask="url(#mask-42)"></path>
                </g>
                <g id="Group-1173">
                    <mask id="mask-44" sketch:name="Clip 1171" fill="white">
                        <use xlink:href="#path-43"></use>
                    </mask>
                    <g id="Clip-1171"></g>
                    <path d="M105.629,343.3033 L355.106,71.2593" id="Fill-1170" fill="#FFFFFF" sketch:type="MSShapeGroup" mask="url(#mask-44)"></path>
                    <path d="M105.629,343.3033 L355.106,71.2593" id="Stroke-1172" stroke="#84BF41" stroke-width="10" stroke-linecap="round" stroke-linejoin="round" sketch:type="MSShapeGroup" mask="url(#mask-44)"></path>
                </g>
                <g id="Group-1177">
                    <mask id="mask-46" sketch:name="Clip 1175" fill="white">
                        <use xlink:href="#path-45"></use>
                    </mask>
                    <g id="Clip-1175"></g>
                    <path d="M357.1571,118.67 L85.1131,-130.807" id="Fill-1174" fill="#FFFFFF" sketch:type="MSShapeGroup" mask="url(#mask-46)"></path>
                    <path d="M357.1571,118.67 L85.1131,-130.807" id="Stroke-1176" stroke="#84BF41" stroke-width="10" stroke-linecap="round" stroke-linejoin="round" sketch:type="MSShapeGroup" mask="url(#mask-46)"></path>
                </g>
                <g id="Group-1181">
                    <mask id="mask-48" sketch:name="Clip 1179" fill="white">
                        <use xlink:href="#path-47"></use>
                    </mask>
                    <g id="Clip-1179"></g>
                    <path d="M345.8174,131.036 L73.7734,-118.441" id="Fill-1178" fill="#FFFFFF" sketch:type="MSShapeGroup" mask="url(#mask-48)"></path>
                    <path d="M345.8174,131.036 L73.7734,-118.441" id="Stroke-1180" stroke="#84BF41" stroke-width="10" stroke-linecap="round" stroke-linejoin="round" sketch:type="MSShapeGroup" mask="url(#mask-48)"></path>
                </g>
                <g id="Group-1185">
                    <mask id="mask-50" sketch:name="Clip 1183" fill="white">
                        <use xlink:href="#path-49"></use>
                    </mask>
                    <g id="Clip-1183"></g>
                    <path d="M323.1377,155.767 L51.0937,-93.71" id="Fill-1182" fill="#FFFFFF" sketch:type="MSShapeGroup" mask="url(#mask-50)"></path>
                    <path d="M323.1377,155.767 L51.0937,-93.71" id="Stroke-1184" stroke="#84BF41" stroke-width="10" stroke-linecap="round" stroke-linejoin="round" sketch:type="MSShapeGroup" mask="url(#mask-50)"></path>
                </g>
                <g id="Group-1189">
                    <mask id="mask-52" sketch:name="Clip 1187" fill="white">
                        <use xlink:href="#path-51"></use>
                    </mask>
                    <g id="Clip-1187"></g>
                    <path d="M300.4579,180.498 L28.4139,-68.979" id="Fill-1186" fill="#FFFFFF" sketch:type="MSShapeGroup" mask="url(#mask-52)"></path>
                    <path d="M300.4579,180.498 L28.4139,-68.979" id="Stroke-1188" stroke="#84BF41" stroke-width="10" stroke-linecap="round" stroke-linejoin="round" sketch:type="MSShapeGroup" mask="url(#mask-52)"></path>
                </g>
                <g id="Group-1193">
                    <mask id="mask-54" sketch:name="Clip 1191" fill="white">
                        <use xlink:href="#path-53"></use>
                    </mask>
                    <g id="Clip-1191"></g>
                    <path d="M277.7783,205.23 L5.7343,-44.247" id="Fill-1190" fill="#FFFFFF" sketch:type="MSShapeGroup" mask="url(#mask-54)"></path>
                    <path d="M277.7783,205.23 L5.7343,-44.247" id="Stroke-1192" stroke="#84BF41" stroke-width="10" stroke-linecap="round" stroke-linejoin="round" sketch:type="MSShapeGroup" mask="url(#mask-54)"></path>
                </g>
                <g id="Group-1197">
                    <mask id="mask-56" sketch:name="Clip 1195" fill="white">
                        <use xlink:href="#path-55"></use>
                    </mask>
                    <g id="Clip-1195"></g>
                    <path d="M255.0985,229.961 L-16.9455,-19.516" id="Fill-1194" fill="#FFFFFF" sketch:type="MSShapeGroup" mask="url(#mask-56)"></path>
                    <path d="M255.0985,229.961 L-16.9455,-19.516" id="Stroke-1196" stroke="#84BF41" stroke-width="10" stroke-linecap="round" stroke-linejoin="round" sketch:type="MSShapeGroup" mask="url(#mask-56)"></path>
                </g>
                <g id="Group-1201">
                    <mask id="mask-58" sketch:name="Clip 1199" fill="white">
                        <use xlink:href="#path-57"></use>
                    </mask>
                    <g id="Clip-1199"></g>
                    <path d="M232.4188,254.6923 L-39.6252,5.2153" id="Fill-1198" fill="#FFFFFF" sketch:type="MSShapeGroup" mask="url(#mask-58)"></path>
                    <path d="M232.4188,254.6923 L-39.6252,5.2153" id="Stroke-1200" stroke="#84BF41" stroke-width="10" stroke-linecap="round" stroke-linejoin="round" sketch:type="MSShapeGroup" mask="url(#mask-58)"></path>
                </g>
                <g id="Group-1205">
                    <mask id="mask-60" sketch:name="Clip 1203" fill="white">
                        <use xlink:href="#path-59"></use>
                    </mask>
                    <g id="Clip-1203"></g>
                    <path d="M209.7391,279.4236 L-62.3049,29.9466" id="Fill-1202" fill="#FFFFFF" sketch:type="MSShapeGroup" mask="url(#mask-60)"></path>
                    <path d="M209.7391,279.4236 L-62.3049,29.9466" id="Stroke-1204" stroke="#84BF41" stroke-width="10" stroke-linecap="round" stroke-linejoin="round" sketch:type="MSShapeGroup" mask="url(#mask-60)"></path>
                </g>
                <g id="Group-1209">
                    <mask id="mask-62" sketch:name="Clip 1207" fill="white">
                        <use xlink:href="#path-61"></use>
                    </mask>
                    <g id="Clip-1207"></g>
                    <path d="M187.0594,304.1548 L-84.9846,54.6778" id="Fill-1206" fill="#FFFFFF" sketch:type="MSShapeGroup" mask="url(#mask-62)"></path>
                    <path d="M187.0594,304.1548 L-84.9846,54.6778" id="Stroke-1208" stroke="#84BF41" stroke-width="10" stroke-linecap="round" stroke-linejoin="round" sketch:type="MSShapeGroup" mask="url(#mask-62)"></path>
                </g>
                <g id="Group-1213">
                    <mask id="mask-64" sketch:name="Clip 1211" fill="white">
                        <use xlink:href="#path-63"></use>
                    </mask>
                    <g id="Clip-1211"></g>
                    <path d="M164.3798,328.8861 L-107.6642,79.4091" id="Fill-1210" fill="#FFFFFF" sketch:type="MSShapeGroup" mask="url(#mask-64)"></path>
                    <path d="M164.3798,328.8861 L-107.6642,79.4091" id="Stroke-1212" stroke="#84BF41" stroke-width="10" stroke-linecap="round" stroke-linejoin="round" sketch:type="MSShapeGroup" mask="url(#mask-64)"></path>
                </g>
                <g id="Group-1217">
                    <mask id="mask-66" sketch:name="Clip 1215" fill="white">
                        <use xlink:href="#path-65"></use>
                    </mask>
                    <g id="Clip-1215"></g>
                    <path d="M153.0399,341.2517 L-119.0041,91.7747" id="Fill-1214" fill="#FFFFFF" sketch:type="MSShapeGroup" mask="url(#mask-66)"></path>
                    <path d="M153.0399,341.2517 L-119.0041,91.7747" id="Stroke-1216" stroke="#84BF41" stroke-width="10" stroke-linecap="round" stroke-linejoin="round" sketch:type="MSShapeGroup" mask="url(#mask-66)"></path>
                </g>
            </g>
            <path d="M306.8807,438.1143 L148.6387,438.7583 L114.4727,197.7283 L320.1277,198.2583 L306.8807,438.1143 L306.8807,438.1143 Z" id="Stroke-1219" stroke="#0C5D35" stroke-width="14" stroke-linecap="round" stroke-linejoin="round" sketch:type="MSShapeGroup"></path>
            <path d="M113.9803,197.728 C113.9803,197.728 109.9123,484.4863 170.4363,200.035 C170.4363,200.035 112.4003,197.796 113.9803,197.728" id="Fill-1222" fill="#FFFFFF" sketch:type="MSShapeGroup"></path>
            <path d="M113.9803,197.728 C113.9803,197.728 109.9123,484.486 170.4363,200.035 C170.4363,200.035 112.4003,197.796 113.9803,197.728 L113.9803,197.728 Z" id="Stroke-1224" stroke="#0C5D35" stroke-width="14" stroke-linecap="round" stroke-linejoin="round" sketch:type="MSShapeGroup"></path>
            <path d="M129.4749,226.5 L129.2039,220.248" id="Stroke-1225" stroke="#39AB47" stroke-width="10" stroke-linecap="round" sketch:type="MSShapeGroup"></path>
            <path d="M144.5952,246.604 L144.3242,240.352" id="Stroke-1226" stroke="#39AB47" stroke-width="10" stroke-linecap="round" sketch:type="MSShapeGroup"></path>
            <path d="M133.9999,276.178 L133.7289,269.926" id="Stroke-1227" stroke="#39AB47" stroke-width="10" stroke-linecap="round" sketch:type="MSShapeGroup"></path>
            <path d="M318.5093,168.955 L249.0593,168.773 C251.0613,167.035 252.3613,164.507 252.3683,161.664 C252.3823,156.444 248.1223,152.162 242.9023,152.148 L193.8653,152.02 C188.6453,152.006 184.3633,156.266 184.3493,161.486 C184.3423,164.329 185.6283,166.864 187.6213,168.613 L118.9623,168.433 C110.4803,168.411 103.5213,175.333 103.4993,183.816 C103.4773,192.298 110.3993,199.257 118.8823,199.279 L318.4283,199.801 C326.9113,199.823 333.8693,192.901 333.8923,184.418 C333.9143,175.936 326.9923,168.977 318.5093,168.955" id="Fill-1228" fill="#FFFFFF" sketch:type="MSShapeGroup"></path>
            <path d="M318.5093,168.955 L249.0593,168.773 C251.0613,167.035 252.3613,164.507 252.3683,161.664 C252.3823,156.444 248.1223,152.162 242.9023,152.148 L193.8653,152.02 C188.6453,152.006 184.3633,156.266 184.3493,161.486 C184.3423,164.329 185.6283,166.864 187.6213,168.613 L118.9623,168.433 C110.4803,168.411 103.5213,175.333 103.4993,183.816 C103.4773,192.298 110.3993,199.257 118.8823,199.279 L318.4283,199.801 C326.9113,199.823 333.8693,192.901 333.8923,184.418 C333.9143,175.936 326.9923,168.977 318.5093,168.955 L318.5093,168.955 Z" id="Stroke-1229" stroke="#0C5D35" stroke-width="14" stroke-linecap="round" stroke-linejoin="round" sketch:type="MSShapeGroup"></path>
            <path d="M174.2206,515.8411 L194.1886,516.1491" id="Stroke-1230" stroke="#39AB47" stroke-width="10" stroke-linecap="round" sketch:type="MSShapeGroup"></path>
            <path d="M199.2659,507.5266 L219.2339,507.8346" id="Stroke-1231" stroke="#39AB47" stroke-width="10" stroke-linecap="round" sketch:type="MSShapeGroup"></path>
            <path d="M224.3113,499.2121 L244.2793,499.5201" id="Stroke-1232" stroke="#39AB47" stroke-width="10" stroke-linecap="round" sketch:type="MSShapeGroup"></path>
            <path d="M249.3568,490.8975 L269.3248,491.2055" id="Stroke-1233" stroke="#39AB47" stroke-width="10" stroke-linecap="round" sketch:type="MSShapeGroup"></path>
            <path d="M274.4022,482.583 L294.3702,482.891" id="Stroke-1234" stroke="#39AB47" stroke-width="10" stroke-linecap="round" sketch:type="MSShapeGroup"></path>
            <path d="M299.4475,474.2685 L319.4155,474.5765" id="Stroke-1235" stroke="#39AB47" stroke-width="10" stroke-linecap="round" sketch:type="MSShapeGroup"></path>
            <path d="M324.4929,465.954 L344.4609,466.262" id="Stroke-1236" stroke="#39AB47" stroke-width="10" stroke-linecap="round" sketch:type="MSShapeGroup"></path>
            <path d="M349.5382,457.6395 L369.5062,457.9475" id="Stroke-1237" stroke="#39AB47" stroke-width="10" stroke-linecap="round" sketch:type="MSShapeGroup"></path>
            <path d="M374.5836,449.3249 L394.5516,449.6329" id="Stroke-1238" stroke="#39AB47" stroke-width="10" stroke-linecap="round" sketch:type="MSShapeGroup"></path>
            <path d="M399.629,441.0104 L419.597,441.3184" id="Stroke-1239" stroke="#39AB47" stroke-width="10" stroke-linecap="round" sketch:type="MSShapeGroup"></path>
            <path d="M424.6744,432.6959 L444.6424,433.0039" id="Stroke-1240" stroke="#39AB47" stroke-width="10" stroke-linecap="round" sketch:type="MSShapeGroup"></path>
            <path d="M50.8983,462.272 L340.5953,370.378 C340.5953,370.378 343.8303,369.378 348.0003,369.378 C355.9303,369.378 375.8803,375.87 375.8803,397.258 C375.8803,421.12 354.0193,424.479 354.0193,424.479 L73.3233,513.265 C73.3233,513.265 65.6333,516.144 60.9823,516.144 C56.3313,516.144 33.1023,512.408 33.1023,488.264 C33.1023,469.12 50.8983,462.272 50.8983,462.272" id="Fill-1241" fill="#FFFFFF" sketch:type="MSShapeGroup"></path>
            <path d="M50.8983,462.272 L340.5953,370.378 C340.5953,370.378 343.8303,369.378 348.0003,369.378 C355.9303,369.378 375.8803,375.87 375.8803,397.258 C375.8803,421.12 354.0193,424.479 354.0193,424.479 L73.3233,513.265 C73.3233,513.265 65.6333,516.144 60.9823,516.144 C56.3313,516.144 33.1023,512.408 33.1023,488.264 C33.1023,469.12 50.8983,462.272 50.8983,462.272 L50.8983,462.272 Z" id="Stroke-1242" stroke="#0C5D35" stroke-width="14" stroke-linecap="round" stroke-linejoin="round" sketch:type="MSShapeGroup"></path>
            <path d="M88.8626,488.2638 C88.8626,472.8658 76.3806,460.3838 60.9826,460.3838 C45.5846,460.3838 33.1026,472.8658 33.1026,488.2638 C33.1026,503.6618 45.5846,516.1438 60.9826,516.1438 C76.3806,516.1438 88.8626,503.6618 88.8626,488.2638 L88.8626,488.2638 Z" id="Stroke-1243" stroke="#0C5D35" stroke-width="14" stroke-linecap="round" stroke-linejoin="round" sketch:type="MSShapeGroup"></path>
            <path d="M71.0668,488.2638 C71.0668,482.6948 66.5518,478.1798 60.9828,478.1798 C55.4128,478.1798 50.8978,482.6948 50.8978,488.2638 C50.8978,493.8328 55.4128,498.3478 60.9828,498.3478 C66.5518,498.3478 71.0668,493.8328 71.0668,488.2638 L71.0668,488.2638 Z" id="Stroke-1244" stroke="#0C5D35" stroke-width="10" stroke-linecap="round" stroke-linejoin="round" sketch:type="MSShapeGroup"></path>
            <path d="M353.6194,424.5716 C366.3234,421.9716 375.8804,410.7306 375.8804,397.2576 C375.8804,381.8606 363.3984,369.3776 348.0004,369.3776 C345.4364,369.3776 340.5944,370.3726 340.5944,370.3726" id="Stroke-1245" stroke="#0C5D35" stroke-width="14" stroke-linecap="round" stroke-linejoin="round" sketch:type="MSShapeGroup"></path>
            <path d="M50.8958,462.2643 C40.4838,466.3063 33.1028,476.4233 33.1028,488.2633 C33.1028,503.6613 45.5848,516.1433 60.9828,516.1433 C60.9828,516.1433 69.1448,515.8093 73.3238,513.2643" id="Stroke-1246" stroke="#0C5D35" stroke-width="14" stroke-linecap="round" stroke-linejoin="round" sketch:type="MSShapeGroup"></path>
            <path d="M59.5984,516.3415 L166.3754,516.3415" id="Fill-1247" fill="#FFFFFF" sketch:type="MSShapeGroup"></path>
            <path d="M59.5984,516.3415 L166.3754,516.3415" id="Stroke-1248" stroke="#0C5D35" stroke-width="14" stroke-linecap="round" stroke-linejoin="round" sketch:type="MSShapeGroup"></path>
            <path d="M354.0193,424.99 L439.4393,424.99" id="Fill-1250" fill="#FFFFFF" sketch:type="MSShapeGroup"></path>
            <path d="M354.0193,424.99 L439.4393,424.99" id="Stroke-1251" stroke="#0C5D35" stroke-width="14" stroke-linecap="round" stroke-linejoin="round" sketch:type="MSShapeGroup"></path>
            <path d="M167.1639,516.3415 L439.4389,426.2755" id="Fill-1253" fill="#FFFFFF" sketch:type="MSShapeGroup"></path>
            <path d="M167.1639,516.3415 L439.4389,426.2755" id="Stroke-1254" stroke="#0C5D35" stroke-width="14" stroke-linecap="round" stroke-linejoin="round" sketch:type="MSShapeGroup"></path>
            <path d="M101.3196,465.1293 L342.7486,390.9803" id="Stroke-1256" stroke="#84BF41" stroke-width="10" stroke-linecap="round" stroke-linejoin="round" sketch:type="MSShapeGroup"></path>
            <path d="M106.8448,482.3092 L351.8328,406.1832" id="Stroke-1257" stroke="#84BF41" stroke-width="10" stroke-linecap="round" stroke-linejoin="round" sketch:type="MSShapeGroup"></path>
            <path d="M553.3496,608.5282 L54.5066,608.5282 C24.5766,608.5282 0.0876,584.0392 0.0876,554.1092 L0.0876,55.2662 C0.0876,25.3352 24.5766,0.8462 54.5066,0.8462 L553.3496,0.8462 C583.2816,0.8462 607.7696,25.3352 607.7696,55.2662 L607.7696,554.1092 C607.7696,584.0392 583.2816,608.5282 553.3496,608.5282 L553.3496,608.5282 Z" id="Stroke-1259" stroke="#254F3D" stroke-width="14.24" stroke-linejoin="round" sketch:type="MSShapeGroup"></path>
        </g>
    </g>
</svg>