<?xml version="1.0" encoding="UTF-8" standalone="no"?>
<svg viewBox="0 0 623 623" version="1.1" xmlns="http://www.w3.org/2000/svg" xmlns:xlink="http://www.w3.org/1999/xlink" xmlns:sketch="http://www.bohemiancoding.com/sketch/ns">
    <!-- Generator: Sketch 3.4.1 (15681) - http://www.bohemiancoding.com/sketch -->
    <title>Ferraille</title>
    <desc>Created with Sketch.</desc>
    <defs></defs>
    <g id="Page-1" stroke="none" stroke-width="1" fill="none" fill-rule="evenodd" sketch:type="MSPage">
        <g id="Ferraille" sketch:type="MSLayerGroup" transform="translate(8.000000, 7.000000)">
            <path d="M122.449,378.651 L230.194,272.137 L392.735,226.577 L265.904,381.114 L122.449,378.651 L122.449,378.651 Z" id="Stroke-849" stroke="#0C5D35" stroke-width="14" stroke-linecap="round" stroke-linejoin="round" sketch:type="MSShapeGroup"></path>
            <path d="M213.2626,219.804 L230.1936,272.137 L265.9036,381.114" id="Stroke-852" stroke="#0C5D35" stroke-width="14" stroke-linecap="round" stroke-linejoin="round" sketch:type="MSShapeGroup"></path>
            <path d="M429.6761,163.161 L418.5941,185.326 L381.0371,195.792 L392.7351,226.577 L459.2291,380.498" id="Stroke-855" stroke="#0C5D35" stroke-width="14" stroke-linecap="round" stroke-linejoin="round" sketch:type="MSShapeGroup"></path>
            <path d="M132.5101,379.008 C132.5101,373.225 127.8221,368.537 122.0381,368.537 C116.2551,368.537 111.5671,373.225 111.5671,379.008 C111.5671,384.791 116.2551,389.48 122.0381,389.48 C127.8221,389.48 132.5101,384.791 132.5101,379.008" id="Fill-858" fill="#FFFFFF" sketch:type="MSShapeGroup"></path>
            <path d="M132.5101,379.008 C132.5101,373.225 127.8221,368.537 122.0381,368.537 C116.2551,368.537 111.5671,373.225 111.5671,379.008 C111.5671,384.791 116.2551,389.48 122.0381,389.48 C127.8221,389.48 132.5101,384.791 132.5101,379.008 L132.5101,379.008 Z" id="Stroke-860" stroke="#84BF41" stroke-width="14" stroke-linecap="round" sketch:type="MSShapeGroup"></path>
            <path d="M469.9058,379.008 C469.9058,373.225 465.2178,368.537 459.4348,368.537 C453.6508,368.537 448.9628,373.225 448.9628,379.008 C448.9628,384.791 453.6508,389.48 459.4348,389.48 C465.2178,389.48 469.9058,384.791 469.9058,379.008" id="Fill-861" fill="#FFFFFF" sketch:type="MSShapeGroup"></path>
            <path d="M469.9058,379.008 C469.9058,373.225 465.2178,368.537 459.4348,368.537 C453.6508,368.537 448.9628,373.225 448.9628,379.008 C448.9628,384.791 453.6508,389.48 459.4348,389.48 C465.2178,389.48 469.9058,384.791 469.9058,379.008 L469.9058,379.008 Z" id="Stroke-862" stroke="#84BF41" stroke-width="14" stroke-linecap="round" sketch:type="MSShapeGroup"></path>
            <path d="M290.1207,379.008 C290.1207,365.067 278.8187,353.765 264.8777,353.765 C250.9367,353.765 239.6347,365.067 239.6347,379.008 C239.6347,392.949 250.9367,404.251 264.8777,404.251 C278.8187,404.251 290.1207,392.949 290.1207,379.008" id="Fill-863" fill="#FFFFFF" sketch:type="MSShapeGroup"></path>
            <path d="M290.1207,379.008 C290.1207,365.067 278.8187,353.765 264.8777,353.765 C250.9367,353.765 239.6347,365.067 239.6347,379.008 C239.6347,392.949 250.9367,404.251 264.8777,404.251 C278.8187,404.251 290.1207,392.949 290.1207,379.008 L290.1207,379.008 Z" id="Stroke-864" stroke="#84BF41" stroke-width="14" stroke-linecap="round" sketch:type="MSShapeGroup"></path>
            <path d="M265.2881,382.499 L250.5121,439.963 L231.6311,439.963 L267.7511,439.963" id="Stroke-865" stroke="#39AB47" stroke-width="14" stroke-linecap="round" stroke-linejoin="round" sketch:type="MSShapeGroup"></path>
            <path d="M192.228,230.579 L172.525,199.795 L246.407,199.795 L192.228,230.579 L192.228,230.579 Z" id="Stroke-866" stroke="#84BF41" stroke-width="14" stroke-linecap="round" stroke-linejoin="round" fill="#FFFFFF" sketch:type="MSShapeGroup"></path>
            <path d="M553.3496,608.5282 L54.5066,608.5282 C24.5766,608.5282 0.0876,584.0392 0.0876,554.1092 L0.0876,55.2662 C0.0876,25.3352 24.5766,0.8462 54.5066,0.8462 L553.3496,0.8462 C583.2816,0.8462 607.7696,25.3352 607.7696,55.2662 L607.7696,554.1092 C607.7696,584.0392 583.2816,608.5282 553.3496,608.5282 L553.3496,608.5282 Z" id="Stroke-868" stroke="#254F3D" stroke-width="14.24" stroke-linejoin="round" sketch:type="MSShapeGroup"></path>
        </g>
    </g>
</svg>