<?xml version="1.0" encoding="UTF-8" standalone="no"?>
<svg viewBox="0 0 623 623" version="1.1" xmlns="http://www.w3.org/2000/svg" xmlns:xlink="http://www.w3.org/1999/xlink" xmlns:sketch="http://www.bohemiancoding.com/sketch/ns">
    <!-- Generator: Sketch 3.4.1 (15681) - http://www.bohemiancoding.com/sketch -->
    <title>Gravats</title>
    <desc>Created with Sketch.</desc>
    <defs></defs>
    <g id="Page-1" stroke="none" stroke-width="1" fill="none" fill-rule="evenodd" sketch:type="MSPage">
        <g id="Gravats" sketch:type="MSLayerGroup" transform="translate(8.000000, 7.000000)">
            <path d="M59.6982,481.9902 L102.7342,402.0662 L154.3772,383.6232 L100.2752,320.9132 L180.1982,240.9892 L202.3312,265.5812 L228.1522,185.6572 L295.7812,149.9992 L315.4542,163.5252 L344.9642,116.8012 L375.7032,146.3112 L356.0312,180.7392 L375.7032,185.6572 L400.2952,270.5002 L439.6432,299.3952 L460.5462,281.5662 L513.4192,343.0462 L480.2192,376.2452 L546.6172,481.9902 L59.6982,481.9902 L59.6982,481.9902 Z" id="Fill-1" fill="#FFFFFF" sketch:type="MSShapeGroup"></path>
            <path d="M147.7203,375.907 L169.7473,400.837" id="Stroke-17" stroke="#0C5D35" stroke-width="14.038" stroke-linejoin="round" sketch:type="MSShapeGroup"></path>
            <path d="M195.6364,258.143 L239.8334,308.003" id="Stroke-20" stroke="#0C5D35" stroke-width="14.038" stroke-linejoin="round" sketch:type="MSShapeGroup"></path>
            <path d="M328.6752,142.592 L295.7802,196.11" id="Stroke-23" stroke="#0C5D35" stroke-width="14.038" stroke-linejoin="round" sketch:type="MSShapeGroup"></path>
            <path d="M362.5386,169.351 L335.1276,217.628" id="Stroke-26" stroke="#0C5D35" stroke-width="14.038" stroke-linejoin="round" sketch:type="MSShapeGroup"></path>
            <path d="M452.6329,288.316 L414.4369,321.529" id="Stroke-29" stroke="#0C5D35" stroke-width="14.038" stroke-linejoin="round" sketch:type="MSShapeGroup"></path>
            <path d="M553.3496,608.5282 L54.5066,608.5282 C24.5766,608.5282 0.0876,584.0392 0.0876,554.1092 L0.0876,55.2662 C0.0876,25.3352 24.5766,0.8462 54.5066,0.8462 L553.3496,0.8462 C583.2816,0.8462 607.7696,25.3352 607.7696,55.2662 L607.7696,554.1092 C607.7696,584.0392 583.2816,608.5282 553.3496,608.5282 L553.3496,608.5282 Z" id="Stroke-57" stroke="#254F3D" stroke-width="14.24" stroke-linejoin="round" sketch:type="MSShapeGroup"></path>
            <path d="M276.7217,239.76 L295.7807,269.27" id="Stroke-41" stroke="#84BF41" stroke-width="14.038" stroke-linecap="round" stroke-linejoin="round" sketch:type="MSShapeGroup"></path>
            <path d="M370.171,283.073 L353.572,299.396" id="Stroke-44" stroke="#84BF41" stroke-width="14.038" stroke-linecap="round" stroke-linejoin="round" sketch:type="MSShapeGroup"></path>
            <path d="M140.2367,431.5768 L158.7337,442.6428" id="Stroke-50" stroke="#84BF41" stroke-width="14.038" stroke-linecap="round" stroke-linejoin="round" sketch:type="MSShapeGroup"></path>
            <path d="M231.8415,361.49 L255.2045,368.867" id="Stroke-47" stroke="#84BF41" stroke-width="14.038" stroke-linecap="round" stroke-linejoin="round" sketch:type="MSShapeGroup"></path>
            <path d="M220.7751,481.9902 L220.7751,428.5022 L467.3091,428.5022 L467.3091,481.9902" id="Stroke-32" stroke="#39AB47" stroke-width="14.038" stroke-linecap="round" sketch:type="MSShapeGroup"></path>
            <path d="M344.042,431.5768 L344.042,479.5308" id="Stroke-35" stroke="#39AB47" stroke-width="14.038" stroke-linecap="round" sketch:type="MSShapeGroup"></path>
            <path d="M299.4692,424.8141 L299.4692,368.8671 L423.0432,368.8671 L423.0432,424.8141" id="Stroke-38" stroke="#39AB47" stroke-width="14.038" stroke-linecap="round" sketch:type="MSShapeGroup"></path>
            <path d="M59.6982,481.9902 L102.7342,402.0662 L154.3772,383.6232 L100.2752,320.9132 L180.1982,240.9892 L202.3312,265.5812 L228.1522,185.6572 L295.7812,149.9992 L315.4542,163.5252 L344.9642,116.8012 L375.7032,146.3112 L356.0312,180.7392 L375.7032,185.6572 L400.2952,270.5002 L439.6432,299.3952 L460.5462,281.5662 L513.4192,343.0462 L480.2192,376.2452 L546.6172,481.9902 L59.6982,481.9902 L59.6982,481.9902 Z" id="Stroke-53" stroke="#0C5D35" stroke-width="14.038" stroke-linecap="round" stroke-linejoin="round" sketch:type="MSShapeGroup"></path>
        </g>
    </g>
</svg>