<?xml version="1.0" encoding="UTF-8" standalone="no"?>
<svg width="623px" height="623px" viewBox="0 0 623 623" version="1.1" xmlns="http://www.w3.org/2000/svg" xmlns:xlink="http://www.w3.org/1999/xlink" xmlns:sketch="http://www.bohemiancoding.com/sketch/ns">
    <!-- Generator: Sketch 3.4.1 (15681) - http://www.bohemiancoding.com/sketch -->
    <title>Huile de vidange</title>
    <desc>Created with Sketch.</desc>
    <defs></defs>
    <g id="Page-1" stroke="none" stroke-width="1" fill="none" fill-rule="evenodd" sketch:type="MSPage">
        <g id="Huile-de-vidange" sketch:type="MSLayerGroup" transform="translate(8.000000, 7.000000)">
            <path d="M242.58,221.448 L242.58,200.928" id="Stroke-1616" stroke="#39AB47" stroke-width="14" stroke-linecap="round" sketch:type="MSShapeGroup"></path>
            <path d="M252.8773,221.448 L252.8773,200.928" id="Stroke-1619" stroke="#39AB47" stroke-width="14" stroke-linecap="round" sketch:type="MSShapeGroup"></path>
            <path d="M263.1747,221.448 L263.1747,200.928" id="Stroke-1622" stroke="#39AB47" stroke-width="14" stroke-linecap="round" sketch:type="MSShapeGroup"></path>
            <path d="M273.472,221.448 L273.472,200.928" id="Stroke-1625" stroke="#39AB47" stroke-width="14" stroke-linecap="round" sketch:type="MSShapeGroup"></path>
            <path d="M283.7693,221.448 L283.7693,200.928" id="Stroke-1628" stroke="#39AB47" stroke-width="14" stroke-linecap="round" sketch:type="MSShapeGroup"></path>
            <path d="M294.0667,221.448 L294.0667,200.928" id="Stroke-1631" stroke="#39AB47" stroke-width="14" stroke-linecap="round" sketch:type="MSShapeGroup"></path>
            <path d="M170.6639,297.406 C170.6639,274.98 151.9989,256.8 128.9749,256.8 C105.9499,256.8 87.2849,274.98 87.2849,297.406 C87.2849,319.832 105.9499,338.012 128.9749,338.012 C151.9989,338.012 170.6639,319.832 170.6639,297.406 L170.6639,297.406 Z" id="Stroke-1634" stroke="#84BF41" stroke-width="14" stroke-linejoin="round" sketch:type="MSShapeGroup"></path>
            <path d="M509.4321,291.784 L407.1151,291.784 L407.1151,256.05 L129.6501,256.05 L129.6501,409.5894 L407.1151,409.5894 L407.1151,358.252 L509.4321,315.374 L509.4321,291.784 Z" id="Fill-1637" fill="#FFFFFF" sketch:type="MSShapeGroup"></path>
            <path d="M509.4321,291.784 L407.1151,291.784 L407.1151,256.05 L129.6501,256.05 L129.6501,409.589 L407.1151,409.589 L407.1151,358.252 L509.4321,315.374 L509.4321,291.784 L509.4321,291.784 Z" id="Stroke-1639" stroke="#155E36" stroke-width="14" stroke-linecap="round" stroke-linejoin="round" sketch:type="MSShapeGroup"></path>
            <path d="M292.9938,225.19 L243.0228,225.19 L243.0228,255.239 L292.9938,255.239 L292.9938,225.19 Z" id="Stroke-1640" stroke="#0C5D35" stroke-width="14" fill="#FFFFFF" sketch:type="MSShapeGroup"></path>
            <path d="M301.0349,225.393 L234.9439,225.393 C233.7409,225.393 232.7569,224.409 232.7569,223.205 L232.7569,199.156 C232.7569,197.953 233.7409,196.968 234.9439,196.968 L301.0349,196.968 C302.2379,196.968 303.2229,197.953 303.2229,199.156 L303.2229,223.205 C303.2229,224.409 302.2379,225.393 301.0349,225.393 L301.0349,225.393 Z" id="Stroke-1641" stroke="#0C5D35" stroke-width="14" sketch:type="MSShapeGroup"></path>
            <path d="M518.7725,367.259 L518.7725,367.259 C518.7725,367.259 518.1595,365.86 508.4445,352.162 L499.0445,367.259 L499.0415,367.259 C497.9115,369.044 497.2585,371.149 497.2585,373.414 C497.2585,379.811 502.4785,384.999 508.9155,384.999 C515.3535,384.999 520.5735,379.811 520.5735,373.414 C520.5735,371.149 519.9015,369.043 518.7725,367.259 L518.7725,367.259 Z" id="Stroke-1642" stroke="#39AB47" stroke-width="14" stroke-linecap="round" stroke-linejoin="round" fill="#FFFFFF" sketch:type="MSShapeGroup"></path>
            <path d="M553.3496,608.5282 L54.5066,608.5282 C24.5766,608.5282 0.0876,584.0392 0.0876,554.1092 L0.0876,55.2662 C0.0876,25.3352 24.5766,0.8462 54.5066,0.8462 L553.3496,0.8462 C583.2816,0.8462 607.7696,25.3352 607.7696,55.2662 L607.7696,554.1092 C607.7696,584.0392 583.2816,608.5282 553.3496,608.5282 L553.3496,608.5282 Z" id="Stroke-1644" stroke="#254F3D" stroke-width="14.24" stroke-linejoin="round" sketch:type="MSShapeGroup"></path>
        </g>
    </g>
</svg>