<?xml version="1.0" encoding="UTF-8" standalone="no"?>
<svg width="623px" height="623px" viewBox="0 0 623 623" version="1.1" xmlns="http://www.w3.org/2000/svg" xmlns:xlink="http://www.w3.org/1999/xlink" xmlns:sketch="http://www.bohemiancoding.com/sketch/ns">
    <!-- Generator: Sketch 3.4.1 (15681) - http://www.bohemiancoding.com/sketch -->
    <title>Huiles alimentaires</title>
    <desc>Created with Sketch.</desc>
    <defs></defs>
    <g id="Page-1" stroke="none" stroke-width="1" fill="none" fill-rule="evenodd" sketch:type="MSPage">
        <g id="Huiles-alimentaires" sketch:type="MSLayerGroup" transform="translate(8.000000, 7.000000)">
            <path d="M484.2065,403.058 L175.1005,403.058 L227.0545,514.7517 L410.1635,514.7517 C438.0375,514.7517 462.2595,495.6017 468.6915,468.4807 L484.2065,403.058 Z" id="Fill-1742" fill="#FFFFFF" sketch:type="MSShapeGroup"></path>
            <path d="M484.2065,403.058 L175.1005,403.058 L227.0545,514.752 L410.1635,514.752 C438.0375,514.752 462.2595,495.602 468.6915,468.481 L484.2065,403.058 L484.2065,403.058 Z" id="Stroke-1744" stroke="#0C5D35" stroke-width="14" stroke-linecap="round" stroke-linejoin="round" sketch:type="MSShapeGroup"></path>
            <path d="M503.2644,403.058 L156.0424,403.058 C154.8044,403.058 153.7924,402.046 153.7924,400.808 L153.7924,381.93 C153.7924,380.693 154.8044,379.68 156.0424,379.68 L503.2644,379.68 C504.5014,379.68 505.5144,380.693 505.5144,381.93 L505.5144,400.808 C505.5144,402.046 504.5014,403.058 503.2644,403.058" id="Fill-1745" fill="#FFFFFF" sketch:type="MSShapeGroup"></path>
            <path d="M503.2644,403.058 L156.0424,403.058 C154.8044,403.058 153.7924,402.046 153.7924,400.808 L153.7924,381.93 C153.7924,380.693 154.8044,379.68 156.0424,379.68 L503.2644,379.68 C504.5014,379.68 505.5144,380.693 505.5144,381.93 L505.5144,400.808 C505.5144,402.046 504.5014,403.058 503.2644,403.058 L503.2644,403.058 Z" id="Stroke-1746" stroke="#0C5D35" stroke-width="14" stroke-linecap="round" stroke-linejoin="round" sketch:type="MSShapeGroup"></path>
            <path d="M316.861,347.529 C316.57,347.25 309.695,340.586 306.232,329.595 C303.028,319.423 302.206,303.513 316.501,285.489 L316.621,285.344 C317.15,284.732 329.621,269.9 315.597,254.937" id="Stroke-1747" stroke="#84BF41" stroke-width="14" stroke-linecap="round" sketch:type="MSShapeGroup"></path>
            <path d="M354.1249,347.529 C353.8339,347.25 346.9589,340.586 343.4959,329.595 C340.2919,319.423 339.4699,303.513 353.7649,285.489 L353.8849,285.344 C354.4139,284.732 366.8849,269.9 352.8609,254.937" id="Stroke-1748" stroke="#84BF41" stroke-width="14" stroke-linecap="round" sketch:type="MSShapeGroup"></path>
            <path d="M391.3889,347.529 C391.0979,347.25 384.2229,340.586 380.7599,329.595 C377.5559,319.423 376.7339,303.513 391.0289,285.489 L391.1489,285.344 C391.6779,284.732 404.1489,269.9 390.1249,254.937" id="Stroke-1749" stroke="#84BF41" stroke-width="14" stroke-linecap="round" sketch:type="MSShapeGroup"></path>
            <path d="M160.9977,94.81 L160.9977,82.619" id="Stroke-1750" stroke="#39AB47" stroke-width="14" stroke-linecap="round" sketch:type="MSShapeGroup"></path>
            <path d="M170.0627,94.81 L170.0627,82.619" id="Stroke-1751" stroke="#39AB47" stroke-width="14" stroke-linecap="round" sketch:type="MSShapeGroup"></path>
            <path d="M179.1276,94.81 L179.1276,82.619" id="Stroke-1752" stroke="#39AB47" stroke-width="14" stroke-linecap="round" sketch:type="MSShapeGroup"></path>
            <path d="M188.1924,94.81 L188.1924,82.619" id="Stroke-1753" stroke="#39AB47" stroke-width="14" stroke-linecap="round" sketch:type="MSShapeGroup"></path>
            <path d="M197.2574,94.81 L197.2574,82.619" id="Stroke-1754" stroke="#39AB47" stroke-width="14" stroke-linecap="round" sketch:type="MSShapeGroup"></path>
            <path d="M198.5847,99.702 L160.1177,99.702 L160.1177,122.833 L198.5847,122.833 L198.5847,99.702 Z" id="Stroke-1755" stroke="#0C5D35" stroke-width="14" sketch:type="MSShapeGroup"></path>
            <path d="M204.2715,99.859 L154.4025,99.859 C153.1995,99.859 152.2155,98.875 152.2155,97.671 L152.2155,80.166 C152.2155,78.963 153.1995,77.978 154.4025,77.978 L204.2715,77.978 C205.4745,77.978 206.4595,78.963 206.4595,80.166 L206.4595,97.671 C206.4595,98.875 205.4745,99.859 204.2715,99.859 L204.2715,99.859 Z" id="Stroke-1756" stroke="#0C5D35" stroke-width="14" sketch:type="MSShapeGroup"></path>
            <path d="M250.0801,234.218 C250.0801,233.716 250.0171,233.23 250.0041,232.731 L250.0041,194.825 L249.9531,194.825 L199.6071,122.853 L159.2121,122.853 L108.8671,194.825 L108.7921,194.825 L108.7921,234.218 L108.7921,241.068 L108.7921,261.413 C108.7921,277.071 114.9181,291.334 124.8301,302.048 C114.9181,312.763 108.7921,327.026 108.7921,342.685 L108.7921,466.3899 C108.7921,499.3979 135.7991,526.4059 168.8081,526.4059 L190.0641,526.4059 C223.0731,526.4059 250.0801,499.3979 250.0801,466.3899 L250.0801,342.685 C250.0801,327.026 243.9541,312.763 234.0421,302.048 C243.9541,291.334 250.0801,277.071 250.0801,261.413 L250.0801,234.218 Z" id="Fill-1757" fill="#FFFFFF" sketch:type="MSShapeGroup"></path>
            <path d="M240.9109,284.429 L118.1699,284.429" id="Stroke-1759" stroke="#84BF41" stroke-width="14" stroke-linecap="round" stroke-linejoin="round" sketch:type="MSShapeGroup"></path>
            <path d="M239.6606,301.934 L118.6906,301.934" id="Stroke-1762" stroke="#84BF41" stroke-width="14" stroke-linecap="round" stroke-linejoin="round" sketch:type="MSShapeGroup"></path>
            <path d="M239.6606,318.91 L118.6906,318.91" id="Stroke-1765" stroke="#84BF41" stroke-width="14" stroke-linecap="round" stroke-linejoin="round" sketch:type="MSShapeGroup"></path>
            <path d="M250.0801,234.218 C250.0801,233.716 250.0171,233.23 250.0041,232.731 L250.0041,194.825 L249.9531,194.825 L199.6071,122.853 L159.2121,122.853 L108.8671,194.825 L108.7921,194.825 L108.7921,234.218 L108.7921,241.068 L108.7921,261.413 C108.7921,277.071 114.9181,291.334 124.8301,302.048 C114.9181,312.763 108.7921,327.026 108.7921,342.685 L108.7921,466.39 C108.7921,499.398 135.7991,526.406 168.8081,526.406 L190.0641,526.406 C223.0731,526.406 250.0801,499.398 250.0801,466.39 L250.0801,342.685 C250.0801,327.026 243.9541,312.763 234.0421,302.048 C243.9541,291.334 250.0801,277.071 250.0801,261.413 L250.0801,234.218 L250.0801,234.218 Z" id="Stroke-1769" stroke="#0C5D35" stroke-width="14" stroke-linecap="round" stroke-linejoin="round" sketch:type="MSShapeGroup"></path>
            <path d="M553.3496,608.5282 L54.5066,608.5282 C24.5766,608.5282 0.0876,584.0392 0.0876,554.1092 L0.0876,55.2662 C0.0876,25.3352 24.5766,0.8462 54.5066,0.8462 L553.3496,0.8462 C583.2816,0.8462 607.7696,25.3352 607.7696,55.2662 L607.7696,554.1092 C607.7696,584.0392 583.2816,608.5282 553.3496,608.5282 L553.3496,608.5282 Z" id="Stroke-1772" stroke="#254F3D" stroke-width="14.24" stroke-linejoin="round" sketch:type="MSShapeGroup"></path>
        </g>
    </g>
</svg>