<?xml version="1.0" encoding="UTF-8" standalone="no"?>
<svg width="623px" height="623px" viewBox="0 0 623 623" version="1.1" xmlns="http://www.w3.org/2000/svg" xmlns:xlink="http://www.w3.org/1999/xlink" xmlns:sketch="http://www.bohemiancoding.com/sketch/ns">
    <!-- Generator: Sketch 3.4.4 (17249) - http://www.bohemiancoding.com/sketch -->
    <title>Mobilier usagé</title>
    <desc>Created with Sketch.</desc>
    <defs></defs>
    <g id="Page-1" stroke="none" stroke-width="1" fill="none" fill-rule="evenodd" sketch:type="MSPage">
        <g id="Mobilier-usagé" sketch:type="MSLayerGroup" transform="translate(8.000000, 7.000000)">
            <path d="M553.3496,608.5282 L54.5066,608.5282 C24.5766,608.5282 0.0876,584.0392 0.0876,554.1092 L0.0876,55.2662 C0.0876,25.3352 24.5766,0.8462 54.5066,0.8462 L553.3496,0.8462 C583.2816,0.8462 607.7696,25.3352 607.7696,55.2662 L607.7696,554.1092 C607.7696,584.0392 583.2816,608.5282 553.3496,608.5282 L553.3496,608.5282 Z" id="Stroke-57" stroke="#254F3D" stroke-width="14.24" stroke-linejoin="round" sketch:type="MSShapeGroup"></path>
            <path d="M264.955,391.1819 L92.465,391.1819 C89.627,391.1819 87.327,388.8809 87.327,386.0439 L87.327,125.4929 C87.327,122.6559 89.627,120.3549 92.465,120.3549 L264.955,120.3549 C267.793,120.3549 270.093,122.6559 270.093,125.4929 L270.093,386.0439 C270.093,388.8809 267.793,391.1819 264.955,391.1819 L264.955,391.1819 Z" id="Fill-7" fill="#FFFFFF" sketch:type="MSShapeGroup"></path>
            <path d="M88.1578,209.2465 L269.2628,209.2465 L88.1578,209.2465 Z" id="Fill-1" fill="#FFFFFF" sketch:type="MSShapeGroup"></path>
            <path d="M88.1576,209.2461 L269.2626,209.2461" id="Stroke-2" stroke="#84BF41" stroke-width="12" stroke-linecap="round" stroke-linejoin="round" sketch:type="MSShapeGroup"></path>
            <path d="M88.1578,281.2105 L269.2628,281.2105 L88.1578,281.2105 Z" id="Fill-3" fill="#FFFFFF" sketch:type="MSShapeGroup"></path>
            <path d="M88.1576,281.2108 L269.2626,281.2108" id="Stroke-4" stroke="#84BF41" stroke-width="12" stroke-linecap="round" stroke-linejoin="round" sketch:type="MSShapeGroup"></path>
            <path d="M87.8527,347.644 L268.9577,347.644 L87.8527,347.644 Z" id="Fill-5" fill="#FFFFFF" sketch:type="MSShapeGroup"></path>
            <path d="M87.8525,347.644 L268.9575,347.644" id="Stroke-6" stroke="#84BF41" stroke-width="12" stroke-linecap="round" stroke-linejoin="round" sketch:type="MSShapeGroup"></path>
            <path d="M264.955,391.1819 L92.465,391.1819 C89.627,391.1819 87.327,388.8809 87.327,386.0439 L87.327,125.4929 C87.327,122.6559 89.627,120.3549 92.465,120.3549 L264.955,120.3549 C267.793,120.3549 270.093,122.6559 270.093,125.4929 L270.093,386.0439 C270.093,388.8809 267.793,391.1819 264.955,391.1819 L264.955,391.1819 Z" id="Stroke-7" stroke="#0C5D35" stroke-width="14" stroke-linecap="round" stroke-linejoin="round" sketch:type="MSShapeGroup"></path>
            <path d="M147.2153,237.1311 L210.2053,237.1311 C211.2293,237.1311 212.0673,237.9691 212.0673,238.9931 L212.0673,253.0151 C212.0673,254.0391 211.2293,254.8771 210.2053,254.8771 L147.2153,254.8771 C146.1913,254.8771 145.3533,254.0391 145.3533,253.0151 L145.3533,238.9931 C145.3533,237.9691 146.1913,237.1311 147.2153,237.1311" id="Fill-9" fill="#FFFFFF" sketch:type="MSShapeGroup"></path>
            <path d="M147.2153,237.1311 L210.2053,237.1311 C211.2293,237.1311 212.0673,237.9691 212.0673,238.9931 L212.0673,253.0151 C212.0673,254.0391 211.2293,254.8771 210.2053,254.8771 L147.2153,254.8771 C146.1913,254.8771 145.3533,254.0391 145.3533,253.0151 L145.3533,238.9931 C145.3533,237.9691 146.1913,237.1311 147.2153,237.1311 L147.2153,237.1311 Z" id="Stroke-11" stroke="#84BF41" stroke-width="10" stroke-linecap="round" stroke-linejoin="round" sketch:type="MSShapeGroup"></path>
            <path d="M147.2153,157.9473 L210.2053,157.9473 C211.2293,157.9473 212.0673,158.7853 212.0673,159.8093 L212.0673,173.8313 C212.0673,174.8553 211.2293,175.6933 210.2053,175.6933 L147.2153,175.6933 C146.1913,175.6933 145.3533,174.8553 145.3533,173.8313 L145.3533,159.8093 C145.3533,158.7853 146.1913,157.9473 147.2153,157.9473" id="Fill-13" fill="#FFFFFF" sketch:type="MSShapeGroup"></path>
            <path d="M147.2153,157.9473 L210.2053,157.9473 C211.2293,157.9473 212.0673,158.7853 212.0673,159.8093 L212.0673,173.8313 C212.0673,174.8553 211.2293,175.6933 210.2053,175.6933 L147.2153,175.6933 C146.1913,175.6933 145.3533,174.8553 145.3533,173.8313 L145.3533,159.8093 C145.3533,158.7853 146.1913,157.9473 147.2153,157.9473 L147.2153,157.9473 Z" id="Stroke-15" stroke="#84BF41" stroke-width="10" stroke-linecap="round" stroke-linejoin="round" sketch:type="MSShapeGroup"></path>
            <path d="M146.9102,303.5643 L209.9002,303.5643 C210.9242,303.5643 211.7622,304.4023 211.7622,305.4263 L211.7622,319.4483 C211.7622,320.4723 210.9242,321.3103 209.9002,321.3103 L146.9102,321.3103 C145.8862,321.3103 145.0482,320.4723 145.0482,319.4483 L145.0482,305.4263 C145.0482,304.4023 145.8862,303.5643 146.9102,303.5643" id="Fill-17" fill="#FFFFFF" sketch:type="MSShapeGroup"></path>
            <path d="M146.9102,303.5643 L209.9002,303.5643 C210.9242,303.5643 211.7622,304.4023 211.7622,305.4263 L211.7622,319.4483 C211.7622,320.4723 210.9242,321.3103 209.9002,321.3103 L146.9102,321.3103 C145.8862,321.3103 145.0482,320.4723 145.0482,319.4483 L145.0482,305.4263 C145.0482,304.4023 145.8862,303.5643 146.9102,303.5643 L146.9102,303.5643 Z" id="Stroke-19" stroke="#84BF41" stroke-width="10" stroke-linecap="round" stroke-linejoin="round" sketch:type="MSShapeGroup"></path>
            <path d="M55.6668,501.725 L47.0998,501.725 C46.4748,501.725 45.9628,501.213 45.9628,500.588 L45.9628,449.415 C45.9628,448.789 46.4748,448.277 47.0998,448.277 L55.6668,448.277 C56.2928,448.277 56.8048,448.789 56.8048,449.415 L56.8048,500.588 C56.8048,501.213 56.2928,501.725 55.6668,501.725" id="Fill-21" fill="#FFFFFF" sketch:type="MSShapeGroup"></path>
            <path d="M55.6668,501.725 L47.0998,501.725 C46.4748,501.725 45.9628,501.213 45.9628,500.588 L45.9628,449.415 C45.9628,448.789 46.4748,448.277 47.0998,448.277 L55.6668,448.277 C56.2928,448.277 56.8048,448.789 56.8048,449.415 L56.8048,500.588 C56.8048,501.213 56.2928,501.725 55.6668,501.725 L55.6668,501.725 Z" id="Stroke-23" stroke="#3AAA47" stroke-width="14" stroke-linecap="round" stroke-linejoin="round" sketch:type="MSShapeGroup"></path>
            <path d="M273.227,501.725 L264.66,501.725 C264.034,501.725 263.523,501.213 263.523,500.588 L263.523,449.415 C263.523,448.789 264.034,448.277 264.66,448.277 L273.227,448.277 C273.853,448.277 274.364,448.789 274.364,449.415 L274.364,500.588 C274.364,501.213 273.853,501.725 273.227,501.725" id="Fill-25" fill="#FFFFFF" sketch:type="MSShapeGroup"></path>
            <path d="M273.227,501.725 L264.66,501.725 C264.034,501.725 263.523,501.213 263.523,500.588 L263.523,449.415 C263.523,448.789 264.034,448.277 264.66,448.277 L273.227,448.277 C273.853,448.277 274.364,448.789 274.364,449.415 L274.364,500.588 C274.364,501.213 273.853,501.725 273.227,501.725 L273.227,501.725 Z" id="Stroke-27" stroke="#3AAA47" stroke-width="14" stroke-linecap="round" stroke-linejoin="round" sketch:type="MSShapeGroup"></path>
            <path d="M558.3682,388.2478 L549.8012,388.2478 C549.1752,388.2478 548.6642,387.7358 548.6642,387.1108 L548.6642,335.9378 C548.6642,335.3118 549.1752,334.7998 549.8012,334.7998 L558.3682,334.7998 C558.9942,334.7998 559.5062,335.3118 559.5062,335.9378 L559.5062,387.1108 C559.5062,387.7358 558.9942,388.2478 558.3682,388.2478" id="Fill-29" fill="#FFFFFF" sketch:type="MSShapeGroup"></path>
            <path d="M558.3682,388.2478 L549.8012,388.2478 C549.1752,388.2478 548.6642,387.7358 548.6642,387.1108 L548.6642,335.9378 C548.6642,335.3118 549.1752,334.7998 549.8012,334.7998 L558.3682,334.7998 C558.9942,334.7998 559.5062,335.3118 559.5062,335.9378 L559.5062,387.1108 C559.5062,387.7358 558.9942,388.2478 558.3682,388.2478 L558.3682,388.2478 Z" id="Stroke-31" stroke="#3AAA47" stroke-width="14" stroke-linecap="round" stroke-linejoin="round" sketch:type="MSShapeGroup"></path>
            <path d="M559.9575,286.6417 L332.2785,286.6417 L332.2785,205.6297 C332.2785,204.0647 333.5475,202.7957 335.1125,202.7957 L557.1225,202.7957 C558.6885,202.7957 559.9575,204.0647 559.9575,205.6297 L559.9575,286.6417 Z" id="Fill-33" fill="#FFFFFF" sketch:type="MSShapeGroup"></path>
            <path d="M559.9575,286.6417 L332.2785,286.6417 L332.2785,205.6297 C332.2785,204.0647 333.5475,202.7957 335.1125,202.7957 L557.1225,202.7957 C558.6885,202.7957 559.9575,204.0647 559.9575,205.6297 L559.9575,286.6417 L559.9575,286.6417 Z" id="Stroke-35" stroke="#155E36" stroke-width="14" stroke-linecap="round" stroke-linejoin="round" sketch:type="MSShapeGroup"></path>
            <path d="M273.0093,393.9776 L47.4983,393.9776 L333.7413,282.6816 L559.2523,282.6816 L273.0093,393.9776 Z" id="Fill-37" fill="#FFFFFF" sketch:type="MSShapeGroup"></path>
            <path d="M273.0093,393.9776 L47.4983,393.9776 L333.7413,282.6816 L559.2523,282.6816 L273.0093,393.9776 L273.0093,393.9776 Z" id="Stroke-39" stroke="#155E36" stroke-width="14" stroke-linecap="round" stroke-linejoin="round" sketch:type="MSShapeGroup"></path>
            <path d="M559.4153,341.2157 L272.6483,452.5247 L272.6483,394.7007 L559.4153,283.3917 L559.4153,341.2157 Z" id="Fill-41" fill="#FFFFFF" sketch:type="MSShapeGroup"></path>
            <path d="M559.4153,341.2157 L272.6483,452.5247 L272.6483,394.7007 L559.4153,283.3917 L559.4153,341.2157 L559.4153,341.2157 Z" id="Stroke-43" stroke="#155E36" stroke-width="14" stroke-linecap="round" stroke-linejoin="round" sketch:type="MSShapeGroup"></path>
            <path d="M273.7321,452.5245 L46.0531,452.5245 L46.0531,371.5125 C46.0531,369.9475 47.3221,368.6785 48.8871,368.6785 L270.8971,368.6785 C272.4631,368.6785 273.7321,369.9475 273.7321,371.5125 L273.7321,452.5245 Z" id="Fill-45" fill="#FFFFFF" sketch:type="MSShapeGroup"></path>
            <path d="M273.7321,452.5245 L46.0531,452.5245 L46.0531,371.5125 C46.0531,369.9475 47.3221,368.6785 48.8871,368.6785 L270.8971,368.6785 C272.4631,368.6785 273.7321,369.9475 273.7321,371.5125 L273.7321,452.5245 L273.7321,452.5245 Z" id="Stroke-47" stroke="#155E36" stroke-width="14" stroke-linecap="round" stroke-linejoin="round" sketch:type="MSShapeGroup"></path>
            <path d="M550.92,288.8125 L316.947,288.8125 C314.403,288.8125 312.322,286.7315 312.322,284.1875 L312.322,245.2415 C312.322,242.6975 314.403,240.6165 316.947,240.6165 L550.92,240.6165 C553.464,240.6165 555.545,242.6975 555.545,245.2415 L555.545,284.1875 C555.545,286.7315 553.464,288.8125 550.92,288.8125" id="Fill-49" fill="#FFFFFF" sketch:type="MSShapeGroup"></path>
            <path d="M550.92,288.8125 L316.947,288.8125 C314.403,288.8125 312.322,286.7315 312.322,284.1875 L312.322,245.2415 C312.322,242.6975 314.403,240.6165 316.947,240.6165 L550.92,240.6165 C553.464,240.6165 555.545,242.6975 555.545,245.2415 L555.545,284.1875 C555.545,286.7315 553.464,288.8125 550.92,288.8125 L550.92,288.8125 Z" id="Stroke-51" stroke="#155E36" stroke-width="14" stroke-linecap="round" stroke-linejoin="round" sketch:type="MSShapeGroup"></path>
            <path d="M554.9151,263.7105 C554.9151,251.1295 547.3871,240.9305 538.1021,240.9305 C528.8161,240.9305 521.2881,251.1295 521.2881,263.7105 C521.2881,276.2915 528.8161,286.4905 538.1021,286.4905 C547.3871,286.4905 554.9151,276.2915 554.9151,263.7105" id="Fill-53" fill="#FFFFFF" sketch:type="MSShapeGroup"></path>
            <path d="M554.9151,263.7105 C554.9151,251.1295 547.3871,240.9305 538.1021,240.9305 C528.8161,240.9305 521.2881,251.1295 521.2881,263.7105 C521.2881,276.2915 528.8161,286.4905 538.1021,286.4905 C547.3871,286.4905 554.9151,276.2915 554.9151,263.7105 L554.9151,263.7105 Z" id="Stroke-55" stroke="#155E36" stroke-width="14" stroke-linecap="round" stroke-linejoin="round" sketch:type="MSShapeGroup"></path>
            <path d="M332.9332,273.6339 L502.8572,273.6339" id="Stroke-57" stroke="#84BF41" stroke-width="6" stroke-linecap="round" stroke-linejoin="round" sketch:type="MSShapeGroup"></path>
            <path d="M332.9332,257.7325 L502.8572,257.7325" id="Stroke-59" stroke="#84BF41" stroke-width="6" stroke-linecap="round" stroke-linejoin="round" sketch:type="MSShapeGroup"></path>
            <path d="M411.7409,377.0018 L385.8359,386.6548" id="Stroke-61" stroke="#84BF41" stroke-width="6" stroke-linecap="round" stroke-linejoin="round" sketch:type="MSShapeGroup"></path>
            <path d="M367.9776,393.3094 L360.8146,395.9784" id="Stroke-63" stroke="#84BF41" stroke-width="6" stroke-linecap="round" stroke-linejoin="round" sketch:type="MSShapeGroup"></path>
            <path d="M302.2943,417.7513 L295.1313,420.4203" id="Stroke-65" stroke="#84BF41" stroke-width="6" stroke-linecap="round" stroke-linejoin="round" sketch:type="MSShapeGroup"></path>
            <path d="M346.5953,401.2726 L327.7923,408.2796" id="Stroke-67" stroke="#84BF41" stroke-width="6" stroke-linecap="round" stroke-linejoin="round" sketch:type="MSShapeGroup"></path>
            <path d="M541.8434,328.7555 L515.9384,338.4085" id="Stroke-69" stroke="#84BF41" stroke-width="6" stroke-linecap="round" stroke-linejoin="round" sketch:type="MSShapeGroup"></path>
            <path d="M498.08,345.0631 L490.917,347.7321" id="Stroke-71" stroke="#84BF41" stroke-width="6" stroke-linecap="round" stroke-linejoin="round" sketch:type="MSShapeGroup"></path>
            <path d="M432.3968,369.505 L425.2338,372.174" id="Stroke-73" stroke="#84BF41" stroke-width="6" stroke-linecap="round" stroke-linejoin="round" sketch:type="MSShapeGroup"></path>
            <path d="M476.6977,353.0263 L457.8947,360.0333" id="Stroke-75" stroke="#84BF41" stroke-width="6" stroke-linecap="round" stroke-linejoin="round" sketch:type="MSShapeGroup"></path>
            <path d="M448.6033,345.5604 L422.6983,355.2134" id="Stroke-77" stroke="#84BF41" stroke-width="6" stroke-linecap="round" stroke-linejoin="round" sketch:type="MSShapeGroup"></path>
            <path d="M404.84,361.868 L397.677,364.537" id="Stroke-79" stroke="#84BF41" stroke-width="6" stroke-linecap="round" stroke-linejoin="round" sketch:type="MSShapeGroup"></path>
            <path d="M339.1567,386.3099 L331.9937,388.9789" id="Stroke-81" stroke="#84BF41" stroke-width="6" stroke-linecap="round" stroke-linejoin="round" sketch:type="MSShapeGroup"></path>
            <path d="M383.4576,369.8312 L364.6546,376.8382" id="Stroke-83" stroke="#84BF41" stroke-width="6" stroke-linecap="round" stroke-linejoin="round" sketch:type="MSShapeGroup"></path>
            <path d="M517.5954,319.5847 L510.4324,322.2537" id="Stroke-85" stroke="#84BF41" stroke-width="6" stroke-linecap="round" stroke-linejoin="round" sketch:type="MSShapeGroup"></path>
            <path d="M496.2131,327.5479 L477.4101,334.5549" id="Stroke-87" stroke="#84BF41" stroke-width="6" stroke-linecap="round" stroke-linejoin="round" sketch:type="MSShapeGroup"></path>
        </g>
    </g>
</svg>