<?xml version="1.0" encoding="UTF-8" standalone="no"?>
<svg viewBox="0 0 623 623" version="1.1" xmlns="http://www.w3.org/2000/svg" xmlns:xlink="http://www.w3.org/1999/xlink" xmlns:sketch="http://www.bohemiancoding.com/sketch/ns">
    <!-- Generator: Sketch 3.4.1 (15681) - http://www.bohemiancoding.com/sketch -->
    <title>Palettes et cagettes</title>
    <desc>Created with Sketch.</desc>
    <defs></defs>
    <g id="Page-1" stroke="none" stroke-width="1" fill="none" fill-rule="evenodd" sketch:type="MSPage">
        <g id="Palettes-et-cagettes" sketch:type="MSLayerGroup" transform="translate(8.000000, 7.000000)">
            <path d="M571.9895,299.865 L327.3215,418.1879 L326.3785,350.414 L572.7445,243.96 L571.9895,299.865 Z" id="Fill-418" fill="#FFFFFF" sketch:type="MSShapeGroup"></path>
            <path d="M571.9895,299.865 L327.3215,418.188 L326.3785,350.414 L572.7445,243.96 L571.9895,299.865 L571.9895,299.865 Z" id="Stroke-420" stroke="#155E36" stroke-width="14.038" stroke-linecap="round" stroke-linejoin="round" sketch:type="MSShapeGroup"></path>
            <path d="M263.1082,284.273 L66.6132,391.112 L65.6702,328.352 L265.8362,240.368 L263.1082,284.273 Z" id="Fill-421" fill="#FFFFFF" sketch:type="MSShapeGroup"></path>
            <path d="M263.1082,284.273 L66.6132,391.112 L65.6702,328.352 L265.8362,240.368 L263.1082,284.273 L263.1082,284.273 Z" id="Stroke-422" stroke="#155E36" stroke-width="14.038" stroke-linecap="round" stroke-linejoin="round" sketch:type="MSShapeGroup"></path>
            <path d="M450.4272,306.478 L115.2652,285.652 L162.7612,264.91 L497.9222,285.735 L450.4272,306.478 Z" id="Fill-423" fill="#FFFFFF" sketch:type="MSShapeGroup"></path>
            <path d="M450.4272,306.478 L115.2652,285.652 L162.7612,264.91 L497.9222,285.735 L450.4272,306.478 L450.4272,306.478 Z" id="Stroke-424" stroke="#155E36" stroke-width="14.038" stroke-linecap="round" stroke-linejoin="round" sketch:type="MSShapeGroup"></path>
            <path d="M448.0983,329.708 L113.8223,308.937 L115.2513,285.948 L449.5273,306.718 L448.0983,329.708 Z" id="Fill-425" fill="#FFFFFF" sketch:type="MSShapeGroup"></path>
            <path d="M448.0983,329.708 L113.8223,308.937 L115.2513,285.948 L449.5273,306.718 L448.0983,329.708 L448.0983,329.708 Z" id="Stroke-426" stroke="#155E36" stroke-width="14.038" stroke-linecap="round" stroke-linejoin="round" sketch:type="MSShapeGroup"></path>
            <path d="M497.0657,309.057 L448.0977,329.708 L449.5267,306.719 L498.4947,286.067 L497.0657,309.057 Z" id="Fill-427" fill="#FFFFFF" sketch:type="MSShapeGroup"></path>
            <path d="M497.0657,309.057 L448.0977,329.708 L449.5267,306.719 L498.4947,286.067 L497.0657,309.057 L497.0657,309.057 Z" id="Stroke-428" stroke="#155E36" stroke-width="14.038" stroke-linecap="round" stroke-linejoin="round" sketch:type="MSShapeGroup"></path>
            <path d="M538.6679,264.363 L203.5059,243.537 L251.0019,222.795 L586.1629,243.62 L538.6679,264.363 Z" id="Fill-429" fill="#FFFFFF" sketch:type="MSShapeGroup"></path>
            <path d="M538.6679,264.363 L203.5059,243.537 L251.0019,222.795 L586.1629,243.62 L538.6679,264.363 L538.6679,264.363 Z" id="Stroke-430" stroke="#155E36" stroke-width="14.038" stroke-linecap="round" stroke-linejoin="round" sketch:type="MSShapeGroup"></path>
            <path d="M536.3389,287.593 L202.0629,266.822 L203.4919,243.833 L537.7679,264.603 L536.3389,287.593 Z" id="Fill-431" fill="#FFFFFF" sketch:type="MSShapeGroup"></path>
            <path d="M536.3389,287.593 L202.0629,266.822 L203.4919,243.833 L537.7679,264.603 L536.3389,287.593 L536.3389,287.593 Z" id="Stroke-432" stroke="#155E36" stroke-width="14.038" stroke-linecap="round" stroke-linejoin="round" sketch:type="MSShapeGroup"></path>
            <path d="M585.3062,266.942 L536.3382,287.593 L537.7672,264.604 L586.7352,243.952 L585.3062,266.942 Z" id="Fill-433" fill="#FFFFFF" sketch:type="MSShapeGroup"></path>
            <path d="M585.3062,266.942 L536.3382,287.593 L537.7672,264.604 L586.7352,243.952 L585.3062,266.942 L585.3062,266.942 Z" id="Stroke-434" stroke="#155E36" stroke-width="14.038" stroke-linecap="round" stroke-linejoin="round" sketch:type="MSShapeGroup"></path>
            <path d="M363.4952,348.43 L28.3332,327.604 L75.8292,306.862 L410.9902,327.688 L363.4952,348.43 Z" id="Fill-435" fill="#FFFFFF" sketch:type="MSShapeGroup"></path>
            <path d="M363.4952,348.43 L28.3332,327.604 L75.8292,306.862 L410.9902,327.688 L363.4952,348.43 L363.4952,348.43 Z" id="Stroke-436" stroke="#155E36" stroke-width="14.038" stroke-linecap="round" stroke-linejoin="round" sketch:type="MSShapeGroup"></path>
            <path d="M361.1662,371.66 L26.8902,350.889 L28.3192,327.9 L362.5952,348.67 L361.1662,371.66 Z" id="Fill-437" fill="#FFFFFF" sketch:type="MSShapeGroup"></path>
            <path d="M361.1662,371.66 L26.8902,350.889 L28.3192,327.9 L362.5952,348.67 L361.1662,371.66 L361.1662,371.66 Z" id="Stroke-438" stroke="#155E36" stroke-width="14.038" stroke-linecap="round" stroke-linejoin="round" sketch:type="MSShapeGroup"></path>
            <path d="M410.1337,351.008 L361.1667,371.659 L362.5947,348.67 L411.5627,328.018 L410.1337,351.008 Z" id="Fill-439" fill="#FFFFFF" sketch:type="MSShapeGroup"></path>
            <path d="M410.1337,351.008 L361.1667,371.659 L362.5947,348.67 L411.5627,328.018 L410.1337,351.008 L410.1337,351.008 Z" id="Stroke-440" stroke="#155E36" stroke-width="14.038" stroke-linecap="round" stroke-linejoin="round" sketch:type="MSShapeGroup"></path>
            <path d="M250.646,234.699 L271.295,235.982" id="Stroke-441" stroke="#84BF41" stroke-width="5.014" stroke-linecap="round" stroke-linejoin="round" sketch:type="MSShapeGroup"></path>
            <path d="M285.5314,236.867 L291.2414,237.222" id="Stroke-442" stroke="#84BF41" stroke-width="5.014" stroke-linecap="round" stroke-linejoin="round" sketch:type="MSShapeGroup"></path>
            <path d="M302.5751,237.922 L317.5641,238.854" id="Stroke-443" stroke="#84BF41" stroke-width="5.014" stroke-linecap="round" stroke-linejoin="round" sketch:type="MSShapeGroup"></path>
            <path d="M328.5356,239.539 L349.1846,240.823" id="Stroke-444" stroke="#84BF41" stroke-width="5.014" stroke-linecap="round" stroke-linejoin="round" sketch:type="MSShapeGroup"></path>
            <path d="M428.553,245.753 L449.202,247.036" id="Stroke-445" stroke="#84BF41" stroke-width="5.014" stroke-linecap="round" stroke-linejoin="round" sketch:type="MSShapeGroup"></path>
            <path d="M363.4209,241.706 L369.1309,242.061" id="Stroke-446" stroke="#84BF41" stroke-width="5.014" stroke-linecap="round" stroke-linejoin="round" sketch:type="MSShapeGroup"></path>
            <path d="M394.6273,243.642 L409.6163,244.574" id="Stroke-447" stroke="#84BF41" stroke-width="5.014" stroke-linecap="round" stroke-linejoin="round" sketch:type="MSShapeGroup"></path>
            <path d="M468.3829,248.228 L489.0319,249.511" id="Stroke-448" stroke="#84BF41" stroke-width="5.014" stroke-linecap="round" stroke-linejoin="round" sketch:type="MSShapeGroup"></path>
            <path d="M503.2683,250.396 L508.9783,250.751" id="Stroke-449" stroke="#84BF41" stroke-width="5.014" stroke-linecap="round" stroke-linejoin="round" sketch:type="MSShapeGroup"></path>
            <path d="M520.3118,251.452 L535.3008,252.384" id="Stroke-450" stroke="#84BF41" stroke-width="5.014" stroke-linecap="round" stroke-linejoin="round" sketch:type="MSShapeGroup"></path>
            <path d="M283.8624,331.658 L304.5114,332.941" id="Stroke-451" stroke="#84BF41" stroke-width="5.014" stroke-linecap="round" stroke-linejoin="round" sketch:type="MSShapeGroup"></path>
            <path d="M318.7478,333.826 L324.4568,334.181" id="Stroke-452" stroke="#84BF41" stroke-width="5.014" stroke-linecap="round" stroke-linejoin="round" sketch:type="MSShapeGroup"></path>
            <path d="M335.7914,334.882 L350.7804,335.814" id="Stroke-453" stroke="#84BF41" stroke-width="5.014" stroke-linecap="round" stroke-linejoin="round" sketch:type="MSShapeGroup"></path>
            <path d="M171.4523,324.674 L192.1013,325.957" id="Stroke-454" stroke="#84BF41" stroke-width="5.014" stroke-linecap="round" stroke-linejoin="round" sketch:type="MSShapeGroup"></path>
            <path d="M224.041,327.941 L229.751,328.296" id="Stroke-455" stroke="#84BF41" stroke-width="5.014" stroke-linecap="round" stroke-linejoin="round" sketch:type="MSShapeGroup"></path>
            <path d="M255.2473,329.877 L270.2363,330.809" id="Stroke-456" stroke="#84BF41" stroke-width="5.014" stroke-linecap="round" stroke-linejoin="round" sketch:type="MSShapeGroup"></path>
            <path d="M79.4259,318.726 L84.2749,319.028" id="Stroke-457" stroke="#84BF41" stroke-width="5.014" stroke-linecap="round" stroke-linejoin="round" sketch:type="MSShapeGroup"></path>
            <path d="M144.3522,322.76 L149.2012,323.062" id="Stroke-458" stroke="#84BF41" stroke-width="5.014" stroke-linecap="round" stroke-linejoin="round" sketch:type="MSShapeGroup"></path>
            <path d="M98.24,319.895 L118.576,321.158" id="Stroke-459" stroke="#84BF41" stroke-width="5.014" stroke-linecap="round" stroke-linejoin="round" sketch:type="MSShapeGroup"></path>
            <path d="M379.5891,290.477 L400.2381,291.76" id="Stroke-460" stroke="#84BF41" stroke-width="5.014" stroke-linecap="round" stroke-linejoin="round" sketch:type="MSShapeGroup"></path>
            <path d="M414.4745,292.645 L420.1845,293" id="Stroke-461" stroke="#84BF41" stroke-width="5.014" stroke-linecap="round" stroke-linejoin="round" sketch:type="MSShapeGroup"></path>
            <path d="M431.5182,293.701 L446.5072,294.633" id="Stroke-462" stroke="#84BF41" stroke-width="5.014" stroke-linecap="round" stroke-linejoin="round" sketch:type="MSShapeGroup"></path>
            <path d="M162.7374,277.003 L183.3864,278.287" id="Stroke-463" stroke="#84BF41" stroke-width="5.014" stroke-linecap="round" stroke-linejoin="round" sketch:type="MSShapeGroup"></path>
            <path d="M197.6228,279.171 L203.3328,279.526" id="Stroke-464" stroke="#84BF41" stroke-width="5.014" stroke-linecap="round" stroke-linejoin="round" sketch:type="MSShapeGroup"></path>
            <path d="M214.6664,280.227 L229.6554,281.159" id="Stroke-465" stroke="#84BF41" stroke-width="5.014" stroke-linecap="round" stroke-linejoin="round" sketch:type="MSShapeGroup"></path>
            <path d="M250.8295,282.247 L255.6785,282.549" id="Stroke-466" stroke="#84BF41" stroke-width="5.014" stroke-linecap="round" stroke-linejoin="round" sketch:type="MSShapeGroup"></path>
            <path d="M315.7557,286.282 L320.6047,286.584" id="Stroke-467" stroke="#84BF41" stroke-width="5.014" stroke-linecap="round" stroke-linejoin="round" sketch:type="MSShapeGroup"></path>
            <path d="M338.7548,287.704 L360.8808,289.079" id="Stroke-468" stroke="#84BF41" stroke-width="5.014" stroke-linecap="round" stroke-linejoin="round" sketch:type="MSShapeGroup"></path>
            <path d="M269.6436,283.416 L289.9796,284.679" id="Stroke-469" stroke="#84BF41" stroke-width="5.014" stroke-linecap="round" stroke-linejoin="round" sketch:type="MSShapeGroup"></path>
            <path d="M553.3496,608.5282 L54.5066,608.5282 C24.5766,608.5282 0.0876,584.0392 0.0876,554.1092 L0.0876,55.2662 C0.0876,25.3352 24.5766,0.8462 54.5066,0.8462 L553.3496,0.8462 C583.2816,0.8462 607.7696,25.3352 607.7696,55.2662 L607.7696,554.1092 C607.7696,584.0392 583.2816,608.5282 553.3496,608.5282 L553.3496,608.5282 Z" id="Stroke-471" stroke="#254F3D" stroke-width="14.24" stroke-linejoin="round" sketch:type="MSShapeGroup"></path>
        </g>
    </g>
</svg>