<?xml version="1.0" encoding="UTF-8" standalone="no"?>
<svg width="623px" height="623px" viewBox="0 0 623 623" version="1.1" xmlns="http://www.w3.org/2000/svg" xmlns:xlink="http://www.w3.org/1999/xlink" xmlns:sketch="http://www.bohemiancoding.com/sketch/ns">
    <!-- Generator: Sketch 3.4.1 (15681) - http://www.bohemiancoding.com/sketch -->
    <title>Papier</title>
    <desc>Created with Sketch.</desc>
    <defs></defs>
    <g id="Page-1" stroke="none" stroke-width="1" fill="none" fill-rule="evenodd" sketch:type="MSPage">
        <g id="Papier" sketch:type="MSLayerGroup" transform="translate(8.000000, 7.000000)">
            <path d="M483.8162,99.309 L299.6672,82.749 L299.6672,396.14 L482.3462,412.5683 C487.1482,413.0003 491.2862,409.2183 491.2862,404.396 L491.2862,107.481 C491.2862,103.234 488.0462,99.689 483.8162,99.309" id="Fill-1356" fill="#FFFFFF" sketch:type="MSShapeGroup"></path>
            <path d="M483.8162,99.309 L299.6672,82.749 L299.6672,396.14 L482.3462,412.568 C487.1482,413 491.2862,409.218 491.2862,404.396 L491.2862,107.481 C491.2862,103.234 488.0462,99.689 483.8162,99.309 L483.8162,99.309 Z" id="Stroke-1358" stroke="#155E36" stroke-width="14" stroke-linecap="round" stroke-linejoin="round" sketch:type="MSShapeGroup"></path>
            <path d="M461.3877,127.379 L329.5687,115.525 L329.5687,163.217 L461.3877,175.071 L461.3877,127.379 Z" id="Fill-1359" fill="#FFFFFF" sketch:type="MSShapeGroup"></path>
            <path d="M461.3877,127.379 L329.5687,115.525 L329.5687,163.217 L461.3877,175.071 L461.3877,127.379 L461.3877,127.379 Z" id="Stroke-1360" stroke="#3AAA47" stroke-width="14" stroke-linecap="round" stroke-linejoin="round" sketch:type="MSShapeGroup"></path>
            <path d="M329.5684,196.505 L461.3874,208.359" id="Stroke-1361" stroke="#84BF41" stroke-width="14" stroke-linecap="round" stroke-linejoin="round" sketch:type="MSShapeGroup"></path>
            <path d="M329.5684,223.28 L461.3874,235.134" id="Stroke-1362" stroke="#84BF41" stroke-width="14" stroke-linecap="round" stroke-linejoin="round" sketch:type="MSShapeGroup"></path>
            <path d="M329.5684,250.055 L461.3874,261.909" id="Stroke-1363" stroke="#84BF41" stroke-width="14" stroke-linecap="round" stroke-linejoin="round" sketch:type="MSShapeGroup"></path>
            <path d="M329.5684,276.83 L461.3874,288.684" id="Stroke-1364" stroke="#84BF41" stroke-width="14" stroke-linecap="round" stroke-linejoin="round" sketch:type="MSShapeGroup"></path>
            <path d="M329.5684,303.605 L461.3874,315.459" id="Stroke-1365" stroke="#84BF41" stroke-width="14" stroke-linecap="round" stroke-linejoin="round" sketch:type="MSShapeGroup"></path>
            <path d="M329.5684,330.38 L461.3874,342.234" id="Stroke-1366" stroke="#84BF41" stroke-width="14" stroke-linecap="round" stroke-linejoin="round" sketch:type="MSShapeGroup"></path>
            <path d="M329.5684,357.155 L461.3874,369.009" id="Stroke-1367" stroke="#84BF41" stroke-width="14" stroke-linecap="round" stroke-linejoin="round" sketch:type="MSShapeGroup"></path>
            <path d="M410.8706,176.032 L299.8966,82.75 L299.8966,396.141 L397.3856,478.0875 C402.7236,482.5745 410.8706,478.7805 410.8706,471.8075 L410.8706,176.032 Z" id="Fill-1368" fill="#FFFFFF" sketch:type="MSShapeGroup"></path>
            <path d="M410.8706,176.032 L299.8966,82.75 L299.8966,396.141 L397.3856,478.088 C402.7236,482.575 410.8706,478.781 410.8706,471.808 L410.8706,176.032 L410.8706,176.032 Z" id="Stroke-1369" stroke="#155E36" stroke-width="14" stroke-linecap="round" stroke-linejoin="round" sketch:type="MSShapeGroup"></path>
            <path d="M136.8102,211.376 L244.5252,135.709 L244.5252,449.1002 L146.2432,518.1412 C140.8062,521.9602 133.3212,518.0712 133.3212,511.4272 L133.3212,218.09 C133.3212,215.417 134.6232,212.912 136.8102,211.376" id="Fill-1370" fill="#FFFFFF" sketch:type="MSShapeGroup"></path>
            <path d="M136.8102,211.376 L244.5252,135.709 L244.5252,449.1 L146.2432,518.141 C140.8062,521.96 133.3212,518.071 133.3212,511.427 L133.3212,218.09 C133.3212,215.417 134.6232,212.912 136.8102,211.376 L136.8102,211.376 Z" id="Stroke-1371" stroke="#155E36" stroke-width="14" stroke-linecap="round" stroke-linejoin="round" sketch:type="MSShapeGroup"></path>
            <path d="M410.8706,176.951 L244.7546,135.594 L244.7546,448.9856 L400.6836,487.8056 C405.8596,489.0946 410.8706,485.1786 410.8706,479.8436 L410.8706,176.951 Z" id="Fill-1372" fill="#FFFFFF" sketch:type="MSShapeGroup"></path>
            <path d="M410.8706,176.951 L244.7546,135.594 L244.7546,448.986 L400.6836,487.806 C405.8596,489.095 410.8706,485.179 410.8706,479.844 L410.8706,176.951 L410.8706,176.951 Z" id="Stroke-1373" stroke="#155E36" stroke-width="14" stroke-linecap="round" stroke-linejoin="round" sketch:type="MSShapeGroup"></path>
            <path d="M380.4774,277.379 L275.1484,251.156 L275.1484,299.34 L380.4774,325.562 L380.4774,277.379 Z" id="Fill-1374" fill="#FFFFFF" sketch:type="MSShapeGroup"></path>
            <path d="M380.4774,277.379 L275.1484,251.156 L275.1484,299.34 L380.4774,325.563 L380.4774,277.379 L380.4774,277.379 Z" id="Stroke-1375" stroke="#3AAA47" stroke-width="14" stroke-linecap="round" stroke-linejoin="round" sketch:type="MSShapeGroup"></path>
            <path d="M275.1481,332.628 L380.4771,358.851" id="Stroke-1376" stroke="#84BF41" stroke-width="14" stroke-linecap="round" stroke-linejoin="round" sketch:type="MSShapeGroup"></path>
            <path d="M275.1481,359.403 L380.4771,385.626" id="Stroke-1377" stroke="#84BF41" stroke-width="14" stroke-linecap="round" stroke-linejoin="round" sketch:type="MSShapeGroup"></path>
            <path d="M275.1481,386.178 L380.4771,412.401" id="Stroke-1378" stroke="#84BF41" stroke-width="14" stroke-linecap="round" stroke-linejoin="round" sketch:type="MSShapeGroup"></path>
            <path d="M275.1481,412.9526 L380.4771,439.1756" id="Stroke-1379" stroke="#84BF41" stroke-width="14" stroke-linecap="round" stroke-linejoin="round" sketch:type="MSShapeGroup"></path>
            <path d="M275.1481,193.205 L380.4771,219.428" id="Stroke-1380" stroke="#84BF41" stroke-width="14" stroke-linecap="round" stroke-linejoin="round" sketch:type="MSShapeGroup"></path>
            <path d="M275.1481,219.98 L380.4771,246.203" id="Stroke-1381" stroke="#84BF41" stroke-width="14" stroke-linecap="round" stroke-linejoin="round" sketch:type="MSShapeGroup"></path>
            <path d="M159.1346,412.2114 L218.7126,370.359 L218.7126,422.4684 L159.1346,464.3204 L159.1346,412.2114 Z" id="Fill-1382" fill="#FFFFFF" sketch:type="MSShapeGroup"></path>
            <path d="M159.1346,412.2114 L218.7126,370.3594 L218.7126,422.4684 L159.1346,464.3204 L159.1346,412.2114 L159.1346,412.2114 Z" id="Stroke-1383" stroke="#3AAA47" stroke-width="14" stroke-linecap="round" stroke-linejoin="round" sketch:type="MSShapeGroup"></path>
            <path d="M159.1346,381.818 L218.7126,339.966" id="Stroke-1384" stroke="#84BF41" stroke-width="14" stroke-linecap="round" stroke-linejoin="round" sketch:type="MSShapeGroup"></path>
            <path d="M159.1346,352.872 L218.7126,311.02" id="Stroke-1385" stroke="#84BF41" stroke-width="14" stroke-linecap="round" stroke-linejoin="round" sketch:type="MSShapeGroup"></path>
            <path d="M159.1346,323.926 L218.7126,282.074" id="Stroke-1386" stroke="#84BF41" stroke-width="14" stroke-linecap="round" stroke-linejoin="round" sketch:type="MSShapeGroup"></path>
            <path d="M159.1346,294.98 L218.7126,253.128" id="Stroke-1387" stroke="#84BF41" stroke-width="14" stroke-linecap="round" stroke-linejoin="round" sketch:type="MSShapeGroup"></path>
            <path d="M159.1346,266.034 L218.7126,224.182" id="Stroke-1388" stroke="#84BF41" stroke-width="14" stroke-linecap="round" stroke-linejoin="round" sketch:type="MSShapeGroup"></path>
            <path d="M159.1346,237.088 L218.7126,195.236" id="Stroke-1389" stroke="#84BF41" stroke-width="14" stroke-linecap="round" stroke-linejoin="round" sketch:type="MSShapeGroup"></path>
            <path d="M553.3496,608.5282 L54.5066,608.5282 C24.5766,608.5282 0.0876,584.0392 0.0876,554.1092 L0.0876,55.2662 C0.0876,25.3352 24.5766,0.8462 54.5066,0.8462 L553.3496,0.8462 C583.2816,0.8462 607.7696,25.3352 607.7696,55.2662 L607.7696,554.1092 C607.7696,584.0392 583.2816,608.5282 553.3496,608.5282 L553.3496,608.5282 Z" id="Stroke-1391" stroke="#254F3D" stroke-width="14.24" stroke-linejoin="round" sketch:type="MSShapeGroup"></path>
        </g>
    </g>
</svg>