<?xml version="1.0" encoding="UTF-8" standalone="no"?>
<svg viewBox="0 0 623 623" version="1.1" xmlns="http://www.w3.org/2000/svg" xmlns:xlink="http://www.w3.org/1999/xlink" xmlns:sketch="http://www.bohemiancoding.com/sketch/ns">
    <!-- Generator: Sketch 3.4.1 (15681) - http://www.bohemiancoding.com/sketch -->
    <title>Plastiques Souples</title>
    <desc>Created with Sketch.</desc>
    <defs></defs>
    <g id="Page-1" stroke="none" stroke-width="1" fill="none" fill-rule="evenodd" sketch:type="MSPage">
        <g id="Plastiques-Souples" sketch:type="MSLayerGroup" transform="translate(8.000000, 7.000000)">
            <path d="M425.153,86.96 L396.315,86.96 L391.404,215.452 C375.69,207.919 358.088,244.597 339.499,244.597 C320.374,244.597 302.306,208.181 286.254,216.125 L280.986,86.912 L252.633,86.912 C252.633,86.912 219.45,310.982 219.311,322.433 L219.274,322.681 L219.305,322.681 C219.302,323.096 219.274,323.505 219.274,323.92 C219.274,390.319 273.101,444.146 339.499,444.146 C405.898,444.146 459.724,390.319 459.724,323.92 C459.724,309.356 425.153,86.96 425.153,86.96 L425.153,86.96 Z" id="Fill-239" fill="#FFFFFF" sketch:type="MSShapeGroup"></path>
            <path d="M425.153,86.96 L396.315,86.96 L391.404,215.452 C375.69,207.919 358.088,244.597 339.499,244.597 C320.374,244.597 302.306,208.181 286.254,216.125 L280.986,86.912 L252.633,86.912 C252.633,86.912 219.45,310.982 219.311,322.433 L219.274,322.681 L219.305,322.681 C219.302,323.096 219.274,323.505 219.274,323.92 C219.274,390.319 273.101,444.146 339.499,444.146 C405.898,444.146 459.724,390.319 459.724,323.92 C459.724,309.356 425.153,86.96 425.153,86.96 L425.153,86.96 Z" id="Stroke-239" stroke="#85BF42" stroke-width="14.038" stroke-linecap="round" stroke-linejoin="round" sketch:type="MSShapeGroup"></path>
            <path d="M424.1858,86.946 L396.8978,86.946 L404.4638,233.524 C384.7968,224.096 362.7658,270.002 339.4978,270.002 C315.5628,270.002 292.9478,224.424 272.8568,234.367 L280.5508,86.946 L253.4358,86.946 C240.4588,86.946 229.4128,96.353 227.3818,109.17 C217.3218,172.652 189.2128,351.003 189.0698,362.769 L189.0238,363.08 L189.0628,363.08 C189.0578,363.598 189.0238,364.11 189.0238,364.631 C189.0238,447.7358 256.3948,515.1058 339.4978,515.1058 C422.6048,515.1058 489.9748,447.7358 489.9748,364.631 C489.9748,349.662 460.6838,172.03 450.2088,108.975 C448.0938,96.247 437.0888,86.946 424.1858,86.946" id="Fill-242" fill="#FFFFFF" sketch:type="MSShapeGroup"></path>
            <path d="M424.1858,86.946 L396.8978,86.946 L404.4638,233.524 C384.7968,224.096 362.7658,270.002 339.4978,270.002 C315.5628,270.002 292.9478,224.424 272.8568,234.367 L280.5508,86.946 L253.4358,86.946 C240.4588,86.946 229.4128,96.353 227.3818,109.17 C217.3218,172.652 189.2128,351.003 189.0698,362.769 L189.0238,363.08 L189.0628,363.08 C189.0578,363.598 189.0238,364.11 189.0238,364.631 C189.0238,447.736 256.3948,515.106 339.4978,515.106 C422.6048,515.106 489.9748,447.736 489.9748,364.631 C489.9748,349.662 460.6838,172.03 450.2088,108.975 C448.0938,96.247 437.0888,86.946 424.1858,86.946 L424.1858,86.946 Z" id="Stroke-244" stroke="#0C5D35" stroke-width="14.038" stroke-linecap="round" stroke-linejoin="round" sketch:type="MSShapeGroup"></path>
            <path d="M300.6256,481.6003 L300.6256,473.6613" id="Stroke-245" stroke="#39AB47" stroke-width="14.038" stroke-linecap="round" sketch:type="MSShapeGroup"></path>
            <path d="M336.3964,480.9777 L336.3964,473.0387" id="Stroke-246" stroke="#39AB47" stroke-width="14.038" stroke-linecap="round" sketch:type="MSShapeGroup"></path>
            <path d="M373.7893,480.9777 L373.7893,473.0387" id="Stroke-247" stroke="#39AB47" stroke-width="14.038" stroke-linecap="round" sketch:type="MSShapeGroup"></path>
            <path d="M306.6359,493.0904 L140.9359,518.7374 C139.3849,518.9774 137.9329,517.9144 137.6919,516.3624 L103.3259,294.324 C103.0849,292.773 104.1479,291.32 105.6999,291.08 L271.3989,265.433 C272.9499,265.193 274.4029,266.256 274.6429,267.808 L309.0099,489.8464 C309.2499,491.3974 308.1869,492.8504 306.6359,493.0904" id="Fill-248" fill="#FFFFFF" sketch:type="MSShapeGroup"></path>
            <path d="M128.0549,466.5651 C158.3049,425.2351 150.3139,368.0261 110.1869,338.6561" id="Stroke-250" stroke="#84BF43" stroke-width="10.027" stroke-linecap="round" stroke-linejoin="round" sketch:type="MSShapeGroup"></path>
            <path d="M281.697,312.11 C251.447,353.44 259.438,410.649 299.565,440.019" id="Stroke-253" stroke="#84BF43" stroke-width="10.027" stroke-linecap="round" stroke-linejoin="round" sketch:type="MSShapeGroup"></path>
            <path d="M137.4383,503.1019 L304.5403,477.2379" id="Stroke-256" stroke="#39AB47" stroke-width="10.027" stroke-linecap="round" sketch:type="MSShapeGroup"></path>
            <path d="M135.8959,488.1231 L302.9979,462.2601" id="Stroke-259" stroke="#39AB47" stroke-width="10.027" stroke-linecap="round" sketch:type="MSShapeGroup"></path>
            <path d="M156.166,314.302 L154.952,306.457" id="Stroke-262" stroke="#39AB47" stroke-width="10.027" stroke-linecap="round" sketch:type="MSShapeGroup"></path>
            <path d="M191.4205,308.215 L190.2065,300.37" id="Stroke-265" stroke="#39AB47" stroke-width="10.027" stroke-linecap="round" sketch:type="MSShapeGroup"></path>
            <path d="M228.3734,302.496 L227.1594,294.651" id="Stroke-268" stroke="#39AB47" stroke-width="10.027" stroke-linecap="round" sketch:type="MSShapeGroup"></path>
            <path d="M306.6359,493.0904 L140.9359,518.7374 C139.3849,518.9774 137.9329,517.9144 137.6919,516.3624 L103.3259,294.3244 C103.0849,292.7734 104.1479,291.3204 105.6999,291.0804 L271.3989,265.4334 C272.9499,265.1934 274.4029,266.2564 274.6429,267.8084 L309.0099,489.8464 C309.2499,491.3974 308.1869,492.8504 306.6359,493.0904 L306.6359,493.0904 Z" id="Stroke-272" stroke="#155E36" stroke-width="14.038" stroke-linecap="round" stroke-linejoin="round" sketch:type="MSShapeGroup"></path>
            <path d="M201.2311,390.643 C217.8681,383.517 225.3871,373.975 226.1301,366.522 C225.8331,366.224 225.5561,365.914 225.2311,365.642 C215.9261,357.836 199.3681,363.338 188.2531,377.934 C179.5811,389.323 176.8161,402.865 180.4251,411.9821 C183.1081,405.075 188.8621,395.94 201.2311,390.643" id="Fill-275" fill="#84BF43" sketch:type="MSShapeGroup"></path>
            <path d="M203.5686,396.101 C190.3126,401.778 186.0166,412.6392 184.6526,418.1842 C184.7686,418.2872 184.8636,418.4052 184.9816,418.5062 C194.2926,426.3152 210.8476,420.8122 221.9636,406.215 C230.1766,395.433 233.1016,382.715 230.3256,373.648 C226.5376,382.177 217.0766,390.315 203.5686,396.101" id="Fill-277" fill="#84BF43" sketch:type="MSShapeGroup"></path>
            <path d="M553.3496,608.5282 L54.5066,608.5282 C24.5766,608.5282 0.0876,584.0392 0.0876,554.1092 L0.0876,55.2662 C0.0876,25.3352 24.5766,0.8462 54.5066,0.8462 L553.3496,0.8462 C583.2816,0.8462 607.7696,25.3352 607.7696,55.2662 L607.7696,554.1092 C607.7696,584.0392 583.2816,608.5282 553.3496,608.5282 L553.3496,608.5282 Z" id="Stroke-281" stroke="#254F3D" stroke-width="14.24" stroke-linejoin="round" sketch:type="MSShapeGroup"></path>
        </g>
    </g>
</svg>