<?xml version="1.0" encoding="UTF-8" standalone="no"?>
<svg width="623px" height="623px" viewBox="0 0 623 623" version="1.1" xmlns="http://www.w3.org/2000/svg" xmlns:xlink="http://www.w3.org/1999/xlink" xmlns:sketch="http://www.bohemiancoding.com/sketch/ns">
    <!-- Generator: Sketch 3.4.1 (15681) - http://www.bohemiancoding.com/sketch -->
    <title>Verre plat</title>
    <desc>Created with Sketch.</desc>
    <defs></defs>
    <g id="Page-1" stroke="none" stroke-width="1" fill="none" fill-rule="evenodd" sketch:type="MSPage">
        <g id="Verre-plat" sketch:type="MSLayerGroup" transform="translate(8.000000, 7.000000)">
            <path d="M536.2919,194.306 L312.6109,326.665 L312.6109,304.014 L536.2919,171.655 L536.2919,194.306 Z" id="Fill-1488" fill="#FFFFFF" sketch:type="MSShapeGroup"></path>
            <path d="M536.2919,194.306 L312.6109,326.665 L312.6109,304.014 L536.2919,171.655 L536.2919,194.306 L536.2919,194.306 Z" id="Stroke-1490" stroke="#155E36" stroke-width="14" stroke-linecap="round" stroke-linejoin="round" sketch:type="MSShapeGroup"></path>
            <path d="M122.2001,304.257 L312.5311,304.257 L536.3831,171.244 L346.0521,171.244 L122.2001,304.257 Z" id="Fill-1491" fill="#FFFFFF" sketch:type="MSShapeGroup"></path>
            <path d="M122.2001,304.257 L312.5311,304.257 L536.3831,171.244 L346.0521,171.244 L122.2001,304.257 L122.2001,304.257 Z" id="Stroke-1492" stroke="#155E36" stroke-width="14" stroke-linecap="round" stroke-linejoin="round" sketch:type="MSShapeGroup"></path>
            <path d="M312.541,326.857 L121.642,326.857 L121.642,304.206 L312.541,304.206 L312.541,326.857 Z" id="Fill-1493" fill="#FFFFFF" sketch:type="MSShapeGroup"></path>
            <path d="M312.5408,326.857 L121.6418,326.857 L121.6418,304.206 L312.5408,304.206 L312.5408,326.857 Z" id="Stroke-1494" stroke="#155E36" stroke-width="14" stroke-linecap="round" stroke-linejoin="round" sketch:type="MSShapeGroup"></path>
            <path d="M285.6161,186.551 L285.6161,205.165" id="Stroke-1495" stroke="#155E36" stroke-width="8" stroke-linecap="round" stroke-linejoin="round" sketch:type="MSShapeGroup"></path>
            <path d="M304.7681,212.298 L304.7681,230.982" id="Stroke-1496" stroke="#155E36" stroke-width="8" stroke-linecap="round" stroke-linejoin="round" sketch:type="MSShapeGroup"></path>
            <path d="M245.4363,224.325 L285.6163,205.218" id="Stroke-1497" stroke="#155E36" stroke-width="8" stroke-linecap="round" stroke-linejoin="round" sketch:type="MSShapeGroup"></path>
            <path d="M264.4896,249.665 L304.6696,230.558" id="Stroke-1498" stroke="#155E36" stroke-width="8" stroke-linecap="round" stroke-linejoin="round" sketch:type="MSShapeGroup"></path>
            <path d="M329.6254,252.472 L56.3634,252.472 L158.2504,185.264 L281.4664,185.264 L240.3874,203.693 L300.6554,212.044 L279.2834,225.781 L313.0464,232.692 L329.6254,252.472 Z" id="Fill-1499" fill="#FFFFFF" sketch:type="MSShapeGroup"></path>
            <path d="M329.6254,252.472 L56.3634,252.472 L158.2504,185.264 L281.4664,185.264 L240.3874,203.693 L300.6554,212.044 L279.2834,225.781 L313.0464,232.692 L329.6254,252.472 L329.6254,252.472 Z" id="Stroke-1500" stroke="#155E36" stroke-width="14" stroke-linecap="round" stroke-linejoin="round" sketch:type="MSShapeGroup"></path>
            <path d="M329.681,274.481 L56.259,274.481 L56.259,252.612 L329.681,252.612 L329.681,274.481 Z" id="Fill-1501" fill="#FFFFFF" sketch:type="MSShapeGroup"></path>
            <path d="M329.6808,274.481 L56.2588,274.481 L56.2588,252.612 L329.6808,252.612 L329.6808,274.481 Z" id="Stroke-1502" stroke="#155E36" stroke-width="14" stroke-linecap="round" stroke-linejoin="round" sketch:type="MSShapeGroup"></path>
            <path d="M154.3882,225.246 L205.1482,216.287" id="Stroke-1503" stroke="#85BF42" stroke-width="10" stroke-linecap="round" stroke-linejoin="round" sketch:type="MSShapeGroup"></path>
            <path d="M198.0826,233.499 L248.8426,224.54" id="Stroke-1504" stroke="#85BF42" stroke-width="10" stroke-linecap="round" stroke-linejoin="round" sketch:type="MSShapeGroup"></path>
            <path d="M353.2284,413.1633 L333.3974,408.465 L333.3974,385.814 L353.2284,390.512 L353.2284,413.1633 Z" id="Fill-1505" fill="#FFFFFF" sketch:type="MSShapeGroup"></path>
            <path d="M353.2284,413.1633 L333.3974,408.4653 L333.3974,385.8143 L353.2284,390.5123 L353.2284,413.1633 L353.2284,413.1633 Z" id="Stroke-1506" stroke="#155E36" stroke-width="14" stroke-linecap="round" stroke-linejoin="round" sketch:type="MSShapeGroup"></path>
            <path d="M354.7686,417.1352 L354.7686,398.958 L365.9536,414.8882 L365.9536,432.4142 L354.7686,417.1352 Z" id="Fill-1507" fill="#FFFFFF" sketch:type="MSShapeGroup"></path>
            <path d="M351.7682,389.465 L351.7682,418.1158 L368.9532,441.5908 L368.9532,413.9408 L351.7682,389.465 Z M357.7682,408.452 L362.9532,415.8368 L362.9532,423.2368 L357.7682,416.1538 L357.7682,408.452 Z" id="Fill-1508" fill="#155E36" sketch:type="MSShapeGroup"></path>
            <path d="M355.7422,390.33 L304.8722,385.29 L304.8722,364.639 L355.7422,369.679 L355.7422,390.33 Z" id="Fill-1509" fill="#FFFFFF" sketch:type="MSShapeGroup"></path>
            <path d="M355.7422,390.33 L304.8722,385.29 L304.8722,364.639 L355.7422,369.679 L355.7422,390.33 L355.7422,390.33 Z" id="Stroke-1510" stroke="#155E36" stroke-width="14" stroke-linecap="round" stroke-linejoin="round" sketch:type="MSShapeGroup"></path>
            <path d="M372.4524,414.4344 L393.3584,414.7054 L492.4754,349.744 L338.9854,349.744 L305.2234,364.024 L356.4594,369.309 L333.6544,385.977 L352.9054,390.449 L372.4524,414.4344 Z" id="Fill-1511" fill="#FFFFFF" sketch:type="MSShapeGroup"></path>
            <path d="M372.4524,414.4344 L393.3584,414.7054 L492.4754,349.7444 L338.9854,349.7444 L305.2234,364.0244 L356.4594,369.3094 L333.6544,385.9774 L352.9054,390.4494 L372.4524,414.4344 L372.4524,414.4344 Z" id="Stroke-1512" stroke="#155E36" stroke-width="14" stroke-linecap="round" stroke-linejoin="round" sketch:type="MSShapeGroup"></path>
            <path d="M377.3304,370.018 L396.9674,366.552" id="Stroke-1513" stroke="#85BF42" stroke-width="10" stroke-linecap="round" stroke-linejoin="round" sketch:type="MSShapeGroup"></path>
            <path d="M388.8657,383.529 L408.5027,380.063" id="Stroke-1514" stroke="#85BF42" stroke-width="10" stroke-linecap="round" stroke-linejoin="round" sketch:type="MSShapeGroup"></path>
            <path d="M492.4698,372.133 L395.2948,436.0458 L395.2948,414.3958 L492.4698,350.482 L492.4698,372.133 Z" id="Fill-1515" fill="#FFFFFF" sketch:type="MSShapeGroup"></path>
            <path d="M492.4698,372.133 L395.2948,436.046 L395.2948,414.396 L492.4698,350.482 L492.4698,372.133 L492.4698,372.133 Z" id="Stroke-1516" stroke="#155E36" stroke-width="14" stroke-linecap="round" stroke-linejoin="round" sketch:type="MSShapeGroup"></path>
            <path d="M373.494,436.014 L395.392,436.014 L395.392,414.544 L373.494,414.544 L373.494,436.014 Z" id="Fill-1517" fill="#FFFFFF" sketch:type="MSShapeGroup"></path>
            <path d="M373.4938,436.0144 L395.3918,436.0144 L395.3918,414.5444 L373.4938,414.5444 L373.4938,436.0144 Z" id="Stroke-1518" stroke="#155E36" stroke-width="14" stroke-linecap="round" stroke-linejoin="round" sketch:type="MSShapeGroup"></path>
            <path d="M553.3496,608.5282 L54.5066,608.5282 C24.5766,608.5282 0.0876,584.0392 0.0876,554.1092 L0.0876,55.2662 C0.0876,25.3352 24.5766,0.8462 54.5066,0.8462 L553.3496,0.8462 C583.2816,0.8462 607.7696,25.3352 607.7696,55.2662 L607.7696,554.1092 C607.7696,584.0392 583.2816,608.5282 553.3496,608.5282 L553.3496,608.5282 Z" id="Stroke-1520" stroke="#254F3D" stroke-width="14.24" stroke-linejoin="round" sketch:type="MSShapeGroup"></path>
        </g>
    </g>
</svg>